  0
SECTION
  2
HEADER
  9
$ACADVER
  1
AC1014
  9
$HANDSEED
  5
FFFF
  9
$MEASUREMENT
 70
     1
  0
ENDSEC
  0
SECTION
  2
TABLES
  0
TABLE
  2
VPORT
  5
8
330
0
100
AcDbSymbolTable
 70
     4
  0
VPORT
  5
2E
330
8
100
AcDbSymbolTableRecord
100
AcDbViewportTableRecord
  2
*ACTIVE
 70
     0
 10
0.0
 20
0.0
 11
1.0
 21
1.0
 12
210.0
 22
148.5
 13
0.0
 23
0.0
 14
10.0
 24
10.0
 15
10.0
 25
10.0
 16
0.0
 26
0.0
 36
1.0
 17
0.0
 27
0.0
 37
0.0
 40
341.0
 41
1.24
 42
50.0
 43
0.0
 44
0.0
 50
0.0
 51
0.0
 71
     0
 72
   100
 73
     1
 74
     3
 75
     0
 76
     0
 77
     0
 78
     0
  0
ENDTAB
  0
TABLE
  2
LTYPE
  5
5
330
0
100
AcDbSymbolTable
 70
     1
  0
LTYPE
  5
14
330
5
100
AcDbSymbolTableRecord
100
AcDbLinetypeTableRecord
  2
BYBLOCK
 70
     0
  3

 72
    65
 73
     0
 40
0.0
  0
LTYPE
  5
15
330
5
100
AcDbSymbolTableRecord
100
AcDbLinetypeTableRecord
  2
BYLAYER
 70
     0
  3

 72
    65
 73
     0
 40
0.0
  0
LTYPE
  5
16
330
5
100
AcDbSymbolTableRecord
100
AcDbLinetypeTableRecord
  2
CONTINUOUS
 70
     0
  3
Solid line
 72
    65
 73
     0
 40
0.0
  0
ENDTAB
  0
TABLE
  2
LAYER
  5
2
100
AcDbSymbolTable
 70
2
  0
LAYER
  5
50
100
AcDbSymbolTableRecord
100
AcDbLayerTableRecord
  2
0
 70
0
  6
CONTINUOUS
  0
LAYER
  5
51
100
AcDbSymbolTableRecord
100
AcDbLayerTableRecord
  2
Layer_1
 70
0
  6
CONTINUOUS
  0
ENDTAB
  0
TABLE
  2
STYLE
  5
3
330
0
100
AcDbSymbolTable
 70
     1
  0
STYLE
  5
11
330
3
100
AcDbSymbolTableRecord
100
AcDbTextStyleTableRecord
  2
STANDARD
 70
     0
 40
0.0
 41
1.0
 50
0.0
 71
     0
 42
2.5
  3
txt
  4

  0
ENDTAB
  0
TABLE
  2
VIEW
  5
6
330
0
100
AcDbSymbolTable
 70
     0
  0
ENDTAB
  0
TABLE
  2
UCS
  5
7
330
0
100
AcDbSymbolTable
 70
     0
  0
ENDTAB
  0
TABLE
  2
APPID
  5
9
330
0
100
AcDbSymbolTable
 70
     2
  0
APPID
  5
12
330
9
100
AcDbSymbolTableRecord
100
AcDbRegAppTableRecord
  2
ACAD
 70
     0
  0
ENDTAB
  0
TABLE
  2
DIMSTYLE
  5
A
330
0
100
AcDbSymbolTable
 70
     1
  0
DIMSTYLE
105
27
330
A
100
AcDbSymbolTableRecord
100
AcDbDimStyleTableRecord
  2
ISO-25
 70
     0
  3

  4

  5

  6

  7

 40
1.0
 41
2.5
 42
0.625
 43
3.75
 44
1.25
 45
0.0
 46
0.0
 47
0.0
 48
0.0
140
2.5
141
2.5
142
0.0
143
0.03937007874016
144
1.0
145
0.0
146
1.0
147
0.625
 71
     0
 72
     0
 73
     0
 74
     0
 75
     0
 76
     0
 77
     1
 78
     8
170
     0
171
     3
172
     1
173
     0
174
     0
175
     0
176
     0
177
     0
178
     0
270
     2
271
     2
272
     2
273
     2
274
     3
340
11
275
     0
280
     0
281
     0
282
     0
283
     0
284
     8
285
     0
286
     0
287
     3
288
     0
  0
ENDTAB
  0
TABLE
  2
BLOCK_RECORD
  5
1
330
0
100
AcDbSymbolTable
 70
     1
  0
BLOCK_RECORD
  5
1F
330
1
100
AcDbSymbolTableRecord
100
AcDbBlockTableRecord
  2
*MODEL_SPACE
  0
BLOCK_RECORD
  5
1B
330
1
100
AcDbSymbolTableRecord
100
AcDbBlockTableRecord
  2
*PAPER_SPACE
  0
ENDTAB
  0
ENDSEC
  0
SECTION
  2
BLOCKS
  0
BLOCK
  5
20
330
1F
100
AcDbEntity
  8
0
100
AcDbBlockBegin
  2
*MODEL_SPACE
 70
     0
 10
0.0
 20
0.0
 30
0.0
  3
*MODEL_SPACE
  1

  0
ENDBLK
  5
21
330
1F
100
AcDbEntity
  8
0
100
AcDbBlockEnd
  0
BLOCK
  5
1C
330
1B
100
AcDbEntity
 67
     1
  8
0
100
AcDbBlockBegin
  2
*PAPER_SPACE
  1

  0
ENDBLK
  5
1D
330
1B
100
AcDbEntity
 67
     1
  8
0
100
AcDbBlockEnd
  0
ENDSEC
  0
SECTION
  2
ENTITIES
  0
SPLINE
  5
100
100
AcDbEntity
  8
Layer_1
 62
7
100
AcDbSpline
 70
8
 71
3
 72
8
 73
4
 74
0
 40
0
 40
0
 40
0
 40
0
 40
1
 40
1
 40
1
 40
1
 10
68.084030
 20
4.060394
 30
0.0
 10
64.569538
 20
13.337925
 30
0.0
 10
59.502213
 20
21.577725
 30
0.0
 10
55.988070
 20
23.729235
 30
0.0
  0
SPLINE
  5
101
100
AcDbEntity
  8
Layer_1
 62
7
100
AcDbSpline
 70
8
 71
3
 72
8
 73
4
 74
0
 40
0
 40
0
 40
0
 40
0
 40
1
 40
1
 40
1
 40
1
 10
55.988070
 20
23.729235
 30
0.0
 10
52.868514
 20
25.639155
 30
0.0
 10
49.713559
 20
24.829565
 30
0.0
 10
47.180063
 20
21.469015
 30
0.0
  0
SPLINE
  5
102
100
AcDbEntity
  8
Layer_1
 62
7
100
AcDbSpline
 70
8
 71
3
 72
8
 73
4
 74
0
 40
0
 40
0
 40
0
 40
0
 40
1
 40
1
 40
1
 40
1
 10
47.180063
 20
21.469015
 30
0.0
 10
46.489829
 20
20.553455
 30
0.0
 10
45.680467
 20
19.020115
 30
0.0
 10
45.381480
 20
18.061555
 30
0.0
  0
SPLINE
  5
103
100
AcDbEntity
  8
Layer_1
 62
7
100
AcDbSpline
 70
8
 71
3
 72
8
 73
4
 74
0
 40
0
 40
0
 40
0
 40
0
 40
1
 40
1
 40
1
 40
1
 10
42.784101
 20
18.691745
 30
0.0
 10
40.283724
 20
21.580785
 30
0.0
 10
37.906930
 20
23.636995
 30
0.0
 10
35.613538
 20
24.895115
 30
0.0
  0
SPLINE
  5
104
100
AcDbEntity
  8
Layer_1
 62
7
100
AcDbSpline
 70
8
 71
3
 72
8
 73
4
 74
0
 40
0
 40
0
 40
0
 40
0
 40
1
 40
1
 40
1
 40
1
 10
35.613538
 20
24.895115
 30
0.0
 10
30.506660
 20
27.696705
 30
0.0
 10
24.518912
 20
24.384615
 30
0.0
 10
23.551293
 20
18.222955
 30
0.0
  0
SPLINE
  5
105
100
AcDbEntity
  8
Layer_1
 62
7
100
AcDbSpline
 70
8
 71
3
 72
8
 73
4
 74
0
 40
0
 40
0
 40
0
 40
0
 40
1
 40
1
 40
1
 40
1
 10
23.551293
 20
18.222955
 30
0.0
 10
23.123547
 20
15.499115
 30
0.0
 10
24.242770
 20
11.086714
 30
0.0
 10
26.573705
 20
6.307434
 30
0.0
  0
SPLINE
  5
106
100
AcDbEntity
  8
Layer_1
 62
7
100
AcDbSpline
 70
8
 71
3
 72
8
 73
4
 74
0
 40
0
 40
0
 40
0
 40
0
 40
1
 40
1
 40
1
 40
1
 10
26.573705
 20
6.307434
 30
0.0
 10
27.214726
 20
4.993104
 30
0.0
 10
27.693239
 20
3.856774
 30
0.0
 10
27.637061
 20
3.782264
 30
0.0
  0
SPLINE
  5
107
100
AcDbEntity
  8
Layer_1
 62
7
100
AcDbSpline
 70
8
 71
3
 72
8
 73
4
 74
0
 40
0
 40
0
 40
0
 40
0
 40
1
 40
1
 40
1
 40
1
 10
27.637061
 20
3.782264
 30
0.0
 10
27.433626
 20
3.512394
 30
0.0
 10
22.324539
 20
6.225834
 30
0.0
 10
19.505308
 20
8.101024
 30
0.0
  0
SPLINE
  5
108
100
AcDbEntity
  8
Layer_1
 62
7
100
AcDbSpline
 70
8
 71
3
 72
8
 73
4
 74
0
 40
0
 40
0
 40
0
 40
0
 40
1
 40
1
 40
1
 40
1
 10
19.505308
 20
8.101024
 30
0.0
 10
7.623451
 20
16.004165
 30
0.0
 10
0.958596
 20
27.487385
 30
0.0
 10
0.213520
 20
41.339876
 30
0.0
  0
SPLINE
  5
109
100
AcDbEntity
  8
Layer_1
 62
7
100
AcDbSpline
 70
8
 71
3
 72
8
 73
4
 74
0
 40
0
 40
0
 40
0
 40
0
 40
1
 40
1
 40
1
 40
1
 10
0.213520
 20
41.339876
 30
0.0
 10
-0.378592
 20
52.348456
 30
0.0
 10
4.494011
 20
62.439197
 30
0.0
 10
14.791758
 20
71.530127
 30
0.0
  0
SPLINE
  5
10a
100
AcDbEntity
  8
Layer_1
 62
7
100
AcDbSpline
 70
8
 71
3
 72
8
 73
4
 74
0
 40
0
 40
0
 40
0
 40
0
 40
1
 40
1
 40
1
 40
1
 10
14.791758
 20
71.530127
 30
0.0
 10
17.800736
 20
74.186467
 30
0.0
 10
23.347698
 20
78.048722
 30
0.0
 10
27.709202
 20
80.524314
 30
0.0
  0
SPLINE
  5
10b
100
AcDbEntity
  8
Layer_1
 62
7
100
AcDbSpline
 70
8
 71
3
 72
8
 73
4
 74
0
 40
0
 40
0
 40
0
 40
0
 40
1
 40
1
 40
1
 40
1
 10
27.709202
 20
80.524314
 30
0.0
 10
30.918762
 20
82.346059
 30
0.0
 10
36.782808
 20
85.178647
 30
0.0
 10
38.445861
 20
85.710573
 30
0.0
  0
LWPOLYLINE
  5
10c
100
AcDbEntity
  8
Layer_1
 62
7
100
AcDbPolyline
 90
3
 70
0
 10
45.381480
 20
18.061555
 30
0.0
 10
44.837869
 20
16.318745
 30
0.0
 10
42.784101
 20
18.691745
 30
0.0
  0
SPLINE
  5
10d
100
AcDbEntity
  8
Layer_1
 62
7
100
AcDbSpline
 70
8
 71
3
 72
8
 73
4
 74
0
 40
0
 40
0
 40
0
 40
0
 40
1
 40
1
 40
1
 40
1
 10
38.238087
 20
84.308921
 30
0.0
 10
35.087570
 20
79.209533
 30
0.0
 10
34.654004
 20
73.220087
 30
0.0
 10
36.982771
 20
66.967357
 30
0.0
  0
SPLINE
  5
10e
100
AcDbEntity
  8
Layer_1
 62
7
100
AcDbSpline
 70
8
 71
3
 72
8
 73
4
 74
0
 40
0
 40
0
 40
0
 40
0
 40
1
 40
1
 40
1
 40
1
 10
36.982771
 20
66.967357
 30
0.0
 10
38.348359
 20
63.300767
 30
0.0
 10
40.272210
 20
60.694127
 30
0.0
 10
42.865340
 20
58.997057
 30
0.0
  0
SPLINE
  5
10f
100
AcDbEntity
  8
Layer_1
 62
7
100
AcDbSpline
 70
8
 71
3
 72
8
 73
4
 74
0
 40
0
 40
0
 40
0
 40
0
 40
1
 40
1
 40
1
 40
1
 10
42.865340
 20
58.997057
 30
0.0
 10
44.838611
 20
57.705647
 30
0.0
 10
45.291460
 20
57.564107
 30
0.0
 10
47.885683
 20
57.427897
 30
0.0
  0
SPLINE
  5
110
100
AcDbEntity
  8
Layer_1
 62
7
100
AcDbSpline
 70
8
 71
3
 72
8
 73
4
 74
0
 40
0
 40
0
 40
0
 40
0
 40
1
 40
1
 40
1
 40
1
 10
47.885683
 20
57.427897
 30
0.0
 10
50.953466
 20
57.266837
 30
0.0
 10
53.300078
 20
57.725957
 30
0.0
 10
55.736987
 20
58.964057
 30
0.0
  0
SPLINE
  5
111
100
AcDbEntity
  8
Layer_1
 62
7
100
AcDbSpline
 70
8
 71
3
 72
8
 73
4
 74
0
 40
0
 40
0
 40
0
 40
0
 40
1
 40
1
 40
1
 40
1
 10
55.736987
 20
58.964057
 30
0.0
 10
57.090136
 20
59.651557
 30
0.0
 10
57.338266
 20
59.951777
 30
0.0
 10
57.842756
 20
61.511957
 30
0.0
  0
SPLINE
  5
112
100
AcDbEntity
  8
Layer_1
 62
7
100
AcDbSpline
 70
8
 71
3
 72
8
 73
4
 74
0
 40
0
 40
0
 40
0
 40
0
 40
1
 40
1
 40
1
 40
1
 10
57.842756
 20
61.511957
 30
0.0
 10
58.861305
 20
64.661917
 30
0.0
 10
59.841457
 20
72.388697
 30
0.0
 10
60.628172
 20
83.470040
 30
0.0
  0
SPLINE
  5
113
100
AcDbEntity
  8
Layer_1
 62
7
100
AcDbSpline
 70
8
 71
3
 72
8
 73
4
 74
0
 40
0
 40
0
 40
0
 40
0
 40
1
 40
1
 40
1
 40
1
 10
60.628172
 20
83.470040
 30
0.0
 10
60.880827
 20
87.028826
 30
0.0
 10
61.121955
 20
89.986202
 30
0.0
 10
61.164015
 20
90.041988
 30
0.0
  0
SPLINE
  5
114
100
AcDbEntity
  8
Layer_1
 62
7
100
AcDbSpline
 70
8
 71
3
 72
8
 73
4
 74
0
 40
0
 40
0
 40
0
 40
0
 40
1
 40
1
 40
1
 40
1
 10
61.164015
 20
90.041988
 30
0.0
 10
61.518604
 20
90.512336
 30
0.0
 10
63.772746
 20
85.377077
 30
0.0
 10
65.172980
 20
80.908984
 30
0.0
  0
LWPOLYLINE
  5
115
100
AcDbEntity
  8
Layer_1
 62
7
100
AcDbPolyline
 90
3
 70
0
 10
38.445861
 20
85.710573
 30
0.0
 10
39.266167
 20
85.972948
 30
0.0
 10
38.238087
 20
84.308921
 30
0.0
  0
SPLINE
  5
116
100
AcDbEntity
  8
Layer_1
 62
7
100
AcDbSpline
 70
8
 71
3
 72
8
 73
4
 74
0
 40
0
 40
0
 40
0
 40
0
 40
1
 40
1
 40
1
 40
1
 10
74.107774
 20
82.058870
 30
0.0
 10
74.561556
 20
83.473839
 30
0.0
 10
75.321801
 20
85.574926
 30
0.0
 10
75.797206
 20
86.727948
 30
0.0
  0
SPLINE
  5
117
100
AcDbEntity
  8
Layer_1
 62
7
100
AcDbSpline
 70
8
 71
3
 72
8
 73
4
 74
0
 40
0
 40
0
 40
0
 40
0
 40
1
 40
1
 40
1
 40
1
 10
75.797206
 20
86.727948
 30
0.0
 10
77.390546
 20
90.592318
 30
0.0
 10
78.009525
 20
90.961905
 30
0.0
 10
78.009525
 20
88.048908
 30
0.0
  0
SPLINE
  5
118
100
AcDbEntity
  8
Layer_1
 62
7
100
AcDbSpline
 70
8
 71
3
 72
8
 73
4
 74
0
 40
0
 40
0
 40
0
 40
0
 40
1
 40
1
 40
1
 40
1
 10
78.009525
 20
88.048908
 30
0.0
 10
78.009525
 20
85.015864
 30
0.0
 10
79.182019
 20
72.160497
 30
0.0
 10
79.886176
 20
67.472937
 30
0.0
  0
SPLINE
  5
119
100
AcDbEntity
  8
Layer_1
 62
7
100
AcDbSpline
 70
8
 71
3
 72
8
 73
4
 74
0
 40
0
 40
0
 40
0
 40
0
 40
1
 40
1
 40
1
 40
1
 10
79.886176
 20
67.472937
 30
0.0
 10
80.743186
 20
61.767877
 30
0.0
 10
81.208815
 20
60.249597
 30
0.0
 10
82.338722
 20
59.475837
 30
0.0
  0
SPLINE
  5
11a
100
AcDbEntity
  8
Layer_1
 62
7
100
AcDbSpline
 70
8
 71
3
 72
8
 73
4
 74
0
 40
0
 40
0
 40
0
 40
0
 40
1
 40
1
 40
1
 40
1
 10
82.338722
 20
59.475837
 30
0.0
 10
84.003080
 20
58.336087
 30
0.0
 10
87.512999
 20
57.396097
 30
0.0
 10
90.097312
 20
57.398027
 30
0.0
  0
SPLINE
  5
11b
100
AcDbEntity
  8
Layer_1
 62
7
100
AcDbSpline
 70
8
 71
3
 72
8
 73
4
 74
0
 40
0
 40
0
 40
0
 40
0
 40
1
 40
1
 40
1
 40
1
 10
90.097312
 20
57.398027
 30
0.0
 10
95.917857
 20
57.402027
 30
0.0
 10
99.785096
 20
60.808707
 30
0.0
 10
102.298000
 20
68.144707
 30
0.0
  0
SPLINE
  5
11c
100
AcDbEntity
  8
Layer_1
 62
7
100
AcDbSpline
 70
8
 71
3
 72
8
 73
4
 74
0
 40
0
 40
0
 40
0
 40
0
 40
1
 40
1
 40
1
 40
1
 10
102.298000
 20
68.144707
 30
0.0
 10
104.294614
 20
73.973397
 30
0.0
 10
103.588952
 20
80.064201
 30
0.0
 10
100.383199
 20
84.672398
 30
0.0
  0
LWPOLYLINE
  5
11d
100
AcDbEntity
  8
Layer_1
 62
7
100
AcDbPolyline
 90
5
 70
0
 10
65.172980
 20
80.908984
 30
0.0
 10
65.620686
 20
79.480387
 30
0.0
 10
69.451694
 20
79.483287
 30
0.0
 10
73.282717
 20
79.486187
 30
0.0
 10
74.107774
 20
82.058870
 30
0.0
  0
SPLINE
  5
11e
100
AcDbEntity
  8
Layer_1
 62
7
100
AcDbSpline
 70
8
 71
3
 72
8
 73
4
 74
0
 40
0
 40
0
 40
0
 40
0
 40
1
 40
1
 40
1
 40
1
 10
101.047894
 20
85.549431
 30
0.0
 10
111.114315
 20
81.190692
 30
0.0
 10
117.878905
 20
77.033781
 30
0.0
 10
124.633166
 20
71.056057
 30
0.0
  0
SPLINE
  5
11f
100
AcDbEntity
  8
Layer_1
 62
7
100
AcDbSpline
 70
8
 71
3
 72
8
 73
4
 74
0
 40
0
 40
0
 40
0
 40
0
 40
1
 40
1
 40
1
 40
1
 10
124.633166
 20
71.056057
 30
0.0
 10
132.133806
 20
64.417737
 30
0.0
 10
136.947816
 20
56.531977
 30
0.0
 10
138.255326
 20
48.741806
 30
0.0
  0
SPLINE
  5
120
100
AcDbEntity
  8
Layer_1
 62
7
100
AcDbSpline
 70
8
 71
3
 72
8
 73
4
 74
0
 40
0
 40
0
 40
0
 40
0
 40
1
 40
1
 40
1
 40
1
 10
138.255326
 20
48.741806
 30
0.0
 10
138.832946
 20
45.300316
 30
0.0
 10
138.670996
 20
38.315536
 30
0.0
 10
137.931186
 20
34.761386
 30
0.0
  0
SPLINE
  5
121
100
AcDbEntity
  8
Layer_1
 62
7
100
AcDbSpline
 70
8
 71
3
 72
8
 73
4
 74
0
 40
0
 40
0
 40
0
 40
0
 40
1
 40
1
 40
1
 40
1
 10
137.931186
 20
34.761386
 30
0.0
 10
135.691676
 20
24.002785
 30
0.0
 10
129.053656
 20
14.530775
 30
0.0
 10
119.255785
 20
8.112834
 30
0.0
  0
SPLINE
  5
122
100
AcDbEntity
  8
Layer_1
 62
7
100
AcDbSpline
 70
8
 71
3
 72
8
 73
4
 74
0
 40
0
 40
0
 40
0
 40
0
 40
1
 40
1
 40
1
 40
1
 10
119.255785
 20
8.112834
 30
0.0
 10
115.714165
 20
5.792934
 30
0.0
 10
111.398555
 20
3.496874
 30
0.0
 10
111.163965
 20
3.807694
 30
0.0
  0
SPLINE
  5
123
100
AcDbEntity
  8
Layer_1
 62
7
100
AcDbSpline
 70
8
 71
3
 72
8
 73
4
 74
0
 40
0
 40
0
 40
0
 40
0
 40
1
 40
1
 40
1
 40
1
 10
111.163965
 20
3.807694
 30
0.0
 10
111.104565
 20
3.886494
 30
0.0
 10
111.295455
 20
4.362944
 30
0.0
 10
111.588145
 20
4.866704
 30
0.0
  0
SPLINE
  5
124
100
AcDbEntity
  8
Layer_1
 62
7
100
AcDbSpline
 70
8
 71
3
 72
8
 73
4
 74
0
 40
0
 40
0
 40
0
 40
0
 40
1
 40
1
 40
1
 40
1
 10
111.588145
 20
4.866704
 30
0.0
 10
111.880855
 20
5.370464
 30
0.0
 10
112.575505
 20
6.821934
 30
0.0
 10
113.131865
 20
8.092184
 30
0.0
  0
SPLINE
  5
125
100
AcDbEntity
  8
Layer_1
 62
7
100
AcDbSpline
 70
8
 71
3
 72
8
 73
4
 74
0
 40
0
 40
0
 40
0
 40
0
 40
1
 40
1
 40
1
 40
1
 10
113.131865
 20
8.092184
 30
0.0
 10
116.757895
 20
16.371215
 30
0.0
 10
116.010415
 20
21.733015
 30
0.0
 10
110.776605
 20
24.987245
 30
0.0
  0
SPLINE
  5
126
100
AcDbEntity
  8
Layer_1
 62
7
100
AcDbSpline
 70
8
 71
3
 72
8
 73
4
 74
0
 40
0
 40
0
 40
0
 40
0
 40
1
 40
1
 40
1
 40
1
 10
110.776605
 20
24.987245
 30
0.0
 10
106.788734
 20
27.466795
 30
0.0
 10
101.504552
 20
25.219015
 30
0.0
 10
96.256468
 20
18.810735
 30
0.0
  0
LWPOLYLINE
  5
127
100
AcDbEntity
  8
Layer_1
 62
7
100
AcDbPolyline
 90
3
 70
0
 10
100.383199
 20
84.672398
 30
0.0
 10
99.223524
 20
86.339384
 30
0.0
 10
101.047894
 20
85.549431
 30
0.0
  0
SPLINE
  5
128
100
AcDbEntity
  8
Layer_1
 62
7
100
AcDbSpline
 70
8
 71
3
 72
8
 73
4
 74
0
 40
0
 40
0
 40
0
 40
0
 40
1
 40
1
 40
1
 40
1
 10
93.573475
 20
17.923045
 30
0.0
 10
91.638858
 20
23.719595
 30
0.0
 10
86.783156
 20
26.304175
 30
0.0
 10
82.749069
 20
23.684635
 30
0.0
  0
SPLINE
  5
129
100
AcDbEntity
  8
Layer_1
 62
7
100
AcDbSpline
 70
8
 71
3
 72
8
 73
4
 74
0
 40
0
 40
0
 40
0
 40
0
 40
1
 40
1
 40
1
 40
1
 10
82.749069
 20
23.684635
 30
0.0
 10
79.265496
 20
21.422585
 30
0.0
 10
74.321598
 20
13.328055
 30
0.0
 10
70.880863
 20
4.253094
 30
0.0
  0
LWPOLYLINE
  5
12a
100
AcDbEntity
  8
Layer_1
 62
7
100
AcDbPolyline
 90
3
 70
0
 10
96.256468
 20
18.810735
 30
0.0
 10
94.139825
 20
16.226155
 30
0.0
 10
93.573475
 20
17.923045
 30
0.0
  0
LWPOLYLINE
  5
12b
100
AcDbEntity
  8
Layer_1
 62
7
100
AcDbPolyline
 90
3
 70
0
 10
70.880863
 20
4.253094
 30
0.0
 10
69.445341
 20
0.466914
 30
0.0
 10
68.084030
 20
4.060394
 30
0.0
  0
ENDSEC
  0
SECTION
  2
OBJECTS
  0
DICTIONARY
  5
C
330
0
100
AcDbDictionary
  3
ACAD_GROUP
350
D
  3
ACAD_MLINESTYLE
350
17
  0
DICTIONARY
  5
D
330
C
100
AcDbDictionary
  0
DICTIONARY
  5
1A
330
C
100
AcDbDictionary
  0
DICTIONARY
  5
17
330
C
100
AcDbDictionary
  3
STANDARD
350
18
  0
DICTIONARY
  5
19
330
C
100
AcDbDictionary
  0
ENDSEC
  0
EOF
