<?xml version="1.0" encoding="UTF-8" standalone="no"?>
<!-- Created with Inkscape (http://www.inkscape.org/) -->

<svg
   width="151.9987mm"
   height="101.03304mm"
   viewBox="0 0 151.9987 101.03304"
   version="1.1"
   id="svg5"
   inkscape:version="1.1.1 (3bf5ae0d25, 2021-09-20)"
   sodipodi:docname="BstLogo.svg"
   xmlns:inkscape="http://www.inkscape.org/namespaces/inkscape"
   xmlns:sodipodi="http://sodipodi.sourceforge.net/DTD/sodipodi-0.dtd"
   xmlns="http://www.w3.org/2000/svg"
   xmlns:svg="http://www.w3.org/2000/svg">
  <sodipodi:namedview
     id="namedview7"
     pagecolor="#ffffff"
     bordercolor="#666666"
     borderopacity="1.0"
     inkscape:pageshadow="2"
     inkscape:pageopacity="0.0"
     inkscape:pagecheckerboard="0"
     inkscape:document-units="mm"
     showgrid="false"
     inkscape:zoom="1.0104048"
     inkscape:cx="322.14811"
     inkscape:cy="32.165326"
     inkscape:window-width="1920"
     inkscape:window-height="991"
     inkscape:window-x="-9"
     inkscape:window-y="-9"
     inkscape:window-maximized="1"
     inkscape:current-layer="layer1" />
  <defs
     id="defs2" />
  <g
     inkscape:label="Layer 1"
     inkscape:groupmode="layer"
     id="layer1"
     transform="translate(9.348547,-73.430444)">
    <path
       style="fill:none;stroke:#000000;stroke-width:0.366481;stroke-opacity:1"
       d="m 65.224814,169.91299 c -3.849367,-10.38722 -9.399528,-19.61257 -13.248511,-22.02142 -3.416801,-2.13837 -6.872373,-1.23194 -9.647271,2.53056 -0.756002,1.02507 -1.642483,2.74181 -1.969959,3.81502 l -0.595409,1.95127 -2.249459,-2.65683 c -2.738623,-3.2346 -5.341888,-5.53675 -7.853804,-6.94536 -5.593481,-3.13668 -12.151767,0.57157 -13.211584,7.47022 -0.468504,3.04964 0.757363,7.9898 3.3104,13.34073 0.7021,1.47153 1.226207,2.74378 1.164677,2.8272 -0.22282,0.30215 -5.818721,-2.73584 -8.906581,-4.83532 -13.01400868,-8.84843 -20.3139178,-21.70516 -21.1299878,-37.21453 -0.6485307,-12.32531 4.6883542,-23.623 15.9673124,-33.80129 3.2956854,-2.974064 9.3711844,-7.298286 14.1482704,-10.069981 3.51538,-2.039643 9.938176,-5.211036 11.759691,-5.806585 l 0.898469,-0.293758 -1.12604,1.863061 C 29.084317,85.7753 28.609439,92.48114 31.1601,99.481751 c 1.495707,4.105159 3.60287,7.023569 6.443085,8.923629 2.161292,1.44587 2.65729,1.60434 5.498702,1.75685 3.360094,0.18032 5.930301,-0.33372 8.599408,-1.7199 1.482082,-0.76973 1.753855,-1.10586 2.306415,-2.85266 1.1156,-3.52672 2.189145,-12.177703 3.050821,-24.584474 0.27673,-3.984451 0.540833,-7.295557 0.586901,-7.358016 0.388375,-0.526606 2.857302,5.222879 4.390956,10.225398 l 0.490365,1.599471 4.196042,-0.0032 4.196059,-0.0032 0.903672,-2.880401 c 0.49702,-1.584213 1.329704,-3.93661 1.850408,-5.227544 1.74516,-4.326585 2.423117,-4.740378 2.423117,-1.478959 0,3.395824 1.284213,17.788806 2.055466,23.037044 0.938669,6.387441 1.448665,8.087321 2.686234,8.953631 1.822945,1.27608 5.667304,2.3285 8.497861,2.32634 6.37515,-0.005 10.610876,-3.81863 13.363218,-12.032086 2.18686,-6.525853 1.41396,-13.345176 -2.09725,-18.504557 l -1.270173,-1.866373 1.998203,0.884439 c 11.02559,4.880085 18.43474,9.534201 25.83257,16.226918 8.21533,7.432319 13.48804,16.261299 14.92014,24.983239 0.63266,3.85313 0.45527,11.67335 -0.35503,15.65262 -2.4529,12.04543 -9.72341,22.65038 -20.45487,29.83597 -3.87908,2.59738 -8.6059,5.16807 -8.86284,4.82007 -0.0651,-0.0882 0.14402,-0.62166 0.4646,-1.18568 0.3206,-0.56401 1.08144,-2.18909 1.69081,-3.61127 3.97153,-9.26928 3.15283,-15.27241 -2.57968,-18.91588 -4.36785,-2.77612 -10.15553,-0.25949 -15.903673,6.91529 l -2.318325,2.89372 -0.620314,-1.89986 c -2.118956,-6.48987 -7.437329,-9.38359 -11.8558,-6.45073 -3.815503,2.53261 -9.230474,11.59533 -12.999057,21.75574 l -1.572304,4.23904 z"
       id="path21" />
  </g>
</svg>
