  0
SECTION
  2
HEADER
  9
$ACADVER
  1
AC1014
  9
$HANDSEED
  5
FFFF
  9
$MEASUREMENT
 70
     1
  0
ENDSEC
  0
SECTION
  2
TABLES
  0
TABLE
  2
VPORT
  5
8
330
0
100
AcDbSymbolTable
 70
     4
  0
VPORT
  5
2E
330
8
100
AcDbSymbolTableRecord
100
AcDbViewportTableRecord
  2
*ACTIVE
 70
     0
 10
0.0
 20
0.0
 11
1.0
 21
1.0
 12
210.0
 22
148.5
 13
0.0
 23
0.0
 14
10.0
 24
10.0
 15
10.0
 25
10.0
 16
0.0
 26
0.0
 36
1.0
 17
0.0
 27
0.0
 37
0.0
 40
341.0
 41
1.24
 42
50.0
 43
0.0
 44
0.0
 50
0.0
 51
0.0
 71
     0
 72
   100
 73
     1
 74
     3
 75
     0
 76
     0
 77
     0
 78
     0
  0
ENDTAB
  0
TABLE
  2
LTYPE
  5
5
330
0
100
AcDbSymbolTable
 70
     1
  0
LTYPE
  5
14
330
5
100
AcDbSymbolTableRecord
100
AcDbLinetypeTableRecord
  2
BYBLOCK
 70
     0
  3

 72
    65
 73
     0
 40
0.0
  0
LTYPE
  5
15
330
5
100
AcDbSymbolTableRecord
100
AcDbLinetypeTableRecord
  2
BYLAYER
 70
     0
  3

 72
    65
 73
     0
 40
0.0
  0
LTYPE
  5
16
330
5
100
AcDbSymbolTableRecord
100
AcDbLinetypeTableRecord
  2
CONTINUOUS
 70
     0
  3
Solid line
 72
    65
 73
     0
 40
0.0
  0
ENDTAB
  0
TABLE
  2
LAYER
  5
2
100
AcDbSymbolTable
 70
2
  0
LAYER
  5
50
100
AcDbSymbolTableRecord
100
AcDbLayerTableRecord
  2
0
 70
0
  6
CONTINUOUS
  0
LAYER
  5
51
100
AcDbSymbolTableRecord
100
AcDbLayerTableRecord
  2
Layer_1
 70
0
  6
CONTINUOUS
  0
ENDTAB
  0
TABLE
  2
STYLE
  5
3
330
0
100
AcDbSymbolTable
 70
     1
  0
STYLE
  5
11
330
3
100
AcDbSymbolTableRecord
100
AcDbTextStyleTableRecord
  2
STANDARD
 70
     0
 40
0.0
 41
1.0
 50
0.0
 71
     0
 42
2.5
  3
txt
  4

  0
ENDTAB
  0
TABLE
  2
VIEW
  5
6
330
0
100
AcDbSymbolTable
 70
     0
  0
ENDTAB
  0
TABLE
  2
UCS
  5
7
330
0
100
AcDbSymbolTable
 70
     0
  0
ENDTAB
  0
TABLE
  2
APPID
  5
9
330
0
100
AcDbSymbolTable
 70
     2
  0
APPID
  5
12
330
9
100
AcDbSymbolTableRecord
100
AcDbRegAppTableRecord
  2
ACAD
 70
     0
  0
ENDTAB
  0
TABLE
  2
DIMSTYLE
  5
A
330
0
100
AcDbSymbolTable
 70
     1
  0
DIMSTYLE
105
27
330
A
100
AcDbSymbolTableRecord
100
AcDbDimStyleTableRecord
  2
ISO-25
 70
     0
  3

  4

  5

  6

  7

 40
1.0
 41
2.5
 42
0.625
 43
3.75
 44
1.25
 45
0.0
 46
0.0
 47
0.0
 48
0.0
140
2.5
141
2.5
142
0.0
143
0.03937007874016
144
1.0
145
0.0
146
1.0
147
0.625
 71
     0
 72
     0
 73
     0
 74
     0
 75
     0
 76
     0
 77
     1
 78
     8
170
     0
171
     3
172
     1
173
     0
174
     0
175
     0
176
     0
177
     0
178
     0
270
     2
271
     2
272
     2
273
     2
274
     3
340
11
275
     0
280
     0
281
     0
282
     0
283
     0
284
     8
285
     0
286
     0
287
     3
288
     0
  0
ENDTAB
  0
TABLE
  2
BLOCK_RECORD
  5
1
330
0
100
AcDbSymbolTable
 70
     1
  0
BLOCK_RECORD
  5
1F
330
1
100
AcDbSymbolTableRecord
100
AcDbBlockTableRecord
  2
*MODEL_SPACE
  0
BLOCK_RECORD
  5
1B
330
1
100
AcDbSymbolTableRecord
100
AcDbBlockTableRecord
  2
*PAPER_SPACE
  0
ENDTAB
  0
ENDSEC
  0
SECTION
  2
BLOCKS
  0
BLOCK
  5
20
330
1F
100
AcDbEntity
  8
0
100
AcDbBlockBegin
  2
*MODEL_SPACE
 70
     0
 10
0.0
 20
0.0
 30
0.0
  3
*MODEL_SPACE
  1

  0
ENDBLK
  5
21
330
1F
100
AcDbEntity
  8
0
100
AcDbBlockEnd
  0
BLOCK
  5
1C
330
1B
100
AcDbEntity
 67
     1
  8
0
100
AcDbBlockBegin
  2
*PAPER_SPACE
  1

  0
ENDBLK
  5
1D
330
1B
100
AcDbEntity
 67
     1
  8
0
100
AcDbBlockEnd
  0
ENDSEC
  0
SECTION
  2
ENTITIES
  0
SPLINE
  5
100
100
AcDbEntity
  8
Layer_1
 62
7
100
AcDbSpline
 70
8
 71
3
 72
8
 73
4
 74
0
 40
0
 40
0
 40
0
 40
0
 40
1
 40
1
 40
1
 40
1
 10
74.573394
 20
4.550452
 30
0.0
 10
70.724025
 20
14.937676
 30
0.0
 10
65.173862
 20
24.163030
 30
0.0
 10
61.324877
 20
26.571881
 30
0.0
  0
SPLINE
  5
101
100
AcDbEntity
  8
Layer_1
 62
7
100
AcDbSpline
 70
8
 71
3
 72
8
 73
4
 74
0
 40
0
 40
0
 40
0
 40
0
 40
1
 40
1
 40
1
 40
1
 10
61.324877
 20
26.571881
 30
0.0
 10
57.908075
 20
28.710251
 30
0.0
 10
54.452502
 20
27.803821
 30
0.0
 10
51.677602
 20
24.041320
 30
0.0
  0
SPLINE
  5
102
100
AcDbEntity
  8
Layer_1
 62
7
100
AcDbSpline
 70
8
 71
3
 72
8
 73
4
 74
0
 40
0
 40
0
 40
0
 40
0
 40
1
 40
1
 40
1
 40
1
 10
51.677602
 20
24.041320
 30
0.0
 10
50.921600
 20
23.016249
 30
0.0
 10
50.035119
 20
21.299508
 30
0.0
 10
49.707643
 20
20.226298
 30
0.0
  0
SPLINE
  5
103
100
AcDbEntity
  8
Layer_1
 62
7
100
AcDbSpline
 70
8
 71
3
 72
8
 73
4
 74
0
 40
0
 40
0
 40
0
 40
0
 40
1
 40
1
 40
1
 40
1
 10
46.862774
 20
20.931858
 30
0.0
 10
44.124149
 20
24.166460
 30
0.0
 10
41.520883
 20
26.468610
 30
0.0
 10
39.008966
 20
27.877221
 30
0.0
  0
SPLINE
  5
104
100
AcDbEntity
  8
Layer_1
 62
7
100
AcDbSpline
 70
8
 71
3
 72
8
 73
4
 74
0
 40
0
 40
0
 40
0
 40
0
 40
1
 40
1
 40
1
 40
1
 10
39.008966
 20
27.877221
 30
0.0
 10
33.415483
 20
31.013902
 30
0.0
 10
26.857195
 20
27.305651
 30
0.0
 10
25.797377
 20
20.406998
 30
0.0
  0
SPLINE
  5
105
100
AcDbEntity
  8
Layer_1
 62
7
100
AcDbSpline
 70
8
 71
3
 72
8
 73
4
 74
0
 40
0
 40
0
 40
0
 40
0
 40
1
 40
1
 40
1
 40
1
 10
25.797377
 20
20.406998
 30
0.0
 10
25.328873
 20
17.357357
 30
0.0
 10
26.554741
 20
12.417195
 30
0.0
 10
29.107779
 20
7.066263
 30
0.0
  0
SPLINE
  5
106
100
AcDbEntity
  8
Layer_1
 62
7
100
AcDbSpline
 70
8
 71
3
 72
8
 73
4
 74
0
 40
0
 40
0
 40
0
 40
0
 40
1
 40
1
 40
1
 40
1
 10
29.107779
 20
7.066263
 30
0.0
 10
29.809879
 20
5.594732
 30
0.0
 10
30.333986
 20
4.322482
 30
0.0
 10
30.272456
 20
4.239062
 30
0.0
  0
SPLINE
  5
107
100
AcDbEntity
  8
Layer_1
 62
7
100
AcDbSpline
 70
8
 71
3
 72
8
 73
4
 74
0
 40
0
 40
0
 40
0
 40
0
 40
1
 40
1
 40
1
 40
1
 10
30.272456
 20
4.239062
 30
0.0
 10
30.049636
 20
3.936912
 30
0.0
 10
24.453733
 20
6.974903
 30
0.0
 10
21.365871
 20
9.074384
 30
0.0
  0
SPLINE
  5
108
100
AcDbEntity
  8
Layer_1
 62
7
100
AcDbSpline
 70
8
 71
3
 72
8
 73
4
 74
0
 40
0
 40
0
 40
0
 40
0
 40
1
 40
1
 40
1
 40
1
 10
21.365871
 20
9.074384
 30
0.0
 10
8.351858
 20
17.922817
 30
0.0
 10
1.051946
 20
30.779552
 30
0.0
 10
0.235875
 20
46.288928
 30
0.0
  0
SPLINE
  5
109
100
AcDbEntity
  8
Layer_1
 62
7
100
AcDbSpline
 70
8
 71
3
 72
8
 73
4
 74
0
 40
0
 40
0
 40
0
 40
0
 40
1
 40
1
 40
1
 40
1
 10
0.235875
 20
46.288928
 30
0.0
 10
-0.412656
 20
58.614243
 30
0.0
 10
4.924231
 20
69.911938
 30
0.0
 10
16.203194
 20
80.090232
 30
0.0
  0
SPLINE
  5
10a
100
AcDbEntity
  8
Layer_1
 62
7
100
AcDbSpline
 70
8
 71
3
 72
8
 73
4
 74
0
 40
0
 40
0
 40
0
 40
0
 40
1
 40
1
 40
1
 40
1
 10
16.203194
 20
80.090232
 30
0.0
 10
19.498881
 20
83.064297
 30
0.0
 10
25.574382
 20
87.388521
 30
0.0
 10
30.351470
 20
90.160217
 30
0.0
  0
SPLINE
  5
10b
100
AcDbEntity
  8
Layer_1
 62
7
100
AcDbSpline
 70
8
 71
3
 72
8
 73
4
 74
0
 40
0
 40
0
 40
0
 40
0
 40
1
 40
1
 40
1
 40
1
 10
30.351470
 20
90.160217
 30
0.0
 10
33.866851
 20
92.199861
 30
0.0
 10
40.289650
 20
95.371255
 30
0.0
 10
42.111166
 20
95.966804
 30
0.0
  0
LWPOLYLINE
  5
10c
100
AcDbEntity
  8
Layer_1
 62
7
100
AcDbPolyline
 90
3
 70
0
 10
49.707643
 20
20.226298
 30
0.0
 10
49.112233
 20
18.275027
 30
0.0
 10
46.862774
 20
20.931858
 30
0.0
  0
SPLINE
  5
10d
100
AcDbEntity
  8
Layer_1
 62
7
100
AcDbSpline
 70
8
 71
3
 72
8
 73
4
 74
0
 40
0
 40
0
 40
0
 40
0
 40
1
 40
1
 40
1
 40
1
 10
41.883595
 20
94.397500
 30
0.0
 10
38.432882
 20
88.688175
 30
0.0
 10
37.958004
 20
81.982332
 30
0.0
 10
40.508666
 20
74.981719
 30
0.0
  0
SPLINE
  5
10e
100
AcDbEntity
  8
Layer_1
 62
7
100
AcDbSpline
 70
8
 71
3
 72
8
 73
4
 74
0
 40
0
 40
0
 40
0
 40
0
 40
1
 40
1
 40
1
 40
1
 10
40.508666
 20
74.981719
 30
0.0
 10
42.004374
 20
70.876558
 30
0.0
 10
44.111537
 20
67.958147
 30
0.0
 10
46.951754
 20
66.058086
 30
0.0
  0
SPLINE
  5
10f
100
AcDbEntity
  8
Layer_1
 62
7
100
AcDbSpline
 70
8
 71
3
 72
8
 73
4
 74
0
 40
0
 40
0
 40
0
 40
0
 40
1
 40
1
 40
1
 40
1
 10
46.951754
 20
66.058086
 30
0.0
 10
49.113046
 20
64.612216
 30
0.0
 10
49.609045
 20
64.453746
 30
0.0
 10
52.450458
 20
64.301235
 30
0.0
  0
SPLINE
  5
110
100
AcDbEntity
  8
Layer_1
 62
7
100
AcDbSpline
 70
8
 71
3
 72
8
 73
4
 74
0
 40
0
 40
0
 40
0
 40
0
 40
1
 40
1
 40
1
 40
1
 10
52.450458
 20
64.301235
 30
0.0
 10
55.810553
 20
64.120915
 30
0.0
 10
58.380761
 20
64.634956
 30
0.0
 10
61.049869
 20
66.021136
 30
0.0
  0
SPLINE
  5
111
100
AcDbEntity
  8
Layer_1
 62
7
100
AcDbSpline
 70
8
 71
3
 72
8
 73
4
 74
0
 40
0
 40
0
 40
0
 40
0
 40
1
 40
1
 40
1
 40
1
 10
61.049869
 20
66.021136
 30
0.0
 10
62.531952
 20
66.790866
 30
0.0
 10
62.803725
 20
67.126997
 30
0.0
 10
63.356285
 20
68.873797
 30
0.0
  0
SPLINE
  5
112
100
AcDbEntity
  8
Layer_1
 62
7
100
AcDbSpline
 70
8
 71
3
 72
8
 73
4
 74
0
 40
0
 40
0
 40
0
 40
0
 40
1
 40
1
 40
1
 40
1
 10
63.356285
 20
68.873797
 30
0.0
 10
64.471886
 20
72.400519
 30
0.0
 10
65.545431
 20
81.051505
 30
0.0
 10
66.407107
 20
93.458281
 30
0.0
  0
SPLINE
  5
113
100
AcDbEntity
  8
Layer_1
 62
7
100
AcDbSpline
 70
8
 71
3
 72
8
 73
4
 74
0
 40
0
 40
0
 40
0
 40
0
 40
1
 40
1
 40
1
 40
1
 10
66.407107
 20
93.458281
 30
0.0
 10
66.683837
 20
97.442734
 30
0.0
 10
66.947941
 20
100.753841
 30
0.0
 10
66.994009
 20
100.816300
 30
0.0
  0
SPLINE
  5
114
100
AcDbEntity
  8
Layer_1
 62
7
100
AcDbSpline
 70
8
 71
3
 72
8
 73
4
 74
0
 40
0
 40
0
 40
0
 40
0
 40
1
 40
1
 40
1
 40
1
 10
66.994009
 20
100.816300
 30
0.0
 10
67.382384
 20
101.342906
 30
0.0
 10
69.851312
 20
95.593419
 30
0.0
 10
71.384966
 20
90.590898
 30
0.0
  0
LWPOLYLINE
  5
115
100
AcDbEntity
  8
Layer_1
 62
7
100
AcDbPolyline
 90
3
 70
0
 10
42.111166
 20
95.966804
 30
0.0
 10
43.009635
 20
96.260562
 30
0.0
 10
41.883595
 20
94.397500
 30
0.0
  0
SPLINE
  5
116
100
AcDbEntity
  8
Layer_1
 62
7
100
AcDbSpline
 70
8
 71
3
 72
8
 73
4
 74
0
 40
0
 40
0
 40
0
 40
0
 40
1
 40
1
 40
1
 40
1
 10
81.171108
 20
91.878228
 30
0.0
 10
81.668128
 20
93.462442
 30
0.0
 10
82.500813
 20
95.814840
 30
0.0
 10
83.021517
 20
97.105774
 30
0.0
  0
SPLINE
  5
117
100
AcDbEntity
  8
Layer_1
 62
7
100
AcDbSpline
 70
8
 71
3
 72
8
 73
4
 74
0
 40
0
 40
0
 40
0
 40
0
 40
1
 40
1
 40
1
 40
1
 10
83.021517
 20
97.105774
 30
0.0
 10
84.766678
 20
101.432361
 30
0.0
 10
85.444635
 20
101.846154
 30
0.0
 10
85.444635
 20
98.584734
 30
0.0
  0
SPLINE
  5
118
100
AcDbEntity
  8
Layer_1
 62
7
100
AcDbSpline
 70
8
 71
3
 72
8
 73
4
 74
0
 40
0
 40
0
 40
0
 40
0
 40
1
 40
1
 40
1
 40
1
 10
85.444635
 20
98.584734
 30
0.0
 10
85.444635
 20
95.188909
 30
0.0
 10
86.728848
 20
80.795921
 30
0.0
 10
87.500102
 20
75.547681
 30
0.0
  0
SPLINE
  5
119
100
AcDbEntity
  8
Layer_1
 62
7
100
AcDbSpline
 70
8
 71
3
 72
8
 73
4
 74
0
 40
0
 40
0
 40
0
 40
0
 40
1
 40
1
 40
1
 40
1
 10
87.500102
 20
75.547681
 30
0.0
 10
88.438771
 20
69.160237
 30
0.0
 10
88.948767
 20
67.460357
 30
0.0
 10
90.186337
 20
66.594046
 30
0.0
  0
SPLINE
  5
11a
100
AcDbEntity
  8
Layer_1
 62
7
100
AcDbSpline
 70
8
 71
3
 72
8
 73
4
 74
0
 40
0
 40
0
 40
0
 40
0
 40
1
 40
1
 40
1
 40
1
 10
90.186337
 20
66.594046
 30
0.0
 10
92.009282
 20
65.317966
 30
0.0
 10
95.853643
 20
64.265545
 30
0.0
 10
98.684201
 20
64.267705
 30
0.0
  0
SPLINE
  5
11b
100
AcDbEntity
  8
Layer_1
 62
7
100
AcDbSpline
 70
8
 71
3
 72
8
 73
4
 74
0
 40
0
 40
0
 40
0
 40
0
 40
1
 40
1
 40
1
 40
1
 10
98.684201
 20
64.267705
 30
0.0
 10
105.059354
 20
64.272705
 30
0.0
 10
109.295081
 20
68.086337
 30
0.0
 10
112.047424
 20
76.299796
 30
0.0
  0
SPLINE
  5
11c
100
AcDbEntity
  8
Layer_1
 62
7
100
AcDbSpline
 70
8
 71
3
 72
8
 73
4
 74
0
 40
0
 40
0
 40
0
 40
0
 40
1
 40
1
 40
1
 40
1
 10
112.047424
 20
76.299796
 30
0.0
 10
114.234285
 20
82.825652
 30
0.0
 10
113.461385
 20
89.644977
 30
0.0
 10
109.950174
 20
94.804361
 30
0.0
  0
LWPOLYLINE
  5
11d
100
AcDbEntity
  8
Layer_1
 62
7
100
AcDbPolyline
 90
5
 70
0
 10
71.384966
 20
90.590898
 30
0.0
 10
71.875331
 20
88.991426
 30
0.0
 10
76.071375
 20
88.994626
 30
0.0
 10
80.267436
 20
88.997826
 30
0.0
 10
81.171108
 20
91.878228
 30
0.0
  0
SPLINE
  5
11e
100
AcDbEntity
  8
Layer_1
 62
7
100
AcDbSpline
 70
8
 71
3
 72
8
 73
4
 74
0
 40
0
 40
0
 40
0
 40
0
 40
1
 40
1
 40
1
 40
1
 10
110.678204
 20
95.786295
 30
0.0
 10
121.703798
 20
90.906208
 30
0.0
 10
129.112951
 20
86.252090
 30
0.0
 10
136.510784
 20
79.559370
 30
0.0
  0
SPLINE
  5
11f
100
AcDbEntity
  8
Layer_1
 62
7
100
AcDbSpline
 70
8
 71
3
 72
8
 73
4
 74
0
 40
0
 40
0
 40
0
 40
0
 40
1
 40
1
 40
1
 40
1
 10
136.510784
 20
79.559370
 30
0.0
 10
144.726117
 20
72.127049
 30
0.0
 10
149.998829
 20
63.298065
 30
0.0
 10
151.430930
 20
54.576122
 30
0.0
  0
SPLINE
  5
120
100
AcDbEntity
  8
Layer_1
 62
7
100
AcDbSpline
 70
8
 71
3
 72
8
 73
4
 74
0
 40
0
 40
0
 40
0
 40
0
 40
1
 40
1
 40
1
 40
1
 10
151.430930
 20
54.576122
 30
0.0
 10
152.063590
 20
50.722990
 30
0.0
 10
151.886200
 20
42.902767
 30
0.0
 10
151.075900
 20
38.923495
 30
0.0
  0
SPLINE
  5
121
100
AcDbEntity
  8
Layer_1
 62
7
100
AcDbSpline
 70
8
 71
3
 72
8
 73
4
 74
0
 40
0
 40
0
 40
0
 40
0
 40
1
 40
1
 40
1
 40
1
 10
151.075900
 20
38.923495
 30
0.0
 10
148.622999
 20
26.878061
 30
0.0
 10
141.352486
 20
16.273106
 30
0.0
 10
130.621022
 20
9.087514
 30
0.0
  0
SPLINE
  5
122
100
AcDbEntity
  8
Layer_1
 62
7
100
AcDbSpline
 70
8
 71
3
 72
8
 73
4
 74
0
 40
0
 40
0
 40
0
 40
0
 40
1
 40
1
 40
1
 40
1
 10
130.621022
 20
9.087514
 30
0.0
 10
126.741940
 20
6.490133
 30
0.0
 10
122.015118
 20
3.919442
 30
0.0
 10
121.758178
 20
4.267442
 30
0.0
  0
SPLINE
  5
123
100
AcDbEntity
  8
Layer_1
 62
7
100
AcDbSpline
 70
8
 71
3
 72
8
 73
4
 74
0
 40
0
 40
0
 40
0
 40
0
 40
1
 40
1
 40
1
 40
1
 10
121.758178
 20
4.267442
 30
0.0
 10
121.693078
 20
4.355642
 30
0.0
 10
121.902198
 20
4.889102
 30
0.0
 10
122.222778
 20
5.453122
 30
0.0
  0
SPLINE
  5
124
100
AcDbEntity
  8
Layer_1
 62
7
100
AcDbSpline
 70
8
 71
3
 72
8
 73
4
 74
0
 40
0
 40
0
 40
0
 40
0
 40
1
 40
1
 40
1
 40
1
 10
122.222778
 20
5.453122
 30
0.0
 10
122.543379
 20
6.017132
 30
0.0
 10
123.304219
 20
7.642213
 30
0.0
 10
123.913589
 20
9.064394
 30
0.0
  0
SPLINE
  5
125
100
AcDbEntity
  8
Layer_1
 62
7
100
AcDbSpline
 70
8
 71
3
 72
8
 73
4
 74
0
 40
0
 40
0
 40
0
 40
0
 40
1
 40
1
 40
1
 40
1
 10
123.913589
 20
9.064394
 30
0.0
 10
127.885121
 20
18.333677
 30
0.0
 10
127.066420
 20
24.336810
 30
0.0
 10
121.333908
 20
27.980281
 30
0.0
  0
SPLINE
  5
126
100
AcDbEntity
  8
Layer_1
 62
7
100
AcDbSpline
 70
8
 71
3
 72
8
 73
4
 74
0
 40
0
 40
0
 40
0
 40
0
 40
1
 40
1
 40
1
 40
1
 10
121.333908
 20
27.980281
 30
0.0
 10
116.966056
 20
30.756402
 30
0.0
 10
111.178374
 20
28.239771
 30
0.0
 10
105.430229
 20
21.064988
 30
0.0
  0
LWPOLYLINE
  5
127
100
AcDbEntity
  8
Layer_1
 62
7
100
AcDbPolyline
 90
3
 70
0
 10
109.950174
 20
94.804361
 30
0.0
 10
108.680000
 20
96.670734
 30
0.0
 10
110.678204
 20
95.786295
 30
0.0
  0
SPLINE
  5
128
100
AcDbEntity
  8
Layer_1
 62
7
100
AcDbSpline
 70
8
 71
3
 72
8
 73
4
 74
0
 40
0
 40
0
 40
0
 40
0
 40
1
 40
1
 40
1
 40
1
 10
102.491589
 20
20.071128
 30
0.0
 10
100.372632
 20
26.561001
 30
0.0
 10
95.054257
 20
29.454722
 30
0.0
 10
90.635784
 20
26.521861
 30
0.0
  0
SPLINE
  5
129
100
AcDbEntity
  8
Layer_1
 62
7
100
AcDbSpline
 70
8
 71
3
 72
8
 73
4
 74
0
 40
0
 40
0
 40
0
 40
0
 40
1
 40
1
 40
1
 40
1
 10
90.635784
 20
26.521861
 30
0.0
 10
86.820279
 20
23.989249
 30
0.0
 10
81.405306
 20
14.926526
 30
0.0
 10
77.636722
 20
4.766112
 30
0.0
  0
LWPOLYLINE
  5
12a
100
AcDbEntity
  8
Layer_1
 62
7
100
AcDbPolyline
 90
3
 70
0
 10
105.430229
 20
21.064988
 30
0.0
 10
103.111903
 20
18.171267
 30
0.0
 10
102.491589
 20
20.071128
 30
0.0
  0
LWPOLYLINE
  5
12b
100
AcDbEntity
  8
Layer_1
 62
7
100
AcDbPolyline
 90
3
 70
0
 10
77.636722
 20
4.766112
 30
0.0
 10
76.064417
 20
0.527070
 30
0.0
 10
74.573394
 20
4.550452
 30
0.0
  0
ENDSEC
  0
SECTION
  2
OBJECTS
  0
DICTIONARY
  5
C
330
0
100
AcDbDictionary
  3
ACAD_GROUP
350
D
  3
ACAD_MLINESTYLE
350
17
  0
DICTIONARY
  5
D
330
C
100
AcDbDictionary
  0
DICTIONARY
  5
1A
330
C
100
AcDbDictionary
  0
DICTIONARY
  5
17
330
C
100
AcDbDictionary
  3
STANDARD
350
18
  0
DICTIONARY
  5
19
330
C
100
AcDbDictionary
  0
ENDSEC
  0
EOF
