  0
SECTION
  2
HEADER
  9
$ACADVER
  1
AC1014
  9
$HANDSEED
  5
FFFF
  9
$MEASUREMENT
 70
     1
  0
ENDSEC
  0
SECTION
  2
TABLES
  0
TABLE
  2
VPORT
  5
8
330
0
100
AcDbSymbolTable
 70
     4
  0
VPORT
  5
2E
330
8
100
AcDbSymbolTableRecord
100
AcDbViewportTableRecord
  2
*ACTIVE
 70
     0
 10
0.0
 20
0.0
 11
1.0
 21
1.0
 12
210.0
 22
148.5
 13
0.0
 23
0.0
 14
10.0
 24
10.0
 15
10.0
 25
10.0
 16
0.0
 26
0.0
 36
1.0
 17
0.0
 27
0.0
 37
0.0
 40
341.0
 41
1.24
 42
50.0
 43
0.0
 44
0.0
 50
0.0
 51
0.0
 71
     0
 72
   100
 73
     1
 74
     3
 75
     0
 76
     0
 77
     0
 78
     0
  0
ENDTAB
  0
TABLE
  2
LTYPE
  5
5
330
0
100
AcDbSymbolTable
 70
     1
  0
LTYPE
  5
14
330
5
100
AcDbSymbolTableRecord
100
AcDbLinetypeTableRecord
  2
BYBLOCK
 70
     0
  3

 72
    65
 73
     0
 40
0.0
  0
LTYPE
  5
15
330
5
100
AcDbSymbolTableRecord
100
AcDbLinetypeTableRecord
  2
BYLAYER
 70
     0
  3

 72
    65
 73
     0
 40
0.0
  0
LTYPE
  5
16
330
5
100
AcDbSymbolTableRecord
100
AcDbLinetypeTableRecord
  2
CONTINUOUS
 70
     0
  3
Solid line
 72
    65
 73
     0
 40
0.0
  0
ENDTAB
  0
TABLE
  2
LAYER
  5
2
100
AcDbSymbolTable
 70
2
  0
LAYER
  5
50
100
AcDbSymbolTableRecord
100
AcDbLayerTableRecord
  2
0
 70
0
  6
CONTINUOUS
  0
LAYER
  5
51
100
AcDbSymbolTableRecord
100
AcDbLayerTableRecord
  2
Layer_1
 70
0
  6
CONTINUOUS
  0
ENDTAB
  0
TABLE
  2
STYLE
  5
3
330
0
100
AcDbSymbolTable
 70
     1
  0
STYLE
  5
11
330
3
100
AcDbSymbolTableRecord
100
AcDbTextStyleTableRecord
  2
STANDARD
 70
     0
 40
0.0
 41
1.0
 50
0.0
 71
     0
 42
2.5
  3
txt
  4

  0
ENDTAB
  0
TABLE
  2
VIEW
  5
6
330
0
100
AcDbSymbolTable
 70
     0
  0
ENDTAB
  0
TABLE
  2
UCS
  5
7
330
0
100
AcDbSymbolTable
 70
     0
  0
ENDTAB
  0
TABLE
  2
APPID
  5
9
330
0
100
AcDbSymbolTable
 70
     2
  0
APPID
  5
12
330
9
100
AcDbSymbolTableRecord
100
AcDbRegAppTableRecord
  2
ACAD
 70
     0
  0
ENDTAB
  0
TABLE
  2
DIMSTYLE
  5
A
330
0
100
AcDbSymbolTable
 70
     1
  0
DIMSTYLE
105
27
330
A
100
AcDbSymbolTableRecord
100
AcDbDimStyleTableRecord
  2
ISO-25
 70
     0
  3

  4

  5

  6

  7

 40
1.0
 41
2.5
 42
0.625
 43
3.75
 44
1.25
 45
0.0
 46
0.0
 47
0.0
 48
0.0
140
2.5
141
2.5
142
0.0
143
0.03937007874016
144
1.0
145
0.0
146
1.0
147
0.625
 71
     0
 72
     0
 73
     0
 74
     0
 75
     0
 76
     0
 77
     1
 78
     8
170
     0
171
     3
172
     1
173
     0
174
     0
175
     0
176
     0
177
     0
178
     0
270
     2
271
     2
272
     2
273
     2
274
     3
340
11
275
     0
280
     0
281
     0
282
     0
283
     0
284
     8
285
     0
286
     0
287
     3
288
     0
  0
ENDTAB
  0
TABLE
  2
BLOCK_RECORD
  5
1
330
0
100
AcDbSymbolTable
 70
     1
  0
BLOCK_RECORD
  5
1F
330
1
100
AcDbSymbolTableRecord
100
AcDbBlockTableRecord
  2
*MODEL_SPACE
  0
BLOCK_RECORD
  5
1B
330
1
100
AcDbSymbolTableRecord
100
AcDbBlockTableRecord
  2
*PAPER_SPACE
  0
ENDTAB
  0
ENDSEC
  0
SECTION
  2
BLOCKS
  0
BLOCK
  5
20
330
1F
100
AcDbEntity
  8
0
100
AcDbBlockBegin
  2
*MODEL_SPACE
 70
     0
 10
0.0
 20
0.0
 30
0.0
  3
*MODEL_SPACE
  1

  0
ENDBLK
  5
21
330
1F
100
AcDbEntity
  8
0
100
AcDbBlockEnd
  0
BLOCK
  5
1C
330
1B
100
AcDbEntity
 67
     1
  8
0
100
AcDbBlockBegin
  2
*PAPER_SPACE
  1

  0
ENDBLK
  5
1D
330
1B
100
AcDbEntity
 67
     1
  8
0
100
AcDbBlockEnd
  0
ENDSEC
  0
SECTION
  2
ENTITIES
  0
SPLINE
  5
100
100
AcDbEntity
  8
Layer_1
 62
7
100
AcDbSpline
 70
8
 71
3
 72
8
 73
4
 74
0
 40
0
 40
0
 40
0
 40
0
 40
1
 40
1
 40
1
 40
1
 10
77.614227
 20
34.815480
 30
0.0
 10
73.916461
 20
41.934030
 30
0.0
 10
68.584885
 20
48.256320
 30
0.0
 10
64.887488
 20
49.907150
 30
0.0
  0
SPLINE
  5
101
100
AcDbEntity
  8
Layer_1
 62
7
100
AcDbSpline
 70
8
 71
3
 72
8
 73
4
 74
0
 40
0
 40
0
 40
0
 40
0
 40
1
 40
1
 40
1
 40
1
 10
64.887488
 20
49.907150
 30
0.0
 10
61.605252
 20
51.372610
 30
0.0
 10
58.285773
 20
50.751420
 30
0.0
 10
55.620160
 20
48.172910
 30
0.0
  0
SPLINE
  5
102
100
AcDbEntity
  8
Layer_1
 62
7
100
AcDbSpline
 70
8
 71
3
 72
8
 73
4
 74
0
 40
0
 40
0
 40
0
 40
0
 40
1
 40
1
 40
1
 40
1
 10
55.620160
 20
48.172910
 30
0.0
 10
54.893932
 20
47.470410
 30
0.0
 10
54.042363
 20
46.293900
 30
0.0
 10
53.727784
 20
45.558410
 30
0.0
  0
SPLINE
  5
103
100
AcDbEntity
  8
Layer_1
 62
7
100
AcDbSpline
 70
8
 71
3
 72
8
 73
4
 74
0
 40
0
 40
0
 40
0
 40
0
 40
1
 40
1
 40
1
 40
1
 10
50.994957
 20
46.041940
 30
0.0
 10
48.364190
 20
48.258670
 30
0.0
 10
45.863451
 20
49.836370
 30
0.0
 10
43.450463
 20
50.801720
 30
0.0
  0
SPLINE
  5
104
100
AcDbEntity
  8
Layer_1
 62
7
100
AcDbSpline
 70
8
 71
3
 72
8
 73
4
 74
0
 40
0
 40
0
 40
0
 40
0
 40
1
 40
1
 40
1
 40
1
 10
43.450463
 20
50.801720
 30
0.0
 10
38.077272
 20
52.951340
 30
0.0
 10
31.777274
 20
50.410010
 30
0.0
 10
30.759197
 20
45.682250
 30
0.0
  0
SPLINE
  5
105
100
AcDbEntity
  8
Layer_1
 62
7
100
AcDbSpline
 70
8
 71
3
 72
8
 73
4
 74
0
 40
0
 40
0
 40
0
 40
0
 40
1
 40
1
 40
1
 40
1
 10
30.759197
 20
45.682250
 30
0.0
 10
30.309144
 20
43.592270
 30
0.0
 10
31.486732
 20
40.206700
 30
0.0
 10
33.939222
 20
36.539610
 30
0.0
  0
SPLINE
  5
106
100
AcDbEntity
  8
Layer_1
 62
7
100
AcDbSpline
 70
8
 71
3
 72
8
 73
4
 74
0
 40
0
 40
0
 40
0
 40
0
 40
1
 40
1
 40
1
 40
1
 10
33.939222
 20
36.539610
 30
0.0
 10
34.613671
 20
35.531150
 30
0.0
 10
35.117136
 20
34.659250
 30
0.0
 10
35.058030
 20
34.602080
 30
0.0
  0
SPLINE
  5
107
100
AcDbEntity
  8
Layer_1
 62
7
100
AcDbSpline
 70
8
 71
3
 72
8
 73
4
 74
0
 40
0
 40
0
 40
0
 40
0
 40
1
 40
1
 40
1
 40
1
 10
35.058030
 20
34.602080
 30
0.0
 10
34.843985
 20
34.395010
 30
0.0
 10
29.468470
 20
36.477000
 30
0.0
 10
26.502220
 20
37.915810
 30
0.0
  0
SPLINE
  5
108
100
AcDbEntity
  8
Layer_1
 62
7
100
AcDbSpline
 70
8
 71
3
 72
8
 73
4
 74
0
 40
0
 40
0
 40
0
 40
0
 40
1
 40
1
 40
1
 40
1
 10
26.502220
 20
37.915810
 30
0.0
 10
14.000748
 20
43.979790
 30
0.0
 10
6.988335
 20
52.790730
 30
0.0
 10
6.204404
 20
63.419580
 30
0.0
  0
SPLINE
  5
109
100
AcDbEntity
  8
Layer_1
 62
7
100
AcDbSpline
 70
8
 71
3
 72
8
 73
4
 74
0
 40
0
 40
0
 40
0
 40
0
 40
1
 40
1
 40
1
 40
1
 10
6.204404
 20
63.419580
 30
0.0
 10
5.581415
 20
71.866330
 30
0.0
 10
10.708115
 20
79.608829
 30
0.0
 10
21.542869
 20
86.584188
 30
0.0
  0
SPLINE
  5
10a
100
AcDbEntity
  8
Layer_1
 62
7
100
AcDbSpline
 70
8
 71
3
 72
8
 73
4
 74
0
 40
0
 40
0
 40
0
 40
0
 40
1
 40
1
 40
1
 40
1
 10
21.542869
 20
86.584188
 30
0.0
 10
24.708759
 20
88.622366
 30
0.0
 10
30.544984
 20
91.585830
 30
0.0
 10
35.133932
 20
93.485321
 30
0.0
  0
SPLINE
  5
10b
100
AcDbEntity
  8
Layer_1
 62
7
100
AcDbSpline
 70
8
 71
3
 72
8
 73
4
 74
0
 40
0
 40
0
 40
0
 40
0
 40
1
 40
1
 40
1
 40
1
 10
35.133932
 20
93.485321
 30
0.0
 10
38.510864
 20
94.883124
 30
0.0
 10
44.680708
 20
97.056535
 30
0.0
 10
46.430486
 20
97.464675
 30
0.0
  0
LWPOLYLINE
  5
10c
100
AcDbEntity
  8
Layer_1
 62
7
100
AcDbPolyline
 90
3
 70
0
 10
53.727784
 20
45.558410
 30
0.0
 10
53.155825
 20
44.221170
 30
0.0
 10
50.994957
 20
46.041940
 30
0.0
  0
SPLINE
  5
10d
100
AcDbEntity
  8
Layer_1
 62
7
100
AcDbSpline
 70
8
 71
3
 72
8
 73
4
 74
0
 40
0
 40
0
 40
0
 40
0
 40
1
 40
1
 40
1
 40
1
 10
46.211877
 20
96.389204
 30
0.0
 10
42.897067
 20
92.476506
 30
0.0
 10
42.440891
 20
87.880877
 30
0.0
 10
44.891099
 20
83.083237
 30
0.0
  0
SPLINE
  5
10e
100
AcDbEntity
  8
Layer_1
 62
7
100
AcDbSpline
 70
8
 71
3
 72
8
 73
4
 74
0
 40
0
 40
0
 40
0
 40
0
 40
1
 40
1
 40
1
 40
1
 10
44.891099
 20
83.083237
 30
0.0
 10
46.327900
 20
80.269900
 30
0.0
 10
48.352075
 20
78.269863
 30
0.0
 10
51.080433
 20
76.967718
 30
0.0
  0
SPLINE
  5
10f
100
AcDbEntity
  8
Layer_1
 62
7
100
AcDbSpline
 70
8
 71
3
 72
8
 73
4
 74
0
 40
0
 40
0
 40
0
 40
0
 40
1
 40
1
 40
1
 40
1
 10
51.080433
 20
76.967718
 30
0.0
 10
53.156606
 20
75.976839
 30
0.0
 10
53.633069
 20
75.868236
 30
0.0
 10
56.362577
 20
75.763719
 30
0.0
  0
SPLINE
  5
110
100
AcDbEntity
  8
Layer_1
 62
7
100
AcDbSpline
 70
8
 71
3
 72
8
 73
4
 74
0
 40
0
 40
0
 40
0
 40
0
 40
1
 40
1
 40
1
 40
1
 10
56.362577
 20
75.763719
 30
0.0
 10
59.590339
 20
75.640142
 30
0.0
 10
62.059322
 20
75.992423
 30
0.0
 10
64.623311
 20
76.942396
 30
0.0
  0
SPLINE
  5
111
100
AcDbEntity
  8
Layer_1
 62
7
100
AcDbSpline
 70
8
 71
3
 72
8
 73
4
 74
0
 40
0
 40
0
 40
0
 40
0
 40
1
 40
1
 40
1
 40
1
 10
64.623311
 20
76.942396
 30
0.0
 10
66.047023
 20
77.469905
 30
0.0
 10
66.308093
 20
77.700261
 30
0.0
 10
66.838891
 20
78.897373
 30
0.0
  0
SPLINE
  5
112
100
AcDbEntity
  8
Layer_1
 62
7
100
AcDbSpline
 70
8
 71
3
 72
8
 73
4
 74
0
 40
0
 40
0
 40
0
 40
0
 40
1
 40
1
 40
1
 40
1
 10
66.838891
 20
78.897373
 30
0.0
 10
67.910555
 20
81.314296
 30
0.0
 10
68.941820
 20
87.242965
 30
0.0
 10
69.769560
 20
95.745541
 30
0.0
  0
SPLINE
  5
113
100
AcDbEntity
  8
Layer_1
 62
7
100
AcDbSpline
 70
8
 71
3
 72
8
 73
4
 74
0
 40
0
 40
0
 40
0
 40
0
 40
1
 40
1
 40
1
 40
1
 10
69.769560
 20
95.745541
 30
0.0
 10
70.035392
 20
98.476155
 30
0.0
 10
70.289093
 20
100.745313
 30
0.0
 10
70.333347
 20
100.788118
 30
0.0
  0
SPLINE
  5
114
100
AcDbEntity
  8
Layer_1
 62
7
100
AcDbSpline
 70
8
 71
3
 72
8
 73
4
 74
0
 40
0
 40
0
 40
0
 40
0
 40
1
 40
1
 40
1
 40
1
 10
70.333347
 20
100.788118
 30
0.0
 10
70.706426
 20
101.149010
 30
0.0
 10
73.078119
 20
97.208788
 30
0.0
 10
74.551372
 20
93.780474
 30
0.0
  0
LWPOLYLINE
  5
115
100
AcDbEntity
  8
Layer_1
 62
7
100
AcDbPolyline
 90
3
 70
0
 10
46.430486
 20
97.464675
 30
0.0
 10
47.293570
 20
97.665992
 30
0.0
 10
46.211877
 20
96.389204
 30
0.0
  0
SPLINE
  5
116
100
AcDbEntity
  8
Layer_1
 62
7
100
AcDbSpline
 70
8
 71
3
 72
8
 73
4
 74
0
 40
0
 40
0
 40
0
 40
0
 40
1
 40
1
 40
1
 40
1
 10
83.952098
 20
94.662718
 30
0.0
 10
84.429544
 20
95.748407
 30
0.0
 10
85.229434
 20
97.360545
 30
0.0
 10
85.729631
 20
98.245245
 30
0.0
  0
SPLINE
  5
117
100
AcDbEntity
  8
Layer_1
 62
7
100
AcDbSpline
 70
8
 71
3
 72
8
 73
4
 74
0
 40
0
 40
0
 40
0
 40
0
 40
1
 40
1
 40
1
 40
1
 10
85.729631
 20
98.245245
 30
0.0
 10
87.406060
 20
101.210329
 30
0.0
 10
88.057317
 20
101.493908
 30
0.0
 10
88.057317
 20
99.258801
 30
0.0
  0
SPLINE
  5
118
100
AcDbEntity
  8
Layer_1
 62
7
100
AcDbSpline
 70
8
 71
3
 72
8
 73
4
 74
0
 40
0
 40
0
 40
0
 40
0
 40
1
 40
1
 40
1
 40
1
 10
88.057317
 20
99.258801
 30
0.0
 10
88.057317
 20
96.931584
 30
0.0
 10
89.290953
 20
87.067823
 30
0.0
 10
90.031832
 20
83.471114
 30
0.0
  0
SPLINE
  5
119
100
AcDbEntity
  8
Layer_1
 62
7
100
AcDbSpline
 70
8
 71
3
 72
8
 73
4
 74
0
 40
0
 40
0
 40
0
 40
0
 40
1
 40
1
 40
1
 40
1
 10
90.031832
 20
83.471114
 30
0.0
 10
90.933533
 20
79.093690
 30
0.0
 10
91.423443
 20
77.928732
 30
0.0
 10
92.612273
 20
77.335035
 30
0.0
  0
SPLINE
  5
11a
100
AcDbEntity
  8
Layer_1
 62
7
100
AcDbSpline
 70
8
 71
3
 72
8
 73
4
 74
0
 40
0
 40
0
 40
0
 40
0
 40
1
 40
1
 40
1
 40
1
 10
92.612273
 20
77.335035
 30
0.0
 10
94.363424
 20
76.460515
 30
0.0
 10
98.056379
 20
75.739274
 30
0.0
 10
100.775459
 20
75.740754
 30
0.0
  0
SPLINE
  5
11b
100
AcDbEntity
  8
Layer_1
 62
7
100
AcDbSpline
 70
8
 71
3
 72
8
 73
4
 74
0
 40
0
 40
0
 40
0
 40
0
 40
1
 40
1
 40
1
 40
1
 10
100.775459
 20
75.740754
 30
0.0
 10
106.899533
 20
75.744154
 30
0.0
 10
110.968440
 20
78.357727
 30
0.0
 10
113.612390
 20
83.986552
 30
0.0
  0
SPLINE
  5
11c
100
AcDbEntity
  8
Layer_1
 62
7
100
AcDbSpline
 70
8
 71
3
 72
8
 73
4
 74
0
 40
0
 40
0
 40
0
 40
0
 40
1
 40
1
 40
1
 40
1
 10
113.612390
 20
83.986552
 30
0.0
 10
115.713120
 20
88.458832
 30
0.0
 10
114.970660
 20
93.132233
 30
0.0
 10
111.597730
 20
96.668047
 30
0.0
  0
LWPOLYLINE
  5
11d
100
AcDbEntity
  8
Layer_1
 62
7
100
AcDbPolyline
 90
5
 70
0
 10
74.551372
 20
93.780474
 30
0.0
 10
75.022425
 20
92.684329
 30
0.0
 10
79.053212
 20
92.686529
 30
0.0
 10
83.084016
 20
92.688729
 30
0.0
 10
83.952098
 20
94.662718
 30
0.0
  0
SPLINE
  5
11e
100
AcDbEntity
  8
Layer_1
 62
7
100
AcDbSpline
 70
8
 71
3
 72
8
 73
4
 74
0
 40
0
 40
0
 40
0
 40
0
 40
1
 40
1
 40
1
 40
1
 10
112.297090
 20
97.340983
 30
0.0
 10
122.888460
 20
93.996576
 30
0.0
 10
130.005810
 20
90.807029
 30
0.0
 10
137.112290
 20
86.220394
 30
0.0
  0
SPLINE
  5
11f
100
AcDbEntity
  8
Layer_1
 62
7
100
AcDbSpline
 70
8
 71
3
 72
8
 73
4
 74
0
 40
0
 40
0
 40
0
 40
0
 40
1
 40
1
 40
1
 40
1
 10
137.112290
 20
86.220394
 30
0.0
 10
145.004070
 20
81.126896
 30
0.0
 10
150.069120
 20
75.076243
 30
0.0
 10
151.444820
 20
69.098940
 30
0.0
  0
SPLINE
  5
120
100
AcDbEntity
  8
Layer_1
 62
7
100
AcDbSpline
 70
8
 71
3
 72
8
 73
4
 74
0
 40
0
 40
0
 40
0
 40
0
 40
1
 40
1
 40
1
 40
1
 10
151.444820
 20
69.098940
 30
0.0
 10
152.052560
 20
66.458320
 30
0.0
 10
151.882160
 20
61.098990
 30
0.0
 10
151.103770
 20
58.371930
 30
0.0
  0
SPLINE
  5
121
100
AcDbEntity
  8
Layer_1
 62
7
100
AcDbSpline
 70
8
 71
3
 72
8
 73
4
 74
0
 40
0
 40
0
 40
0
 40
0
 40
1
 40
1
 40
1
 40
1
 10
151.103770
 20
58.371930
 30
0.0
 10
148.747480
 20
50.116990
 30
0.0
 10
141.763300
 20
42.849230
 30
0.0
 10
131.454490
 20
37.924820
 30
0.0
  0
SPLINE
  5
122
100
AcDbEntity
  8
Layer_1
 62
7
100
AcDbSpline
 70
8
 71
3
 72
8
 73
4
 74
0
 40
0
 40
0
 40
0
 40
0
 40
1
 40
1
 40
1
 40
1
 10
131.454490
 20
37.924820
 30
0.0
 10
127.728180
 20
36.144790
 30
0.0
 10
123.187520
 20
34.383050
 30
0.0
 10
122.940690
 20
34.621540
 30
0.0
  0
SPLINE
  5
123
100
AcDbEntity
  8
Layer_1
 62
7
100
AcDbSpline
 70
8
 71
3
 72
8
 73
4
 74
0
 40
0
 40
0
 40
0
 40
0
 40
1
 40
1
 40
1
 40
1
 10
122.940690
 20
34.621540
 30
0.0
 10
122.878190
 20
34.682040
 30
0.0
 10
123.079040
 20
35.047580
 30
0.0
 10
123.387000
 20
35.434110
 30
0.0
  0
SPLINE
  5
124
100
AcDbEntity
  8
Layer_1
 62
7
100
AcDbSpline
 70
8
 71
3
 72
8
 73
4
 74
0
 40
0
 40
0
 40
0
 40
0
 40
1
 40
1
 40
1
 40
1
 10
123.387000
 20
35.434110
 30
0.0
 10
123.694970
 20
35.820630
 30
0.0
 10
124.425850
 20
36.934330
 30
0.0
 10
125.011220
 20
37.908970
 30
0.0
  0
SPLINE
  5
125
100
AcDbEntity
  8
Layer_1
 62
7
100
AcDbSpline
 70
8
 71
3
 72
8
 73
4
 74
0
 40
0
 40
0
 40
0
 40
0
 40
1
 40
1
 40
1
 40
1
 10
125.011220
 20
37.908970
 30
0.0
 10
128.826330
 20
44.261370
 30
0.0
 10
128.039880
 20
48.375420
 30
0.0
 10
122.533130
 20
50.872360
 30
0.0
  0
SPLINE
  5
126
100
AcDbEntity
  8
Layer_1
 62
7
100
AcDbSpline
 70
8
 71
3
 72
8
 73
4
 74
0
 40
0
 40
0
 40
0
 40
0
 40
1
 40
1
 40
1
 40
1
 10
122.533130
 20
50.872360
 30
0.0
 10
118.337300
 20
52.774880
 30
0.0
 10
112.777560
 20
51.050190
 30
0.0
 10
107.255802
 20
46.133190
 30
0.0
  0
LWPOLYLINE
  5
127
100
AcDbEntity
  8
Layer_1
 62
7
100
AcDbPolyline
 90
3
 70
0
 10
111.597730
 20
96.668047
 30
0.0
 10
110.377580
 20
97.947104
 30
0.0
 10
112.297090
 20
97.340983
 30
0.0
  0
SPLINE
  5
128
100
AcDbEntity
  8
Layer_1
 62
7
100
AcDbSpline
 70
8
 71
3
 72
8
 73
4
 74
0
 40
0
 40
0
 40
0
 40
0
 40
1
 40
1
 40
1
 40
1
 10
104.432897
 20
45.452080
 30
0.0
 10
102.397392
 20
49.899700
 30
0.0
 10
97.288475
 20
51.882820
 30
0.0
 10
93.044019
 20
49.872880
 30
0.0
  0
SPLINE
  5
129
100
AcDbEntity
  8
Layer_1
 62
7
100
AcDbSpline
 70
8
 71
3
 72
8
 73
4
 74
0
 40
0
 40
0
 40
0
 40
0
 40
1
 40
1
 40
1
 40
1
 10
93.044019
 20
49.872880
 30
0.0
 10
89.378784
 20
48.137230
 30
0.0
 10
84.177073
 20
41.926390
 30
0.0
 10
80.556909
 20
34.963290
 30
0.0
  0
LWPOLYLINE
  5
12a
100
AcDbEntity
  8
Layer_1
 62
7
100
AcDbPolyline
 90
3
 70
0
 10
107.255802
 20
46.133190
 30
0.0
 10
105.028781
 20
44.150070
 30
0.0
 10
104.432897
 20
45.452080
 30
0.0
  0
LWPOLYLINE
  5
12b
100
AcDbEntity
  8
Layer_1
 62
7
100
AcDbPolyline
 90
3
 70
0
 10
80.556909
 20
34.963290
 30
0.0
 10
79.046528
 20
32.058200
 30
0.0
 10
77.614227
 20
34.815480
 30
0.0
  0
ENDSEC
  0
SECTION
  2
OBJECTS
  0
DICTIONARY
  5
C
330
0
100
AcDbDictionary
  3
ACAD_GROUP
350
D
  3
ACAD_MLINESTYLE
350
17
  0
DICTIONARY
  5
D
330
C
100
AcDbDictionary
  0
DICTIONARY
  5
1A
330
C
100
AcDbDictionary
  0
DICTIONARY
  5
17
330
C
100
AcDbDictionary
  3
STANDARD
350
18
  0
DICTIONARY
  5
19
330
C
100
AcDbDictionary
  0
ENDSEC
  0
EOF
