  0
SECTION
  2
HEADER
  9
$ACADVER
  1
AC1014
  9
$HANDSEED
  5
FFFF
  9
$MEASUREMENT
 70
     1
  0
ENDSEC
  0
SECTION
  2
TABLES
  0
TABLE
  2
VPORT
  5
8
330
0
100
AcDbSymbolTable
 70
     4
  0
VPORT
  5
2E
330
8
100
AcDbSymbolTableRecord
100
AcDbViewportTableRecord
  2
*ACTIVE
 70
     0
 10
0.0
 20
0.0
 11
1.0
 21
1.0
 12
210.0
 22
148.5
 13
0.0
 23
0.0
 14
10.0
 24
10.0
 15
10.0
 25
10.0
 16
0.0
 26
0.0
 36
1.0
 17
0.0
 27
0.0
 37
0.0
 40
341.0
 41
1.24
 42
50.0
 43
0.0
 44
0.0
 50
0.0
 51
0.0
 71
     0
 72
   100
 73
     1
 74
     3
 75
     0
 76
     0
 77
     0
 78
     0
  0
ENDTAB
  0
TABLE
  2
LTYPE
  5
5
330
0
100
AcDbSymbolTable
 70
     1
  0
LTYPE
  5
14
330
5
100
AcDbSymbolTableRecord
100
AcDbLinetypeTableRecord
  2
BYBLOCK
 70
     0
  3

 72
    65
 73
     0
 40
0.0
  0
LTYPE
  5
15
330
5
100
AcDbSymbolTableRecord
100
AcDbLinetypeTableRecord
  2
BYLAYER
 70
     0
  3

 72
    65
 73
     0
 40
0.0
  0
LTYPE
  5
16
330
5
100
AcDbSymbolTableRecord
100
AcDbLinetypeTableRecord
  2
CONTINUOUS
 70
     0
  3
Solid line
 72
    65
 73
     0
 40
0.0
  0
ENDTAB
  0
TABLE
  2
LAYER
  5
2
100
AcDbSymbolTable
 70
2
  0
LAYER
  5
50
100
AcDbSymbolTableRecord
100
AcDbLayerTableRecord
  2
0
 70
0
  6
CONTINUOUS
  0
LAYER
  5
51
100
AcDbSymbolTableRecord
100
AcDbLayerTableRecord
  2
Layer_1
 70
0
  6
CONTINUOUS
  0
ENDTAB
  0
TABLE
  2
STYLE
  5
3
330
0
100
AcDbSymbolTable
 70
     1
  0
STYLE
  5
11
330
3
100
AcDbSymbolTableRecord
100
AcDbTextStyleTableRecord
  2
STANDARD
 70
     0
 40
0.0
 41
1.0
 50
0.0
 71
     0
 42
2.5
  3
txt
  4

  0
ENDTAB
  0
TABLE
  2
VIEW
  5
6
330
0
100
AcDbSymbolTable
 70
     0
  0
ENDTAB
  0
TABLE
  2
UCS
  5
7
330
0
100
AcDbSymbolTable
 70
     0
  0
ENDTAB
  0
TABLE
  2
APPID
  5
9
330
0
100
AcDbSymbolTable
 70
     2
  0
APPID
  5
12
330
9
100
AcDbSymbolTableRecord
100
AcDbRegAppTableRecord
  2
ACAD
 70
     0
  0
ENDTAB
  0
TABLE
  2
DIMSTYLE
  5
A
330
0
100
AcDbSymbolTable
 70
     1
  0
DIMSTYLE
105
27
330
A
100
AcDbSymbolTableRecord
100
AcDbDimStyleTableRecord
  2
ISO-25
 70
     0
  3

  4

  5

  6

  7

 40
1.0
 41
2.5
 42
0.625
 43
3.75
 44
1.25
 45
0.0
 46
0.0
 47
0.0
 48
0.0
140
2.5
141
2.5
142
0.0
143
0.03937007874016
144
1.0
145
0.0
146
1.0
147
0.625
 71
     0
 72
     0
 73
     0
 74
     0
 75
     0
 76
     0
 77
     1
 78
     8
170
     0
171
     3
172
     1
173
     0
174
     0
175
     0
176
     0
177
     0
178
     0
270
     2
271
     2
272
     2
273
     2
274
     3
340
11
275
     0
280
     0
281
     0
282
     0
283
     0
284
     8
285
     0
286
     0
287
     3
288
     0
  0
ENDTAB
  0
TABLE
  2
BLOCK_RECORD
  5
1
330
0
100
AcDbSymbolTable
 70
     1
  0
BLOCK_RECORD
  5
1F
330
1
100
AcDbSymbolTableRecord
100
AcDbBlockTableRecord
  2
*MODEL_SPACE
  0
BLOCK_RECORD
  5
1B
330
1
100
AcDbSymbolTableRecord
100
AcDbBlockTableRecord
  2
*PAPER_SPACE
  0
ENDTAB
  0
ENDSEC
  0
SECTION
  2
BLOCKS
  0
BLOCK
  5
20
330
1F
100
AcDbEntity
  8
0
100
AcDbBlockBegin
  2
*MODEL_SPACE
 70
     0
 10
0.0
 20
0.0
 30
0.0
  3
*MODEL_SPACE
  1

  0
ENDBLK
  5
21
330
1F
100
AcDbEntity
  8
0
100
AcDbBlockEnd
  0
BLOCK
  5
1C
330
1B
100
AcDbEntity
 67
     1
  8
0
100
AcDbBlockBegin
  2
*PAPER_SPACE
  1

  0
ENDBLK
  5
1D
330
1B
100
AcDbEntity
 67
     1
  8
0
100
AcDbBlockEnd
  0
ENDSEC
  0
SECTION
  2
ENTITIES
  0
SPLINE
  5
100
100
AcDbEntity
  8
Layer_1
 62
7
100
AcDbSpline
 70
8
 71
3
 72
8
 73
4
 74
0
 40
0
 40
0
 40
0
 40
0
 40
1
 40
1
 40
1
 40
1
 10
71.094306
 20
4.338100
 30
0.0
 10
67.424524
 20
14.240728
 30
0.0
 10
62.133293
 20
23.035686
 30
0.0
 10
58.463875
 20
25.332156
 30
0.0
  0
SPLINE
  5
101
100
AcDbEntity
  8
Layer_1
 62
7
100
AcDbSpline
 70
8
 71
3
 72
8
 73
4
 74
0
 40
0
 40
0
 40
0
 40
0
 40
1
 40
1
 40
1
 40
1
 10
58.463875
 20
25.332156
 30
0.0
 10
55.206478
 20
27.370766
 30
0.0
 10
51.912119
 20
26.506626
 30
0.0
 10
49.266677
 20
22.919656
 30
0.0
  0
SPLINE
  5
102
100
AcDbEntity
  8
Layer_1
 62
7
100
AcDbSpline
 70
8
 71
3
 72
8
 73
4
 74
0
 40
0
 40
0
 40
0
 40
0
 40
1
 40
1
 40
1
 40
1
 10
49.266677
 20
22.919656
 30
0.0
 10
48.545944
 20
21.942407
 30
0.0
 10
47.700821
 20
20.305757
 30
0.0
 10
47.388623
 20
19.282617
 30
0.0
  0
SPLINE
  5
103
100
AcDbEntity
  8
Layer_1
 62
7
100
AcDbSpline
 70
8
 71
3
 72
8
 73
4
 74
0
 40
0
 40
0
 40
0
 40
0
 40
1
 40
1
 40
1
 40
1
 10
44.676475
 20
19.955257
 30
0.0
 10
42.065617
 20
23.038956
 30
0.0
 10
39.583801
 20
25.233706
 30
0.0
 10
37.189074
 20
26.576596
 30
0.0
  0
SPLINE
  5
104
100
AcDbEntity
  8
Layer_1
 62
7
100
AcDbSpline
 70
8
 71
3
 72
8
 73
4
 74
0
 40
0
 40
0
 40
0
 40
0
 40
1
 40
1
 40
1
 40
1
 10
37.189074
 20
26.576596
 30
0.0
 10
31.856544
 20
29.566945
 30
0.0
 10
25.604221
 20
26.031696
 30
0.0
 10
24.593847
 20
19.454887
 30
0.0
  0
SPLINE
  5
105
100
AcDbEntity
  8
Layer_1
 62
7
100
AcDbSpline
 70
8
 71
3
 72
8
 73
4
 74
0
 40
0
 40
0
 40
0
 40
0
 40
1
 40
1
 40
1
 40
1
 10
24.593847
 20
19.454887
 30
0.0
 10
24.147200
 20
16.547518
 30
0.0
 10
25.315877
 20
11.837829
 30
0.0
 10
27.749808
 20
6.736540
 30
0.0
  0
SPLINE
  5
106
100
AcDbEntity
  8
Layer_1
 62
7
100
AcDbSpline
 70
8
 71
3
 72
8
 73
4
 74
0
 40
0
 40
0
 40
0
 40
0
 40
1
 40
1
 40
1
 40
1
 10
27.749808
 20
6.736540
 30
0.0
 10
28.419152
 20
5.333660
 30
0.0
 10
28.918808
 20
4.120760
 30
0.0
 10
28.860149
 20
4.041230
 30
0.0
  0
SPLINE
  5
107
100
AcDbEntity
  8
Layer_1
 62
7
100
AcDbSpline
 70
8
 71
3
 72
8
 73
4
 74
0
 40
0
 40
0
 40
0
 40
0
 40
1
 40
1
 40
1
 40
1
 10
28.860149
 20
4.041230
 30
0.0
 10
28.647724
 20
3.753180
 30
0.0
 10
23.312888
 20
6.649440
 30
0.0
 10
20.369085
 20
8.650969
 30
0.0
  0
SPLINE
  5
108
100
AcDbEntity
  8
Layer_1
 62
7
100
AcDbSpline
 70
8
 71
3
 72
8
 73
4
 74
0
 40
0
 40
0
 40
0
 40
0
 40
1
 40
1
 40
1
 40
1
 10
20.369085
 20
8.650969
 30
0.0
 10
7.962217
 20
17.086598
 30
0.0
 10
1.002869
 20
29.343525
 30
0.0
 10
0.224871
 20
44.129342
 30
0.0
  0
SPLINE
  5
109
100
AcDbEntity
  8
Layer_1
 62
7
100
AcDbSpline
 70
8
 71
3
 72
8
 73
4
 74
0
 40
0
 40
0
 40
0
 40
0
 40
1
 40
1
 40
1
 40
1
 10
0.224871
 20
44.129342
 30
0.0
 10
-0.393404
 20
55.879640
 30
0.0
 10
4.694500
 20
66.650258
 30
0.0
 10
15.447263
 20
76.353705
 30
0.0
  0
SPLINE
  5
10a
100
AcDbEntity
  8
Layer_1
 62
7
100
AcDbSpline
 70
8
 71
3
 72
8
 73
4
 74
0
 40
0
 40
0
 40
0
 40
0
 40
1
 40
1
 40
1
 40
1
 10
15.447263
 20
76.353705
 30
0.0
 10
18.589196
 20
79.189020
 30
0.0
 10
24.381255
 20
83.311506
 30
0.0
 10
28.935477
 20
85.953893
 30
0.0
  0
SPLINE
  5
10b
100
AcDbEntity
  8
Layer_1
 62
7
100
AcDbSpline
 70
8
 71
3
 72
8
 73
4
 74
0
 40
0
 40
0
 40
0
 40
0
 40
1
 40
1
 40
1
 40
1
 10
28.935477
 20
85.953893
 30
0.0
 10
32.286855
 20
87.898381
 30
0.0
 10
38.410009
 20
90.921819
 30
0.0
 10
40.146545
 20
91.489585
 30
0.0
  0
LWPOLYLINE
  5
10c
100
AcDbEntity
  8
Layer_1
 62
7
100
AcDbPolyline
 90
3
 70
0
 10
47.388623
 20
19.282617
 30
0.0
 10
46.820991
 20
17.422378
 30
0.0
 10
44.676475
 20
19.955257
 30
0.0
  0
SPLINE
  5
10d
100
AcDbEntity
  8
Layer_1
 62
7
100
AcDbSpline
 70
8
 71
3
 72
8
 73
4
 74
0
 40
0
 40
0
 40
0
 40
0
 40
1
 40
1
 40
1
 40
1
 10
39.929591
 20
89.993494
 30
0.0
 10
36.639866
 20
84.550527
 30
0.0
 10
36.187142
 20
78.157534
 30
0.0
 10
38.618807
 20
71.483517
 30
0.0
  0
SPLINE
  5
10e
100
AcDbEntity
  8
Layer_1
 62
7
100
AcDbSpline
 70
8
 71
3
 72
8
 73
4
 74
0
 40
0
 40
0
 40
0
 40
0
 40
1
 40
1
 40
1
 40
1
 10
38.618807
 20
71.483517
 30
0.0
 10
40.044735
 20
67.569878
 30
0.0
 10
42.053594
 20
64.787618
 30
0.0
 10
44.761304
 20
62.976209
 30
0.0
  0
SPLINE
  5
10f
100
AcDbEntity
  8
Layer_1
 62
7
100
AcDbSpline
 70
8
 71
3
 72
8
 73
4
 74
0
 40
0
 40
0
 40
0
 40
0
 40
1
 40
1
 40
1
 40
1
 10
44.761304
 20
62.976209
 30
0.0
 10
46.821766
 20
61.597789
 30
0.0
 10
47.294625
 20
61.446709
 30
0.0
 10
50.003476
 20
61.301319
 30
0.0
  0
SPLINE
  5
110
100
AcDbEntity
  8
Layer_1
 62
7
100
AcDbSpline
 70
8
 71
3
 72
8
 73
4
 74
0
 40
0
 40
0
 40
0
 40
0
 40
1
 40
1
 40
1
 40
1
 10
50.003476
 20
61.301319
 30
0.0
 10
53.206813
 20
61.129409
 30
0.0
 10
55.657112
 20
61.619469
 30
0.0
 10
58.201698
 20
62.940979
 30
0.0
  0
SPLINE
  5
111
100
AcDbEntity
  8
Layer_1
 62
7
100
AcDbSpline
 70
8
 71
3
 72
8
 73
4
 74
0
 40
0
 40
0
 40
0
 40
0
 40
1
 40
1
 40
1
 40
1
 10
58.201698
 20
62.940979
 30
0.0
 10
59.614636
 20
63.674798
 30
0.0
 10
59.873730
 20
63.995248
 30
0.0
 10
60.400512
 20
65.660558
 30
0.0
  0
SPLINE
  5
112
100
AcDbEntity
  8
Layer_1
 62
7
100
AcDbSpline
 70
8
 71
3
 72
8
 73
4
 74
0
 40
0
 40
0
 40
0
 40
0
 40
1
 40
1
 40
1
 40
1
 10
60.400512
 20
65.660558
 30
0.0
 10
61.464066
 20
69.022737
 30
0.0
 10
62.487527
 20
77.270132
 30
0.0
 10
63.309004
 20
89.098092
 30
0.0
  0
SPLINE
  5
113
100
AcDbEntity
  8
Layer_1
 62
7
100
AcDbSpline
 70
8
 71
3
 72
8
 73
4
 74
0
 40
0
 40
0
 40
0
 40
0
 40
1
 40
1
 40
1
 40
1
 10
63.309004
 20
89.098092
 30
0.0
 10
63.572823
 20
92.896658
 30
0.0
 10
63.824605
 20
96.053291
 30
0.0
 10
63.868524
 20
96.112836
 30
0.0
  0
SPLINE
  5
114
100
AcDbEntity
  8
Layer_1
 62
7
100
AcDbSpline
 70
8
 71
3
 72
8
 73
4
 74
0
 40
0
 40
0
 40
0
 40
0
 40
1
 40
1
 40
1
 40
1
 10
63.868524
 20
96.112836
 30
0.0
 10
64.238780
 20
96.614874
 30
0.0
 10
66.592525
 20
91.133619
 30
0.0
 10
68.054630
 20
86.364482
 30
0.0
  0
LWPOLYLINE
  5
115
100
AcDbEntity
  8
Layer_1
 62
7
100
AcDbPolyline
 90
3
 70
0
 10
40.146545
 20
91.489585
 30
0.0
 10
41.003098
 20
91.769638
 30
0.0
 10
39.929591
 20
89.993494
 30
0.0
  0
SPLINE
  5
116
100
AcDbEntity
  8
Layer_1
 62
7
100
AcDbSpline
 70
8
 71
3
 72
8
 73
4
 74
0
 40
0
 40
0
 40
0
 40
0
 40
1
 40
1
 40
1
 40
1
 10
77.384217
 20
87.591852
 30
0.0
 10
77.858049
 20
89.102157
 30
0.0
 10
78.651886
 20
91.344808
 30
0.0
 10
79.148297
 20
92.575517
 30
0.0
  0
SPLINE
  5
117
100
AcDbEntity
  8
Layer_1
 62
7
100
AcDbSpline
 70
8
 71
3
 72
8
 73
4
 74
0
 40
0
 40
0
 40
0
 40
0
 40
1
 40
1
 40
1
 40
1
 10
79.148297
 20
92.575517
 30
0.0
 10
80.812041
 20
96.700254
 30
0.0
 10
81.458370
 20
97.094742
 30
0.0
 10
81.458370
 20
93.985477
 30
0.0
  0
SPLINE
  5
118
100
AcDbEntity
  8
Layer_1
 62
7
100
AcDbSpline
 70
8
 71
3
 72
8
 73
4
 74
0
 40
0
 40
0
 40
0
 40
0
 40
1
 40
1
 40
1
 40
1
 10
81.458370
 20
93.985477
 30
0.0
 10
81.458370
 20
90.748078
 30
0.0
 10
82.682671
 20
77.026570
 30
0.0
 10
83.417943
 20
72.023177
 30
0.0
  0
SPLINE
  5
119
100
AcDbEntity
  8
Layer_1
 62
7
100
AcDbSpline
 70
8
 71
3
 72
8
 73
4
 74
0
 40
0
 40
0
 40
0
 40
0
 40
1
 40
1
 40
1
 40
1
 10
83.417943
 20
72.023177
 30
0.0
 10
84.312819
 20
65.933728
 30
0.0
 10
84.799023
 20
64.313158
 30
0.0
 10
85.978856
 20
63.487258
 30
0.0
  0
SPLINE
  5
11a
100
AcDbEntity
  8
Layer_1
 62
7
100
AcDbSpline
 70
8
 71
3
 72
8
 73
4
 74
0
 40
0
 40
0
 40
0
 40
0
 40
1
 40
1
 40
1
 40
1
 10
85.978856
 20
63.487258
 30
0.0
 10
87.716756
 20
62.270709
 30
0.0
 10
91.381764
 20
61.267389
 30
0.0
 10
94.080267
 20
61.269449
 30
0.0
  0
SPLINE
  5
11b
100
AcDbEntity
  8
Layer_1
 62
7
100
AcDbSpline
 70
8
 71
3
 72
8
 73
4
 74
0
 40
0
 40
0
 40
0
 40
0
 40
1
 40
1
 40
1
 40
1
 10
94.080267
 20
61.269449
 30
0.0
 10
100.157999
 20
61.274449
 30
0.0
 10
104.196116
 20
64.909928
 30
0.0
 10
106.820054
 20
72.740207
 30
0.0
  0
SPLINE
  5
11c
100
AcDbEntity
  8
Layer_1
 62
7
100
AcDbSpline
 70
8
 71
3
 72
8
 73
4
 74
0
 40
0
 40
0
 40
0
 40
0
 40
1
 40
1
 40
1
 40
1
 10
106.820054
 20
72.740207
 30
0.0
 10
108.904891
 20
78.961607
 30
0.0
 10
108.168049
 20
85.462789
 30
0.0
 10
104.820646
 20
90.381471
 30
0.0
  0
LWPOLYLINE
  5
11d
100
AcDbEntity
  8
Layer_1
 62
7
100
AcDbPolyline
 90
5
 70
0
 10
68.054630
 20
86.364482
 30
0.0
 10
68.522117
 20
84.839630
 30
0.0
 10
72.522403
 20
84.842730
 30
0.0
 10
76.522703
 20
84.845830
 30
0.0
 10
77.384217
 20
87.591852
 30
0.0
  0
SPLINE
  5
11e
100
AcDbEntity
  8
Layer_1
 62
7
100
AcDbSpline
 70
8
 71
3
 72
8
 73
4
 74
0
 40
0
 40
0
 40
0
 40
0
 40
1
 40
1
 40
1
 40
1
 10
105.514712
 20
91.317595
 30
0.0
 10
116.025927
 20
86.665180
 30
0.0
 10
123.089416
 20
82.228191
 30
0.0
 10
130.142124
 20
75.847708
 30
0.0
  0
SPLINE
  5
11f
100
AcDbEntity
  8
Layer_1
 62
7
100
AcDbSpline
 70
8
 71
3
 72
8
 73
4
 74
0
 40
0
 40
0
 40
0
 40
0
 40
1
 40
1
 40
1
 40
1
 10
130.142124
 20
75.847708
 30
0.0
 10
137.974183
 20
68.762127
 30
0.0
 10
143.000902
 20
60.345049
 30
0.0
 10
144.366192
 20
52.030011
 30
0.0
  0
SPLINE
  5
120
100
AcDbEntity
  8
Layer_1
 62
7
100
AcDbSpline
 70
8
 71
3
 72
8
 73
4
 74
0
 40
0
 40
0
 40
0
 40
0
 40
1
 40
1
 40
1
 40
1
 10
144.366192
 20
52.030011
 30
0.0
 10
144.969341
 20
48.356641
 30
0.0
 10
144.800221
 20
40.901253
 30
0.0
 10
144.027722
 20
37.107624
 30
0.0
  0
SPLINE
  5
121
100
AcDbEntity
  8
Layer_1
 62
7
100
AcDbSpline
 70
8
 71
3
 72
8
 73
4
 74
0
 40
0
 40
0
 40
0
 40
0
 40
1
 40
1
 40
1
 40
1
 10
144.027722
 20
37.107624
 30
0.0
 10
141.689262
 20
25.624156
 30
0.0
 10
134.757943
 20
15.513948
 30
0.0
 10
124.527135
 20
8.663589
 30
0.0
  0
SPLINE
  5
122
100
AcDbEntity
  8
Layer_1
 62
7
100
AcDbSpline
 70
8
 71
3
 72
8
 73
4
 74
0
 40
0
 40
0
 40
0
 40
0
 40
1
 40
1
 40
1
 40
1
 10
124.527135
 20
8.663589
 30
0.0
 10
120.829026
 20
6.187390
 30
0.0
 10
116.322727
 20
3.736630
 30
0.0
 10
116.077767
 20
4.068390
 30
0.0
  0
SPLINE
  5
123
100
AcDbEntity
  8
Layer_1
 62
7
100
AcDbSpline
 70
8
 71
3
 72
8
 73
4
 74
0
 40
0
 40
0
 40
0
 40
0
 40
1
 40
1
 40
1
 40
1
 10
116.077767
 20
4.068390
 30
0.0
 10
116.015667
 20
4.152490
 30
0.0
 10
116.215067
 20
4.661050
 30
0.0
 10
116.520697
 20
5.198760
 30
0.0
  0
SPLINE
  5
124
100
AcDbEntity
  8
Layer_1
 62
7
100
AcDbSpline
 70
8
 71
3
 72
8
 73
4
 74
0
 40
0
 40
0
 40
0
 40
0
 40
1
 40
1
 40
1
 40
1
 10
116.520697
 20
5.198760
 30
0.0
 10
116.826337
 20
5.736450
 30
0.0
 10
117.551687
 20
7.285720
 30
0.0
 10
118.132627
 20
8.641549
 30
0.0
  0
SPLINE
  5
125
100
AcDbEntity
  8
Layer_1
 62
7
100
AcDbSpline
 70
8
 71
3
 72
8
 73
4
 74
0
 40
0
 40
0
 40
0
 40
0
 40
1
 40
1
 40
1
 40
1
 10
118.132627
 20
8.641549
 30
0.0
 10
121.918866
 20
17.478388
 30
0.0
 10
121.138366
 20
23.201456
 30
0.0
 10
115.673297
 20
26.674946
 30
0.0
  0
SPLINE
  5
126
100
AcDbEntity
  8
Layer_1
 62
7
100
AcDbSpline
 70
8
 71
3
 72
8
 73
4
 74
0
 40
0
 40
0
 40
0
 40
0
 40
1
 40
1
 40
1
 40
1
 10
115.673297
 20
26.674946
 30
0.0
 10
111.509218
 20
29.321555
 30
0.0
 10
105.991547
 20
26.922336
 30
0.0
 10
100.511571
 20
20.082277
 30
0.0
  0
LWPOLYLINE
  5
127
100
AcDbEntity
  8
Layer_1
 62
7
100
AcDbPolyline
 90
3
 70
0
 10
104.820646
 20
90.381471
 30
0.0
 10
103.609731
 20
92.160772
 30
0.0
 10
105.514712
 20
91.317595
 30
0.0
  0
SPLINE
  5
128
100
AcDbEntity
  8
Layer_1
 62
7
100
AcDbSpline
 70
8
 71
3
 72
8
 73
4
 74
0
 40
0
 40
0
 40
0
 40
0
 40
1
 40
1
 40
1
 40
1
 10
97.710029
 20
19.134787
 30
0.0
 10
95.689927
 20
25.321886
 30
0.0
 10
90.619672
 20
28.080605
 30
0.0
 10
86.407335
 20
25.284566
 30
0.0
  0
SPLINE
  5
129
100
AcDbEntity
  8
Layer_1
 62
7
100
AcDbSpline
 70
8
 71
3
 72
8
 73
4
 74
0
 40
0
 40
0
 40
0
 40
0
 40
1
 40
1
 40
1
 40
1
 10
86.407335
 20
25.284566
 30
0.0
 10
82.769836
 20
22.870116
 30
0.0
 10
77.607489
 20
14.230198
 30
0.0
 10
74.014720
 20
4.543800
 30
0.0
  0
LWPOLYLINE
  5
12a
100
AcDbEntity
  8
Layer_1
 62
7
100
AcDbPolyline
 90
3
 70
0
 10
100.511571
 20
20.082277
 30
0.0
 10
98.301403
 20
17.323558
 30
0.0
 10
97.710029
 20
19.134787
 30
0.0
  0
LWPOLYLINE
  5
12b
100
AcDbEntity
  8
Layer_1
 62
7
100
AcDbPolyline
 90
3
 70
0
 10
74.014720
 20
4.543800
 30
0.0
 10
72.515769
 20
0.502521
 30
0.0
 10
71.094306
 20
4.338100
 30
0.0
  0
ENDSEC
  0
SECTION
  2
OBJECTS
  0
DICTIONARY
  5
C
330
0
100
AcDbDictionary
  3
ACAD_GROUP
350
D
  3
ACAD_MLINESTYLE
350
17
  0
DICTIONARY
  5
D
330
C
100
AcDbDictionary
  0
DICTIONARY
  5
1A
330
C
100
AcDbDictionary
  0
DICTIONARY
  5
17
330
C
100
AcDbDictionary
  3
STANDARD
350
18
  0
DICTIONARY
  5
19
330
C
100
AcDbDictionary
  0
ENDSEC
  0
EOF
