%TF.GenerationSoftware,KiCad,Pcbnew,7.0.7*%
%TF.CreationDate,2023-09-19T21:30:54-07:00*%
%TF.ProjectId,PCB Layout,50434220-4c61-4796-9f75-742e6b696361,rev?*%
%TF.SameCoordinates,Original*%
%TF.FileFunction,Copper,L2,Bot*%
%TF.FilePolarity,Positive*%
%FSLAX46Y46*%
G04 Gerber Fmt 4.6, Leading zero omitted, Abs format (unit mm)*
G04 Created by KiCad (PCBNEW 7.0.7) date 2023-09-19 21:30:54*
%MOMM*%
%LPD*%
G01*
G04 APERTURE LIST*
%TA.AperFunction,ComponentPad*%
%ADD10R,1.700000X1.700000*%
%TD*%
%TA.AperFunction,ComponentPad*%
%ADD11O,1.700000X1.700000*%
%TD*%
%TA.AperFunction,ComponentPad*%
%ADD12C,1.600000*%
%TD*%
%TA.AperFunction,ComponentPad*%
%ADD13O,1.600000X1.600000*%
%TD*%
%TA.AperFunction,ComponentPad*%
%ADD14C,5.400000*%
%TD*%
%TA.AperFunction,Conductor*%
%ADD15C,0.250000*%
%TD*%
G04 APERTURE END LIST*
D10*
%TO.P,J4,1,Pin_1*%
%TO.N,+9V*%
X223012000Y-77241400D03*
D11*
%TO.P,J4,2,Pin_2*%
%TO.N,GND*%
X223012000Y-79781400D03*
%TD*%
D12*
%TO.P,R6,1*%
%TO.N,+9V*%
X216505000Y-93600000D03*
D13*
%TO.P,R6,2*%
%TO.N,Net-(D4-A)*%
X224125000Y-93600000D03*
%TD*%
D12*
%TO.P,R5,1*%
%TO.N,Net-(J2-Pin_7)*%
X152915000Y-77089000D03*
D13*
%TO.P,R5,2*%
%TO.N,Net-(D3-A)*%
X160535000Y-77089000D03*
%TD*%
%TO.P,R4,2*%
%TO.N,Net-(J2-Pin_6)*%
X152815000Y-83650000D03*
D12*
%TO.P,R4,1*%
%TO.N,Net-(D2-A)*%
X160435000Y-83650000D03*
%TD*%
%TO.P,R3,1*%
%TO.N,Net-(J2-Pin_5)*%
X152815000Y-90125000D03*
D13*
%TO.P,R3,2*%
%TO.N,Net-(D1-A)*%
X160435000Y-90125000D03*
%TD*%
D12*
%TO.P,R2,1*%
%TO.N,Net-(J2-Pin_1)*%
X160485000Y-96400000D03*
D13*
%TO.P,R2,2*%
%TO.N,GND*%
X152865000Y-96400000D03*
%TD*%
D12*
%TO.P,R1,1*%
%TO.N,+9V*%
X172535000Y-101525000D03*
D13*
%TO.P,R1,2*%
%TO.N,Net-(J2-Pin_1)*%
X164915000Y-101525000D03*
%TD*%
D14*
%TO.P,H1,1*%
%TO.N,N/C*%
X97078800Y-65887600D03*
%TD*%
D10*
%TO.P,J2,1,Pin_1*%
%TO.N,Net-(J2-Pin_1)*%
X130886200Y-101752400D03*
D11*
%TO.P,J2,2,Pin_2*%
%TO.N,GND*%
X128346200Y-101752400D03*
%TO.P,J2,3,Pin_3*%
%TO.N,Net-(J2-Pin_3)*%
X125806200Y-101752400D03*
%TO.P,J2,4,Pin_4*%
%TO.N,Net-(J2-Pin_4)*%
X123266200Y-101752400D03*
%TO.P,J2,5,Pin_5*%
%TO.N,Net-(J2-Pin_5)*%
X120726200Y-101752400D03*
%TO.P,J2,6,Pin_6*%
%TO.N,Net-(J2-Pin_6)*%
X118186200Y-101752400D03*
%TO.P,J2,7,Pin_7*%
%TO.N,Net-(J2-Pin_7)*%
X115646200Y-101752400D03*
%TO.P,J2,8,Pin_8*%
%TO.N,unconnected-(J2-Pin_8-Pad8)*%
X113106200Y-101752400D03*
%TO.P,J2,9,Pin_9*%
%TO.N,unconnected-(J2-Pin_9-Pad9)*%
X110566200Y-101752400D03*
%TO.P,J2,10,Pin_10*%
%TO.N,unconnected-(J2-Pin_10-Pad10)*%
X108026200Y-101752400D03*
%TO.P,J2,11,Pin_11*%
%TO.N,unconnected-(J2-Pin_11-Pad11)*%
X105486200Y-101752400D03*
%TO.P,J2,12,Pin_12*%
%TO.N,unconnected-(J2-Pin_12-Pad12)*%
X102946200Y-101752400D03*
%TO.P,J2,13,Pin_13*%
%TO.N,unconnected-(J2-Pin_13-Pad13)*%
X100406200Y-101752400D03*
%TO.P,J2,14,Pin_14*%
%TO.N,unconnected-(J2-Pin_14-Pad14)*%
X97866200Y-101752400D03*
%TO.P,J2,15,Pin_15*%
%TO.N,unconnected-(J2-Pin_15-Pad15)*%
X95326200Y-101752400D03*
%TD*%
D10*
%TO.P,J1,1,Pin_1*%
%TO.N,unconnected-(J1-Pin_1-Pad1)*%
X95326200Y-78892400D03*
D11*
%TO.P,J1,2,Pin_2*%
%TO.N,unconnected-(J1-Pin_2-Pad2)*%
X97866200Y-78892400D03*
%TO.P,J1,3,Pin_3*%
%TO.N,unconnected-(J1-Pin_3-Pad3)*%
X100406200Y-78892400D03*
%TO.P,J1,4,Pin_4*%
%TO.N,unconnected-(J1-Pin_4-Pad4)*%
X102946200Y-78892400D03*
%TO.P,J1,5,Pin_5*%
%TO.N,unconnected-(J1-Pin_5-Pad5)*%
X105486200Y-78892400D03*
%TO.P,J1,6,Pin_6*%
%TO.N,unconnected-(J1-Pin_6-Pad6)*%
X108026200Y-78892400D03*
%TO.P,J1,7,Pin_7*%
%TO.N,unconnected-(J1-Pin_7-Pad7)*%
X110566200Y-78892400D03*
%TO.P,J1,8,Pin_8*%
%TO.N,unconnected-(J1-Pin_8-Pad8)*%
X113106200Y-78892400D03*
%TO.P,J1,9,Pin_9*%
%TO.N,unconnected-(J1-Pin_9-Pad9)*%
X115646200Y-78892400D03*
%TO.P,J1,10,Pin_10*%
%TO.N,unconnected-(J1-Pin_10-Pad10)*%
X118186200Y-78892400D03*
%TO.P,J1,11,Pin_11*%
%TO.N,unconnected-(J1-Pin_11-Pad11)*%
X120726200Y-78892400D03*
%TO.P,J1,12,Pin_12*%
%TO.N,unconnected-(J1-Pin_12-Pad12)*%
X123266200Y-78892400D03*
%TO.P,J1,13,Pin_13*%
%TO.N,unconnected-(J1-Pin_13-Pad13)*%
X125806200Y-78892400D03*
%TO.P,J1,14,Pin_14*%
%TO.N,unconnected-(J1-Pin_14-Pad14)*%
X128346200Y-78892400D03*
%TO.P,J1,15,Pin_15*%
%TO.N,unconnected-(J1-Pin_15-Pad15)*%
X130886200Y-78892400D03*
%TD*%
D10*
%TO.P,J3,1,Pin_1*%
%TO.N,Net-(J2-Pin_1)*%
X192024000Y-91287600D03*
D11*
%TO.P,J3,2,Pin_2*%
%TO.N,Net-(J2-Pin_4)*%
X194564000Y-91287600D03*
%TO.P,J3,3,Pin_3*%
%TO.N,Net-(J2-Pin_3)*%
X197104000Y-91287600D03*
%TO.P,J3,4,Pin_4*%
%TO.N,GND*%
X199644000Y-91287600D03*
%TD*%
D15*
%TO.N,Net-(J2-Pin_1)*%
X160485000Y-97800000D02*
X160980000Y-98295000D01*
X160485000Y-96400000D02*
X160485000Y-97800000D01*
X157522600Y-101752400D02*
X160980000Y-98295000D01*
X130886200Y-101752400D02*
X157522600Y-101752400D01*
X185016600Y-98295000D02*
X160980000Y-98295000D01*
X192024000Y-91287600D02*
X185016600Y-98295000D01*
X160980000Y-98295000D02*
X164210000Y-101525000D01*
X164210000Y-101525000D02*
X164915000Y-101525000D01*
%TO.N,Net-(J2-Pin_6)*%
X154715000Y-83439000D02*
X137287000Y-83439000D01*
%TO.N,Net-(J2-Pin_4)*%
X194564000Y-90170000D02*
X194564000Y-91287600D01*
X192328800Y-87934800D02*
X194564000Y-90170000D01*
X189941200Y-87934800D02*
X192328800Y-87934800D01*
X185369200Y-92506800D02*
X189941200Y-87934800D01*
X165481000Y-92506800D02*
X185369200Y-92506800D01*
X124917200Y-91414600D02*
X164388800Y-91414600D01*
X123266200Y-93065600D02*
X124917200Y-91414600D01*
X123266200Y-101752400D02*
X123266200Y-93065600D01*
X164388800Y-91414600D02*
X165481000Y-92506800D01*
%TO.N,Net-(J2-Pin_3)*%
X128981200Y-104927400D02*
X125806200Y-101752400D01*
X192735200Y-104927400D02*
X128981200Y-104927400D01*
X197104000Y-91287600D02*
X197104000Y-100558600D01*
X197104000Y-100558600D02*
X192735200Y-104927400D01*
%TO.N,Net-(J2-Pin_5)*%
X122478800Y-89306400D02*
X157247800Y-89306400D01*
X120726200Y-91059000D02*
X122478800Y-89306400D01*
X120726200Y-101752400D02*
X120726200Y-91059000D01*
%TO.N,Net-(J2-Pin_6)*%
X121691400Y-85572600D02*
X135153400Y-85572600D01*
X118186200Y-89077800D02*
X121691400Y-85572600D01*
X118186200Y-101752400D02*
X118186200Y-89077800D01*
X135153400Y-85572600D02*
X137287000Y-83439000D01*
%TO.N,Net-(J2-Pin_7)*%
X115646200Y-87579200D02*
X115646200Y-101752400D01*
X119862600Y-83362800D02*
X115646200Y-87579200D01*
X138963400Y-77089000D02*
X132689600Y-83362800D01*
X132689600Y-83362800D02*
X119862600Y-83362800D01*
X157451000Y-77089000D02*
X138963400Y-77089000D01*
%TD*%
%TA.AperFunction,Conductor*%
%TO.N,+9V*%
G36*
X195915905Y-91961115D02*
G01*
X195937804Y-91986387D01*
X196028278Y-92124868D01*
X196028283Y-92124873D01*
X196028284Y-92124876D01*
X196140526Y-92246801D01*
X196180760Y-92290506D01*
X196358424Y-92428789D01*
X196358426Y-92428790D01*
X196358433Y-92428795D01*
X196405516Y-92454274D01*
X196455107Y-92503492D01*
X196470500Y-92563329D01*
X196470500Y-100244833D01*
X196450815Y-100311872D01*
X196434181Y-100332514D01*
X192509114Y-104257581D01*
X192447791Y-104291066D01*
X192421433Y-104293900D01*
X129294966Y-104293900D01*
X129227927Y-104274215D01*
X129207285Y-104257581D01*
X128272285Y-103322581D01*
X128238800Y-103261258D01*
X128243784Y-103191566D01*
X128285656Y-103135633D01*
X128351120Y-103111216D01*
X128359966Y-103110900D01*
X128458769Y-103110900D01*
X128680835Y-103073844D01*
X128893774Y-103000742D01*
X129091776Y-102893589D01*
X129269440Y-102755306D01*
X129332652Y-102686639D01*
X129392537Y-102650650D01*
X129462375Y-102652749D01*
X129519991Y-102692273D01*
X129540061Y-102727288D01*
X129578359Y-102829966D01*
X129585311Y-102848604D01*
X129672939Y-102965661D01*
X129789996Y-103053289D01*
X129926999Y-103104389D01*
X129954250Y-103107318D01*
X129987545Y-103110899D01*
X129987562Y-103110900D01*
X131784838Y-103110900D01*
X131784854Y-103110899D01*
X131811892Y-103107991D01*
X131845401Y-103104389D01*
X131982404Y-103053289D01*
X132099461Y-102965661D01*
X132187089Y-102848604D01*
X132238189Y-102711601D01*
X132241791Y-102678092D01*
X132244699Y-102651054D01*
X132244700Y-102651037D01*
X132244700Y-102509900D01*
X132264385Y-102442861D01*
X132317189Y-102397106D01*
X132368700Y-102385900D01*
X157438966Y-102385900D01*
X157454713Y-102387638D01*
X157454739Y-102387368D01*
X157462505Y-102388101D01*
X157462509Y-102388102D01*
X157532558Y-102385900D01*
X157562456Y-102385900D01*
X157562457Y-102385900D01*
X157563822Y-102385727D01*
X157569462Y-102385014D01*
X157575285Y-102384556D01*
X157601308Y-102383738D01*
X157622490Y-102383073D01*
X157632281Y-102380227D01*
X157642081Y-102377380D01*
X157661138Y-102373432D01*
X157681397Y-102370874D01*
X157725321Y-102353482D01*
X157730821Y-102351599D01*
X157776193Y-102338418D01*
X157793765Y-102328025D01*
X157811232Y-102319468D01*
X157830217Y-102311952D01*
X157868426Y-102284190D01*
X157873304Y-102280985D01*
X157913962Y-102256942D01*
X157928402Y-102242500D01*
X157943192Y-102229870D01*
X157959707Y-102217872D01*
X157989822Y-102181467D01*
X157993726Y-102177176D01*
X160892320Y-99278583D01*
X160953641Y-99245100D01*
X161023333Y-99250084D01*
X161067680Y-99278585D01*
X163626978Y-101837883D01*
X163659071Y-101893468D01*
X163680715Y-101974242D01*
X163680717Y-101974247D01*
X163777475Y-102181745D01*
X163777477Y-102181749D01*
X163908802Y-102369300D01*
X164070700Y-102531198D01*
X164258251Y-102662523D01*
X164309973Y-102686641D01*
X164465750Y-102759281D01*
X164465752Y-102759281D01*
X164465757Y-102759284D01*
X164686913Y-102818543D01*
X164849832Y-102832796D01*
X164914998Y-102838498D01*
X164915000Y-102838498D01*
X164915002Y-102838498D01*
X164972021Y-102833509D01*
X165143087Y-102818543D01*
X165364243Y-102759284D01*
X165571749Y-102662523D01*
X165759300Y-102531198D01*
X165921198Y-102369300D01*
X166052523Y-102181749D01*
X166149284Y-101974243D01*
X166208543Y-101753087D01*
X166228498Y-101525002D01*
X171230034Y-101525002D01*
X171249858Y-101751599D01*
X171249860Y-101751610D01*
X171308730Y-101971317D01*
X171308734Y-101971326D01*
X171404865Y-102177481D01*
X171404866Y-102177483D01*
X171455973Y-102250471D01*
X171455973Y-102250472D01*
X171997580Y-101708865D01*
X172058903Y-101675380D01*
X172128594Y-101680364D01*
X172184528Y-101722235D01*
X172195742Y-101740246D01*
X172201527Y-101751599D01*
X172207358Y-101763044D01*
X172207363Y-101763050D01*
X172296949Y-101852636D01*
X172296951Y-101852637D01*
X172296955Y-101852641D01*
X172319747Y-101864254D01*
X172370542Y-101912228D01*
X172387337Y-101980049D01*
X172364799Y-102046184D01*
X172351132Y-102062419D01*
X171809526Y-102604025D01*
X171809526Y-102604026D01*
X171882512Y-102655131D01*
X171882516Y-102655133D01*
X172088673Y-102751265D01*
X172088682Y-102751269D01*
X172308389Y-102810139D01*
X172308400Y-102810141D01*
X172534998Y-102829966D01*
X172535002Y-102829966D01*
X172761599Y-102810141D01*
X172761610Y-102810139D01*
X172981317Y-102751269D01*
X172981331Y-102751264D01*
X173187478Y-102655136D01*
X173260472Y-102604025D01*
X172718866Y-102062419D01*
X172685381Y-102001096D01*
X172690365Y-101931404D01*
X172732237Y-101875471D01*
X172750245Y-101864258D01*
X172773045Y-101852641D01*
X172862641Y-101763045D01*
X172874254Y-101740252D01*
X172922225Y-101689458D01*
X172990046Y-101672661D01*
X173056181Y-101695197D01*
X173072419Y-101708866D01*
X173614025Y-102250472D01*
X173665136Y-102177478D01*
X173761264Y-101971331D01*
X173761269Y-101971317D01*
X173820139Y-101751610D01*
X173820141Y-101751599D01*
X173839966Y-101525002D01*
X173839966Y-101524997D01*
X173820141Y-101298400D01*
X173820139Y-101298389D01*
X173761269Y-101078682D01*
X173761265Y-101078673D01*
X173665133Y-100872516D01*
X173665131Y-100872512D01*
X173614026Y-100799526D01*
X173614025Y-100799526D01*
X173072419Y-101341132D01*
X173011096Y-101374617D01*
X172941404Y-101369633D01*
X172885471Y-101327761D01*
X172874256Y-101309751D01*
X172862641Y-101286955D01*
X172862637Y-101286951D01*
X172862636Y-101286949D01*
X172773050Y-101197363D01*
X172773044Y-101197358D01*
X172763109Y-101192296D01*
X172750250Y-101185744D01*
X172699456Y-101137773D01*
X172682660Y-101069952D01*
X172705197Y-101003817D01*
X172718865Y-100987580D01*
X173260472Y-100445973D01*
X173187483Y-100394866D01*
X173187481Y-100394865D01*
X172981326Y-100298734D01*
X172981317Y-100298730D01*
X172761610Y-100239860D01*
X172761599Y-100239858D01*
X172535002Y-100220034D01*
X172534998Y-100220034D01*
X172308400Y-100239858D01*
X172308389Y-100239860D01*
X172088682Y-100298730D01*
X172088673Y-100298734D01*
X171882513Y-100394868D01*
X171809526Y-100445973D01*
X172351133Y-100987580D01*
X172384618Y-101048903D01*
X172379634Y-101118595D01*
X172337762Y-101174528D01*
X172319748Y-101185745D01*
X172296956Y-101197358D01*
X172296949Y-101197363D01*
X172207363Y-101286949D01*
X172207358Y-101286956D01*
X172195745Y-101309748D01*
X172147770Y-101360544D01*
X172079949Y-101377338D01*
X172013814Y-101354800D01*
X171997580Y-101341133D01*
X171455973Y-100799526D01*
X171404868Y-100872513D01*
X171308734Y-101078673D01*
X171308730Y-101078682D01*
X171249860Y-101298389D01*
X171249858Y-101298400D01*
X171230034Y-101524997D01*
X171230034Y-101525002D01*
X166228498Y-101525002D01*
X166228498Y-101525000D01*
X166208543Y-101296913D01*
X166149284Y-101075757D01*
X166138954Y-101053605D01*
X166100196Y-100970486D01*
X166052523Y-100868251D01*
X165921198Y-100680700D01*
X165759300Y-100518802D01*
X165571749Y-100387477D01*
X165571745Y-100387475D01*
X165364249Y-100290718D01*
X165364238Y-100290714D01*
X165143089Y-100231457D01*
X165143081Y-100231456D01*
X164915002Y-100211502D01*
X164914998Y-100211502D01*
X164686918Y-100231456D01*
X164686910Y-100231457D01*
X164465761Y-100290714D01*
X164465750Y-100290718D01*
X164258254Y-100387475D01*
X164258246Y-100387480D01*
X164172990Y-100447176D01*
X164106783Y-100469504D01*
X164039016Y-100452492D01*
X164014186Y-100433282D01*
X162721086Y-99140181D01*
X162687601Y-99078858D01*
X162692585Y-99009166D01*
X162734457Y-98953233D01*
X162799921Y-98928816D01*
X162808767Y-98928500D01*
X184932966Y-98928500D01*
X184948713Y-98930238D01*
X184948739Y-98929968D01*
X184956505Y-98930701D01*
X184956509Y-98930702D01*
X185026558Y-98928500D01*
X185056456Y-98928500D01*
X185056457Y-98928500D01*
X185057822Y-98928327D01*
X185063462Y-98927614D01*
X185069285Y-98927156D01*
X185095308Y-98926338D01*
X185116490Y-98925673D01*
X185126281Y-98922827D01*
X185136081Y-98919980D01*
X185155138Y-98916032D01*
X185175397Y-98913474D01*
X185219321Y-98896082D01*
X185224821Y-98894199D01*
X185270193Y-98881018D01*
X185287765Y-98870625D01*
X185305232Y-98862068D01*
X185324217Y-98854552D01*
X185362426Y-98826790D01*
X185367304Y-98823585D01*
X185407962Y-98799542D01*
X185422402Y-98785100D01*
X185437192Y-98772470D01*
X185453707Y-98760472D01*
X185483822Y-98724067D01*
X185487726Y-98719776D01*
X191525085Y-92682419D01*
X191586409Y-92648934D01*
X191612767Y-92646100D01*
X192922638Y-92646100D01*
X192922654Y-92646099D01*
X192949692Y-92643191D01*
X192983201Y-92639589D01*
X193120204Y-92588489D01*
X193237261Y-92500861D01*
X193324889Y-92383804D01*
X193370138Y-92262487D01*
X193412009Y-92206556D01*
X193477474Y-92182139D01*
X193545746Y-92196991D01*
X193577545Y-92221836D01*
X193640760Y-92290506D01*
X193818424Y-92428789D01*
X193818425Y-92428789D01*
X193818427Y-92428791D01*
X193930499Y-92489441D01*
X194016426Y-92535942D01*
X194229365Y-92609044D01*
X194451431Y-92646100D01*
X194676569Y-92646100D01*
X194898635Y-92609044D01*
X195111574Y-92535942D01*
X195309576Y-92428789D01*
X195487240Y-92290506D01*
X195639722Y-92124868D01*
X195730193Y-91986390D01*
X195783338Y-91941037D01*
X195852569Y-91931613D01*
X195915905Y-91961115D01*
G37*
%TD.AperFunction*%
%TA.AperFunction,Conductor*%
G36*
X226240890Y-73685310D02*
G01*
X226307915Y-73705043D01*
X226353632Y-73757880D01*
X226364800Y-73809310D01*
X226364800Y-106606754D01*
X226345115Y-106673793D01*
X226292311Y-106719548D01*
X226240755Y-106730754D01*
X86509259Y-106680044D01*
X86442227Y-106660335D01*
X86396491Y-106607515D01*
X86385304Y-106556143D01*
X86381617Y-101752405D01*
X93963044Y-101752405D01*
X93981634Y-101976759D01*
X93981636Y-101976771D01*
X94036903Y-102195014D01*
X94127340Y-102401192D01*
X94250476Y-102589665D01*
X94250484Y-102589676D01*
X94402956Y-102755302D01*
X94402960Y-102755306D01*
X94580624Y-102893589D01*
X94580625Y-102893589D01*
X94580627Y-102893591D01*
X94632055Y-102921422D01*
X94778626Y-103000742D01*
X94991565Y-103073844D01*
X95213631Y-103110900D01*
X95438769Y-103110900D01*
X95660835Y-103073844D01*
X95873774Y-103000742D01*
X96071776Y-102893589D01*
X96249440Y-102755306D01*
X96348814Y-102647357D01*
X96401915Y-102589676D01*
X96401915Y-102589675D01*
X96401922Y-102589668D01*
X96492393Y-102451190D01*
X96545538Y-102405837D01*
X96614769Y-102396413D01*
X96678105Y-102425915D01*
X96700004Y-102451187D01*
X96790478Y-102589668D01*
X96790483Y-102589673D01*
X96790484Y-102589676D01*
X96942956Y-102755302D01*
X96942960Y-102755306D01*
X97120624Y-102893589D01*
X97120625Y-102893589D01*
X97120627Y-102893591D01*
X97172055Y-102921422D01*
X97318626Y-103000742D01*
X97531565Y-103073844D01*
X97753631Y-103110900D01*
X97978769Y-103110900D01*
X98200835Y-103073844D01*
X98413774Y-103000742D01*
X98611776Y-102893589D01*
X98789440Y-102755306D01*
X98888814Y-102647357D01*
X98941915Y-102589676D01*
X98941915Y-102589675D01*
X98941922Y-102589668D01*
X99032393Y-102451190D01*
X99085538Y-102405837D01*
X99154769Y-102396413D01*
X99218105Y-102425915D01*
X99240004Y-102451187D01*
X99330478Y-102589668D01*
X99330483Y-102589673D01*
X99330484Y-102589676D01*
X99482956Y-102755302D01*
X99482960Y-102755306D01*
X99660624Y-102893589D01*
X99660625Y-102893589D01*
X99660627Y-102893591D01*
X99712055Y-102921422D01*
X99858626Y-103000742D01*
X100071565Y-103073844D01*
X100293631Y-103110900D01*
X100518769Y-103110900D01*
X100740835Y-103073844D01*
X100953774Y-103000742D01*
X101151776Y-102893589D01*
X101329440Y-102755306D01*
X101428814Y-102647357D01*
X101481915Y-102589676D01*
X101481915Y-102589675D01*
X101481922Y-102589668D01*
X101572393Y-102451190D01*
X101625538Y-102405837D01*
X101694769Y-102396413D01*
X101758105Y-102425915D01*
X101780004Y-102451187D01*
X101870478Y-102589668D01*
X101870483Y-102589673D01*
X101870484Y-102589676D01*
X102022956Y-102755302D01*
X102022960Y-102755306D01*
X102200624Y-102893589D01*
X102200625Y-102893589D01*
X102200627Y-102893591D01*
X102252055Y-102921422D01*
X102398626Y-103000742D01*
X102611565Y-103073844D01*
X102833631Y-103110900D01*
X103058769Y-103110900D01*
X103280835Y-103073844D01*
X103493774Y-103000742D01*
X103691776Y-102893589D01*
X103869440Y-102755306D01*
X103968814Y-102647357D01*
X104021915Y-102589676D01*
X104021915Y-102589675D01*
X104021922Y-102589668D01*
X104112393Y-102451190D01*
X104165538Y-102405837D01*
X104234769Y-102396413D01*
X104298105Y-102425915D01*
X104320004Y-102451187D01*
X104410478Y-102589668D01*
X104410483Y-102589673D01*
X104410484Y-102589676D01*
X104562956Y-102755302D01*
X104562960Y-102755306D01*
X104740624Y-102893589D01*
X104740625Y-102893589D01*
X104740627Y-102893591D01*
X104792055Y-102921422D01*
X104938626Y-103000742D01*
X105151565Y-103073844D01*
X105373631Y-103110900D01*
X105598769Y-103110900D01*
X105820835Y-103073844D01*
X106033774Y-103000742D01*
X106231776Y-102893589D01*
X106409440Y-102755306D01*
X106508814Y-102647357D01*
X106561915Y-102589676D01*
X106561915Y-102589675D01*
X106561922Y-102589668D01*
X106652393Y-102451190D01*
X106705538Y-102405837D01*
X106774769Y-102396413D01*
X106838105Y-102425915D01*
X106860004Y-102451187D01*
X106950478Y-102589668D01*
X106950483Y-102589673D01*
X106950484Y-102589676D01*
X107102956Y-102755302D01*
X107102960Y-102755306D01*
X107280624Y-102893589D01*
X107280625Y-102893589D01*
X107280627Y-102893591D01*
X107332055Y-102921422D01*
X107478626Y-103000742D01*
X107691565Y-103073844D01*
X107913631Y-103110900D01*
X108138769Y-103110900D01*
X108360835Y-103073844D01*
X108573774Y-103000742D01*
X108771776Y-102893589D01*
X108949440Y-102755306D01*
X109048814Y-102647357D01*
X109101915Y-102589676D01*
X109101915Y-102589675D01*
X109101922Y-102589668D01*
X109192393Y-102451190D01*
X109245538Y-102405837D01*
X109314769Y-102396413D01*
X109378105Y-102425915D01*
X109400004Y-102451187D01*
X109490478Y-102589668D01*
X109490483Y-102589673D01*
X109490484Y-102589676D01*
X109642956Y-102755302D01*
X109642960Y-102755306D01*
X109820624Y-102893589D01*
X109820625Y-102893589D01*
X109820627Y-102893591D01*
X109872055Y-102921422D01*
X110018626Y-103000742D01*
X110231565Y-103073844D01*
X110453631Y-103110900D01*
X110678769Y-103110900D01*
X110900835Y-103073844D01*
X111113774Y-103000742D01*
X111311776Y-102893589D01*
X111489440Y-102755306D01*
X111588814Y-102647357D01*
X111641915Y-102589676D01*
X111641915Y-102589675D01*
X111641922Y-102589668D01*
X111732393Y-102451190D01*
X111785538Y-102405837D01*
X111854769Y-102396413D01*
X111918105Y-102425915D01*
X111940004Y-102451187D01*
X112030478Y-102589668D01*
X112030483Y-102589673D01*
X112030484Y-102589676D01*
X112182956Y-102755302D01*
X112182960Y-102755306D01*
X112360624Y-102893589D01*
X112360625Y-102893589D01*
X112360627Y-102893591D01*
X112412055Y-102921422D01*
X112558626Y-103000742D01*
X112771565Y-103073844D01*
X112993631Y-103110900D01*
X113218769Y-103110900D01*
X113440835Y-103073844D01*
X113653774Y-103000742D01*
X113851776Y-102893589D01*
X114029440Y-102755306D01*
X114128814Y-102647357D01*
X114181915Y-102589676D01*
X114181915Y-102589675D01*
X114181922Y-102589668D01*
X114272393Y-102451190D01*
X114325538Y-102405837D01*
X114394769Y-102396413D01*
X114458105Y-102425915D01*
X114480004Y-102451187D01*
X114570478Y-102589668D01*
X114570483Y-102589673D01*
X114570484Y-102589676D01*
X114722956Y-102755302D01*
X114722960Y-102755306D01*
X114900624Y-102893589D01*
X114900625Y-102893589D01*
X114900627Y-102893591D01*
X114952055Y-102921422D01*
X115098626Y-103000742D01*
X115311565Y-103073844D01*
X115533631Y-103110900D01*
X115758769Y-103110900D01*
X115980835Y-103073844D01*
X116193774Y-103000742D01*
X116391776Y-102893589D01*
X116569440Y-102755306D01*
X116668814Y-102647357D01*
X116721915Y-102589676D01*
X116721915Y-102589675D01*
X116721922Y-102589668D01*
X116812393Y-102451190D01*
X116865538Y-102405837D01*
X116934769Y-102396413D01*
X116998105Y-102425915D01*
X117020004Y-102451187D01*
X117110478Y-102589668D01*
X117110483Y-102589673D01*
X117110484Y-102589676D01*
X117262956Y-102755302D01*
X117262960Y-102755306D01*
X117440624Y-102893589D01*
X117440625Y-102893589D01*
X117440627Y-102893591D01*
X117492055Y-102921422D01*
X117638626Y-103000742D01*
X117851565Y-103073844D01*
X118073631Y-103110900D01*
X118298769Y-103110900D01*
X118520835Y-103073844D01*
X118733774Y-103000742D01*
X118931776Y-102893589D01*
X119109440Y-102755306D01*
X119208814Y-102647357D01*
X119261915Y-102589676D01*
X119261915Y-102589675D01*
X119261922Y-102589668D01*
X119352393Y-102451190D01*
X119405538Y-102405837D01*
X119474769Y-102396413D01*
X119538105Y-102425915D01*
X119560004Y-102451187D01*
X119650478Y-102589668D01*
X119650483Y-102589673D01*
X119650484Y-102589676D01*
X119802956Y-102755302D01*
X119802960Y-102755306D01*
X119980624Y-102893589D01*
X119980625Y-102893589D01*
X119980627Y-102893591D01*
X120032055Y-102921422D01*
X120178626Y-103000742D01*
X120391565Y-103073844D01*
X120613631Y-103110900D01*
X120838769Y-103110900D01*
X121060835Y-103073844D01*
X121273774Y-103000742D01*
X121471776Y-102893589D01*
X121649440Y-102755306D01*
X121748814Y-102647357D01*
X121801915Y-102589676D01*
X121801915Y-102589675D01*
X121801922Y-102589668D01*
X121892393Y-102451190D01*
X121945538Y-102405837D01*
X122014769Y-102396413D01*
X122078105Y-102425915D01*
X122100004Y-102451187D01*
X122190478Y-102589668D01*
X122190483Y-102589673D01*
X122190484Y-102589676D01*
X122342956Y-102755302D01*
X122342960Y-102755306D01*
X122520624Y-102893589D01*
X122520625Y-102893589D01*
X122520627Y-102893591D01*
X122572055Y-102921422D01*
X122718626Y-103000742D01*
X122931565Y-103073844D01*
X123153631Y-103110900D01*
X123378769Y-103110900D01*
X123600835Y-103073844D01*
X123813774Y-103000742D01*
X124011776Y-102893589D01*
X124189440Y-102755306D01*
X124288814Y-102647357D01*
X124341915Y-102589676D01*
X124341917Y-102589673D01*
X124341922Y-102589668D01*
X124432393Y-102451191D01*
X124485536Y-102405837D01*
X124554767Y-102396413D01*
X124618103Y-102425915D01*
X124640007Y-102451193D01*
X124730476Y-102589665D01*
X124730484Y-102589676D01*
X124882956Y-102755302D01*
X124882960Y-102755306D01*
X125060624Y-102893589D01*
X125060625Y-102893589D01*
X125060627Y-102893591D01*
X125112055Y-102921422D01*
X125258626Y-103000742D01*
X125471565Y-103073844D01*
X125693631Y-103110900D01*
X125918769Y-103110900D01*
X126140830Y-103073845D01*
X126140831Y-103073844D01*
X126140835Y-103073844D01*
X126140837Y-103073842D01*
X126145049Y-103072776D01*
X126214869Y-103075388D01*
X126263191Y-103105295D01*
X128474112Y-105316217D01*
X128484016Y-105328578D01*
X128484226Y-105328405D01*
X128489201Y-105334419D01*
X128540278Y-105382384D01*
X128561424Y-105403530D01*
X128567013Y-105407866D01*
X128571445Y-105411652D01*
X128593053Y-105431942D01*
X128605880Y-105443987D01*
X128623762Y-105453817D01*
X128640029Y-105464502D01*
X128656160Y-105477015D01*
X128675883Y-105485549D01*
X128699507Y-105495771D01*
X128704733Y-105498331D01*
X128746140Y-105521095D01*
X128765916Y-105526172D01*
X128784324Y-105532475D01*
X128803050Y-105540579D01*
X128803052Y-105540580D01*
X128803053Y-105540580D01*
X128803055Y-105540581D01*
X128843984Y-105547063D01*
X128849703Y-105547969D01*
X128855412Y-105549151D01*
X128901170Y-105560900D01*
X128921584Y-105560900D01*
X128940983Y-105562427D01*
X128961143Y-105565620D01*
X129008165Y-105561175D01*
X129014004Y-105560900D01*
X192651566Y-105560900D01*
X192667313Y-105562638D01*
X192667339Y-105562368D01*
X192675105Y-105563101D01*
X192675109Y-105563102D01*
X192745158Y-105560900D01*
X192775056Y-105560900D01*
X192775057Y-105560900D01*
X192776422Y-105560727D01*
X192782062Y-105560014D01*
X192787885Y-105559556D01*
X192813908Y-105558738D01*
X192835090Y-105558073D01*
X192844881Y-105555227D01*
X192854681Y-105552380D01*
X192873738Y-105548432D01*
X192893997Y-105545874D01*
X192937921Y-105528482D01*
X192943421Y-105526599D01*
X192988793Y-105513418D01*
X193006365Y-105503025D01*
X193023832Y-105494468D01*
X193042817Y-105486952D01*
X193081026Y-105459190D01*
X193085904Y-105455985D01*
X193126562Y-105431942D01*
X193141002Y-105417500D01*
X193155792Y-105404870D01*
X193172307Y-105392872D01*
X193202422Y-105356467D01*
X193206326Y-105352176D01*
X197492815Y-101065687D01*
X197505180Y-101055783D01*
X197505006Y-101055573D01*
X197511012Y-101050603D01*
X197511018Y-101050600D01*
X197558999Y-100999504D01*
X197580134Y-100978370D01*
X197584463Y-100972787D01*
X197588242Y-100968363D01*
X197620586Y-100933921D01*
X197630423Y-100916024D01*
X197641097Y-100899774D01*
X197653613Y-100883641D01*
X197672372Y-100840289D01*
X197674933Y-100835062D01*
X197697695Y-100793660D01*
X197702774Y-100773874D01*
X197709072Y-100755482D01*
X197717181Y-100736745D01*
X197724569Y-100690097D01*
X197725751Y-100684386D01*
X197737500Y-100638630D01*
X197737500Y-100618206D01*
X197739026Y-100598822D01*
X197742220Y-100578657D01*
X197737775Y-100531633D01*
X197737500Y-100525795D01*
X197737500Y-93600002D01*
X215200034Y-93600002D01*
X215219858Y-93826599D01*
X215219860Y-93826610D01*
X215278730Y-94046317D01*
X215278734Y-94046326D01*
X215374865Y-94252481D01*
X215374866Y-94252483D01*
X215425973Y-94325471D01*
X215425973Y-94325472D01*
X215967580Y-93783865D01*
X216028903Y-93750380D01*
X216098594Y-93755364D01*
X216154528Y-93797235D01*
X216165742Y-93815246D01*
X216171527Y-93826599D01*
X216177358Y-93838044D01*
X216177363Y-93838050D01*
X216266949Y-93927636D01*
X216266951Y-93927637D01*
X216266955Y-93927641D01*
X216289747Y-93939254D01*
X216340542Y-93987228D01*
X216357337Y-94055049D01*
X216334799Y-94121184D01*
X216321132Y-94137419D01*
X215779526Y-94679025D01*
X215779526Y-94679026D01*
X215852512Y-94730131D01*
X215852516Y-94730133D01*
X216058673Y-94826265D01*
X216058682Y-94826269D01*
X216278389Y-94885139D01*
X216278400Y-94885141D01*
X216504998Y-94904966D01*
X216505002Y-94904966D01*
X216731599Y-94885141D01*
X216731610Y-94885139D01*
X216951317Y-94826269D01*
X216951331Y-94826264D01*
X217157478Y-94730136D01*
X217230472Y-94679025D01*
X216688866Y-94137419D01*
X216655381Y-94076096D01*
X216660365Y-94006404D01*
X216702237Y-93950471D01*
X216720245Y-93939258D01*
X216743045Y-93927641D01*
X216832641Y-93838045D01*
X216844254Y-93815252D01*
X216892225Y-93764458D01*
X216960046Y-93747661D01*
X217026181Y-93770197D01*
X217042419Y-93783866D01*
X217584025Y-94325472D01*
X217635136Y-94252478D01*
X217731264Y-94046331D01*
X217731269Y-94046317D01*
X217790139Y-93826610D01*
X217790141Y-93826599D01*
X217809966Y-93600002D01*
X217809966Y-93600001D01*
X222811502Y-93600001D01*
X222831456Y-93828081D01*
X222831457Y-93828089D01*
X222890714Y-94049238D01*
X222890718Y-94049249D01*
X222985485Y-94252478D01*
X222987477Y-94256749D01*
X223118802Y-94444300D01*
X223280700Y-94606198D01*
X223468251Y-94737523D01*
X223510878Y-94757400D01*
X223675750Y-94834281D01*
X223675752Y-94834281D01*
X223675757Y-94834284D01*
X223896913Y-94893543D01*
X224059832Y-94907796D01*
X224124998Y-94913498D01*
X224125000Y-94913498D01*
X224125002Y-94913498D01*
X224182021Y-94908509D01*
X224353087Y-94893543D01*
X224574243Y-94834284D01*
X224781749Y-94737523D01*
X224969300Y-94606198D01*
X225131198Y-94444300D01*
X225262523Y-94256749D01*
X225359284Y-94049243D01*
X225418543Y-93828087D01*
X225438498Y-93600000D01*
X225418543Y-93371913D01*
X225359284Y-93150757D01*
X225356608Y-93145019D01*
X225306980Y-93038591D01*
X225262523Y-92943251D01*
X225131198Y-92755700D01*
X224969300Y-92593802D01*
X224781749Y-92462477D01*
X224781745Y-92462475D01*
X224574249Y-92365718D01*
X224574238Y-92365714D01*
X224353089Y-92306457D01*
X224353081Y-92306456D01*
X224125002Y-92286502D01*
X224124998Y-92286502D01*
X223896918Y-92306456D01*
X223896910Y-92306457D01*
X223675761Y-92365714D01*
X223675750Y-92365718D01*
X223468254Y-92462475D01*
X223468252Y-92462476D01*
X223413433Y-92500861D01*
X223280700Y-92593802D01*
X223280698Y-92593803D01*
X223280695Y-92593806D01*
X223118806Y-92755695D01*
X223118803Y-92755698D01*
X223118802Y-92755700D01*
X223095376Y-92789156D01*
X222987476Y-92943252D01*
X222987475Y-92943254D01*
X222890718Y-93150750D01*
X222890714Y-93150761D01*
X222831457Y-93371910D01*
X222831456Y-93371918D01*
X222811502Y-93599998D01*
X222811502Y-93600001D01*
X217809966Y-93600001D01*
X217809966Y-93599997D01*
X217790141Y-93373400D01*
X217790139Y-93373389D01*
X217731269Y-93153682D01*
X217731265Y-93153673D01*
X217635133Y-92947516D01*
X217635131Y-92947512D01*
X217584026Y-92874526D01*
X217584025Y-92874526D01*
X217042419Y-93416132D01*
X216981096Y-93449617D01*
X216911404Y-93444633D01*
X216855471Y-93402761D01*
X216844256Y-93384751D01*
X216832641Y-93361955D01*
X216832637Y-93361951D01*
X216832636Y-93361949D01*
X216743050Y-93272363D01*
X216743044Y-93272358D01*
X216733109Y-93267296D01*
X216720250Y-93260744D01*
X216669456Y-93212773D01*
X216652660Y-93144952D01*
X216675197Y-93078817D01*
X216688865Y-93062580D01*
X217230472Y-92520973D01*
X217157483Y-92469866D01*
X217157481Y-92469865D01*
X216951326Y-92373734D01*
X216951317Y-92373730D01*
X216731610Y-92314860D01*
X216731599Y-92314858D01*
X216505002Y-92295034D01*
X216504998Y-92295034D01*
X216278400Y-92314858D01*
X216278389Y-92314860D01*
X216058682Y-92373730D01*
X216058673Y-92373734D01*
X215852513Y-92469868D01*
X215779526Y-92520973D01*
X216321133Y-93062580D01*
X216354618Y-93123903D01*
X216349634Y-93193595D01*
X216307762Y-93249528D01*
X216289748Y-93260745D01*
X216266956Y-93272358D01*
X216266949Y-93272363D01*
X216177363Y-93361949D01*
X216177358Y-93361956D01*
X216165745Y-93384748D01*
X216117770Y-93435544D01*
X216049949Y-93452338D01*
X215983814Y-93429800D01*
X215967580Y-93416133D01*
X215425973Y-92874526D01*
X215374868Y-92947513D01*
X215278734Y-93153673D01*
X215278730Y-93153682D01*
X215219860Y-93373389D01*
X215219858Y-93373400D01*
X215200034Y-93599997D01*
X215200034Y-93600002D01*
X197737500Y-93600002D01*
X197737500Y-92563329D01*
X197757185Y-92496290D01*
X197802484Y-92454274D01*
X197849566Y-92428795D01*
X197849572Y-92428791D01*
X197849576Y-92428789D01*
X198027240Y-92290506D01*
X198179722Y-92124868D01*
X198270193Y-91986391D01*
X198323336Y-91941037D01*
X198392567Y-91931613D01*
X198455903Y-91961115D01*
X198477807Y-91986393D01*
X198568276Y-92124865D01*
X198568284Y-92124876D01*
X198720756Y-92290502D01*
X198720761Y-92290507D01*
X198752047Y-92314858D01*
X198898424Y-92428789D01*
X198898425Y-92428789D01*
X198898427Y-92428791D01*
X199010499Y-92489441D01*
X199096426Y-92535942D01*
X199309365Y-92609044D01*
X199531431Y-92646100D01*
X199756569Y-92646100D01*
X199978635Y-92609044D01*
X200191574Y-92535942D01*
X200389576Y-92428789D01*
X200567240Y-92290506D01*
X200719722Y-92124868D01*
X200842860Y-91936391D01*
X200933296Y-91730216D01*
X200988564Y-91511968D01*
X201007156Y-91287600D01*
X200988564Y-91063232D01*
X200933296Y-90844984D01*
X200842860Y-90638809D01*
X200829316Y-90618079D01*
X200781291Y-90544570D01*
X200719722Y-90450332D01*
X200719719Y-90450329D01*
X200719715Y-90450323D01*
X200567243Y-90284697D01*
X200567238Y-90284692D01*
X200389577Y-90146412D01*
X200389572Y-90146408D01*
X200191580Y-90039261D01*
X200191577Y-90039259D01*
X200191574Y-90039258D01*
X200191571Y-90039257D01*
X200191569Y-90039256D01*
X199978637Y-89966156D01*
X199756569Y-89929100D01*
X199531431Y-89929100D01*
X199309362Y-89966156D01*
X199096430Y-90039256D01*
X199096419Y-90039261D01*
X198898427Y-90146408D01*
X198898422Y-90146412D01*
X198720761Y-90284692D01*
X198720756Y-90284697D01*
X198568284Y-90450323D01*
X198568276Y-90450334D01*
X198477807Y-90588806D01*
X198424660Y-90634163D01*
X198355429Y-90643586D01*
X198292093Y-90614083D01*
X198270191Y-90588806D01*
X198179722Y-90450332D01*
X198179717Y-90450327D01*
X198179715Y-90450323D01*
X198027243Y-90284697D01*
X198027238Y-90284692D01*
X197849577Y-90146412D01*
X197849572Y-90146408D01*
X197651580Y-90039261D01*
X197651577Y-90039259D01*
X197651574Y-90039258D01*
X197651571Y-90039257D01*
X197651569Y-90039256D01*
X197438637Y-89966156D01*
X197216569Y-89929100D01*
X196991431Y-89929100D01*
X196769362Y-89966156D01*
X196556430Y-90039256D01*
X196556419Y-90039261D01*
X196358427Y-90146408D01*
X196358422Y-90146412D01*
X196180761Y-90284692D01*
X196180756Y-90284697D01*
X196028284Y-90450323D01*
X196028276Y-90450334D01*
X195937808Y-90588806D01*
X195884662Y-90634162D01*
X195815431Y-90643586D01*
X195752095Y-90614084D01*
X195730192Y-90588806D01*
X195639723Y-90450334D01*
X195639715Y-90450323D01*
X195487243Y-90284697D01*
X195487242Y-90284696D01*
X195487240Y-90284694D01*
X195309576Y-90146411D01*
X195309574Y-90146410D01*
X195309573Y-90146409D01*
X195309570Y-90146407D01*
X195247502Y-90112818D01*
X195197911Y-90063598D01*
X195183496Y-90019296D01*
X195182474Y-90011203D01*
X195172777Y-89986711D01*
X195165086Y-89967286D01*
X195163193Y-89961757D01*
X195153705Y-89929100D01*
X195150018Y-89916407D01*
X195139622Y-89898829D01*
X195131066Y-89881362D01*
X195124963Y-89865947D01*
X195123552Y-89862383D01*
X195095794Y-89824179D01*
X195092587Y-89819296D01*
X195082873Y-89802871D01*
X195068542Y-89778638D01*
X195054108Y-89764204D01*
X195041471Y-89749409D01*
X195029472Y-89732893D01*
X195029470Y-89732890D01*
X194993073Y-89702781D01*
X194988751Y-89698847D01*
X192835888Y-87545983D01*
X192825984Y-87533619D01*
X192825774Y-87533794D01*
X192820801Y-87527783D01*
X192801902Y-87510036D01*
X192769720Y-87479816D01*
X192759146Y-87469242D01*
X192748573Y-87458667D01*
X192748570Y-87458665D01*
X192742988Y-87454334D01*
X192738551Y-87450544D01*
X192704122Y-87418214D01*
X192704119Y-87418212D01*
X192686231Y-87408378D01*
X192669970Y-87397697D01*
X192653839Y-87385184D01*
X192610493Y-87366427D01*
X192605245Y-87363856D01*
X192569382Y-87344141D01*
X192563860Y-87341105D01*
X192560460Y-87340232D01*
X192544087Y-87336028D01*
X192525681Y-87329726D01*
X192506944Y-87321618D01*
X192506946Y-87321618D01*
X192460296Y-87314230D01*
X192454581Y-87313046D01*
X192434412Y-87307868D01*
X192408832Y-87301300D01*
X192408830Y-87301300D01*
X192388416Y-87301300D01*
X192369017Y-87299773D01*
X192348858Y-87296580D01*
X192348857Y-87296580D01*
X192301834Y-87301025D01*
X192295996Y-87301300D01*
X190024829Y-87301300D01*
X190009086Y-87299561D01*
X190009061Y-87299833D01*
X190001293Y-87299098D01*
X189931260Y-87301300D01*
X189901342Y-87301300D01*
X189894336Y-87302184D01*
X189888518Y-87302642D01*
X189841311Y-87304126D01*
X189841308Y-87304127D01*
X189821705Y-87309822D01*
X189802659Y-87313766D01*
X189782403Y-87316326D01*
X189782401Y-87316326D01*
X189738492Y-87333710D01*
X189732968Y-87335601D01*
X189687604Y-87348782D01*
X189687603Y-87348783D01*
X189670024Y-87359178D01*
X189652564Y-87367732D01*
X189633584Y-87375247D01*
X189633581Y-87375249D01*
X189595382Y-87403001D01*
X189590500Y-87406209D01*
X189549838Y-87430256D01*
X189535396Y-87444698D01*
X189520608Y-87457327D01*
X189504097Y-87469323D01*
X189504092Y-87469328D01*
X189473990Y-87505714D01*
X189470057Y-87510036D01*
X187304334Y-89675761D01*
X185143114Y-91836981D01*
X185081791Y-91870466D01*
X185055433Y-91873300D01*
X165794766Y-91873300D01*
X165727727Y-91853615D01*
X165707085Y-91836981D01*
X164895888Y-91025783D01*
X164885987Y-91013423D01*
X164885777Y-91013598D01*
X164880802Y-91007586D01*
X164880800Y-91007582D01*
X164850326Y-90978965D01*
X164829721Y-90959615D01*
X164808568Y-90938463D01*
X164806592Y-90936931D01*
X164802983Y-90934131D01*
X164798550Y-90930344D01*
X164764121Y-90898014D01*
X164764119Y-90898012D01*
X164746231Y-90888178D01*
X164729970Y-90877497D01*
X164713839Y-90864984D01*
X164670493Y-90846227D01*
X164665245Y-90843656D01*
X164629382Y-90823941D01*
X164623860Y-90820905D01*
X164620460Y-90820032D01*
X164604087Y-90815828D01*
X164585681Y-90809526D01*
X164566944Y-90801418D01*
X164566946Y-90801418D01*
X164520296Y-90794030D01*
X164514581Y-90792846D01*
X164494412Y-90787668D01*
X164468832Y-90781100D01*
X164468830Y-90781100D01*
X164448416Y-90781100D01*
X164429017Y-90779573D01*
X164408858Y-90776380D01*
X164408857Y-90776380D01*
X164361834Y-90780825D01*
X164355996Y-90781100D01*
X161767466Y-90781100D01*
X161700427Y-90761415D01*
X161654672Y-90708611D01*
X161644728Y-90639453D01*
X161655084Y-90604696D01*
X161669281Y-90574249D01*
X161669284Y-90574243D01*
X161728543Y-90353087D01*
X161748498Y-90125000D01*
X161728543Y-89896913D01*
X161669284Y-89675757D01*
X161656594Y-89648544D01*
X161572524Y-89468254D01*
X161572523Y-89468252D01*
X161572523Y-89468251D01*
X161441198Y-89280700D01*
X161279300Y-89118802D01*
X161091749Y-88987477D01*
X161091745Y-88987475D01*
X160884249Y-88890718D01*
X160884238Y-88890714D01*
X160663089Y-88831457D01*
X160663081Y-88831456D01*
X160435002Y-88811502D01*
X160434998Y-88811502D01*
X160206918Y-88831456D01*
X160206910Y-88831457D01*
X159985761Y-88890714D01*
X159985750Y-88890718D01*
X159778254Y-88987475D01*
X159778252Y-88987476D01*
X159778249Y-88987477D01*
X159778251Y-88987477D01*
X159590700Y-89118802D01*
X159590698Y-89118803D01*
X159590695Y-89118806D01*
X159428806Y-89280695D01*
X159428803Y-89280698D01*
X159428802Y-89280700D01*
X159351173Y-89391566D01*
X159297476Y-89468252D01*
X159297475Y-89468254D01*
X159200718Y-89675750D01*
X159200714Y-89675761D01*
X159141457Y-89896910D01*
X159141456Y-89896918D01*
X159121502Y-90124998D01*
X159121502Y-90125001D01*
X159141456Y-90353081D01*
X159141457Y-90353089D01*
X159200714Y-90574238D01*
X159200718Y-90574249D01*
X159214916Y-90604696D01*
X159225408Y-90673773D01*
X159196888Y-90737557D01*
X159138411Y-90775796D01*
X159102534Y-90781100D01*
X154147466Y-90781100D01*
X154080427Y-90761415D01*
X154034672Y-90708611D01*
X154024728Y-90639453D01*
X154035084Y-90604696D01*
X154049281Y-90574249D01*
X154049284Y-90574243D01*
X154108543Y-90353087D01*
X154128498Y-90125000D01*
X154124098Y-90074707D01*
X154137865Y-90006208D01*
X154186480Y-89956024D01*
X154247626Y-89939900D01*
X157287654Y-89939900D01*
X157287656Y-89939900D01*
X157287661Y-89939899D01*
X157287665Y-89939899D01*
X157300560Y-89938269D01*
X157406597Y-89924874D01*
X157555417Y-89865952D01*
X157684907Y-89771872D01*
X157786933Y-89648544D01*
X157855083Y-89503718D01*
X157885075Y-89346494D01*
X157875025Y-89186750D01*
X157825564Y-89034525D01*
X157739800Y-88899382D01*
X157730572Y-88890716D01*
X157623124Y-88789816D01*
X157623116Y-88789810D01*
X157482863Y-88712706D01*
X157482853Y-88712703D01*
X157327833Y-88672900D01*
X157327830Y-88672900D01*
X122562432Y-88672900D01*
X122546680Y-88671160D01*
X122546655Y-88671432D01*
X122538893Y-88670698D01*
X122538892Y-88670698D01*
X122468829Y-88672900D01*
X122438944Y-88672900D01*
X122438941Y-88672900D01*
X122438929Y-88672901D01*
X122431937Y-88673784D01*
X122426120Y-88674241D01*
X122378911Y-88675725D01*
X122378909Y-88675726D01*
X122359296Y-88681423D01*
X122340259Y-88685365D01*
X122320008Y-88687924D01*
X122320002Y-88687926D01*
X122276099Y-88705307D01*
X122270575Y-88707198D01*
X122225206Y-88720381D01*
X122225201Y-88720383D01*
X122207627Y-88730776D01*
X122190162Y-88739332D01*
X122171187Y-88746845D01*
X122171185Y-88746846D01*
X122132976Y-88774606D01*
X122128094Y-88777812D01*
X122087435Y-88801858D01*
X122073000Y-88816294D01*
X122058212Y-88828925D01*
X122041694Y-88840926D01*
X122041688Y-88840932D01*
X122011580Y-88877325D01*
X122007649Y-88881646D01*
X120337379Y-90551914D01*
X120325020Y-90561818D01*
X120325193Y-90562027D01*
X120319183Y-90566999D01*
X120319182Y-90566999D01*
X120319182Y-90567000D01*
X120298705Y-90588806D01*
X120271215Y-90618079D01*
X120250072Y-90639222D01*
X120250057Y-90639239D01*
X120245731Y-90644814D01*
X120241947Y-90649244D01*
X120209619Y-90683671D01*
X120209612Y-90683681D01*
X120199779Y-90701567D01*
X120189103Y-90717820D01*
X120176586Y-90733957D01*
X120176585Y-90733959D01*
X120157825Y-90777310D01*
X120155255Y-90782556D01*
X120132503Y-90823941D01*
X120132503Y-90823942D01*
X120127425Y-90843720D01*
X120121125Y-90862122D01*
X120113018Y-90880857D01*
X120105631Y-90927495D01*
X120104446Y-90933216D01*
X120092700Y-90978965D01*
X120092700Y-90999384D01*
X120091173Y-91018783D01*
X120087980Y-91038941D01*
X120087980Y-91038942D01*
X120092425Y-91085966D01*
X120092700Y-91091804D01*
X120092700Y-100476669D01*
X120073015Y-100543708D01*
X120027720Y-100585723D01*
X119980622Y-100611211D01*
X119980622Y-100611212D01*
X119802961Y-100749492D01*
X119802956Y-100749497D01*
X119650484Y-100915123D01*
X119650476Y-100915134D01*
X119560008Y-101053606D01*
X119506862Y-101098962D01*
X119437631Y-101108386D01*
X119374295Y-101078884D01*
X119352392Y-101053606D01*
X119261923Y-100915134D01*
X119261915Y-100915123D01*
X119109443Y-100749497D01*
X119109438Y-100749492D01*
X118989571Y-100656195D01*
X118931777Y-100611211D01*
X118884680Y-100585723D01*
X118835091Y-100536502D01*
X118819700Y-100476669D01*
X118819700Y-89391566D01*
X118839385Y-89324527D01*
X118856019Y-89303885D01*
X121917485Y-86242419D01*
X121978808Y-86208934D01*
X122005166Y-86206100D01*
X135069766Y-86206100D01*
X135085513Y-86207838D01*
X135085539Y-86207568D01*
X135093305Y-86208301D01*
X135093309Y-86208302D01*
X135163358Y-86206100D01*
X135193256Y-86206100D01*
X135193257Y-86206100D01*
X135194622Y-86205927D01*
X135200262Y-86205214D01*
X135206085Y-86204756D01*
X135232108Y-86203938D01*
X135253290Y-86203273D01*
X135263081Y-86200427D01*
X135272881Y-86197580D01*
X135291938Y-86193632D01*
X135312197Y-86191074D01*
X135356121Y-86173682D01*
X135361621Y-86171799D01*
X135406993Y-86158618D01*
X135424565Y-86148225D01*
X135442032Y-86139668D01*
X135461017Y-86132152D01*
X135499226Y-86104390D01*
X135504104Y-86101185D01*
X135544762Y-86077142D01*
X135559202Y-86062700D01*
X135573992Y-86050070D01*
X135590507Y-86038072D01*
X135620622Y-86001667D01*
X135624526Y-85997376D01*
X137513085Y-84108819D01*
X137574409Y-84075334D01*
X137600767Y-84072500D01*
X151489249Y-84072500D01*
X151556288Y-84092185D01*
X151601631Y-84144096D01*
X151677477Y-84306749D01*
X151808802Y-84494300D01*
X151970700Y-84656198D01*
X152158251Y-84787523D01*
X152283091Y-84845736D01*
X152365750Y-84884281D01*
X152365752Y-84884281D01*
X152365757Y-84884284D01*
X152586913Y-84943543D01*
X152749832Y-84957796D01*
X152814998Y-84963498D01*
X152815000Y-84963498D01*
X152815002Y-84963498D01*
X152872021Y-84958509D01*
X153043087Y-84943543D01*
X153264243Y-84884284D01*
X153471749Y-84787523D01*
X153659300Y-84656198D01*
X153821198Y-84494300D01*
X153952523Y-84306749D01*
X154028368Y-84144096D01*
X154074541Y-84091656D01*
X154140751Y-84072500D01*
X154754854Y-84072500D01*
X154754856Y-84072500D01*
X154754861Y-84072499D01*
X154754865Y-84072499D01*
X154767760Y-84070869D01*
X154873797Y-84057474D01*
X155022617Y-83998552D01*
X155023325Y-83998038D01*
X155071812Y-83962810D01*
X155152107Y-83904472D01*
X155254133Y-83781144D01*
X155315844Y-83650001D01*
X159121502Y-83650001D01*
X159141456Y-83878081D01*
X159141457Y-83878089D01*
X159200714Y-84099238D01*
X159200718Y-84099249D01*
X159205181Y-84108819D01*
X159297477Y-84306749D01*
X159428802Y-84494300D01*
X159590700Y-84656198D01*
X159778251Y-84787523D01*
X159903091Y-84845736D01*
X159985750Y-84884281D01*
X159985752Y-84884281D01*
X159985757Y-84884284D01*
X160206913Y-84943543D01*
X160369832Y-84957796D01*
X160434998Y-84963498D01*
X160435000Y-84963498D01*
X160435002Y-84963498D01*
X160492021Y-84958509D01*
X160663087Y-84943543D01*
X160884243Y-84884284D01*
X161091749Y-84787523D01*
X161279300Y-84656198D01*
X161441198Y-84494300D01*
X161572523Y-84306749D01*
X161669284Y-84099243D01*
X161728543Y-83878087D01*
X161748498Y-83650000D01*
X161747850Y-83642599D01*
X161742796Y-83584832D01*
X161728543Y-83421913D01*
X161669284Y-83200757D01*
X161572523Y-82993251D01*
X161441198Y-82805700D01*
X161279300Y-82643802D01*
X161091749Y-82512477D01*
X161091745Y-82512475D01*
X160884249Y-82415718D01*
X160884238Y-82415714D01*
X160663089Y-82356457D01*
X160663081Y-82356456D01*
X160435002Y-82336502D01*
X160434998Y-82336502D01*
X160206918Y-82356456D01*
X160206910Y-82356457D01*
X159985761Y-82415714D01*
X159985750Y-82415718D01*
X159778254Y-82512475D01*
X159778252Y-82512476D01*
X159778249Y-82512477D01*
X159778251Y-82512477D01*
X159590700Y-82643802D01*
X159590698Y-82643803D01*
X159590695Y-82643806D01*
X159428806Y-82805695D01*
X159428803Y-82805698D01*
X159428802Y-82805700D01*
X159355480Y-82910415D01*
X159297476Y-82993252D01*
X159297475Y-82993254D01*
X159200718Y-83200750D01*
X159200714Y-83200761D01*
X159141457Y-83421910D01*
X159141456Y-83421918D01*
X159121502Y-83649998D01*
X159121502Y-83650001D01*
X155315844Y-83650001D01*
X155322283Y-83636318D01*
X155352275Y-83479094D01*
X155342225Y-83319350D01*
X155292764Y-83167125D01*
X155207000Y-83031982D01*
X155188113Y-83014246D01*
X155090324Y-82922416D01*
X155090316Y-82922410D01*
X154950063Y-82845306D01*
X154950053Y-82845303D01*
X154795033Y-82805500D01*
X154795030Y-82805500D01*
X153872360Y-82805500D01*
X153805321Y-82785815D01*
X153784679Y-82769181D01*
X153659304Y-82643806D01*
X153659300Y-82643802D01*
X153471749Y-82512477D01*
X153471745Y-82512475D01*
X153264249Y-82415718D01*
X153264238Y-82415714D01*
X153043089Y-82356457D01*
X153043081Y-82356456D01*
X152815002Y-82336502D01*
X152814998Y-82336502D01*
X152586918Y-82356456D01*
X152586910Y-82356457D01*
X152365761Y-82415714D01*
X152365750Y-82415718D01*
X152158254Y-82512475D01*
X152158252Y-82512476D01*
X152158249Y-82512477D01*
X152158251Y-82512477D01*
X151970700Y-82643802D01*
X151970698Y-82643803D01*
X151970695Y-82643806D01*
X151845321Y-82769181D01*
X151783998Y-82802666D01*
X151757640Y-82805500D01*
X137370634Y-82805500D01*
X137354886Y-82803761D01*
X137354861Y-82804032D01*
X137347094Y-82803298D01*
X137347091Y-82803298D01*
X137277042Y-82805500D01*
X137247137Y-82805500D01*
X137240143Y-82806384D01*
X137234320Y-82806842D01*
X137187112Y-82808326D01*
X137187109Y-82808327D01*
X137167506Y-82814022D01*
X137148458Y-82817966D01*
X137128203Y-82820526D01*
X137112347Y-82826803D01*
X137084285Y-82837913D01*
X137078759Y-82839805D01*
X137033407Y-82852981D01*
X137015833Y-82863374D01*
X136998372Y-82871928D01*
X136979386Y-82879446D01*
X136979384Y-82879447D01*
X136941172Y-82907208D01*
X136936290Y-82910415D01*
X136895637Y-82934457D01*
X136881201Y-82948894D01*
X136866415Y-82961523D01*
X136849893Y-82973528D01*
X136849891Y-82973529D01*
X136849891Y-82973530D01*
X136849888Y-82973532D01*
X136819780Y-83009925D01*
X136815849Y-83014246D01*
X134927314Y-84902781D01*
X134865991Y-84936266D01*
X134839633Y-84939100D01*
X121775029Y-84939100D01*
X121759286Y-84937361D01*
X121759261Y-84937633D01*
X121751493Y-84936898D01*
X121681460Y-84939100D01*
X121651542Y-84939100D01*
X121644536Y-84939984D01*
X121638718Y-84940442D01*
X121591511Y-84941926D01*
X121591508Y-84941927D01*
X121571905Y-84947622D01*
X121552859Y-84951566D01*
X121532603Y-84954126D01*
X121532601Y-84954126D01*
X121488692Y-84971510D01*
X121483168Y-84973401D01*
X121437804Y-84986582D01*
X121437803Y-84986583D01*
X121420224Y-84996978D01*
X121402764Y-85005532D01*
X121383784Y-85013047D01*
X121383781Y-85013049D01*
X121345582Y-85040801D01*
X121340700Y-85044009D01*
X121300038Y-85068056D01*
X121285596Y-85082498D01*
X121270808Y-85095127D01*
X121254297Y-85107123D01*
X121254292Y-85107128D01*
X121224190Y-85143514D01*
X121220258Y-85147836D01*
X117797379Y-88570714D01*
X117785020Y-88580618D01*
X117785193Y-88580827D01*
X117779183Y-88585799D01*
X117731216Y-88636878D01*
X117710072Y-88658022D01*
X117710057Y-88658039D01*
X117705731Y-88663614D01*
X117701947Y-88668044D01*
X117669619Y-88702471D01*
X117669612Y-88702481D01*
X117659779Y-88720367D01*
X117649103Y-88736620D01*
X117636586Y-88752757D01*
X117636585Y-88752759D01*
X117617825Y-88796110D01*
X117615255Y-88801356D01*
X117592503Y-88842741D01*
X117592503Y-88842742D01*
X117587425Y-88862520D01*
X117581125Y-88880922D01*
X117573018Y-88899657D01*
X117565631Y-88946295D01*
X117564446Y-88952016D01*
X117552700Y-88997765D01*
X117552700Y-89018184D01*
X117551173Y-89037583D01*
X117547980Y-89057741D01*
X117547980Y-89057742D01*
X117552425Y-89104766D01*
X117552700Y-89110604D01*
X117552700Y-100476669D01*
X117533015Y-100543708D01*
X117487720Y-100585723D01*
X117440622Y-100611211D01*
X117440622Y-100611212D01*
X117262961Y-100749492D01*
X117262956Y-100749497D01*
X117110484Y-100915123D01*
X117110476Y-100915134D01*
X117020008Y-101053606D01*
X116966862Y-101098962D01*
X116897631Y-101108386D01*
X116834295Y-101078884D01*
X116812392Y-101053606D01*
X116721923Y-100915134D01*
X116721915Y-100915123D01*
X116569443Y-100749497D01*
X116569438Y-100749492D01*
X116449571Y-100656195D01*
X116391776Y-100611211D01*
X116384724Y-100607395D01*
X116344680Y-100585723D01*
X116295090Y-100536503D01*
X116279699Y-100476669D01*
X116279699Y-87892966D01*
X116299384Y-87825927D01*
X116316018Y-87805285D01*
X120088686Y-84032619D01*
X120150009Y-83999134D01*
X120176367Y-83996300D01*
X132605966Y-83996300D01*
X132621713Y-83998038D01*
X132621739Y-83997768D01*
X132629505Y-83998501D01*
X132629509Y-83998502D01*
X132699558Y-83996300D01*
X132729456Y-83996300D01*
X132729457Y-83996300D01*
X132730822Y-83996127D01*
X132736462Y-83995414D01*
X132742285Y-83994956D01*
X132768308Y-83994138D01*
X132789490Y-83993473D01*
X132799281Y-83990627D01*
X132809081Y-83987780D01*
X132828138Y-83983832D01*
X132848397Y-83981274D01*
X132892321Y-83963882D01*
X132897821Y-83961999D01*
X132943193Y-83948818D01*
X132960765Y-83938425D01*
X132978232Y-83929868D01*
X132997217Y-83922352D01*
X133035426Y-83894590D01*
X133040304Y-83891385D01*
X133080962Y-83867342D01*
X133095402Y-83852900D01*
X133110192Y-83840270D01*
X133126707Y-83828272D01*
X133156822Y-83791867D01*
X133160726Y-83787576D01*
X137166898Y-79781405D01*
X221648844Y-79781405D01*
X221667434Y-80005759D01*
X221667436Y-80005771D01*
X221722703Y-80224014D01*
X221813140Y-80430192D01*
X221936276Y-80618665D01*
X221936284Y-80618676D01*
X222088756Y-80784302D01*
X222088760Y-80784306D01*
X222266424Y-80922589D01*
X222266425Y-80922589D01*
X222266427Y-80922591D01*
X222393135Y-80991161D01*
X222464426Y-81029742D01*
X222677365Y-81102844D01*
X222899431Y-81139900D01*
X223124569Y-81139900D01*
X223346635Y-81102844D01*
X223559574Y-81029742D01*
X223757576Y-80922589D01*
X223935240Y-80784306D01*
X224087722Y-80618668D01*
X224210860Y-80430191D01*
X224301296Y-80224016D01*
X224356564Y-80005768D01*
X224357986Y-79988606D01*
X224375156Y-79781405D01*
X224375156Y-79781394D01*
X224356565Y-79557040D01*
X224356563Y-79557028D01*
X224351343Y-79536413D01*
X224301296Y-79338784D01*
X224210860Y-79132609D01*
X224087722Y-78944132D01*
X223936291Y-78779636D01*
X223905370Y-78716984D01*
X223913230Y-78647558D01*
X223957376Y-78593402D01*
X223984189Y-78579473D01*
X224104086Y-78534754D01*
X224104093Y-78534750D01*
X224219187Y-78448590D01*
X224219190Y-78448587D01*
X224305350Y-78333493D01*
X224305354Y-78333486D01*
X224355596Y-78198779D01*
X224355598Y-78198772D01*
X224361999Y-78139244D01*
X224362000Y-78139227D01*
X224362000Y-77491400D01*
X223625347Y-77491400D01*
X223558308Y-77471715D01*
X223512553Y-77418911D01*
X223502609Y-77349753D01*
X223506369Y-77332467D01*
X223510885Y-77317087D01*
X223512000Y-77313289D01*
X223512000Y-77169511D01*
X223506368Y-77150333D01*
X223506370Y-77080464D01*
X223544145Y-77021686D01*
X223607701Y-76992662D01*
X223625347Y-76991400D01*
X224362000Y-76991400D01*
X224362000Y-76343572D01*
X224361999Y-76343555D01*
X224355598Y-76284027D01*
X224355596Y-76284020D01*
X224305354Y-76149313D01*
X224305350Y-76149306D01*
X224219190Y-76034212D01*
X224219187Y-76034209D01*
X224104093Y-75948049D01*
X224104086Y-75948045D01*
X223969379Y-75897803D01*
X223969372Y-75897801D01*
X223909844Y-75891400D01*
X223262000Y-75891400D01*
X223262000Y-76629098D01*
X223242315Y-76696137D01*
X223189511Y-76741892D01*
X223120355Y-76751836D01*
X223047766Y-76741400D01*
X223047763Y-76741400D01*
X222976237Y-76741400D01*
X222976233Y-76741400D01*
X222903645Y-76751836D01*
X222834487Y-76741892D01*
X222781684Y-76696136D01*
X222762000Y-76629098D01*
X222762000Y-75891400D01*
X222114155Y-75891400D01*
X222054627Y-75897801D01*
X222054620Y-75897803D01*
X221919913Y-75948045D01*
X221919906Y-75948049D01*
X221804812Y-76034209D01*
X221804809Y-76034212D01*
X221718649Y-76149306D01*
X221718645Y-76149313D01*
X221668403Y-76284020D01*
X221668401Y-76284027D01*
X221662000Y-76343555D01*
X221662000Y-76991400D01*
X222398653Y-76991400D01*
X222465692Y-77011085D01*
X222511447Y-77063889D01*
X222521391Y-77133047D01*
X222517631Y-77150333D01*
X222512000Y-77169511D01*
X222512000Y-77313289D01*
X222513115Y-77317087D01*
X222517631Y-77332467D01*
X222517630Y-77402336D01*
X222479855Y-77461114D01*
X222416299Y-77490138D01*
X222398653Y-77491400D01*
X221662000Y-77491400D01*
X221662000Y-78139244D01*
X221668401Y-78198772D01*
X221668403Y-78198779D01*
X221718645Y-78333486D01*
X221718649Y-78333493D01*
X221804809Y-78448587D01*
X221804812Y-78448590D01*
X221919906Y-78534750D01*
X221919913Y-78534754D01*
X222039810Y-78579473D01*
X222095744Y-78621344D01*
X222120161Y-78686809D01*
X222105309Y-78755082D01*
X222087706Y-78779638D01*
X221936284Y-78944123D01*
X221936276Y-78944134D01*
X221813140Y-79132607D01*
X221722703Y-79338785D01*
X221667436Y-79557028D01*
X221667434Y-79557040D01*
X221648844Y-79781394D01*
X221648844Y-79781405D01*
X137166898Y-79781405D01*
X139189485Y-77758819D01*
X139250809Y-77725334D01*
X139277167Y-77722500D01*
X151696648Y-77722500D01*
X151763687Y-77742185D01*
X151798220Y-77775373D01*
X151908802Y-77933300D01*
X152070700Y-78095198D01*
X152258251Y-78226523D01*
X152305137Y-78248386D01*
X152465750Y-78323281D01*
X152465752Y-78323281D01*
X152465757Y-78323284D01*
X152686913Y-78382543D01*
X152849832Y-78396796D01*
X152914998Y-78402498D01*
X152915000Y-78402498D01*
X152915002Y-78402498D01*
X152972021Y-78397509D01*
X153143087Y-78382543D01*
X153364243Y-78323284D01*
X153571749Y-78226523D01*
X153759300Y-78095198D01*
X153921198Y-77933300D01*
X154031779Y-77775374D01*
X154086354Y-77731751D01*
X154133352Y-77722500D01*
X157490854Y-77722500D01*
X157490856Y-77722500D01*
X157490861Y-77722499D01*
X157490865Y-77722499D01*
X157503760Y-77720869D01*
X157609797Y-77707474D01*
X157758617Y-77648552D01*
X157764803Y-77644058D01*
X157888104Y-77554474D01*
X157888103Y-77554474D01*
X157888107Y-77554472D01*
X157990133Y-77431144D01*
X158058283Y-77286318D01*
X158088275Y-77129094D01*
X158085753Y-77089001D01*
X159221502Y-77089001D01*
X159241456Y-77317081D01*
X159241457Y-77317089D01*
X159300714Y-77538238D01*
X159300718Y-77538249D01*
X159395449Y-77741400D01*
X159397477Y-77745749D01*
X159528802Y-77933300D01*
X159690700Y-78095198D01*
X159878251Y-78226523D01*
X159925137Y-78248386D01*
X160085750Y-78323281D01*
X160085752Y-78323281D01*
X160085757Y-78323284D01*
X160306913Y-78382543D01*
X160469832Y-78396796D01*
X160534998Y-78402498D01*
X160535000Y-78402498D01*
X160535002Y-78402498D01*
X160592021Y-78397509D01*
X160763087Y-78382543D01*
X160984243Y-78323284D01*
X161191749Y-78226523D01*
X161379300Y-78095198D01*
X161541198Y-77933300D01*
X161672523Y-77745749D01*
X161769284Y-77538243D01*
X161828543Y-77317087D01*
X161848498Y-77089000D01*
X161828543Y-76860913D01*
X161769284Y-76639757D01*
X161761716Y-76623528D01*
X161701924Y-76495303D01*
X161672523Y-76432251D01*
X161541198Y-76244700D01*
X161379300Y-76082802D01*
X161191749Y-75951477D01*
X161164544Y-75938791D01*
X160984249Y-75854718D01*
X160984238Y-75854714D01*
X160763089Y-75795457D01*
X160763081Y-75795456D01*
X160535002Y-75775502D01*
X160534998Y-75775502D01*
X160306918Y-75795456D01*
X160306910Y-75795457D01*
X160085761Y-75854714D01*
X160085750Y-75854718D01*
X159878254Y-75951475D01*
X159878252Y-75951476D01*
X159878249Y-75951477D01*
X159878251Y-75951477D01*
X159690700Y-76082802D01*
X159690698Y-76082803D01*
X159690695Y-76082806D01*
X159528806Y-76244695D01*
X159397476Y-76432252D01*
X159397475Y-76432254D01*
X159300718Y-76639750D01*
X159300714Y-76639761D01*
X159241457Y-76860910D01*
X159241456Y-76860918D01*
X159221502Y-77088998D01*
X159221502Y-77089001D01*
X158085753Y-77089001D01*
X158078225Y-76969350D01*
X158028764Y-76817125D01*
X157943000Y-76681982D01*
X157924113Y-76664246D01*
X157826324Y-76572416D01*
X157826316Y-76572410D01*
X157686063Y-76495306D01*
X157686053Y-76495303D01*
X157531033Y-76455500D01*
X157531030Y-76455500D01*
X154133352Y-76455500D01*
X154066313Y-76435815D01*
X154031779Y-76402626D01*
X153921198Y-76244700D01*
X153759300Y-76082802D01*
X153571749Y-75951477D01*
X153544544Y-75938791D01*
X153364249Y-75854718D01*
X153364238Y-75854714D01*
X153143089Y-75795457D01*
X153143081Y-75795456D01*
X152915002Y-75775502D01*
X152914998Y-75775502D01*
X152686918Y-75795456D01*
X152686910Y-75795457D01*
X152465761Y-75854714D01*
X152465750Y-75854718D01*
X152258254Y-75951475D01*
X152258252Y-75951476D01*
X152258249Y-75951477D01*
X152258251Y-75951477D01*
X152070700Y-76082802D01*
X152070698Y-76082803D01*
X152070695Y-76082806D01*
X151908806Y-76244695D01*
X151908803Y-76244698D01*
X151908802Y-76244700D01*
X151798220Y-76402625D01*
X151743646Y-76446249D01*
X151696648Y-76455500D01*
X139047034Y-76455500D01*
X139031286Y-76453761D01*
X139031261Y-76454032D01*
X139023494Y-76453298D01*
X139023491Y-76453298D01*
X138953442Y-76455500D01*
X138923537Y-76455500D01*
X138916543Y-76456384D01*
X138910720Y-76456842D01*
X138863512Y-76458326D01*
X138863509Y-76458327D01*
X138843906Y-76464022D01*
X138824858Y-76467966D01*
X138804603Y-76470526D01*
X138788747Y-76476803D01*
X138760685Y-76487913D01*
X138755159Y-76489805D01*
X138709807Y-76502981D01*
X138692233Y-76513374D01*
X138674772Y-76521928D01*
X138655786Y-76529446D01*
X138655784Y-76529447D01*
X138617572Y-76557208D01*
X138612690Y-76560415D01*
X138572037Y-76584457D01*
X138557601Y-76598894D01*
X138542815Y-76611523D01*
X138526293Y-76623528D01*
X138526291Y-76623529D01*
X138526291Y-76623530D01*
X138526288Y-76623532D01*
X138496180Y-76659925D01*
X138492249Y-76664246D01*
X132463514Y-82692981D01*
X132402191Y-82726466D01*
X132375833Y-82729300D01*
X119946234Y-82729300D01*
X119930486Y-82727561D01*
X119930461Y-82727832D01*
X119922694Y-82727098D01*
X119922691Y-82727098D01*
X119852642Y-82729300D01*
X119822737Y-82729300D01*
X119815743Y-82730184D01*
X119809920Y-82730642D01*
X119762712Y-82732126D01*
X119762709Y-82732127D01*
X119743106Y-82737822D01*
X119724058Y-82741766D01*
X119703803Y-82744326D01*
X119687947Y-82750603D01*
X119659885Y-82761713D01*
X119654359Y-82763605D01*
X119609007Y-82776781D01*
X119591433Y-82787174D01*
X119573972Y-82795728D01*
X119554986Y-82803246D01*
X119554984Y-82803247D01*
X119516772Y-82831008D01*
X119511890Y-82834215D01*
X119471237Y-82858257D01*
X119456801Y-82872694D01*
X119442015Y-82885323D01*
X119425493Y-82897328D01*
X119425491Y-82897329D01*
X119425491Y-82897330D01*
X119425488Y-82897332D01*
X119395380Y-82933725D01*
X119391449Y-82938046D01*
X115257379Y-87072114D01*
X115245020Y-87082018D01*
X115245193Y-87082227D01*
X115239183Y-87087199D01*
X115191216Y-87138278D01*
X115170072Y-87159422D01*
X115170057Y-87159439D01*
X115165731Y-87165014D01*
X115161947Y-87169444D01*
X115129619Y-87203871D01*
X115129612Y-87203881D01*
X115119779Y-87221767D01*
X115109103Y-87238020D01*
X115096586Y-87254157D01*
X115096585Y-87254159D01*
X115077825Y-87297510D01*
X115075255Y-87302756D01*
X115052503Y-87344141D01*
X115052503Y-87344142D01*
X115047425Y-87363920D01*
X115041125Y-87382322D01*
X115033018Y-87401057D01*
X115025631Y-87447695D01*
X115024446Y-87453416D01*
X115012700Y-87499165D01*
X115012700Y-87519584D01*
X115011173Y-87538984D01*
X115007979Y-87559141D01*
X115007979Y-87559142D01*
X115012424Y-87606163D01*
X115012699Y-87612000D01*
X115012699Y-100476669D01*
X114993014Y-100543708D01*
X114947720Y-100585722D01*
X114900627Y-100611208D01*
X114900622Y-100611212D01*
X114722961Y-100749492D01*
X114722956Y-100749497D01*
X114570484Y-100915123D01*
X114570476Y-100915134D01*
X114480007Y-101053606D01*
X114426860Y-101098963D01*
X114357629Y-101108386D01*
X114294293Y-101078883D01*
X114272391Y-101053606D01*
X114181922Y-100915132D01*
X114181917Y-100915127D01*
X114181915Y-100915123D01*
X114029443Y-100749497D01*
X114029438Y-100749492D01*
X113909571Y-100656195D01*
X113851776Y-100611211D01*
X113851775Y-100611210D01*
X113851772Y-100611208D01*
X113653780Y-100504061D01*
X113653777Y-100504059D01*
X113653774Y-100504058D01*
X113653771Y-100504057D01*
X113653769Y-100504056D01*
X113440837Y-100430956D01*
X113218769Y-100393900D01*
X112993631Y-100393900D01*
X112771562Y-100430956D01*
X112558630Y-100504056D01*
X112558619Y-100504061D01*
X112360627Y-100611208D01*
X112360622Y-100611212D01*
X112182961Y-100749492D01*
X112182956Y-100749497D01*
X112030484Y-100915123D01*
X112030476Y-100915134D01*
X111940008Y-101053606D01*
X111886862Y-101098962D01*
X111817631Y-101108386D01*
X111754295Y-101078884D01*
X111732392Y-101053606D01*
X111641923Y-100915134D01*
X111641915Y-100915123D01*
X111489443Y-100749497D01*
X111489438Y-100749492D01*
X111369571Y-100656195D01*
X111311776Y-100611211D01*
X111311775Y-100611210D01*
X111311772Y-100611208D01*
X111113780Y-100504061D01*
X111113777Y-100504059D01*
X111113774Y-100504058D01*
X111113771Y-100504057D01*
X111113769Y-100504056D01*
X110900837Y-100430956D01*
X110678769Y-100393900D01*
X110453631Y-100393900D01*
X110231562Y-100430956D01*
X110018630Y-100504056D01*
X110018619Y-100504061D01*
X109820627Y-100611208D01*
X109820622Y-100611212D01*
X109642961Y-100749492D01*
X109642956Y-100749497D01*
X109490484Y-100915123D01*
X109490476Y-100915134D01*
X109400008Y-101053606D01*
X109346862Y-101098962D01*
X109277631Y-101108386D01*
X109214295Y-101078884D01*
X109192392Y-101053606D01*
X109101923Y-100915134D01*
X109101915Y-100915123D01*
X108949443Y-100749497D01*
X108949438Y-100749492D01*
X108829571Y-100656195D01*
X108771776Y-100611211D01*
X108771775Y-100611210D01*
X108771772Y-100611208D01*
X108573780Y-100504061D01*
X108573777Y-100504059D01*
X108573774Y-100504058D01*
X108573771Y-100504057D01*
X108573769Y-100504056D01*
X108360837Y-100430956D01*
X108138769Y-100393900D01*
X107913631Y-100393900D01*
X107691562Y-100430956D01*
X107478630Y-100504056D01*
X107478619Y-100504061D01*
X107280627Y-100611208D01*
X107280622Y-100611212D01*
X107102961Y-100749492D01*
X107102956Y-100749497D01*
X106950484Y-100915123D01*
X106950476Y-100915134D01*
X106860008Y-101053606D01*
X106806862Y-101098962D01*
X106737631Y-101108386D01*
X106674295Y-101078884D01*
X106652392Y-101053606D01*
X106561923Y-100915134D01*
X106561915Y-100915123D01*
X106409443Y-100749497D01*
X106409438Y-100749492D01*
X106289571Y-100656195D01*
X106231776Y-100611211D01*
X106231775Y-100611210D01*
X106231772Y-100611208D01*
X106033780Y-100504061D01*
X106033777Y-100504059D01*
X106033774Y-100504058D01*
X106033771Y-100504057D01*
X106033769Y-100504056D01*
X105820837Y-100430956D01*
X105598769Y-100393900D01*
X105373631Y-100393900D01*
X105151562Y-100430956D01*
X104938630Y-100504056D01*
X104938619Y-100504061D01*
X104740627Y-100611208D01*
X104740622Y-100611212D01*
X104562961Y-100749492D01*
X104562956Y-100749497D01*
X104410484Y-100915123D01*
X104410476Y-100915134D01*
X104320008Y-101053606D01*
X104266862Y-101098962D01*
X104197631Y-101108386D01*
X104134295Y-101078884D01*
X104112392Y-101053606D01*
X104021923Y-100915134D01*
X104021915Y-100915123D01*
X103869443Y-100749497D01*
X103869438Y-100749492D01*
X103749571Y-100656195D01*
X103691776Y-100611211D01*
X103691775Y-100611210D01*
X103691772Y-100611208D01*
X103493780Y-100504061D01*
X103493777Y-100504059D01*
X103493774Y-100504058D01*
X103493771Y-100504057D01*
X103493769Y-100504056D01*
X103280837Y-100430956D01*
X103058769Y-100393900D01*
X102833631Y-100393900D01*
X102611562Y-100430956D01*
X102398630Y-100504056D01*
X102398619Y-100504061D01*
X102200627Y-100611208D01*
X102200622Y-100611212D01*
X102022961Y-100749492D01*
X102022956Y-100749497D01*
X101870484Y-100915123D01*
X101870476Y-100915134D01*
X101780008Y-101053606D01*
X101726862Y-101098962D01*
X101657631Y-101108386D01*
X101594295Y-101078884D01*
X101572392Y-101053606D01*
X101481923Y-100915134D01*
X101481915Y-100915123D01*
X101329443Y-100749497D01*
X101329438Y-100749492D01*
X101209571Y-100656195D01*
X101151776Y-100611211D01*
X101151775Y-100611210D01*
X101151772Y-100611208D01*
X100953780Y-100504061D01*
X100953777Y-100504059D01*
X100953774Y-100504058D01*
X100953771Y-100504057D01*
X100953769Y-100504056D01*
X100740837Y-100430956D01*
X100518769Y-100393900D01*
X100293631Y-100393900D01*
X100071562Y-100430956D01*
X99858630Y-100504056D01*
X99858619Y-100504061D01*
X99660627Y-100611208D01*
X99660622Y-100611212D01*
X99482961Y-100749492D01*
X99482956Y-100749497D01*
X99330484Y-100915123D01*
X99330476Y-100915134D01*
X99240008Y-101053606D01*
X99186862Y-101098962D01*
X99117631Y-101108386D01*
X99054295Y-101078884D01*
X99032392Y-101053606D01*
X98941923Y-100915134D01*
X98941915Y-100915123D01*
X98789443Y-100749497D01*
X98789438Y-100749492D01*
X98669571Y-100656195D01*
X98611776Y-100611211D01*
X98611775Y-100611210D01*
X98611772Y-100611208D01*
X98413780Y-100504061D01*
X98413777Y-100504059D01*
X98413774Y-100504058D01*
X98413771Y-100504057D01*
X98413769Y-100504056D01*
X98200837Y-100430956D01*
X97978769Y-100393900D01*
X97753631Y-100393900D01*
X97531562Y-100430956D01*
X97318630Y-100504056D01*
X97318619Y-100504061D01*
X97120627Y-100611208D01*
X97120622Y-100611212D01*
X96942961Y-100749492D01*
X96942956Y-100749497D01*
X96790484Y-100915123D01*
X96790476Y-100915134D01*
X96700008Y-101053606D01*
X96646862Y-101098962D01*
X96577631Y-101108386D01*
X96514295Y-101078884D01*
X96492392Y-101053606D01*
X96401923Y-100915134D01*
X96401915Y-100915123D01*
X96249443Y-100749497D01*
X96249438Y-100749492D01*
X96129571Y-100656195D01*
X96071776Y-100611211D01*
X96071775Y-100611210D01*
X96071772Y-100611208D01*
X95873780Y-100504061D01*
X95873777Y-100504059D01*
X95873774Y-100504058D01*
X95873771Y-100504057D01*
X95873769Y-100504056D01*
X95660837Y-100430956D01*
X95438769Y-100393900D01*
X95213631Y-100393900D01*
X94991562Y-100430956D01*
X94778630Y-100504056D01*
X94778619Y-100504061D01*
X94580627Y-100611208D01*
X94580622Y-100611212D01*
X94402961Y-100749492D01*
X94402956Y-100749497D01*
X94250484Y-100915123D01*
X94250476Y-100915134D01*
X94127340Y-101103607D01*
X94036903Y-101309785D01*
X93981636Y-101528028D01*
X93981634Y-101528040D01*
X93963044Y-101752394D01*
X93963044Y-101752405D01*
X86381617Y-101752405D01*
X86364763Y-79791054D01*
X93967700Y-79791054D01*
X93974211Y-79851602D01*
X93974211Y-79851604D01*
X94025310Y-79988604D01*
X94025311Y-79988604D01*
X94112939Y-80105661D01*
X94229996Y-80193289D01*
X94366999Y-80244389D01*
X94394250Y-80247318D01*
X94427545Y-80250899D01*
X94427562Y-80250900D01*
X96224838Y-80250900D01*
X96224854Y-80250899D01*
X96251892Y-80247991D01*
X96285401Y-80244389D01*
X96422404Y-80193289D01*
X96539461Y-80105661D01*
X96627089Y-79988604D01*
X96672338Y-79867287D01*
X96714209Y-79811356D01*
X96779674Y-79786939D01*
X96847946Y-79801791D01*
X96879745Y-79826636D01*
X96942960Y-79895306D01*
X97120624Y-80033589D01*
X97120625Y-80033589D01*
X97120627Y-80033591D01*
X97247335Y-80102161D01*
X97318626Y-80140742D01*
X97531565Y-80213844D01*
X97753631Y-80250900D01*
X97978769Y-80250900D01*
X98200835Y-80213844D01*
X98413774Y-80140742D01*
X98611776Y-80033589D01*
X98789440Y-79895306D01*
X98941922Y-79729668D01*
X99032393Y-79591190D01*
X99085538Y-79545837D01*
X99154769Y-79536413D01*
X99218105Y-79565915D01*
X99240004Y-79591187D01*
X99330478Y-79729668D01*
X99330483Y-79729673D01*
X99330484Y-79729676D01*
X99457168Y-79867289D01*
X99482960Y-79895306D01*
X99660624Y-80033589D01*
X99660625Y-80033589D01*
X99660627Y-80033591D01*
X99787335Y-80102161D01*
X99858626Y-80140742D01*
X100071565Y-80213844D01*
X100293631Y-80250900D01*
X100518769Y-80250900D01*
X100740835Y-80213844D01*
X100953774Y-80140742D01*
X101151776Y-80033589D01*
X101329440Y-79895306D01*
X101481922Y-79729668D01*
X101572393Y-79591190D01*
X101625538Y-79545837D01*
X101694769Y-79536413D01*
X101758105Y-79565915D01*
X101780004Y-79591187D01*
X101870478Y-79729668D01*
X101870483Y-79729673D01*
X101870484Y-79729676D01*
X101997168Y-79867289D01*
X102022960Y-79895306D01*
X102200624Y-80033589D01*
X102200625Y-80033589D01*
X102200627Y-80033591D01*
X102327335Y-80102161D01*
X102398626Y-80140742D01*
X102611565Y-80213844D01*
X102833631Y-80250900D01*
X103058769Y-80250900D01*
X103280835Y-80213844D01*
X103493774Y-80140742D01*
X103691776Y-80033589D01*
X103869440Y-79895306D01*
X104021922Y-79729668D01*
X104112393Y-79591191D01*
X104165536Y-79545837D01*
X104234767Y-79536413D01*
X104298103Y-79565915D01*
X104320007Y-79591193D01*
X104410476Y-79729665D01*
X104410484Y-79729676D01*
X104537168Y-79867289D01*
X104562960Y-79895306D01*
X104740624Y-80033589D01*
X104740625Y-80033589D01*
X104740627Y-80033591D01*
X104867335Y-80102161D01*
X104938626Y-80140742D01*
X105151565Y-80213844D01*
X105373631Y-80250900D01*
X105598769Y-80250900D01*
X105820835Y-80213844D01*
X106033774Y-80140742D01*
X106231776Y-80033589D01*
X106409440Y-79895306D01*
X106561922Y-79729668D01*
X106652393Y-79591190D01*
X106705538Y-79545837D01*
X106774769Y-79536413D01*
X106838105Y-79565915D01*
X106860004Y-79591187D01*
X106950478Y-79729668D01*
X106950483Y-79729673D01*
X106950484Y-79729676D01*
X107077168Y-79867289D01*
X107102960Y-79895306D01*
X107280624Y-80033589D01*
X107280625Y-80033589D01*
X107280627Y-80033591D01*
X107407335Y-80102161D01*
X107478626Y-80140742D01*
X107691565Y-80213844D01*
X107913631Y-80250900D01*
X108138769Y-80250900D01*
X108360835Y-80213844D01*
X108573774Y-80140742D01*
X108771776Y-80033589D01*
X108949440Y-79895306D01*
X109101922Y-79729668D01*
X109192393Y-79591190D01*
X109245538Y-79545837D01*
X109314769Y-79536413D01*
X109378105Y-79565915D01*
X109400004Y-79591187D01*
X109490478Y-79729668D01*
X109490483Y-79729673D01*
X109490484Y-79729676D01*
X109617168Y-79867289D01*
X109642960Y-79895306D01*
X109820624Y-80033589D01*
X109820625Y-80033589D01*
X109820627Y-80033591D01*
X109947335Y-80102161D01*
X110018626Y-80140742D01*
X110231565Y-80213844D01*
X110453631Y-80250900D01*
X110678769Y-80250900D01*
X110900835Y-80213844D01*
X111113774Y-80140742D01*
X111311776Y-80033589D01*
X111489440Y-79895306D01*
X111641922Y-79729668D01*
X111732393Y-79591190D01*
X111785538Y-79545837D01*
X111854769Y-79536413D01*
X111918105Y-79565915D01*
X111940004Y-79591187D01*
X112030478Y-79729668D01*
X112030483Y-79729673D01*
X112030484Y-79729676D01*
X112157168Y-79867289D01*
X112182960Y-79895306D01*
X112360624Y-80033589D01*
X112360625Y-80033589D01*
X112360627Y-80033591D01*
X112487335Y-80102161D01*
X112558626Y-80140742D01*
X112771565Y-80213844D01*
X112993631Y-80250900D01*
X113218769Y-80250900D01*
X113440835Y-80213844D01*
X113653774Y-80140742D01*
X113851776Y-80033589D01*
X114029440Y-79895306D01*
X114181922Y-79729668D01*
X114272393Y-79591191D01*
X114325536Y-79545837D01*
X114394767Y-79536413D01*
X114458103Y-79565915D01*
X114480007Y-79591193D01*
X114570476Y-79729665D01*
X114570484Y-79729676D01*
X114697168Y-79867289D01*
X114722960Y-79895306D01*
X114900624Y-80033589D01*
X114900625Y-80033589D01*
X114900627Y-80033591D01*
X115027335Y-80102161D01*
X115098626Y-80140742D01*
X115311565Y-80213844D01*
X115533631Y-80250900D01*
X115758769Y-80250900D01*
X115980835Y-80213844D01*
X116193774Y-80140742D01*
X116391776Y-80033589D01*
X116569440Y-79895306D01*
X116721922Y-79729668D01*
X116812393Y-79591190D01*
X116865538Y-79545837D01*
X116934769Y-79536413D01*
X116998105Y-79565915D01*
X117020004Y-79591187D01*
X117110478Y-79729668D01*
X117110483Y-79729673D01*
X117110484Y-79729676D01*
X117237168Y-79867289D01*
X117262960Y-79895306D01*
X117440624Y-80033589D01*
X117440625Y-80033589D01*
X117440627Y-80033591D01*
X117567335Y-80102161D01*
X117638626Y-80140742D01*
X117851565Y-80213844D01*
X118073631Y-80250900D01*
X118298769Y-80250900D01*
X118520835Y-80213844D01*
X118733774Y-80140742D01*
X118931776Y-80033589D01*
X119109440Y-79895306D01*
X119261922Y-79729668D01*
X119352393Y-79591190D01*
X119405538Y-79545837D01*
X119474769Y-79536413D01*
X119538105Y-79565915D01*
X119560004Y-79591187D01*
X119650478Y-79729668D01*
X119650483Y-79729673D01*
X119650484Y-79729676D01*
X119777168Y-79867289D01*
X119802960Y-79895306D01*
X119980624Y-80033589D01*
X119980625Y-80033589D01*
X119980627Y-80033591D01*
X120107335Y-80102161D01*
X120178626Y-80140742D01*
X120391565Y-80213844D01*
X120613631Y-80250900D01*
X120838769Y-80250900D01*
X121060835Y-80213844D01*
X121273774Y-80140742D01*
X121471776Y-80033589D01*
X121649440Y-79895306D01*
X121801922Y-79729668D01*
X121892393Y-79591190D01*
X121945538Y-79545837D01*
X122014769Y-79536413D01*
X122078105Y-79565915D01*
X122100004Y-79591187D01*
X122190478Y-79729668D01*
X122190483Y-79729673D01*
X122190484Y-79729676D01*
X122317168Y-79867289D01*
X122342960Y-79895306D01*
X122520624Y-80033589D01*
X122520625Y-80033589D01*
X122520627Y-80033591D01*
X122647335Y-80102161D01*
X122718626Y-80140742D01*
X122931565Y-80213844D01*
X123153631Y-80250900D01*
X123378769Y-80250900D01*
X123600835Y-80213844D01*
X123813774Y-80140742D01*
X124011776Y-80033589D01*
X124189440Y-79895306D01*
X124341922Y-79729668D01*
X124432393Y-79591191D01*
X124485536Y-79545837D01*
X124554767Y-79536413D01*
X124618103Y-79565915D01*
X124640007Y-79591193D01*
X124730476Y-79729665D01*
X124730484Y-79729676D01*
X124857168Y-79867289D01*
X124882960Y-79895306D01*
X125060624Y-80033589D01*
X125060625Y-80033589D01*
X125060627Y-80033591D01*
X125187335Y-80102161D01*
X125258626Y-80140742D01*
X125471565Y-80213844D01*
X125693631Y-80250900D01*
X125918769Y-80250900D01*
X126140835Y-80213844D01*
X126353774Y-80140742D01*
X126551776Y-80033589D01*
X126729440Y-79895306D01*
X126881922Y-79729668D01*
X126972393Y-79591190D01*
X127025538Y-79545837D01*
X127094769Y-79536413D01*
X127158105Y-79565915D01*
X127180004Y-79591187D01*
X127270478Y-79729668D01*
X127270483Y-79729673D01*
X127270484Y-79729676D01*
X127397168Y-79867289D01*
X127422960Y-79895306D01*
X127600624Y-80033589D01*
X127600625Y-80033589D01*
X127600627Y-80033591D01*
X127727335Y-80102161D01*
X127798626Y-80140742D01*
X128011565Y-80213844D01*
X128233631Y-80250900D01*
X128458769Y-80250900D01*
X128680835Y-80213844D01*
X128893774Y-80140742D01*
X129091776Y-80033589D01*
X129269440Y-79895306D01*
X129421922Y-79729668D01*
X129512393Y-79591190D01*
X129565538Y-79545837D01*
X129634769Y-79536413D01*
X129698105Y-79565915D01*
X129720004Y-79591187D01*
X129810478Y-79729668D01*
X129810483Y-79729673D01*
X129810484Y-79729676D01*
X129937168Y-79867289D01*
X129962960Y-79895306D01*
X130140624Y-80033589D01*
X130140625Y-80033589D01*
X130140627Y-80033591D01*
X130267335Y-80102161D01*
X130338626Y-80140742D01*
X130551565Y-80213844D01*
X130773631Y-80250900D01*
X130998769Y-80250900D01*
X131220835Y-80213844D01*
X131433774Y-80140742D01*
X131631776Y-80033589D01*
X131809440Y-79895306D01*
X131961922Y-79729668D01*
X132085060Y-79541191D01*
X132175496Y-79335016D01*
X132230764Y-79116768D01*
X132230765Y-79116759D01*
X132249356Y-78892405D01*
X132249356Y-78892394D01*
X132230765Y-78668040D01*
X132230763Y-78668028D01*
X132175496Y-78449785D01*
X132163703Y-78422900D01*
X132085060Y-78243609D01*
X132068906Y-78218884D01*
X132005879Y-78122414D01*
X131961922Y-78055132D01*
X131961919Y-78055129D01*
X131961915Y-78055123D01*
X131809443Y-77889497D01*
X131809438Y-77889492D01*
X131662823Y-77775376D01*
X131631776Y-77751211D01*
X131631775Y-77751210D01*
X131631772Y-77751208D01*
X131433780Y-77644061D01*
X131433777Y-77644059D01*
X131433774Y-77644058D01*
X131433771Y-77644057D01*
X131433769Y-77644056D01*
X131220837Y-77570956D01*
X130998769Y-77533900D01*
X130773631Y-77533900D01*
X130551562Y-77570956D01*
X130338630Y-77644056D01*
X130338619Y-77644061D01*
X130140627Y-77751208D01*
X130140622Y-77751212D01*
X129962961Y-77889492D01*
X129962956Y-77889497D01*
X129810484Y-78055123D01*
X129810476Y-78055134D01*
X129720008Y-78193606D01*
X129666862Y-78238962D01*
X129597631Y-78248386D01*
X129534295Y-78218884D01*
X129512392Y-78193606D01*
X129421923Y-78055134D01*
X129421915Y-78055123D01*
X129269443Y-77889497D01*
X129269438Y-77889492D01*
X129122823Y-77775376D01*
X129091776Y-77751211D01*
X129091775Y-77751210D01*
X129091772Y-77751208D01*
X128893780Y-77644061D01*
X128893777Y-77644059D01*
X128893774Y-77644058D01*
X128893771Y-77644057D01*
X128893769Y-77644056D01*
X128680837Y-77570956D01*
X128458769Y-77533900D01*
X128233631Y-77533900D01*
X128011562Y-77570956D01*
X127798630Y-77644056D01*
X127798619Y-77644061D01*
X127600627Y-77751208D01*
X127600622Y-77751212D01*
X127422961Y-77889492D01*
X127422956Y-77889497D01*
X127270484Y-78055123D01*
X127270476Y-78055134D01*
X127180008Y-78193606D01*
X127126862Y-78238962D01*
X127057631Y-78248386D01*
X126994295Y-78218884D01*
X126972392Y-78193606D01*
X126881923Y-78055134D01*
X126881915Y-78055123D01*
X126729443Y-77889497D01*
X126729438Y-77889492D01*
X126582823Y-77775376D01*
X126551776Y-77751211D01*
X126551775Y-77751210D01*
X126551772Y-77751208D01*
X126353780Y-77644061D01*
X126353777Y-77644059D01*
X126353774Y-77644058D01*
X126353771Y-77644057D01*
X126353769Y-77644056D01*
X126140837Y-77570956D01*
X125918769Y-77533900D01*
X125693631Y-77533900D01*
X125471562Y-77570956D01*
X125258630Y-77644056D01*
X125258619Y-77644061D01*
X125060627Y-77751208D01*
X125060622Y-77751212D01*
X124882961Y-77889492D01*
X124882956Y-77889497D01*
X124730484Y-78055123D01*
X124730476Y-78055134D01*
X124640007Y-78193606D01*
X124586860Y-78238963D01*
X124517629Y-78248386D01*
X124454293Y-78218883D01*
X124432391Y-78193606D01*
X124341922Y-78055132D01*
X124341917Y-78055127D01*
X124341915Y-78055123D01*
X124189443Y-77889497D01*
X124189438Y-77889492D01*
X124042823Y-77775376D01*
X124011776Y-77751211D01*
X124011775Y-77751210D01*
X124011772Y-77751208D01*
X123813780Y-77644061D01*
X123813777Y-77644059D01*
X123813774Y-77644058D01*
X123813771Y-77644057D01*
X123813769Y-77644056D01*
X123600837Y-77570956D01*
X123378769Y-77533900D01*
X123153631Y-77533900D01*
X122931562Y-77570956D01*
X122718630Y-77644056D01*
X122718619Y-77644061D01*
X122520627Y-77751208D01*
X122520622Y-77751212D01*
X122342961Y-77889492D01*
X122342956Y-77889497D01*
X122190484Y-78055123D01*
X122190476Y-78055134D01*
X122100008Y-78193606D01*
X122046862Y-78238962D01*
X121977631Y-78248386D01*
X121914295Y-78218884D01*
X121892392Y-78193606D01*
X121801923Y-78055134D01*
X121801915Y-78055123D01*
X121649443Y-77889497D01*
X121649438Y-77889492D01*
X121502823Y-77775376D01*
X121471776Y-77751211D01*
X121471775Y-77751210D01*
X121471772Y-77751208D01*
X121273780Y-77644061D01*
X121273777Y-77644059D01*
X121273774Y-77644058D01*
X121273771Y-77644057D01*
X121273769Y-77644056D01*
X121060837Y-77570956D01*
X120838769Y-77533900D01*
X120613631Y-77533900D01*
X120391562Y-77570956D01*
X120178630Y-77644056D01*
X120178619Y-77644061D01*
X119980627Y-77751208D01*
X119980622Y-77751212D01*
X119802961Y-77889492D01*
X119802956Y-77889497D01*
X119650484Y-78055123D01*
X119650476Y-78055134D01*
X119560008Y-78193606D01*
X119506862Y-78238962D01*
X119437631Y-78248386D01*
X119374295Y-78218884D01*
X119352392Y-78193606D01*
X119261923Y-78055134D01*
X119261915Y-78055123D01*
X119109443Y-77889497D01*
X119109438Y-77889492D01*
X118962823Y-77775376D01*
X118931776Y-77751211D01*
X118931775Y-77751210D01*
X118931772Y-77751208D01*
X118733780Y-77644061D01*
X118733777Y-77644059D01*
X118733774Y-77644058D01*
X118733771Y-77644057D01*
X118733769Y-77644056D01*
X118520837Y-77570956D01*
X118298769Y-77533900D01*
X118073631Y-77533900D01*
X117851562Y-77570956D01*
X117638630Y-77644056D01*
X117638619Y-77644061D01*
X117440627Y-77751208D01*
X117440622Y-77751212D01*
X117262961Y-77889492D01*
X117262956Y-77889497D01*
X117110484Y-78055123D01*
X117110476Y-78055134D01*
X117020008Y-78193606D01*
X116966862Y-78238962D01*
X116897631Y-78248386D01*
X116834295Y-78218884D01*
X116812392Y-78193606D01*
X116721923Y-78055134D01*
X116721915Y-78055123D01*
X116569443Y-77889497D01*
X116569438Y-77889492D01*
X116422823Y-77775376D01*
X116391776Y-77751211D01*
X116391775Y-77751210D01*
X116391772Y-77751208D01*
X116193780Y-77644061D01*
X116193777Y-77644059D01*
X116193774Y-77644058D01*
X116193771Y-77644057D01*
X116193769Y-77644056D01*
X115980837Y-77570956D01*
X115758769Y-77533900D01*
X115533631Y-77533900D01*
X115311562Y-77570956D01*
X115098630Y-77644056D01*
X115098619Y-77644061D01*
X114900627Y-77751208D01*
X114900622Y-77751212D01*
X114722961Y-77889492D01*
X114722956Y-77889497D01*
X114570484Y-78055123D01*
X114570476Y-78055134D01*
X114480007Y-78193606D01*
X114426860Y-78238963D01*
X114357629Y-78248386D01*
X114294293Y-78218883D01*
X114272391Y-78193606D01*
X114181922Y-78055132D01*
X114181917Y-78055127D01*
X114181915Y-78055123D01*
X114029443Y-77889497D01*
X114029438Y-77889492D01*
X113882823Y-77775376D01*
X113851776Y-77751211D01*
X113851775Y-77751210D01*
X113851772Y-77751208D01*
X113653780Y-77644061D01*
X113653777Y-77644059D01*
X113653774Y-77644058D01*
X113653771Y-77644057D01*
X113653769Y-77644056D01*
X113440837Y-77570956D01*
X113218769Y-77533900D01*
X112993631Y-77533900D01*
X112771562Y-77570956D01*
X112558630Y-77644056D01*
X112558619Y-77644061D01*
X112360627Y-77751208D01*
X112360622Y-77751212D01*
X112182961Y-77889492D01*
X112182956Y-77889497D01*
X112030484Y-78055123D01*
X112030476Y-78055134D01*
X111940008Y-78193606D01*
X111886862Y-78238962D01*
X111817631Y-78248386D01*
X111754295Y-78218884D01*
X111732392Y-78193606D01*
X111641923Y-78055134D01*
X111641915Y-78055123D01*
X111489443Y-77889497D01*
X111489438Y-77889492D01*
X111342823Y-77775376D01*
X111311776Y-77751211D01*
X111311775Y-77751210D01*
X111311772Y-77751208D01*
X111113780Y-77644061D01*
X111113777Y-77644059D01*
X111113774Y-77644058D01*
X111113771Y-77644057D01*
X111113769Y-77644056D01*
X110900837Y-77570956D01*
X110678769Y-77533900D01*
X110453631Y-77533900D01*
X110231562Y-77570956D01*
X110018630Y-77644056D01*
X110018619Y-77644061D01*
X109820627Y-77751208D01*
X109820622Y-77751212D01*
X109642961Y-77889492D01*
X109642956Y-77889497D01*
X109490484Y-78055123D01*
X109490476Y-78055134D01*
X109400008Y-78193606D01*
X109346862Y-78238962D01*
X109277631Y-78248386D01*
X109214295Y-78218884D01*
X109192392Y-78193606D01*
X109101923Y-78055134D01*
X109101915Y-78055123D01*
X108949443Y-77889497D01*
X108949438Y-77889492D01*
X108802823Y-77775376D01*
X108771776Y-77751211D01*
X108771775Y-77751210D01*
X108771772Y-77751208D01*
X108573780Y-77644061D01*
X108573777Y-77644059D01*
X108573774Y-77644058D01*
X108573771Y-77644057D01*
X108573769Y-77644056D01*
X108360837Y-77570956D01*
X108138769Y-77533900D01*
X107913631Y-77533900D01*
X107691562Y-77570956D01*
X107478630Y-77644056D01*
X107478619Y-77644061D01*
X107280627Y-77751208D01*
X107280622Y-77751212D01*
X107102961Y-77889492D01*
X107102956Y-77889497D01*
X106950484Y-78055123D01*
X106950476Y-78055134D01*
X106860008Y-78193606D01*
X106806862Y-78238962D01*
X106737631Y-78248386D01*
X106674295Y-78218884D01*
X106652392Y-78193606D01*
X106561923Y-78055134D01*
X106561915Y-78055123D01*
X106409443Y-77889497D01*
X106409438Y-77889492D01*
X106262823Y-77775376D01*
X106231776Y-77751211D01*
X106231775Y-77751210D01*
X106231772Y-77751208D01*
X106033780Y-77644061D01*
X106033777Y-77644059D01*
X106033774Y-77644058D01*
X106033771Y-77644057D01*
X106033769Y-77644056D01*
X105820837Y-77570956D01*
X105598769Y-77533900D01*
X105373631Y-77533900D01*
X105151562Y-77570956D01*
X104938630Y-77644056D01*
X104938619Y-77644061D01*
X104740627Y-77751208D01*
X104740622Y-77751212D01*
X104562961Y-77889492D01*
X104562956Y-77889497D01*
X104410484Y-78055123D01*
X104410476Y-78055134D01*
X104320007Y-78193606D01*
X104266860Y-78238963D01*
X104197629Y-78248386D01*
X104134293Y-78218883D01*
X104112391Y-78193606D01*
X104021922Y-78055132D01*
X104021917Y-78055127D01*
X104021915Y-78055123D01*
X103869443Y-77889497D01*
X103869438Y-77889492D01*
X103722823Y-77775376D01*
X103691776Y-77751211D01*
X103691775Y-77751210D01*
X103691772Y-77751208D01*
X103493780Y-77644061D01*
X103493777Y-77644059D01*
X103493774Y-77644058D01*
X103493771Y-77644057D01*
X103493769Y-77644056D01*
X103280837Y-77570956D01*
X103058769Y-77533900D01*
X102833631Y-77533900D01*
X102611562Y-77570956D01*
X102398630Y-77644056D01*
X102398619Y-77644061D01*
X102200627Y-77751208D01*
X102200622Y-77751212D01*
X102022961Y-77889492D01*
X102022956Y-77889497D01*
X101870484Y-78055123D01*
X101870476Y-78055134D01*
X101780008Y-78193606D01*
X101726862Y-78238962D01*
X101657631Y-78248386D01*
X101594295Y-78218884D01*
X101572392Y-78193606D01*
X101481923Y-78055134D01*
X101481915Y-78055123D01*
X101329443Y-77889497D01*
X101329438Y-77889492D01*
X101182823Y-77775376D01*
X101151776Y-77751211D01*
X101151775Y-77751210D01*
X101151772Y-77751208D01*
X100953780Y-77644061D01*
X100953777Y-77644059D01*
X100953774Y-77644058D01*
X100953771Y-77644057D01*
X100953769Y-77644056D01*
X100740837Y-77570956D01*
X100518769Y-77533900D01*
X100293631Y-77533900D01*
X100071562Y-77570956D01*
X99858630Y-77644056D01*
X99858619Y-77644061D01*
X99660627Y-77751208D01*
X99660622Y-77751212D01*
X99482961Y-77889492D01*
X99482956Y-77889497D01*
X99330484Y-78055123D01*
X99330476Y-78055134D01*
X99240008Y-78193606D01*
X99186862Y-78238962D01*
X99117631Y-78248386D01*
X99054295Y-78218884D01*
X99032392Y-78193606D01*
X98941923Y-78055134D01*
X98941915Y-78055123D01*
X98789443Y-77889497D01*
X98789438Y-77889492D01*
X98642823Y-77775376D01*
X98611776Y-77751211D01*
X98611775Y-77751210D01*
X98611772Y-77751208D01*
X98413780Y-77644061D01*
X98413777Y-77644059D01*
X98413774Y-77644058D01*
X98413771Y-77644057D01*
X98413769Y-77644056D01*
X98200837Y-77570956D01*
X97978769Y-77533900D01*
X97753631Y-77533900D01*
X97531562Y-77570956D01*
X97318630Y-77644056D01*
X97318619Y-77644061D01*
X97120627Y-77751208D01*
X97120622Y-77751212D01*
X96942961Y-77889492D01*
X96879748Y-77958160D01*
X96819861Y-77994150D01*
X96750023Y-77992049D01*
X96692407Y-77952524D01*
X96672338Y-77917510D01*
X96627089Y-77796196D01*
X96593414Y-77751212D01*
X96539461Y-77679139D01*
X96422404Y-77591511D01*
X96422403Y-77591510D01*
X96285403Y-77540411D01*
X96224854Y-77533900D01*
X96224838Y-77533900D01*
X94427562Y-77533900D01*
X94427545Y-77533900D01*
X94366997Y-77540411D01*
X94366995Y-77540411D01*
X94229995Y-77591511D01*
X94112939Y-77679139D01*
X94025311Y-77796195D01*
X93974211Y-77933195D01*
X93974211Y-77933197D01*
X93967700Y-77993745D01*
X93967700Y-79791054D01*
X86364763Y-79791054D01*
X86360095Y-73707983D01*
X86379728Y-73640931D01*
X86432497Y-73595135D01*
X86484184Y-73583890D01*
X226240890Y-73685310D01*
G37*
%TD.AperFunction*%
%TD*%
M02*
