%TF.GenerationSoftware,KiCad,Pcbnew,7.0.7*%
%TF.CreationDate,2023-09-19T21:30:54-07:00*%
%TF.ProjectId,PCB Layout,50434220-4c61-4796-9f75-742e6b696361,rev?*%
%TF.SameCoordinates,Original*%
%TF.FileFunction,Soldermask,Bot*%
%TF.FilePolarity,Negative*%
%FSLAX46Y46*%
G04 Gerber Fmt 4.6, Leading zero omitted, Abs format (unit mm)*
G04 Created by KiCad (PCBNEW 7.0.7) date 2023-09-19 21:30:54*
%MOMM*%
%LPD*%
G01*
G04 APERTURE LIST*
%ADD10R,1.700000X1.700000*%
%ADD11O,1.700000X1.700000*%
%ADD12C,1.600000*%
%ADD13O,1.600000X1.600000*%
%ADD14C,5.400000*%
G04 APERTURE END LIST*
D10*
%TO.C,J4*%
X223012000Y-77241400D03*
D11*
X223012000Y-79781400D03*
%TD*%
D12*
%TO.C,R6*%
X216505000Y-93600000D03*
D13*
X224125000Y-93600000D03*
%TD*%
D12*
%TO.C,R5*%
X152915000Y-77089000D03*
D13*
X160535000Y-77089000D03*
%TD*%
%TO.C,R4*%
X152815000Y-83650000D03*
D12*
X160435000Y-83650000D03*
%TD*%
%TO.C,R3*%
X152815000Y-90125000D03*
D13*
X160435000Y-90125000D03*
%TD*%
D12*
%TO.C,R2*%
X160485000Y-96400000D03*
D13*
X152865000Y-96400000D03*
%TD*%
D12*
%TO.C,R1*%
X172535000Y-101525000D03*
D13*
X164915000Y-101525000D03*
%TD*%
D14*
%TO.C,H1*%
X97078800Y-65887600D03*
%TD*%
D10*
%TO.C,J2*%
X130886200Y-101752400D03*
D11*
X128346200Y-101752400D03*
X125806200Y-101752400D03*
X123266200Y-101752400D03*
X120726200Y-101752400D03*
X118186200Y-101752400D03*
X115646200Y-101752400D03*
X113106200Y-101752400D03*
X110566200Y-101752400D03*
X108026200Y-101752400D03*
X105486200Y-101752400D03*
X102946200Y-101752400D03*
X100406200Y-101752400D03*
X97866200Y-101752400D03*
X95326200Y-101752400D03*
%TD*%
D10*
%TO.C,J1*%
X95326200Y-78892400D03*
D11*
X97866200Y-78892400D03*
X100406200Y-78892400D03*
X102946200Y-78892400D03*
X105486200Y-78892400D03*
X108026200Y-78892400D03*
X110566200Y-78892400D03*
X113106200Y-78892400D03*
X115646200Y-78892400D03*
X118186200Y-78892400D03*
X120726200Y-78892400D03*
X123266200Y-78892400D03*
X125806200Y-78892400D03*
X128346200Y-78892400D03*
X130886200Y-78892400D03*
%TD*%
D10*
%TO.C,J3*%
X192024000Y-91287600D03*
D11*
X194564000Y-91287600D03*
X197104000Y-91287600D03*
X199644000Y-91287600D03*
%TD*%
M02*
