M48
; DRILL file {KiCad 7.0.7} date Tue Sep 19 21:36:25 2023
; FORMAT={-:-/ absolute / inch / decimal}
; #@! TF.CreationDate,2023-09-19T21:36:25-07:00
; #@! TF.GenerationSoftware,Kicad,Pcbnew,7.0.7
; #@! TF.FileFunction,Plated,1,2,PTH
FMAT,2
INCH
; #@! TA.AperFunction,Plated,PTH,ComponentDrill
T1C0.0315
; #@! TA.AperFunction,Plated,PTH,ComponentDrill
T2C0.0394
; #@! TA.AperFunction,Plated,PTH,ComponentDrill
T3C0.1063
%
G90
G05
T1
X6.0163Y-3.2933
X6.0163Y-3.5482
X6.0183Y-3.7953
X6.0203Y-3.035
X6.3163Y-3.2933
X6.3163Y-3.5482
X6.3183Y-3.7953
X6.3203Y-3.035
X6.4927Y-3.997
X6.7927Y-3.997
X8.5238Y-3.685
X8.8238Y-3.685
T2
X3.753Y-3.106
X3.753Y-4.006
X3.853Y-3.106
X3.853Y-4.006
X3.953Y-3.106
X3.953Y-4.006
X4.053Y-3.106
X4.053Y-4.006
X4.153Y-3.106
X4.153Y-4.006
X4.253Y-3.106
X4.253Y-4.006
X4.353Y-3.106
X4.353Y-4.006
X4.453Y-3.106
X4.453Y-4.006
X4.553Y-3.106
X4.553Y-4.006
X4.653Y-3.106
X4.653Y-4.006
X4.753Y-3.106
X4.753Y-4.006
X4.853Y-3.106
X4.853Y-4.006
X4.953Y-3.106
X4.953Y-4.006
X5.053Y-3.106
X5.053Y-4.006
X5.153Y-3.106
X5.153Y-4.006
X7.56Y-3.594
X7.66Y-3.594
X7.76Y-3.594
X7.86Y-3.594
X8.78Y-3.041
X8.78Y-3.141
T3
X3.822Y-2.594
T0
M30
