%TF.GenerationSoftware,KiCad,Pcbnew,7.0.7*%
%TF.CreationDate,2023-09-19T21:30:55-07:00*%
%TF.ProjectId,PCB Layout,50434220-4c61-4796-9f75-742e6b696361,rev?*%
%TF.SameCoordinates,Original*%
%TF.FileFunction,Profile,NP*%
%FSLAX46Y46*%
G04 Gerber Fmt 4.6, Leading zero omitted, Abs format (unit mm)*
G04 Created by KiCad (PCBNEW 7.0.7) date 2023-09-19 21:30:55*
%MOMM*%
%LPD*%
G01*
G04 APERTURE LIST*
%ADD10C,0.200000*%
%TA.AperFunction,Profile*%
%ADD11C,0.200000*%
%TD*%
G04 APERTURE END LIST*
D10*
X110052499Y-129702577D02*
X110181957Y-129975912D01*
X110306646Y-130243127D01*
X110425970Y-130502772D01*
X110539330Y-130753398D01*
X110646131Y-130993555D01*
X110745773Y-131221794D01*
X110837662Y-131436665D01*
X110921198Y-131636719D01*
X111029538Y-131905846D01*
X111115727Y-132133480D01*
X111192707Y-132363992D01*
X111217176Y-132529778D01*
X142269597Y-110196959D02*
X141949180Y-110005401D01*
X141628667Y-109831649D01*
X141308191Y-109675669D01*
X140987884Y-109537426D01*
X140667875Y-109416885D01*
X140348299Y-109314013D01*
X140029285Y-109228773D01*
X139710967Y-109161132D01*
X139393475Y-109111055D01*
X139076942Y-109078508D01*
X138761498Y-109063456D01*
X138447277Y-109065865D01*
X138134410Y-109085699D01*
X137823027Y-109122925D01*
X137513262Y-109177508D01*
X137205246Y-109249412D01*
X136899110Y-109338605D01*
X136594987Y-109445051D01*
X136293007Y-109568715D01*
X135993303Y-109709563D01*
X135696007Y-109867561D01*
X135401250Y-110042674D01*
X135109165Y-110234867D01*
X134819881Y-110444106D01*
X134533533Y-110670356D01*
X134250250Y-110913583D01*
X133970165Y-111173752D01*
X133693410Y-111450829D01*
X133420117Y-111744778D01*
X133150416Y-112055566D01*
X132884441Y-112383158D01*
X132622322Y-112727520D01*
X144301005Y-67895043D02*
X144405464Y-67549442D01*
X144509645Y-67174066D01*
X144613518Y-66769167D01*
X144717052Y-66334995D01*
X144820214Y-65871800D01*
X144922975Y-65379832D01*
X145025303Y-64859344D01*
X145127166Y-64310584D01*
X145228535Y-63733804D01*
X145329377Y-63129254D01*
X145429662Y-62497185D01*
X145529358Y-61837847D01*
X145628435Y-61151491D01*
X145726861Y-60438368D01*
X145824605Y-59698727D01*
X145921637Y-58932821D01*
X146017925Y-58140898D01*
X146113437Y-57323211D01*
X146208144Y-56480008D01*
X146302013Y-55611542D01*
X146395014Y-54718062D01*
X146487116Y-53799819D01*
X146578287Y-52857064D01*
X146668497Y-51890047D01*
X146757714Y-50899019D01*
X146845907Y-49884231D01*
X146933046Y-48845932D01*
X147019098Y-47784374D01*
X147104033Y-46699807D01*
X147187821Y-45592482D01*
X147270429Y-44462649D01*
X147351827Y-43310559D01*
X147351827Y-43310559D02*
X147377727Y-42939067D01*
X147403515Y-42571993D01*
X147429155Y-42209807D01*
X147454607Y-41852982D01*
X147479835Y-41501987D01*
X147504801Y-41157297D01*
X147529468Y-40819380D01*
X147553797Y-40488710D01*
X147577751Y-40165758D01*
X147601293Y-39850995D01*
X147624385Y-39544893D01*
X147646989Y-39247924D01*
X147669068Y-38960558D01*
X147690583Y-38683268D01*
X147711499Y-38416525D01*
X147731776Y-38160801D01*
X147751377Y-37916567D01*
X147770265Y-37684295D01*
X147788402Y-37464456D01*
X147805750Y-37257522D01*
X147837931Y-36884255D01*
X147866505Y-36568266D01*
X147891173Y-36313328D01*
X147920192Y-36053642D01*
X147938729Y-35952540D01*
D11*
X161212156Y-47771014D02*
X162115828Y-44890612D01*
X123055886Y-40802036D02*
X123954355Y-40508278D01*
D10*
X202278628Y-108788559D02*
X201865026Y-108543784D01*
X201443373Y-108329905D01*
X201013935Y-108146807D01*
X200576979Y-107994371D01*
X200132772Y-107872484D01*
X199681583Y-107781027D01*
X199223677Y-107719886D01*
X198759323Y-107688943D01*
X198288787Y-107688083D01*
X197812337Y-107717190D01*
X197330239Y-107776146D01*
X196842762Y-107864837D01*
X196350172Y-107983145D01*
X195852736Y-108130956D01*
X195350723Y-108308151D01*
X194844398Y-108514616D01*
X194334029Y-108750234D01*
X193819884Y-109014889D01*
X193302229Y-109308464D01*
X192781332Y-109630844D01*
X192257461Y-109981912D01*
X191730881Y-110361552D01*
X191201861Y-110769648D01*
X190670668Y-111206083D01*
X190137568Y-111670742D01*
X189602830Y-112163509D01*
X189066720Y-112684266D01*
X188529506Y-113232898D01*
X187991454Y-113809289D01*
X187452833Y-114413322D01*
X186913908Y-115044882D01*
X186374949Y-115703852D01*
X111296190Y-46608623D02*
X111634045Y-46414203D01*
X111987562Y-46213832D01*
X112355364Y-46008187D01*
X112736077Y-45797947D01*
X113128327Y-45583791D01*
X113530737Y-45366398D01*
X113941934Y-45146447D01*
X114360543Y-44924618D01*
X114785188Y-44701587D01*
X115214494Y-44478036D01*
X115647088Y-44254642D01*
X116081593Y-44032084D01*
X116516636Y-43811041D01*
X116950841Y-43592193D01*
X117382833Y-43376217D01*
X117811237Y-43163793D01*
X118234679Y-42955600D01*
X118651783Y-42752317D01*
X119061175Y-42554622D01*
X119461480Y-42363195D01*
X119851323Y-42178714D01*
X120229329Y-42001858D01*
X120594124Y-41833306D01*
X120944331Y-41673737D01*
X121278577Y-41523830D01*
X121595487Y-41384263D01*
X121893685Y-41255716D01*
X122171797Y-41138868D01*
X122428448Y-41034396D01*
X122662263Y-40942981D01*
X122871867Y-40865301D01*
X123055886Y-40802036D01*
X232020620Y-97845345D02*
X231776587Y-98970323D01*
X231504575Y-100086500D01*
X231204832Y-101193511D01*
X230877606Y-102290995D01*
X230523145Y-103378589D01*
X230141698Y-104455931D01*
X229733513Y-105522659D01*
X229298839Y-106578410D01*
X228837924Y-107622822D01*
X228351017Y-108655533D01*
X227838366Y-109676180D01*
X227300218Y-110684401D01*
X226736824Y-111679833D01*
X226148431Y-112662115D01*
X225535287Y-113630883D01*
X224897642Y-114585776D01*
X224235742Y-115526431D01*
X223549838Y-116452486D01*
X222840177Y-117363579D01*
X222107007Y-118259346D01*
X221350578Y-119139427D01*
X220571137Y-120003458D01*
X219768932Y-120851077D01*
X218944213Y-121681921D01*
X218097228Y-122495630D01*
X217228225Y-123291839D01*
X216337452Y-124070187D01*
X215425159Y-124830311D01*
X214491592Y-125571850D01*
X213537002Y-126294440D01*
X212561635Y-126997719D01*
X211565742Y-127681326D01*
D11*
X158581442Y-132002728D02*
X157009137Y-136241770D01*
X152329686Y-46177942D02*
X152820051Y-47777414D01*
D10*
X97147914Y-56678608D02*
X97464904Y-56395922D01*
X97797435Y-56105857D01*
X98144761Y-55808944D01*
X98506135Y-55505714D01*
X98880809Y-55196699D01*
X99268038Y-54882430D01*
X99667074Y-54563440D01*
X100077172Y-54240258D01*
X100497583Y-53913418D01*
X100927561Y-53583450D01*
X101366360Y-53250886D01*
X101813233Y-52916257D01*
X102267432Y-52580096D01*
X102728212Y-52242932D01*
X103194826Y-51905299D01*
X103666526Y-51567727D01*
X104142566Y-51230747D01*
X104622200Y-50894892D01*
X105104680Y-50560693D01*
X105589260Y-50228682D01*
X106075193Y-49899389D01*
X106561733Y-49573347D01*
X107048132Y-49251086D01*
X107533643Y-48933139D01*
X108017521Y-48620037D01*
X108499018Y-48312311D01*
X108977388Y-48010493D01*
X109451884Y-47715114D01*
X109921758Y-47426706D01*
X110386265Y-47145801D01*
X110844658Y-46872929D01*
X111296190Y-46608623D01*
X111217176Y-132529778D02*
X110897148Y-132494871D01*
X110577098Y-132375660D01*
X110382115Y-132293357D01*
X110165750Y-132196967D01*
X109929447Y-132087274D01*
X109674649Y-131965060D01*
X109402799Y-131831110D01*
X109115340Y-131686206D01*
X108813715Y-131531133D01*
X108499366Y-131366673D01*
X108173738Y-131193610D01*
X107838274Y-131012728D01*
X107494415Y-130824810D01*
X107143606Y-130630639D01*
X106787290Y-130430999D01*
X106426909Y-130226674D01*
X106063907Y-130018446D01*
X105699726Y-129807099D01*
X105335810Y-129593417D01*
X104973602Y-129378183D01*
X104614545Y-129162181D01*
X104260082Y-128946193D01*
X103911656Y-128731004D01*
X103570710Y-128517397D01*
X103238688Y-128306155D01*
X102917032Y-128098062D01*
X102607185Y-127893901D01*
X102310591Y-127694456D01*
X163966237Y-39663066D02*
X164126731Y-39268904D01*
X164281043Y-38897625D01*
X164429245Y-38549187D01*
X164571407Y-38223544D01*
X164707601Y-37920653D01*
X164837899Y-37640472D01*
X164962371Y-37382956D01*
X165081088Y-37148062D01*
X165194123Y-36935747D01*
X165301546Y-36745966D01*
X165499843Y-36433836D01*
X165676547Y-36211325D01*
X165832231Y-36078083D01*
X166082815Y-36078017D01*
X166219812Y-36309713D01*
X166287956Y-36573880D01*
X166338215Y-36925402D01*
X166356815Y-37133813D01*
X166371158Y-37363932D01*
X166381315Y-37615716D01*
X166387356Y-37889122D01*
X166389355Y-38184106D01*
X141994589Y-70747704D02*
X142258660Y-70608010D01*
X142496549Y-70475778D01*
X142710439Y-70348305D01*
X142902516Y-70222890D01*
X143074963Y-70096830D01*
X143229964Y-69967426D01*
X143434534Y-69761137D01*
X143612138Y-69532125D01*
X143719199Y-69362323D01*
X143819737Y-69175668D01*
X143915934Y-68969459D01*
X144009975Y-68740993D01*
X144104044Y-68487570D01*
X144200326Y-68206486D01*
X144301005Y-67895043D01*
D11*
X157009137Y-136241770D02*
X155518114Y-132218388D01*
D10*
X155518114Y-132218388D02*
X155152356Y-131248162D01*
X154777256Y-130285779D01*
X154393436Y-129332275D01*
X154001520Y-128388685D01*
X153602129Y-127456045D01*
X153195888Y-126535389D01*
X152783418Y-125627754D01*
X152365344Y-124734174D01*
X151942287Y-123855685D01*
X151514871Y-122993322D01*
X151083718Y-122148122D01*
X150649452Y-121321118D01*
X150212695Y-120513347D01*
X149774071Y-119725844D01*
X149334202Y-118959644D01*
X148893711Y-118215783D01*
X148453221Y-117495296D01*
X148013356Y-116799219D01*
X147574737Y-116128587D01*
X147137988Y-115484435D01*
X146703732Y-114867798D01*
X146272592Y-114279713D01*
X145845190Y-113721214D01*
X145422150Y-113193337D01*
X145004095Y-112697118D01*
X144591647Y-112233591D01*
X144185429Y-111803792D01*
X143786064Y-111408757D01*
X143394176Y-111049521D01*
X143010386Y-110727118D01*
X142635319Y-110442586D01*
X142269597Y-110196959D01*
D11*
X186374949Y-115703852D02*
X184056623Y-118597573D01*
D10*
X122828315Y-42371340D02*
X122513530Y-42909487D01*
X122216191Y-43453345D01*
X121936307Y-44002784D01*
X121673886Y-44557678D01*
X121428939Y-45117896D01*
X121201474Y-45683311D01*
X120991499Y-46253793D01*
X120799025Y-46829216D01*
X120624061Y-47409449D01*
X120466615Y-47994365D01*
X120326696Y-48583835D01*
X120204314Y-49177730D01*
X120099478Y-49775922D01*
X120012196Y-50378283D01*
X119942479Y-50984684D01*
X119890334Y-51594997D01*
X119855772Y-52209093D01*
X119838801Y-52826843D01*
X119839430Y-53448119D01*
X119857669Y-54072793D01*
X119893527Y-54700736D01*
X119947012Y-55331820D01*
X120018133Y-55965916D01*
X120106901Y-56602895D01*
X120213324Y-57242629D01*
X120337410Y-57884990D01*
X120479170Y-58529850D01*
X120638612Y-59177079D01*
X120815746Y-59826549D01*
X121010580Y-60478131D01*
X121223123Y-61131698D01*
X121453386Y-61787121D01*
X119953686Y-108891619D02*
X119426667Y-108617497D01*
X118895179Y-108382813D01*
X118360405Y-108186897D01*
X117823528Y-108029082D01*
X117285731Y-107908696D01*
X116748199Y-107825072D01*
X116212115Y-107777540D01*
X115678661Y-107765430D01*
X115149022Y-107788075D01*
X114624381Y-107844804D01*
X114105921Y-107934948D01*
X113594827Y-108057839D01*
X113092281Y-108212806D01*
X112599466Y-108399182D01*
X112117567Y-108616296D01*
X111647767Y-108863480D01*
X111191248Y-109140064D01*
X110749196Y-109445379D01*
X110322793Y-109778757D01*
X109913222Y-110139527D01*
X109521667Y-110527021D01*
X109149312Y-110940570D01*
X108797340Y-111379504D01*
X108466934Y-111843154D01*
X108159279Y-112330852D01*
X107875556Y-112841927D01*
X107616951Y-113375711D01*
X107384645Y-113931534D01*
X107179824Y-114508729D01*
X107003670Y-115106624D01*
X106857366Y-115724551D01*
X106742097Y-116361842D01*
X121453386Y-61787121D02*
X121595403Y-62168508D01*
X121741026Y-62542972D01*
X121890276Y-62910545D01*
X122043175Y-63271256D01*
X122199747Y-63625137D01*
X122360012Y-63972219D01*
X122523994Y-64312532D01*
X122691714Y-64646107D01*
X122863196Y-64972975D01*
X123038460Y-65293167D01*
X123217530Y-65606714D01*
X123400427Y-65913647D01*
X123587174Y-66213996D01*
X123777794Y-66507792D01*
X123972308Y-66795066D01*
X124170739Y-67075850D01*
X124373108Y-67350172D01*
X124579439Y-67618066D01*
X124789754Y-67879561D01*
X125004074Y-68134688D01*
X125222422Y-68383478D01*
X125444821Y-68625962D01*
X125671292Y-68862171D01*
X125901858Y-69092136D01*
X126136542Y-69315887D01*
X126375364Y-69533455D01*
X126618348Y-69744871D01*
X126865517Y-69950167D01*
X127116891Y-70149372D01*
X127372494Y-70342517D01*
X127632347Y-70529634D01*
X127896474Y-70710754D01*
X133395178Y-72467605D02*
X133707899Y-72482470D01*
X134016156Y-72493234D01*
X134320109Y-72499865D01*
X134619923Y-72502329D01*
X134915759Y-72500595D01*
X135207781Y-72494629D01*
X135496151Y-72484400D01*
X135781032Y-72469874D01*
X136062587Y-72451019D01*
X136340978Y-72427803D01*
X136616368Y-72400193D01*
X136888920Y-72368156D01*
X137158797Y-72331660D01*
X137426161Y-72290672D01*
X137691176Y-72245160D01*
X137954003Y-72195092D01*
X138214806Y-72140433D01*
X138473747Y-72081153D01*
X138730990Y-72017219D01*
X138986696Y-71948597D01*
X139241029Y-71875256D01*
X139494151Y-71797163D01*
X139746225Y-71714285D01*
X139997414Y-71626590D01*
X140247881Y-71534045D01*
X140497787Y-71436618D01*
X140747297Y-71334276D01*
X140996573Y-71226987D01*
X141245777Y-71114717D01*
X141495073Y-70997435D01*
X141744622Y-70875108D01*
X141994589Y-70747704D01*
X183436309Y-116697712D02*
X183228408Y-116099890D01*
X183002512Y-115523547D01*
X182759370Y-114969093D01*
X182499733Y-114436935D01*
X182224353Y-113927482D01*
X181933978Y-113441142D01*
X181629361Y-112978324D01*
X181311252Y-112539436D01*
X180980401Y-112124886D01*
X180637558Y-111735083D01*
X180283475Y-111370435D01*
X179918902Y-111031351D01*
X179544590Y-110718239D01*
X179161290Y-110431508D01*
X178769751Y-110171565D01*
X178370725Y-109938820D01*
X177964961Y-109733680D01*
X177553212Y-109556554D01*
X177136227Y-109407851D01*
X176714757Y-109287979D01*
X176289552Y-109197346D01*
X175861364Y-109136360D01*
X175430942Y-109105431D01*
X174999038Y-109104966D01*
X174566402Y-109135375D01*
X174133784Y-109197064D01*
X173701936Y-109290443D01*
X173271607Y-109415920D01*
X172843549Y-109573904D01*
X172418512Y-109764803D01*
X171997247Y-109989025D01*
X171580504Y-110246979D01*
X203167498Y-131315718D02*
X203268787Y-131130154D01*
X203390367Y-130894884D01*
X203481248Y-130713509D01*
X203578980Y-130514671D01*
X203682696Y-130300222D01*
X203791530Y-130072013D01*
X203904615Y-129831896D01*
X204021083Y-129581722D01*
X204140069Y-129323343D01*
X204260706Y-129058610D01*
X204382126Y-128789375D01*
X204503463Y-128517490D01*
X204623850Y-128244806D01*
X204742421Y-127973174D01*
X204858309Y-127704446D01*
D11*
X152820051Y-47777414D02*
X157016095Y-47774214D01*
D10*
X132622322Y-112727520D02*
X132479210Y-112927500D01*
X132334051Y-113141735D01*
X132187854Y-113368270D01*
X132041628Y-113605148D01*
X131896385Y-113850414D01*
X131753133Y-114102112D01*
X131612883Y-114358285D01*
X131476645Y-114616978D01*
X131345428Y-114876236D01*
X131220244Y-115134102D01*
X131102101Y-115388620D01*
X130992010Y-115637834D01*
X130890980Y-115879790D01*
X130800023Y-116112530D01*
X130720147Y-116334099D01*
X130652363Y-116542542D01*
X179628921Y-72501135D02*
X180220343Y-72489490D01*
X180799350Y-72455420D01*
X181366062Y-72398818D01*
X181920599Y-72319575D01*
X182463080Y-72217583D01*
X182993626Y-72092733D01*
X183512357Y-71944918D01*
X184019394Y-71774029D01*
X184514855Y-71579957D01*
X184998862Y-71362595D01*
X185471535Y-71121834D01*
X185932993Y-70857567D01*
X186383357Y-70569684D01*
X186822747Y-70258077D01*
X187251283Y-69922639D01*
X187669086Y-69563261D01*
X188076274Y-69179835D01*
X188472969Y-68772252D01*
X188859291Y-68340405D01*
X189235359Y-67884184D01*
X189601294Y-67403482D01*
X189957216Y-66898191D01*
X190303245Y-66368202D01*
X190639501Y-65813408D01*
X190966105Y-65233699D01*
X191283175Y-64628967D01*
X191590834Y-63999105D01*
X191889200Y-63344003D01*
X192178394Y-62663555D01*
X192458536Y-61957651D01*
X192729745Y-61226183D01*
X192992144Y-60469044D01*
X171580504Y-110246979D02*
X171218213Y-110503376D01*
X170847145Y-110797042D01*
X170467894Y-111126980D01*
X170081054Y-111492197D01*
X169687219Y-111891697D01*
X169286984Y-112324486D01*
X168880943Y-112789569D01*
X168469691Y-113285952D01*
X168053822Y-113812639D01*
X167633929Y-114368636D01*
X167210608Y-114952949D01*
X166784453Y-115564582D01*
X166356058Y-116202541D01*
X165926017Y-116865832D01*
X165494926Y-117553459D01*
X165063377Y-118264427D01*
X164631966Y-118997743D01*
X164201287Y-119752411D01*
X163771933Y-120527437D01*
X163344501Y-121321825D01*
X162919583Y-122134582D01*
X162497774Y-122964713D01*
X162079668Y-123811222D01*
X161665861Y-124673116D01*
X161256946Y-125549399D01*
X160853517Y-126439076D01*
X160456168Y-127341154D01*
X160065495Y-128254637D01*
X159682092Y-129178530D01*
X159306552Y-130111840D01*
X158939471Y-131053570D01*
X158581442Y-132002728D01*
X191622924Y-40982545D02*
X192646088Y-41439460D01*
X193648722Y-41895466D01*
X194631487Y-42350977D01*
X195595042Y-42806408D01*
X196540047Y-43262173D01*
X197467163Y-43718688D01*
X198377049Y-44176367D01*
X199270366Y-44635624D01*
X200147774Y-45096875D01*
X201009933Y-45560533D01*
X201857503Y-46027014D01*
X202691145Y-46496732D01*
X203511517Y-46970102D01*
X204319281Y-47447539D01*
X205115097Y-47929456D01*
X205899624Y-48416270D01*
X206673523Y-48908393D01*
X207437454Y-49406242D01*
X208192077Y-49910231D01*
X208938052Y-50420774D01*
X209676039Y-50938286D01*
X210406699Y-51463182D01*
X211130691Y-51995876D01*
X211848676Y-52536783D01*
X212561314Y-53086318D01*
X213269264Y-53644896D01*
X213973188Y-54212930D01*
X214673744Y-54790836D01*
X215371594Y-55379028D01*
X216067397Y-55977921D01*
X216761813Y-56587930D01*
X217455504Y-57209470D01*
D11*
X130056953Y-118493813D02*
X127807494Y-115836982D01*
D10*
X202702898Y-132501398D02*
X202717237Y-132300918D01*
X202790568Y-132086990D01*
X202883022Y-131869685D01*
X202974821Y-131677128D01*
X203080407Y-131473201D01*
X203167498Y-131315718D01*
X81180595Y-90479912D02*
X81137329Y-89327427D01*
X81129126Y-88180980D01*
X81155978Y-87040588D01*
X81217877Y-85906267D01*
X81314815Y-84778035D01*
X81446785Y-83655909D01*
X81613777Y-82539904D01*
X81815785Y-81430038D01*
X82052800Y-80326328D01*
X82324814Y-79228790D01*
X82631820Y-78137442D01*
X82973810Y-77052299D01*
X83350775Y-75973380D01*
X83762707Y-74900700D01*
X84209600Y-73834277D01*
X84691444Y-72774127D01*
X85208232Y-71720267D01*
X85759955Y-70672714D01*
X86346607Y-69631484D01*
X86968179Y-68596596D01*
X87624663Y-67568064D01*
X88316051Y-66545907D01*
X89042335Y-65530140D01*
X89803508Y-64520782D01*
X90599561Y-63517847D01*
X91430486Y-62521355D01*
X92296276Y-61531320D01*
X93196922Y-60547760D01*
X94132417Y-59570693D01*
X95102752Y-58600133D01*
X96107920Y-57636099D01*
X97147914Y-56678608D01*
D11*
X184056623Y-118597573D02*
X183436309Y-116697712D01*
X123954355Y-40508278D02*
X122828315Y-42371340D01*
D10*
X106742097Y-116361842D02*
X106703127Y-116653239D01*
X106674018Y-116955442D01*
X106654703Y-117268181D01*
X106645114Y-117591185D01*
X106645184Y-117924182D01*
X106654846Y-118266901D01*
X106674032Y-118619072D01*
X106702676Y-118980424D01*
X106740709Y-119350685D01*
X106788066Y-119729585D01*
X106844678Y-120116853D01*
X106910479Y-120512217D01*
X106985400Y-120915408D01*
X107069376Y-121326153D01*
X107162338Y-121744183D01*
X107264219Y-122169225D01*
X107374953Y-122601009D01*
X107494472Y-123039265D01*
X107622708Y-123483720D01*
X107759595Y-123934105D01*
X107905065Y-124390148D01*
X108059051Y-124851579D01*
X108221486Y-125318126D01*
X108392302Y-125789518D01*
X108571432Y-126265485D01*
X108758810Y-126745755D01*
X108954368Y-127230058D01*
X109158038Y-127718122D01*
X109369753Y-128209677D01*
X109589446Y-128704452D01*
X109817051Y-129202175D01*
X110052499Y-129702577D01*
D11*
X130652363Y-116542542D02*
X130056953Y-118493813D01*
D10*
X204858309Y-127704446D02*
X205216602Y-126844991D01*
X205546805Y-126004509D01*
X205848895Y-125182832D01*
X206122849Y-124379795D01*
X206368646Y-123595231D01*
X206586261Y-122828975D01*
X206775672Y-122080861D01*
X206936858Y-121350723D01*
X207069795Y-120638394D01*
X207174460Y-119943709D01*
X207250831Y-119266502D01*
X207298886Y-118606606D01*
X207318601Y-117963856D01*
X207309954Y-117338087D01*
X207272923Y-116729131D01*
X207207485Y-116136823D01*
X207113616Y-115560996D01*
X206991296Y-115001486D01*
X206840500Y-114458125D01*
X206661206Y-113930749D01*
X206453392Y-113419190D01*
X206217036Y-112923284D01*
X205952113Y-112442863D01*
X205658603Y-111977762D01*
X205336481Y-111527816D01*
X204985727Y-111092857D01*
X204606316Y-110672720D01*
X204198226Y-110267240D01*
X203761435Y-109876249D01*
X203295920Y-109499583D01*
X202801658Y-109137075D01*
X202278628Y-108788559D01*
X166389355Y-38184106D02*
X166393062Y-38534068D01*
X166403965Y-38944778D01*
X166421735Y-39412549D01*
X166446042Y-39933692D01*
X166476557Y-40504519D01*
X166512952Y-41121343D01*
X166554897Y-41780474D01*
X166602064Y-42478225D01*
X166654122Y-43210908D01*
X166710743Y-43974834D01*
X166771599Y-44766316D01*
X166836359Y-45581666D01*
X166904695Y-46417195D01*
X166976278Y-47269215D01*
X167050779Y-48134038D01*
X167127868Y-49007976D01*
X167207216Y-49887342D01*
X167288496Y-50768446D01*
X167371376Y-51647601D01*
X167455529Y-52521119D01*
X167540625Y-53385311D01*
X167626335Y-54236490D01*
X167712331Y-55070968D01*
X167798282Y-55885056D01*
X167883860Y-56675066D01*
X167968737Y-57437310D01*
X168052582Y-58168100D01*
X168135066Y-58863748D01*
X168215862Y-59520566D01*
X168294639Y-60134866D01*
X168371068Y-60702959D01*
X168444822Y-61221159D01*
X171131057Y-70174794D02*
X171307787Y-70293745D01*
X171495806Y-70411235D01*
X171694558Y-70527109D01*
X171903487Y-70641217D01*
X172122036Y-70753405D01*
X172349652Y-70863522D01*
X172585777Y-70971416D01*
X172829855Y-71076934D01*
X173081332Y-71179925D01*
X173339652Y-71280236D01*
X173604257Y-71377714D01*
X173874594Y-71472209D01*
X174150106Y-71563568D01*
X174430237Y-71651638D01*
X174714431Y-71736267D01*
X175002134Y-71817304D01*
X175292788Y-71894596D01*
X175585838Y-71967991D01*
X175880729Y-72037337D01*
X176176905Y-72102481D01*
X176473810Y-72163272D01*
X176770887Y-72219558D01*
X177067582Y-72271186D01*
X177363339Y-72318004D01*
X177657602Y-72359860D01*
X177949815Y-72396601D01*
X178239422Y-72428077D01*
X178525867Y-72454134D01*
X178808596Y-72474620D01*
X179087051Y-72489384D01*
X179360678Y-72498273D01*
X179628921Y-72501135D01*
X162115828Y-44890612D02*
X162212794Y-44585016D01*
X162316679Y-44264096D01*
X162426534Y-43930532D01*
X162541410Y-43587005D01*
X162660359Y-43236193D01*
X162782430Y-42880778D01*
X162906677Y-42523440D01*
X163032151Y-42166859D01*
X163157901Y-41813714D01*
X163282981Y-41466686D01*
X163406440Y-41128455D01*
X163527332Y-40801702D01*
X163644705Y-40489106D01*
X163757613Y-40193348D01*
X163865107Y-39917108D01*
X163966237Y-39663066D01*
X102310591Y-127694456D02*
X101107291Y-126853213D01*
X99937613Y-125988733D01*
X98801698Y-125101263D01*
X97699688Y-124191052D01*
X96631721Y-123258347D01*
X95597941Y-122303398D01*
X94598488Y-121326451D01*
X93633502Y-120327756D01*
X92703125Y-119307561D01*
X91807497Y-118266114D01*
X90946760Y-117203663D01*
X90121054Y-116120456D01*
X89330521Y-115016742D01*
X88575301Y-113892768D01*
X87855535Y-112748784D01*
X87171364Y-111585037D01*
X86522930Y-110401776D01*
X85910373Y-109199248D01*
X85333833Y-107977702D01*
X84793453Y-106737387D01*
X84289373Y-105478550D01*
X83821733Y-104201439D01*
X83390676Y-102906304D01*
X82996341Y-101593391D01*
X82638870Y-100262950D01*
X82318403Y-98915229D01*
X82035082Y-97550475D01*
X81789048Y-96168937D01*
X81580441Y-94770864D01*
X81409402Y-93356503D01*
X81276073Y-91926103D01*
X81180595Y-90479912D01*
X168444822Y-61221159D02*
X168531601Y-61806366D01*
X168616081Y-62364813D01*
X168698472Y-62897205D01*
X168778987Y-63404248D01*
X168857836Y-63886647D01*
X168935233Y-64345109D01*
X169011388Y-64780339D01*
X169086513Y-65193042D01*
X169160821Y-65583925D01*
X169234522Y-65953692D01*
X169307828Y-66303050D01*
X169380952Y-66632705D01*
X169454104Y-66943362D01*
X169527497Y-67235726D01*
X169601342Y-67510504D01*
X169675851Y-67768401D01*
X169751236Y-68010123D01*
X169827708Y-68236375D01*
X169905479Y-68447863D01*
X169984762Y-68645294D01*
X170065766Y-68829372D01*
X170233790Y-69160293D01*
X170411245Y-69446272D01*
X170599824Y-69692956D01*
X170801221Y-69905989D01*
X171017131Y-70091017D01*
X171131057Y-70174794D01*
X217455504Y-57209470D02*
X218217043Y-57910295D01*
X218961175Y-58619030D01*
X219687737Y-59335397D01*
X220396564Y-60059122D01*
X221087491Y-60789928D01*
X221760354Y-61527542D01*
X222414989Y-62271688D01*
X223051231Y-63022089D01*
X223668915Y-63778472D01*
X224267878Y-64540560D01*
X224847954Y-65308078D01*
X225408980Y-66080751D01*
X225950791Y-66858304D01*
X226473222Y-67640460D01*
X226976109Y-68426946D01*
X227459289Y-69217485D01*
X227922595Y-70011803D01*
X228365864Y-70809623D01*
X228788932Y-71610671D01*
X229191633Y-72414671D01*
X229573804Y-73221347D01*
X229935280Y-74030426D01*
X230275897Y-74841630D01*
X230595490Y-75654685D01*
X230893895Y-76469316D01*
X231170948Y-77285247D01*
X231426483Y-78102203D01*
X231660337Y-78919908D01*
X231872345Y-79738088D01*
X232062343Y-80556466D01*
X232230166Y-81374768D01*
X232375650Y-82192718D01*
X127807494Y-115836982D02*
X127551143Y-115536468D01*
X127295577Y-115241411D01*
X127040788Y-114951804D01*
X126786768Y-114667638D01*
X126533509Y-114388908D01*
X126281003Y-114115606D01*
X126029242Y-113847724D01*
X125778217Y-113585257D01*
X125527921Y-113328196D01*
X125278345Y-113076534D01*
X125029483Y-112830265D01*
X124781324Y-112589380D01*
X124533862Y-112353874D01*
X124287088Y-112123739D01*
X124040995Y-111898968D01*
X123795574Y-111679553D01*
X123550817Y-111465488D01*
X123306716Y-111256766D01*
X123063264Y-111053379D01*
X122820451Y-110855320D01*
X122578270Y-110662582D01*
X122336713Y-110475158D01*
X122095772Y-110293041D01*
X121855439Y-110116223D01*
X121615705Y-109944699D01*
X121376563Y-109778459D01*
X121138005Y-109617498D01*
X120900022Y-109461808D01*
X120662607Y-109311383D01*
X120425751Y-109166214D01*
X120189447Y-109026295D01*
X119953686Y-108891619D01*
X192992144Y-60469044D02*
X193188497Y-59856444D01*
X193367549Y-59242483D01*
X193529340Y-58627518D01*
X193673910Y-58011906D01*
X193801300Y-57396006D01*
X193911550Y-56780174D01*
X194004702Y-56164769D01*
X194080794Y-55550148D01*
X194139869Y-54936669D01*
X194181966Y-54324690D01*
X194207127Y-53714567D01*
X194215391Y-53106660D01*
X194206799Y-52501325D01*
X194181393Y-51898921D01*
X194139211Y-51299805D01*
X194080296Y-50704334D01*
X194004686Y-50112867D01*
X193912424Y-49525760D01*
X193803549Y-48943373D01*
X193678103Y-48366061D01*
X193536125Y-47794184D01*
X193377656Y-47228098D01*
X193202737Y-46668162D01*
X193011408Y-46114733D01*
X192803710Y-45568169D01*
X192579684Y-45028827D01*
X192339369Y-44497066D01*
X192082807Y-43973242D01*
X191810038Y-43457714D01*
X191521102Y-42950839D01*
X191216040Y-42452974D01*
X190894894Y-41964479D01*
D11*
X189624720Y-40098106D02*
X191622924Y-40982545D01*
X157016095Y-47774214D02*
X161212156Y-47771014D01*
D10*
X127896474Y-70710754D02*
X128094338Y-70842571D01*
X128283180Y-70967080D01*
X128463733Y-71084515D01*
X128636731Y-71195111D01*
X128963002Y-71396722D01*
X129267867Y-71573791D01*
X129557203Y-71728195D01*
X129836884Y-71861812D01*
X130112784Y-71976517D01*
X130390780Y-72074189D01*
X130676746Y-72156704D01*
X130976557Y-72225940D01*
X131296089Y-72283774D01*
X131641216Y-72332082D01*
X132017813Y-72372742D01*
X132219749Y-72390791D01*
X132431755Y-72407631D01*
X132654567Y-72423498D01*
X132888919Y-72438626D01*
X133135544Y-72453250D01*
X133395178Y-72467605D01*
X232375650Y-82192718D02*
X232432594Y-82565333D01*
X232484824Y-82959763D01*
X232532372Y-83374578D01*
X232575272Y-83808349D01*
X232613555Y-84259646D01*
X232647253Y-84727039D01*
X232676400Y-85209099D01*
X232701028Y-85704395D01*
X232721169Y-86211499D01*
X232736855Y-86728980D01*
X232748119Y-87255409D01*
X232754994Y-87789355D01*
X232757511Y-88329390D01*
X232755704Y-88874084D01*
X232749604Y-89422007D01*
X232739245Y-89971729D01*
X232724658Y-90521820D01*
X232705876Y-91070851D01*
X232682931Y-91617393D01*
X232655857Y-92160015D01*
X232624684Y-92697287D01*
X232589447Y-93227781D01*
X232550177Y-93750066D01*
X232506906Y-94262713D01*
X232459667Y-94764292D01*
X232408493Y-95253373D01*
X232353416Y-95728526D01*
X232294468Y-96188323D01*
X232231682Y-96631333D01*
X232165091Y-97056126D01*
X232094725Y-97461273D01*
X232020620Y-97845345D01*
D11*
X190894894Y-41964479D02*
X189624720Y-40098106D01*
D10*
X211565742Y-127681326D02*
X211199756Y-127924664D01*
X210829777Y-128167316D01*
X210456779Y-128408752D01*
X210081734Y-128648444D01*
X209705617Y-128885861D01*
X209329400Y-129120474D01*
X208954059Y-129351753D01*
X208580567Y-129579169D01*
X208209896Y-129802193D01*
X207843022Y-130020294D01*
X207480917Y-130232943D01*
X207124555Y-130439611D01*
X206774911Y-130639769D01*
X206432957Y-130832885D01*
X206099668Y-131018432D01*
X205776016Y-131195879D01*
X205462977Y-131364698D01*
X205161522Y-131524357D01*
X204872627Y-131674329D01*
X204597265Y-131814083D01*
X204336409Y-131943089D01*
X204091034Y-132060819D01*
X203862112Y-132166743D01*
X203650618Y-132260330D01*
X203457525Y-132341053D01*
X203130437Y-132461783D01*
X202888639Y-132524698D01*
X202702898Y-132501398D01*
X147938729Y-35952540D02*
X148176005Y-36035537D01*
X148356743Y-36271961D01*
X148572991Y-36624617D01*
X148693051Y-36841318D01*
X148820331Y-37083219D01*
X148954280Y-37349034D01*
X149094346Y-37637478D01*
X149239976Y-37947264D01*
X149390617Y-38277107D01*
X149545719Y-38625720D01*
X149704727Y-38991818D01*
X149867092Y-39374114D01*
X150032259Y-39771323D01*
X150199677Y-40182159D01*
X150368794Y-40605336D01*
X150539057Y-41039567D01*
X150709915Y-41483567D01*
X150880814Y-41936050D01*
X151051203Y-42395730D01*
X151220530Y-42861321D01*
X151388243Y-43331536D01*
X151553788Y-43805091D01*
X151716615Y-44280699D01*
X151876170Y-44757074D01*
X152031901Y-45232930D01*
X152183257Y-45706981D01*
X152329686Y-46177942D01*
M02*
