%TF.GenerationSoftware,KiCad,Pcbnew,7.0.7*%
%TF.CreationDate,2023-09-19T21:30:54-07:00*%
%TF.ProjectId,PCB Layout,50434220-4c61-4796-9f75-742e6b696361,rev?*%
%TF.SameCoordinates,Original*%
%TF.FileFunction,Legend,Top*%
%TF.FilePolarity,Positive*%
%FSLAX46Y46*%
G04 Gerber Fmt 4.6, Leading zero omitted, Abs format (unit mm)*
G04 Created by KiCad (PCBNEW 7.0.7) date 2023-09-19 21:30:54*
%MOMM*%
%LPD*%
G01*
G04 APERTURE LIST*
%ADD10C,0.062500*%
%ADD11C,0.150000*%
%ADD12C,0.250000*%
%ADD13C,0.120000*%
G04 APERTURE END LIST*
D10*
X191919689Y-93260559D02*
X191800641Y-93260559D01*
X191800641Y-93260559D02*
X191788737Y-93498654D01*
X191788737Y-93498654D02*
X191800641Y-93474845D01*
X191800641Y-93474845D02*
X191824451Y-93451035D01*
X191824451Y-93451035D02*
X191883975Y-93451035D01*
X191883975Y-93451035D02*
X191907784Y-93474845D01*
X191907784Y-93474845D02*
X191919689Y-93498654D01*
X191919689Y-93498654D02*
X191931594Y-93546273D01*
X191931594Y-93546273D02*
X191931594Y-93665321D01*
X191931594Y-93665321D02*
X191919689Y-93712940D01*
X191919689Y-93712940D02*
X191907784Y-93736750D01*
X191907784Y-93736750D02*
X191883975Y-93760559D01*
X191883975Y-93760559D02*
X191824451Y-93760559D01*
X191824451Y-93760559D02*
X191800641Y-93736750D01*
X191800641Y-93736750D02*
X191788737Y-93712940D01*
X192003022Y-93260559D02*
X192086355Y-93760559D01*
X192086355Y-93760559D02*
X192169689Y-93260559D01*
X199456594Y-93309369D02*
X199432784Y-93285559D01*
X199432784Y-93285559D02*
X199397070Y-93285559D01*
X199397070Y-93285559D02*
X199361356Y-93309369D01*
X199361356Y-93309369D02*
X199337546Y-93356988D01*
X199337546Y-93356988D02*
X199325641Y-93404607D01*
X199325641Y-93404607D02*
X199313737Y-93499845D01*
X199313737Y-93499845D02*
X199313737Y-93571273D01*
X199313737Y-93571273D02*
X199325641Y-93666511D01*
X199325641Y-93666511D02*
X199337546Y-93714130D01*
X199337546Y-93714130D02*
X199361356Y-93761750D01*
X199361356Y-93761750D02*
X199397070Y-93785559D01*
X199397070Y-93785559D02*
X199420879Y-93785559D01*
X199420879Y-93785559D02*
X199456594Y-93761750D01*
X199456594Y-93761750D02*
X199468498Y-93737940D01*
X199468498Y-93737940D02*
X199468498Y-93571273D01*
X199468498Y-93571273D02*
X199420879Y-93571273D01*
X199575641Y-93785559D02*
X199575641Y-93285559D01*
X199575641Y-93285559D02*
X199718498Y-93785559D01*
X199718498Y-93785559D02*
X199718498Y-93285559D01*
X199837546Y-93785559D02*
X199837546Y-93285559D01*
X199837546Y-93285559D02*
X199897070Y-93285559D01*
X199897070Y-93285559D02*
X199932784Y-93309369D01*
X199932784Y-93309369D02*
X199956594Y-93356988D01*
X199956594Y-93356988D02*
X199968499Y-93404607D01*
X199968499Y-93404607D02*
X199980403Y-93499845D01*
X199980403Y-93499845D02*
X199980403Y-93571273D01*
X199980403Y-93571273D02*
X199968499Y-93666511D01*
X199968499Y-93666511D02*
X199956594Y-93714130D01*
X199956594Y-93714130D02*
X199932784Y-93761750D01*
X199932784Y-93761750D02*
X199897070Y-93785559D01*
X199897070Y-93785559D02*
X199837546Y-93785559D01*
X196414927Y-93285559D02*
X196557784Y-93285559D01*
X196486356Y-93785559D02*
X196486356Y-93285559D01*
X196783974Y-93785559D02*
X196700641Y-93547464D01*
X196641117Y-93785559D02*
X196641117Y-93285559D01*
X196641117Y-93285559D02*
X196736355Y-93285559D01*
X196736355Y-93285559D02*
X196760165Y-93309369D01*
X196760165Y-93309369D02*
X196772070Y-93333178D01*
X196772070Y-93333178D02*
X196783974Y-93380797D01*
X196783974Y-93380797D02*
X196783974Y-93452226D01*
X196783974Y-93452226D02*
X196772070Y-93499845D01*
X196772070Y-93499845D02*
X196760165Y-93523654D01*
X196760165Y-93523654D02*
X196736355Y-93547464D01*
X196736355Y-93547464D02*
X196641117Y-93547464D01*
X196891117Y-93785559D02*
X196891117Y-93285559D01*
X197141118Y-93309369D02*
X197117308Y-93285559D01*
X197117308Y-93285559D02*
X197081594Y-93285559D01*
X197081594Y-93285559D02*
X197045880Y-93309369D01*
X197045880Y-93309369D02*
X197022070Y-93356988D01*
X197022070Y-93356988D02*
X197010165Y-93404607D01*
X197010165Y-93404607D02*
X196998261Y-93499845D01*
X196998261Y-93499845D02*
X196998261Y-93571273D01*
X196998261Y-93571273D02*
X197010165Y-93666511D01*
X197010165Y-93666511D02*
X197022070Y-93714130D01*
X197022070Y-93714130D02*
X197045880Y-93761750D01*
X197045880Y-93761750D02*
X197081594Y-93785559D01*
X197081594Y-93785559D02*
X197105403Y-93785559D01*
X197105403Y-93785559D02*
X197141118Y-93761750D01*
X197141118Y-93761750D02*
X197153022Y-93737940D01*
X197153022Y-93737940D02*
X197153022Y-93571273D01*
X197153022Y-93571273D02*
X197105403Y-93571273D01*
X197391118Y-93309369D02*
X197367308Y-93285559D01*
X197367308Y-93285559D02*
X197331594Y-93285559D01*
X197331594Y-93285559D02*
X197295880Y-93309369D01*
X197295880Y-93309369D02*
X197272070Y-93356988D01*
X197272070Y-93356988D02*
X197260165Y-93404607D01*
X197260165Y-93404607D02*
X197248261Y-93499845D01*
X197248261Y-93499845D02*
X197248261Y-93571273D01*
X197248261Y-93571273D02*
X197260165Y-93666511D01*
X197260165Y-93666511D02*
X197272070Y-93714130D01*
X197272070Y-93714130D02*
X197295880Y-93761750D01*
X197295880Y-93761750D02*
X197331594Y-93785559D01*
X197331594Y-93785559D02*
X197355403Y-93785559D01*
X197355403Y-93785559D02*
X197391118Y-93761750D01*
X197391118Y-93761750D02*
X197403022Y-93737940D01*
X197403022Y-93737940D02*
X197403022Y-93571273D01*
X197403022Y-93571273D02*
X197355403Y-93571273D01*
X197510165Y-93523654D02*
X197593499Y-93523654D01*
X197629213Y-93785559D02*
X197510165Y-93785559D01*
X197510165Y-93785559D02*
X197510165Y-93285559D01*
X197510165Y-93285559D02*
X197629213Y-93285559D01*
X197879212Y-93785559D02*
X197795879Y-93547464D01*
X197736355Y-93785559D02*
X197736355Y-93285559D01*
X197736355Y-93285559D02*
X197831593Y-93285559D01*
X197831593Y-93285559D02*
X197855403Y-93309369D01*
X197855403Y-93309369D02*
X197867308Y-93333178D01*
X197867308Y-93333178D02*
X197879212Y-93380797D01*
X197879212Y-93380797D02*
X197879212Y-93452226D01*
X197879212Y-93452226D02*
X197867308Y-93499845D01*
X197867308Y-93499845D02*
X197855403Y-93523654D01*
X197855403Y-93523654D02*
X197831593Y-93547464D01*
X197831593Y-93547464D02*
X197736355Y-93547464D01*
X194125641Y-93498654D02*
X194208975Y-93498654D01*
X194244689Y-93760559D02*
X194125641Y-93760559D01*
X194125641Y-93760559D02*
X194125641Y-93260559D01*
X194125641Y-93260559D02*
X194244689Y-93260559D01*
X194494688Y-93712940D02*
X194482784Y-93736750D01*
X194482784Y-93736750D02*
X194447069Y-93760559D01*
X194447069Y-93760559D02*
X194423260Y-93760559D01*
X194423260Y-93760559D02*
X194387546Y-93736750D01*
X194387546Y-93736750D02*
X194363736Y-93689130D01*
X194363736Y-93689130D02*
X194351831Y-93641511D01*
X194351831Y-93641511D02*
X194339927Y-93546273D01*
X194339927Y-93546273D02*
X194339927Y-93474845D01*
X194339927Y-93474845D02*
X194351831Y-93379607D01*
X194351831Y-93379607D02*
X194363736Y-93331988D01*
X194363736Y-93331988D02*
X194387546Y-93284369D01*
X194387546Y-93284369D02*
X194423260Y-93260559D01*
X194423260Y-93260559D02*
X194447069Y-93260559D01*
X194447069Y-93260559D02*
X194482784Y-93284369D01*
X194482784Y-93284369D02*
X194494688Y-93308178D01*
X194601831Y-93760559D02*
X194601831Y-93260559D01*
X194601831Y-93498654D02*
X194744688Y-93498654D01*
X194744688Y-93760559D02*
X194744688Y-93260559D01*
X194911355Y-93260559D02*
X194958974Y-93260559D01*
X194958974Y-93260559D02*
X194982784Y-93284369D01*
X194982784Y-93284369D02*
X195006593Y-93331988D01*
X195006593Y-93331988D02*
X195018498Y-93427226D01*
X195018498Y-93427226D02*
X195018498Y-93593892D01*
X195018498Y-93593892D02*
X195006593Y-93689130D01*
X195006593Y-93689130D02*
X194982784Y-93736750D01*
X194982784Y-93736750D02*
X194958974Y-93760559D01*
X194958974Y-93760559D02*
X194911355Y-93760559D01*
X194911355Y-93760559D02*
X194887546Y-93736750D01*
X194887546Y-93736750D02*
X194863736Y-93689130D01*
X194863736Y-93689130D02*
X194851832Y-93593892D01*
X194851832Y-93593892D02*
X194851832Y-93427226D01*
X194851832Y-93427226D02*
X194863736Y-93331988D01*
X194863736Y-93331988D02*
X194887546Y-93284369D01*
X194887546Y-93284369D02*
X194911355Y-93260559D01*
D11*
X218660588Y-79667438D02*
X218565350Y-79619819D01*
X218565350Y-79619819D02*
X218422493Y-79619819D01*
X218422493Y-79619819D02*
X218279636Y-79667438D01*
X218279636Y-79667438D02*
X218184398Y-79762676D01*
X218184398Y-79762676D02*
X218136779Y-79857914D01*
X218136779Y-79857914D02*
X218089160Y-80048390D01*
X218089160Y-80048390D02*
X218089160Y-80191247D01*
X218089160Y-80191247D02*
X218136779Y-80381723D01*
X218136779Y-80381723D02*
X218184398Y-80476961D01*
X218184398Y-80476961D02*
X218279636Y-80572200D01*
X218279636Y-80572200D02*
X218422493Y-80619819D01*
X218422493Y-80619819D02*
X218517731Y-80619819D01*
X218517731Y-80619819D02*
X218660588Y-80572200D01*
X218660588Y-80572200D02*
X218708207Y-80524580D01*
X218708207Y-80524580D02*
X218708207Y-80191247D01*
X218708207Y-80191247D02*
X218517731Y-80191247D01*
X219136779Y-80619819D02*
X219136779Y-79619819D01*
X219136779Y-79619819D02*
X219708207Y-80619819D01*
X219708207Y-80619819D02*
X219708207Y-79619819D01*
X220184398Y-80619819D02*
X220184398Y-79619819D01*
X220184398Y-79619819D02*
X220422493Y-79619819D01*
X220422493Y-79619819D02*
X220565350Y-79667438D01*
X220565350Y-79667438D02*
X220660588Y-79762676D01*
X220660588Y-79762676D02*
X220708207Y-79857914D01*
X220708207Y-79857914D02*
X220755826Y-80048390D01*
X220755826Y-80048390D02*
X220755826Y-80191247D01*
X220755826Y-80191247D02*
X220708207Y-80381723D01*
X220708207Y-80381723D02*
X220660588Y-80476961D01*
X220660588Y-80476961D02*
X220565350Y-80572200D01*
X220565350Y-80572200D02*
X220422493Y-80619819D01*
X220422493Y-80619819D02*
X220184398Y-80619819D01*
X217986779Y-77669819D02*
X217986779Y-76669819D01*
X217986779Y-76669819D02*
X218367731Y-76669819D01*
X218367731Y-76669819D02*
X218462969Y-76717438D01*
X218462969Y-76717438D02*
X218510588Y-76765057D01*
X218510588Y-76765057D02*
X218558207Y-76860295D01*
X218558207Y-76860295D02*
X218558207Y-77003152D01*
X218558207Y-77003152D02*
X218510588Y-77098390D01*
X218510588Y-77098390D02*
X218462969Y-77146009D01*
X218462969Y-77146009D02*
X218367731Y-77193628D01*
X218367731Y-77193628D02*
X217986779Y-77193628D01*
X218891541Y-76669819D02*
X219129636Y-77669819D01*
X219129636Y-77669819D02*
X219320112Y-76955533D01*
X219320112Y-76955533D02*
X219510588Y-77669819D01*
X219510588Y-77669819D02*
X219748684Y-76669819D01*
X220701064Y-77669819D02*
X220367731Y-77193628D01*
X220129636Y-77669819D02*
X220129636Y-76669819D01*
X220129636Y-76669819D02*
X220510588Y-76669819D01*
X220510588Y-76669819D02*
X220605826Y-76717438D01*
X220605826Y-76717438D02*
X220653445Y-76765057D01*
X220653445Y-76765057D02*
X220701064Y-76860295D01*
X220701064Y-76860295D02*
X220701064Y-77003152D01*
X220701064Y-77003152D02*
X220653445Y-77098390D01*
X220653445Y-77098390D02*
X220605826Y-77146009D01*
X220605826Y-77146009D02*
X220510588Y-77193628D01*
X220510588Y-77193628D02*
X220129636Y-77193628D01*
D12*
X200162092Y-70275095D02*
X198495425Y-67894142D01*
X197304949Y-70275095D02*
X197304949Y-65275095D01*
X197304949Y-65275095D02*
X199209711Y-65275095D01*
X199209711Y-65275095D02*
X199685901Y-65513190D01*
X199685901Y-65513190D02*
X199923996Y-65751285D01*
X199923996Y-65751285D02*
X200162092Y-66227476D01*
X200162092Y-66227476D02*
X200162092Y-66941761D01*
X200162092Y-66941761D02*
X199923996Y-67417952D01*
X199923996Y-67417952D02*
X199685901Y-67656047D01*
X199685901Y-67656047D02*
X199209711Y-67894142D01*
X199209711Y-67894142D02*
X197304949Y-67894142D01*
X202304949Y-67656047D02*
X203971615Y-67656047D01*
X204685901Y-70275095D02*
X202304949Y-70275095D01*
X202304949Y-70275095D02*
X202304949Y-65275095D01*
X202304949Y-65275095D02*
X204685901Y-65275095D01*
X206114473Y-65275095D02*
X207781140Y-70275095D01*
X207781140Y-70275095D02*
X209447806Y-65275095D01*
X214685901Y-68846523D02*
X217066854Y-68846523D01*
X214209711Y-70275095D02*
X215876378Y-65275095D01*
X215876378Y-65275095D02*
X217543044Y-70275095D01*
D11*
X222678666Y-74366219D02*
X222678666Y-75080504D01*
X222678666Y-75080504D02*
X222631047Y-75223361D01*
X222631047Y-75223361D02*
X222535809Y-75318600D01*
X222535809Y-75318600D02*
X222392952Y-75366219D01*
X222392952Y-75366219D02*
X222297714Y-75366219D01*
X223583428Y-74699552D02*
X223583428Y-75366219D01*
X223345333Y-74318600D02*
X223107238Y-75032885D01*
X223107238Y-75032885D02*
X223726285Y-75032885D01*
X220148333Y-91684819D02*
X219815000Y-91208628D01*
X219576905Y-91684819D02*
X219576905Y-90684819D01*
X219576905Y-90684819D02*
X219957857Y-90684819D01*
X219957857Y-90684819D02*
X220053095Y-90732438D01*
X220053095Y-90732438D02*
X220100714Y-90780057D01*
X220100714Y-90780057D02*
X220148333Y-90875295D01*
X220148333Y-90875295D02*
X220148333Y-91018152D01*
X220148333Y-91018152D02*
X220100714Y-91113390D01*
X220100714Y-91113390D02*
X220053095Y-91161009D01*
X220053095Y-91161009D02*
X219957857Y-91208628D01*
X219957857Y-91208628D02*
X219576905Y-91208628D01*
X221005476Y-90684819D02*
X220815000Y-90684819D01*
X220815000Y-90684819D02*
X220719762Y-90732438D01*
X220719762Y-90732438D02*
X220672143Y-90780057D01*
X220672143Y-90780057D02*
X220576905Y-90922914D01*
X220576905Y-90922914D02*
X220529286Y-91113390D01*
X220529286Y-91113390D02*
X220529286Y-91494342D01*
X220529286Y-91494342D02*
X220576905Y-91589580D01*
X220576905Y-91589580D02*
X220624524Y-91637200D01*
X220624524Y-91637200D02*
X220719762Y-91684819D01*
X220719762Y-91684819D02*
X220910238Y-91684819D01*
X220910238Y-91684819D02*
X221005476Y-91637200D01*
X221005476Y-91637200D02*
X221053095Y-91589580D01*
X221053095Y-91589580D02*
X221100714Y-91494342D01*
X221100714Y-91494342D02*
X221100714Y-91256247D01*
X221100714Y-91256247D02*
X221053095Y-91161009D01*
X221053095Y-91161009D02*
X221005476Y-91113390D01*
X221005476Y-91113390D02*
X220910238Y-91065771D01*
X220910238Y-91065771D02*
X220719762Y-91065771D01*
X220719762Y-91065771D02*
X220624524Y-91113390D01*
X220624524Y-91113390D02*
X220576905Y-91161009D01*
X220576905Y-91161009D02*
X220529286Y-91256247D01*
X156558333Y-75173819D02*
X156225000Y-74697628D01*
X155986905Y-75173819D02*
X155986905Y-74173819D01*
X155986905Y-74173819D02*
X156367857Y-74173819D01*
X156367857Y-74173819D02*
X156463095Y-74221438D01*
X156463095Y-74221438D02*
X156510714Y-74269057D01*
X156510714Y-74269057D02*
X156558333Y-74364295D01*
X156558333Y-74364295D02*
X156558333Y-74507152D01*
X156558333Y-74507152D02*
X156510714Y-74602390D01*
X156510714Y-74602390D02*
X156463095Y-74650009D01*
X156463095Y-74650009D02*
X156367857Y-74697628D01*
X156367857Y-74697628D02*
X155986905Y-74697628D01*
X157463095Y-74173819D02*
X156986905Y-74173819D01*
X156986905Y-74173819D02*
X156939286Y-74650009D01*
X156939286Y-74650009D02*
X156986905Y-74602390D01*
X156986905Y-74602390D02*
X157082143Y-74554771D01*
X157082143Y-74554771D02*
X157320238Y-74554771D01*
X157320238Y-74554771D02*
X157415476Y-74602390D01*
X157415476Y-74602390D02*
X157463095Y-74650009D01*
X157463095Y-74650009D02*
X157510714Y-74745247D01*
X157510714Y-74745247D02*
X157510714Y-74983342D01*
X157510714Y-74983342D02*
X157463095Y-75078580D01*
X157463095Y-75078580D02*
X157415476Y-75126200D01*
X157415476Y-75126200D02*
X157320238Y-75173819D01*
X157320238Y-75173819D02*
X157082143Y-75173819D01*
X157082143Y-75173819D02*
X156986905Y-75126200D01*
X156986905Y-75126200D02*
X156939286Y-75078580D01*
X156533333Y-81854819D02*
X156200000Y-81378628D01*
X155961905Y-81854819D02*
X155961905Y-80854819D01*
X155961905Y-80854819D02*
X156342857Y-80854819D01*
X156342857Y-80854819D02*
X156438095Y-80902438D01*
X156438095Y-80902438D02*
X156485714Y-80950057D01*
X156485714Y-80950057D02*
X156533333Y-81045295D01*
X156533333Y-81045295D02*
X156533333Y-81188152D01*
X156533333Y-81188152D02*
X156485714Y-81283390D01*
X156485714Y-81283390D02*
X156438095Y-81331009D01*
X156438095Y-81331009D02*
X156342857Y-81378628D01*
X156342857Y-81378628D02*
X155961905Y-81378628D01*
X157390476Y-81188152D02*
X157390476Y-81854819D01*
X157152381Y-80807200D02*
X156914286Y-81521485D01*
X156914286Y-81521485D02*
X157533333Y-81521485D01*
X156458333Y-88209819D02*
X156125000Y-87733628D01*
X155886905Y-88209819D02*
X155886905Y-87209819D01*
X155886905Y-87209819D02*
X156267857Y-87209819D01*
X156267857Y-87209819D02*
X156363095Y-87257438D01*
X156363095Y-87257438D02*
X156410714Y-87305057D01*
X156410714Y-87305057D02*
X156458333Y-87400295D01*
X156458333Y-87400295D02*
X156458333Y-87543152D01*
X156458333Y-87543152D02*
X156410714Y-87638390D01*
X156410714Y-87638390D02*
X156363095Y-87686009D01*
X156363095Y-87686009D02*
X156267857Y-87733628D01*
X156267857Y-87733628D02*
X155886905Y-87733628D01*
X156791667Y-87209819D02*
X157410714Y-87209819D01*
X157410714Y-87209819D02*
X157077381Y-87590771D01*
X157077381Y-87590771D02*
X157220238Y-87590771D01*
X157220238Y-87590771D02*
X157315476Y-87638390D01*
X157315476Y-87638390D02*
X157363095Y-87686009D01*
X157363095Y-87686009D02*
X157410714Y-87781247D01*
X157410714Y-87781247D02*
X157410714Y-88019342D01*
X157410714Y-88019342D02*
X157363095Y-88114580D01*
X157363095Y-88114580D02*
X157315476Y-88162200D01*
X157315476Y-88162200D02*
X157220238Y-88209819D01*
X157220238Y-88209819D02*
X156934524Y-88209819D01*
X156934524Y-88209819D02*
X156839286Y-88162200D01*
X156839286Y-88162200D02*
X156791667Y-88114580D01*
X156583333Y-94579819D02*
X156250000Y-94103628D01*
X156011905Y-94579819D02*
X156011905Y-93579819D01*
X156011905Y-93579819D02*
X156392857Y-93579819D01*
X156392857Y-93579819D02*
X156488095Y-93627438D01*
X156488095Y-93627438D02*
X156535714Y-93675057D01*
X156535714Y-93675057D02*
X156583333Y-93770295D01*
X156583333Y-93770295D02*
X156583333Y-93913152D01*
X156583333Y-93913152D02*
X156535714Y-94008390D01*
X156535714Y-94008390D02*
X156488095Y-94056009D01*
X156488095Y-94056009D02*
X156392857Y-94103628D01*
X156392857Y-94103628D02*
X156011905Y-94103628D01*
X156964286Y-93675057D02*
X157011905Y-93627438D01*
X157011905Y-93627438D02*
X157107143Y-93579819D01*
X157107143Y-93579819D02*
X157345238Y-93579819D01*
X157345238Y-93579819D02*
X157440476Y-93627438D01*
X157440476Y-93627438D02*
X157488095Y-93675057D01*
X157488095Y-93675057D02*
X157535714Y-93770295D01*
X157535714Y-93770295D02*
X157535714Y-93865533D01*
X157535714Y-93865533D02*
X157488095Y-94008390D01*
X157488095Y-94008390D02*
X156916667Y-94579819D01*
X156916667Y-94579819D02*
X157535714Y-94579819D01*
X168533333Y-99579819D02*
X168200000Y-99103628D01*
X167961905Y-99579819D02*
X167961905Y-98579819D01*
X167961905Y-98579819D02*
X168342857Y-98579819D01*
X168342857Y-98579819D02*
X168438095Y-98627438D01*
X168438095Y-98627438D02*
X168485714Y-98675057D01*
X168485714Y-98675057D02*
X168533333Y-98770295D01*
X168533333Y-98770295D02*
X168533333Y-98913152D01*
X168533333Y-98913152D02*
X168485714Y-99008390D01*
X168485714Y-99008390D02*
X168438095Y-99056009D01*
X168438095Y-99056009D02*
X168342857Y-99103628D01*
X168342857Y-99103628D02*
X167961905Y-99103628D01*
X169485714Y-99579819D02*
X168914286Y-99579819D01*
X169200000Y-99579819D02*
X169200000Y-98579819D01*
X169200000Y-98579819D02*
X169104762Y-98722676D01*
X169104762Y-98722676D02*
X169009524Y-98817914D01*
X169009524Y-98817914D02*
X168914286Y-98865533D01*
X96316895Y-62642419D02*
X96316895Y-61642419D01*
X96316895Y-62118609D02*
X96888323Y-62118609D01*
X96888323Y-62642419D02*
X96888323Y-61642419D01*
X97888323Y-62642419D02*
X97316895Y-62642419D01*
X97602609Y-62642419D02*
X97602609Y-61642419D01*
X97602609Y-61642419D02*
X97507371Y-61785276D01*
X97507371Y-61785276D02*
X97412133Y-61880514D01*
X97412133Y-61880514D02*
X97316895Y-61928133D01*
X171539005Y-92092019D02*
X171539005Y-91092019D01*
X171539005Y-91092019D02*
X171777100Y-91092019D01*
X171777100Y-91092019D02*
X171919957Y-91139638D01*
X171919957Y-91139638D02*
X172015195Y-91234876D01*
X172015195Y-91234876D02*
X172062814Y-91330114D01*
X172062814Y-91330114D02*
X172110433Y-91520590D01*
X172110433Y-91520590D02*
X172110433Y-91663447D01*
X172110433Y-91663447D02*
X172062814Y-91853923D01*
X172062814Y-91853923D02*
X172015195Y-91949161D01*
X172015195Y-91949161D02*
X171919957Y-92044400D01*
X171919957Y-92044400D02*
X171777100Y-92092019D01*
X171777100Y-92092019D02*
X171539005Y-92092019D01*
X173062814Y-92092019D02*
X172491386Y-92092019D01*
X172777100Y-92092019D02*
X172777100Y-91092019D01*
X172777100Y-91092019D02*
X172681862Y-91234876D01*
X172681862Y-91234876D02*
X172586624Y-91330114D01*
X172586624Y-91330114D02*
X172491386Y-91377733D01*
X224261905Y-105427019D02*
X224261905Y-104427019D01*
X224261905Y-104427019D02*
X224500000Y-104427019D01*
X224500000Y-104427019D02*
X224642857Y-104474638D01*
X224642857Y-104474638D02*
X224738095Y-104569876D01*
X224738095Y-104569876D02*
X224785714Y-104665114D01*
X224785714Y-104665114D02*
X224833333Y-104855590D01*
X224833333Y-104855590D02*
X224833333Y-104998447D01*
X224833333Y-104998447D02*
X224785714Y-105188923D01*
X224785714Y-105188923D02*
X224738095Y-105284161D01*
X224738095Y-105284161D02*
X224642857Y-105379400D01*
X224642857Y-105379400D02*
X224500000Y-105427019D01*
X224500000Y-105427019D02*
X224261905Y-105427019D01*
X225690476Y-104760352D02*
X225690476Y-105427019D01*
X225452381Y-104379400D02*
X225214286Y-105093685D01*
X225214286Y-105093685D02*
X225833333Y-105093685D01*
X133111019Y-102085733D02*
X133825304Y-102085733D01*
X133825304Y-102085733D02*
X133968161Y-102133352D01*
X133968161Y-102133352D02*
X134063400Y-102228590D01*
X134063400Y-102228590D02*
X134111019Y-102371447D01*
X134111019Y-102371447D02*
X134111019Y-102466685D01*
X133206257Y-101657161D02*
X133158638Y-101609542D01*
X133158638Y-101609542D02*
X133111019Y-101514304D01*
X133111019Y-101514304D02*
X133111019Y-101276209D01*
X133111019Y-101276209D02*
X133158638Y-101180971D01*
X133158638Y-101180971D02*
X133206257Y-101133352D01*
X133206257Y-101133352D02*
X133301495Y-101085733D01*
X133301495Y-101085733D02*
X133396733Y-101085733D01*
X133396733Y-101085733D02*
X133539590Y-101133352D01*
X133539590Y-101133352D02*
X134111019Y-101704780D01*
X134111019Y-101704780D02*
X134111019Y-101085733D01*
X92011019Y-79225733D02*
X92725304Y-79225733D01*
X92725304Y-79225733D02*
X92868161Y-79273352D01*
X92868161Y-79273352D02*
X92963400Y-79368590D01*
X92963400Y-79368590D02*
X93011019Y-79511447D01*
X93011019Y-79511447D02*
X93011019Y-79606685D01*
X93011019Y-78225733D02*
X93011019Y-78797161D01*
X93011019Y-78511447D02*
X92011019Y-78511447D01*
X92011019Y-78511447D02*
X92153876Y-78606685D01*
X92153876Y-78606685D02*
X92249114Y-78701923D01*
X92249114Y-78701923D02*
X92296733Y-78797161D01*
X171524705Y-79849219D02*
X171524705Y-78849219D01*
X171524705Y-78849219D02*
X171762800Y-78849219D01*
X171762800Y-78849219D02*
X171905657Y-78896838D01*
X171905657Y-78896838D02*
X172000895Y-78992076D01*
X172000895Y-78992076D02*
X172048514Y-79087314D01*
X172048514Y-79087314D02*
X172096133Y-79277790D01*
X172096133Y-79277790D02*
X172096133Y-79420647D01*
X172096133Y-79420647D02*
X172048514Y-79611123D01*
X172048514Y-79611123D02*
X172000895Y-79706361D01*
X172000895Y-79706361D02*
X171905657Y-79801600D01*
X171905657Y-79801600D02*
X171762800Y-79849219D01*
X171762800Y-79849219D02*
X171524705Y-79849219D01*
X172429467Y-78849219D02*
X173048514Y-78849219D01*
X173048514Y-78849219D02*
X172715181Y-79230171D01*
X172715181Y-79230171D02*
X172858038Y-79230171D01*
X172858038Y-79230171D02*
X172953276Y-79277790D01*
X172953276Y-79277790D02*
X173000895Y-79325409D01*
X173000895Y-79325409D02*
X173048514Y-79420647D01*
X173048514Y-79420647D02*
X173048514Y-79658742D01*
X173048514Y-79658742D02*
X173000895Y-79753980D01*
X173000895Y-79753980D02*
X172953276Y-79801600D01*
X172953276Y-79801600D02*
X172858038Y-79849219D01*
X172858038Y-79849219D02*
X172572324Y-79849219D01*
X172572324Y-79849219D02*
X172477086Y-79801600D01*
X172477086Y-79801600D02*
X172429467Y-79753980D01*
X171575505Y-86046819D02*
X171575505Y-85046819D01*
X171575505Y-85046819D02*
X171813600Y-85046819D01*
X171813600Y-85046819D02*
X171956457Y-85094438D01*
X171956457Y-85094438D02*
X172051695Y-85189676D01*
X172051695Y-85189676D02*
X172099314Y-85284914D01*
X172099314Y-85284914D02*
X172146933Y-85475390D01*
X172146933Y-85475390D02*
X172146933Y-85618247D01*
X172146933Y-85618247D02*
X172099314Y-85808723D01*
X172099314Y-85808723D02*
X172051695Y-85903961D01*
X172051695Y-85903961D02*
X171956457Y-85999200D01*
X171956457Y-85999200D02*
X171813600Y-86046819D01*
X171813600Y-86046819D02*
X171575505Y-86046819D01*
X172527886Y-85142057D02*
X172575505Y-85094438D01*
X172575505Y-85094438D02*
X172670743Y-85046819D01*
X172670743Y-85046819D02*
X172908838Y-85046819D01*
X172908838Y-85046819D02*
X173004076Y-85094438D01*
X173004076Y-85094438D02*
X173051695Y-85142057D01*
X173051695Y-85142057D02*
X173099314Y-85237295D01*
X173099314Y-85237295D02*
X173099314Y-85332533D01*
X173099314Y-85332533D02*
X173051695Y-85475390D01*
X173051695Y-85475390D02*
X172480267Y-86046819D01*
X172480267Y-86046819D02*
X173099314Y-86046819D01*
X188708819Y-91620933D02*
X189423104Y-91620933D01*
X189423104Y-91620933D02*
X189565961Y-91668552D01*
X189565961Y-91668552D02*
X189661200Y-91763790D01*
X189661200Y-91763790D02*
X189708819Y-91906647D01*
X189708819Y-91906647D02*
X189708819Y-92001885D01*
X188708819Y-91239980D02*
X188708819Y-90620933D01*
X188708819Y-90620933D02*
X189089771Y-90954266D01*
X189089771Y-90954266D02*
X189089771Y-90811409D01*
X189089771Y-90811409D02*
X189137390Y-90716171D01*
X189137390Y-90716171D02*
X189185009Y-90668552D01*
X189185009Y-90668552D02*
X189280247Y-90620933D01*
X189280247Y-90620933D02*
X189518342Y-90620933D01*
X189518342Y-90620933D02*
X189613580Y-90668552D01*
X189613580Y-90668552D02*
X189661200Y-90716171D01*
X189661200Y-90716171D02*
X189708819Y-90811409D01*
X189708819Y-90811409D02*
X189708819Y-91097123D01*
X189708819Y-91097123D02*
X189661200Y-91192361D01*
X189661200Y-91192361D02*
X189613580Y-91239980D01*
D13*
%TO.C,J4*%
X221682000Y-77241400D02*
X221682000Y-75911400D01*
X221682000Y-81111400D02*
X224342000Y-81111400D01*
X221682000Y-78511400D02*
X221682000Y-81111400D01*
X221682000Y-78511400D02*
X224342000Y-78511400D01*
X221682000Y-75911400D02*
X223012000Y-75911400D01*
X224342000Y-78511400D02*
X224342000Y-81111400D01*
%TO.C,R6*%
X223585000Y-94970000D02*
X223585000Y-94640000D01*
X217045000Y-92230000D02*
X223585000Y-92230000D01*
X217045000Y-94970000D02*
X223585000Y-94970000D01*
X217045000Y-94640000D02*
X217045000Y-94970000D01*
X217045000Y-92560000D02*
X217045000Y-92230000D01*
X223585000Y-92230000D02*
X223585000Y-92560000D01*
%TO.C,R5*%
X159995000Y-78459000D02*
X159995000Y-78129000D01*
X153455000Y-75719000D02*
X159995000Y-75719000D01*
X153455000Y-78459000D02*
X159995000Y-78459000D01*
X153455000Y-78129000D02*
X153455000Y-78459000D01*
X153455000Y-76049000D02*
X153455000Y-75719000D01*
X159995000Y-75719000D02*
X159995000Y-76049000D01*
%TO.C,R4*%
X153355000Y-85020000D02*
X153355000Y-84690000D01*
X159895000Y-84690000D02*
X159895000Y-85020000D01*
X159895000Y-82610000D02*
X159895000Y-82280000D01*
X159895000Y-82280000D02*
X153355000Y-82280000D01*
X159895000Y-85020000D02*
X153355000Y-85020000D01*
X153355000Y-82280000D02*
X153355000Y-82610000D01*
%TO.C,R3*%
X159895000Y-91495000D02*
X159895000Y-91165000D01*
X153355000Y-88755000D02*
X159895000Y-88755000D01*
X153355000Y-91495000D02*
X159895000Y-91495000D01*
X153355000Y-91165000D02*
X153355000Y-91495000D01*
X153355000Y-89085000D02*
X153355000Y-88755000D01*
X159895000Y-88755000D02*
X159895000Y-89085000D01*
%TO.C,R2*%
X153405000Y-95030000D02*
X153405000Y-95360000D01*
X159945000Y-97770000D02*
X153405000Y-97770000D01*
X159945000Y-95030000D02*
X153405000Y-95030000D01*
X159945000Y-95360000D02*
X159945000Y-95030000D01*
X159945000Y-97440000D02*
X159945000Y-97770000D01*
X153405000Y-97770000D02*
X153405000Y-97440000D01*
%TO.C,R1*%
X165455000Y-100155000D02*
X165455000Y-100485000D01*
X171995000Y-102895000D02*
X165455000Y-102895000D01*
X171995000Y-100155000D02*
X165455000Y-100155000D01*
X171995000Y-100485000D02*
X171995000Y-100155000D01*
X171995000Y-102565000D02*
X171995000Y-102895000D01*
X165455000Y-102895000D02*
X165455000Y-102565000D01*
%TO.C,D1*%
X174737100Y-90942200D02*
X174737100Y-87772200D01*
X174737100Y-87772200D02*
X170677100Y-87772200D01*
X170677100Y-90942200D02*
X174737100Y-90942200D01*
%TO.C,D4*%
X219151400Y-104277200D02*
X223211400Y-104277200D01*
X223211400Y-101107200D02*
X219151400Y-101107200D01*
X223211400Y-104277200D02*
X223211400Y-101107200D01*
%TO.C,J2*%
X129616200Y-103082400D02*
X93996200Y-103082400D01*
X93996200Y-100422400D02*
X93996200Y-103082400D01*
X132216200Y-103082400D02*
X130886200Y-103082400D01*
X132216200Y-101752400D02*
X132216200Y-103082400D01*
X129616200Y-100422400D02*
X93996200Y-100422400D01*
X129616200Y-100422400D02*
X129616200Y-103082400D01*
%TO.C,J1*%
X96596200Y-77562400D02*
X132216200Y-77562400D01*
X132216200Y-80222400D02*
X132216200Y-77562400D01*
X93996200Y-77562400D02*
X95326200Y-77562400D01*
X93996200Y-78892400D02*
X93996200Y-77562400D01*
X96596200Y-80222400D02*
X132216200Y-80222400D01*
X96596200Y-80222400D02*
X96596200Y-77562400D01*
%TO.C,D3*%
X174722800Y-78699400D02*
X174722800Y-75529400D01*
X174722800Y-75529400D02*
X170662800Y-75529400D01*
X170662800Y-78699400D02*
X174722800Y-78699400D01*
%TO.C,D2*%
X170713600Y-84897000D02*
X174773600Y-84897000D01*
X174773600Y-81727000D02*
X170713600Y-81727000D01*
X174773600Y-84897000D02*
X174773600Y-81727000D01*
%TO.C,J3*%
X193294000Y-92617600D02*
X200974000Y-92617600D01*
X193294000Y-92617600D02*
X193294000Y-89957600D01*
X200974000Y-92617600D02*
X200974000Y-89957600D01*
X190694000Y-91287600D02*
X190694000Y-89957600D01*
X190694000Y-89957600D02*
X192024000Y-89957600D01*
X193294000Y-89957600D02*
X200974000Y-89957600D01*
%TD*%
M02*
