%TF.GenerationSoftware,KiCad,Pcbnew,7.0.7*%
%TF.CreationDate,2023-09-19T21:30:54-07:00*%
%TF.ProjectId,PCB Layout,50434220-4c61-4796-9f75-742e6b696361,rev?*%
%TF.SameCoordinates,Original*%
%TF.FileFunction,Legend,Bot*%
%TF.FilePolarity,Positive*%
%FSLAX46Y46*%
G04 Gerber Fmt 4.6, Leading zero omitted, Abs format (unit mm)*
G04 Created by KiCad (PCBNEW 7.0.7) date 2023-09-19 21:30:54*
%MOMM*%
%LPD*%
G01*
G04 APERTURE LIST*
%ADD10C,0.250000*%
%ADD11C,0.150000*%
G04 APERTURE END LIST*
D10*
X210008146Y-84837000D02*
X209293860Y-85075095D01*
X209293860Y-85075095D02*
X208103384Y-85075095D01*
X208103384Y-85075095D02*
X207627193Y-84837000D01*
X207627193Y-84837000D02*
X207389098Y-84598904D01*
X207389098Y-84598904D02*
X207151003Y-84122714D01*
X207151003Y-84122714D02*
X207151003Y-83646523D01*
X207151003Y-83646523D02*
X207389098Y-83170333D01*
X207389098Y-83170333D02*
X207627193Y-82932238D01*
X207627193Y-82932238D02*
X208103384Y-82694142D01*
X208103384Y-82694142D02*
X209055765Y-82456047D01*
X209055765Y-82456047D02*
X209531955Y-82217952D01*
X209531955Y-82217952D02*
X209770050Y-81979857D01*
X209770050Y-81979857D02*
X210008146Y-81503666D01*
X210008146Y-81503666D02*
X210008146Y-81027476D01*
X210008146Y-81027476D02*
X209770050Y-80551285D01*
X209770050Y-80551285D02*
X209531955Y-80313190D01*
X209531955Y-80313190D02*
X209055765Y-80075095D01*
X209055765Y-80075095D02*
X207865288Y-80075095D01*
X207865288Y-80075095D02*
X207151003Y-80313190D01*
X205008145Y-82456047D02*
X203341479Y-82456047D01*
X202627193Y-85075095D02*
X205008145Y-85075095D01*
X205008145Y-85075095D02*
X205008145Y-80075095D01*
X205008145Y-80075095D02*
X202627193Y-80075095D01*
X200484335Y-85075095D02*
X200484335Y-80075095D01*
X200484335Y-80075095D02*
X197627192Y-85075095D01*
X197627192Y-85075095D02*
X197627192Y-80075095D01*
X195484336Y-84837000D02*
X194770050Y-85075095D01*
X194770050Y-85075095D02*
X193579574Y-85075095D01*
X193579574Y-85075095D02*
X193103383Y-84837000D01*
X193103383Y-84837000D02*
X192865288Y-84598904D01*
X192865288Y-84598904D02*
X192627193Y-84122714D01*
X192627193Y-84122714D02*
X192627193Y-83646523D01*
X192627193Y-83646523D02*
X192865288Y-83170333D01*
X192865288Y-83170333D02*
X193103383Y-82932238D01*
X193103383Y-82932238D02*
X193579574Y-82694142D01*
X193579574Y-82694142D02*
X194531955Y-82456047D01*
X194531955Y-82456047D02*
X195008145Y-82217952D01*
X195008145Y-82217952D02*
X195246240Y-81979857D01*
X195246240Y-81979857D02*
X195484336Y-81503666D01*
X195484336Y-81503666D02*
X195484336Y-81027476D01*
X195484336Y-81027476D02*
X195246240Y-80551285D01*
X195246240Y-80551285D02*
X195008145Y-80313190D01*
X195008145Y-80313190D02*
X194531955Y-80075095D01*
X194531955Y-80075095D02*
X193341478Y-80075095D01*
X193341478Y-80075095D02*
X192627193Y-80313190D01*
X189531954Y-80075095D02*
X188579573Y-80075095D01*
X188579573Y-80075095D02*
X188103383Y-80313190D01*
X188103383Y-80313190D02*
X187627192Y-80789380D01*
X187627192Y-80789380D02*
X187389097Y-81741761D01*
X187389097Y-81741761D02*
X187389097Y-83408428D01*
X187389097Y-83408428D02*
X187627192Y-84360809D01*
X187627192Y-84360809D02*
X188103383Y-84837000D01*
X188103383Y-84837000D02*
X188579573Y-85075095D01*
X188579573Y-85075095D02*
X189531954Y-85075095D01*
X189531954Y-85075095D02*
X190008145Y-84837000D01*
X190008145Y-84837000D02*
X190484335Y-84360809D01*
X190484335Y-84360809D02*
X190722431Y-83408428D01*
X190722431Y-83408428D02*
X190722431Y-81741761D01*
X190722431Y-81741761D02*
X190484335Y-80789380D01*
X190484335Y-80789380D02*
X190008145Y-80313190D01*
X190008145Y-80313190D02*
X189531954Y-80075095D01*
X182389097Y-85075095D02*
X184055764Y-82694142D01*
X185246240Y-85075095D02*
X185246240Y-80075095D01*
X185246240Y-80075095D02*
X183341478Y-80075095D01*
X183341478Y-80075095D02*
X182865288Y-80313190D01*
X182865288Y-80313190D02*
X182627193Y-80551285D01*
X182627193Y-80551285D02*
X182389097Y-81027476D01*
X182389097Y-81027476D02*
X182389097Y-81741761D01*
X182389097Y-81741761D02*
X182627193Y-82217952D01*
X182627193Y-82217952D02*
X182865288Y-82456047D01*
X182865288Y-82456047D02*
X183341478Y-82694142D01*
X183341478Y-82694142D02*
X185246240Y-82694142D01*
D11*
X214660839Y-119890057D02*
X214613220Y-119842438D01*
X214613220Y-119842438D02*
X214517982Y-119794819D01*
X214517982Y-119794819D02*
X214279887Y-119794819D01*
X214279887Y-119794819D02*
X214184649Y-119842438D01*
X214184649Y-119842438D02*
X214137030Y-119890057D01*
X214137030Y-119890057D02*
X214089411Y-119985295D01*
X214089411Y-119985295D02*
X214089411Y-120080533D01*
X214089411Y-120080533D02*
X214137030Y-120223390D01*
X214137030Y-120223390D02*
X214708458Y-120794819D01*
X214708458Y-120794819D02*
X214089411Y-120794819D01*
X213470363Y-119794819D02*
X213375125Y-119794819D01*
X213375125Y-119794819D02*
X213279887Y-119842438D01*
X213279887Y-119842438D02*
X213232268Y-119890057D01*
X213232268Y-119890057D02*
X213184649Y-119985295D01*
X213184649Y-119985295D02*
X213137030Y-120175771D01*
X213137030Y-120175771D02*
X213137030Y-120413866D01*
X213137030Y-120413866D02*
X213184649Y-120604342D01*
X213184649Y-120604342D02*
X213232268Y-120699580D01*
X213232268Y-120699580D02*
X213279887Y-120747200D01*
X213279887Y-120747200D02*
X213375125Y-120794819D01*
X213375125Y-120794819D02*
X213470363Y-120794819D01*
X213470363Y-120794819D02*
X213565601Y-120747200D01*
X213565601Y-120747200D02*
X213613220Y-120699580D01*
X213613220Y-120699580D02*
X213660839Y-120604342D01*
X213660839Y-120604342D02*
X213708458Y-120413866D01*
X213708458Y-120413866D02*
X213708458Y-120175771D01*
X213708458Y-120175771D02*
X213660839Y-119985295D01*
X213660839Y-119985295D02*
X213613220Y-119890057D01*
X213613220Y-119890057D02*
X213565601Y-119842438D01*
X213565601Y-119842438D02*
X213470363Y-119794819D01*
X212756077Y-119890057D02*
X212708458Y-119842438D01*
X212708458Y-119842438D02*
X212613220Y-119794819D01*
X212613220Y-119794819D02*
X212375125Y-119794819D01*
X212375125Y-119794819D02*
X212279887Y-119842438D01*
X212279887Y-119842438D02*
X212232268Y-119890057D01*
X212232268Y-119890057D02*
X212184649Y-119985295D01*
X212184649Y-119985295D02*
X212184649Y-120080533D01*
X212184649Y-120080533D02*
X212232268Y-120223390D01*
X212232268Y-120223390D02*
X212803696Y-120794819D01*
X212803696Y-120794819D02*
X212184649Y-120794819D01*
X211851315Y-119794819D02*
X211232268Y-119794819D01*
X211232268Y-119794819D02*
X211565601Y-120175771D01*
X211565601Y-120175771D02*
X211422744Y-120175771D01*
X211422744Y-120175771D02*
X211327506Y-120223390D01*
X211327506Y-120223390D02*
X211279887Y-120271009D01*
X211279887Y-120271009D02*
X211232268Y-120366247D01*
X211232268Y-120366247D02*
X211232268Y-120604342D01*
X211232268Y-120604342D02*
X211279887Y-120699580D01*
X211279887Y-120699580D02*
X211327506Y-120747200D01*
X211327506Y-120747200D02*
X211422744Y-120794819D01*
X211422744Y-120794819D02*
X211708458Y-120794819D01*
X211708458Y-120794819D02*
X211803696Y-120747200D01*
X211803696Y-120747200D02*
X211851315Y-120699580D01*
D10*
X122920050Y-89581047D02*
X121253384Y-89581047D01*
X120539098Y-92200095D02*
X122920050Y-92200095D01*
X122920050Y-92200095D02*
X122920050Y-87200095D01*
X122920050Y-87200095D02*
X120539098Y-87200095D01*
X118634336Y-91962000D02*
X117920050Y-92200095D01*
X117920050Y-92200095D02*
X116729574Y-92200095D01*
X116729574Y-92200095D02*
X116253383Y-91962000D01*
X116253383Y-91962000D02*
X116015288Y-91723904D01*
X116015288Y-91723904D02*
X115777193Y-91247714D01*
X115777193Y-91247714D02*
X115777193Y-90771523D01*
X115777193Y-90771523D02*
X116015288Y-90295333D01*
X116015288Y-90295333D02*
X116253383Y-90057238D01*
X116253383Y-90057238D02*
X116729574Y-89819142D01*
X116729574Y-89819142D02*
X117681955Y-89581047D01*
X117681955Y-89581047D02*
X118158145Y-89342952D01*
X118158145Y-89342952D02*
X118396240Y-89104857D01*
X118396240Y-89104857D02*
X118634336Y-88628666D01*
X118634336Y-88628666D02*
X118634336Y-88152476D01*
X118634336Y-88152476D02*
X118396240Y-87676285D01*
X118396240Y-87676285D02*
X118158145Y-87438190D01*
X118158145Y-87438190D02*
X117681955Y-87200095D01*
X117681955Y-87200095D02*
X116491478Y-87200095D01*
X116491478Y-87200095D02*
X115777193Y-87438190D01*
X113634335Y-92200095D02*
X113634335Y-87200095D01*
X113634335Y-87200095D02*
X111729573Y-87200095D01*
X111729573Y-87200095D02*
X111253383Y-87438190D01*
X111253383Y-87438190D02*
X111015288Y-87676285D01*
X111015288Y-87676285D02*
X110777192Y-88152476D01*
X110777192Y-88152476D02*
X110777192Y-88866761D01*
X110777192Y-88866761D02*
X111015288Y-89342952D01*
X111015288Y-89342952D02*
X111253383Y-89581047D01*
X111253383Y-89581047D02*
X111729573Y-89819142D01*
X111729573Y-89819142D02*
X113634335Y-89819142D01*
X109110526Y-87200095D02*
X106015288Y-87200095D01*
X106015288Y-87200095D02*
X107681954Y-89104857D01*
X107681954Y-89104857D02*
X106967669Y-89104857D01*
X106967669Y-89104857D02*
X106491478Y-89342952D01*
X106491478Y-89342952D02*
X106253383Y-89581047D01*
X106253383Y-89581047D02*
X106015288Y-90057238D01*
X106015288Y-90057238D02*
X106015288Y-91247714D01*
X106015288Y-91247714D02*
X106253383Y-91723904D01*
X106253383Y-91723904D02*
X106491478Y-91962000D01*
X106491478Y-91962000D02*
X106967669Y-92200095D01*
X106967669Y-92200095D02*
X108396240Y-92200095D01*
X108396240Y-92200095D02*
X108872431Y-91962000D01*
X108872431Y-91962000D02*
X109110526Y-91723904D01*
X104110526Y-87676285D02*
X103872430Y-87438190D01*
X103872430Y-87438190D02*
X103396240Y-87200095D01*
X103396240Y-87200095D02*
X102205764Y-87200095D01*
X102205764Y-87200095D02*
X101729573Y-87438190D01*
X101729573Y-87438190D02*
X101491478Y-87676285D01*
X101491478Y-87676285D02*
X101253383Y-88152476D01*
X101253383Y-88152476D02*
X101253383Y-88628666D01*
X101253383Y-88628666D02*
X101491478Y-89342952D01*
X101491478Y-89342952D02*
X104348621Y-92200095D01*
X104348621Y-92200095D02*
X101253383Y-92200095D01*
M02*
