%TF.GenerationSoftware,KiCad,Pcbnew,7.0.7*%
%TF.CreationDate,2023-09-19T21:30:54-07:00*%
%TF.ProjectId,PCB Layout,50434220-4c61-4796-9f75-742e6b696361,rev?*%
%TF.SameCoordinates,Original*%
%TF.FileFunction,Copper,L1,Top*%
%TF.FilePolarity,Positive*%
%FSLAX46Y46*%
G04 Gerber Fmt 4.6, Leading zero omitted, Abs format (unit mm)*
G04 Created by KiCad (PCBNEW 7.0.7) date 2023-09-19 21:30:54*
%MOMM*%
%LPD*%
G01*
G04 APERTURE LIST*
G04 Aperture macros list*
%AMRoundRect*
0 Rectangle with rounded corners*
0 $1 Rounding radius*
0 $2 $3 $4 $5 $6 $7 $8 $9 X,Y pos of 4 corners*
0 Add a 4 corners polygon primitive as box body*
4,1,4,$2,$3,$4,$5,$6,$7,$8,$9,$2,$3,0*
0 Add four circle primitives for the rounded corners*
1,1,$1+$1,$2,$3*
1,1,$1+$1,$4,$5*
1,1,$1+$1,$6,$7*
1,1,$1+$1,$8,$9*
0 Add four rect primitives between the rounded corners*
20,1,$1+$1,$2,$3,$4,$5,0*
20,1,$1+$1,$4,$5,$6,$7,0*
20,1,$1+$1,$6,$7,$8,$9,0*
20,1,$1+$1,$8,$9,$2,$3,0*%
G04 Aperture macros list end*
%TA.AperFunction,ComponentPad*%
%ADD10R,1.700000X1.700000*%
%TD*%
%TA.AperFunction,ComponentPad*%
%ADD11O,1.700000X1.700000*%
%TD*%
%TA.AperFunction,ComponentPad*%
%ADD12C,1.600000*%
%TD*%
%TA.AperFunction,ComponentPad*%
%ADD13O,1.600000X1.600000*%
%TD*%
%TA.AperFunction,ComponentPad*%
%ADD14C,5.400000*%
%TD*%
%TA.AperFunction,SMDPad,CuDef*%
%ADD15RoundRect,0.250001X0.462499X1.074999X-0.462499X1.074999X-0.462499X-1.074999X0.462499X-1.074999X0*%
%TD*%
%TA.AperFunction,Conductor*%
%ADD16C,0.250000*%
%TD*%
G04 APERTURE END LIST*
D10*
%TO.P,J4,1,Pin_1*%
%TO.N,+9V*%
X223012000Y-77241400D03*
D11*
%TO.P,J4,2,Pin_2*%
%TO.N,GND*%
X223012000Y-79781400D03*
%TD*%
D12*
%TO.P,R6,1*%
%TO.N,+9V*%
X216505000Y-93600000D03*
D13*
%TO.P,R6,2*%
%TO.N,Net-(D4-A)*%
X224125000Y-93600000D03*
%TD*%
D12*
%TO.P,R5,1*%
%TO.N,Net-(J2-Pin_7)*%
X152915000Y-77089000D03*
D13*
%TO.P,R5,2*%
%TO.N,Net-(D3-A)*%
X160535000Y-77089000D03*
%TD*%
%TO.P,R4,2*%
%TO.N,Net-(J2-Pin_6)*%
X152815000Y-83650000D03*
D12*
%TO.P,R4,1*%
%TO.N,Net-(D2-A)*%
X160435000Y-83650000D03*
%TD*%
%TO.P,R3,1*%
%TO.N,Net-(J2-Pin_5)*%
X152815000Y-90125000D03*
D13*
%TO.P,R3,2*%
%TO.N,Net-(D1-A)*%
X160435000Y-90125000D03*
%TD*%
D12*
%TO.P,R2,1*%
%TO.N,Net-(J2-Pin_1)*%
X160485000Y-96400000D03*
D13*
%TO.P,R2,2*%
%TO.N,GND*%
X152865000Y-96400000D03*
%TD*%
D12*
%TO.P,R1,1*%
%TO.N,+9V*%
X172535000Y-101525000D03*
D13*
%TO.P,R1,2*%
%TO.N,Net-(J2-Pin_1)*%
X164915000Y-101525000D03*
%TD*%
D14*
%TO.P,H1,1*%
%TO.N,N/C*%
X97078800Y-65887600D03*
%TD*%
D15*
%TO.P,D1,1,K*%
%TO.N,GND*%
X173764600Y-89357200D03*
%TO.P,D1,2,A*%
%TO.N,Net-(D1-A)*%
X170789600Y-89357200D03*
%TD*%
%TO.P,D4,2,A*%
%TO.N,Net-(D4-A)*%
X219263900Y-102692200D03*
%TO.P,D4,1,K*%
%TO.N,GND*%
X222238900Y-102692200D03*
%TD*%
D10*
%TO.P,J2,1,Pin_1*%
%TO.N,Net-(J2-Pin_1)*%
X130886200Y-101752400D03*
D11*
%TO.P,J2,2,Pin_2*%
%TO.N,GND*%
X128346200Y-101752400D03*
%TO.P,J2,3,Pin_3*%
%TO.N,Net-(J2-Pin_3)*%
X125806200Y-101752400D03*
%TO.P,J2,4,Pin_4*%
%TO.N,Net-(J2-Pin_4)*%
X123266200Y-101752400D03*
%TO.P,J2,5,Pin_5*%
%TO.N,Net-(J2-Pin_5)*%
X120726200Y-101752400D03*
%TO.P,J2,6,Pin_6*%
%TO.N,Net-(J2-Pin_6)*%
X118186200Y-101752400D03*
%TO.P,J2,7,Pin_7*%
%TO.N,Net-(J2-Pin_7)*%
X115646200Y-101752400D03*
%TO.P,J2,8,Pin_8*%
%TO.N,unconnected-(J2-Pin_8-Pad8)*%
X113106200Y-101752400D03*
%TO.P,J2,9,Pin_9*%
%TO.N,unconnected-(J2-Pin_9-Pad9)*%
X110566200Y-101752400D03*
%TO.P,J2,10,Pin_10*%
%TO.N,unconnected-(J2-Pin_10-Pad10)*%
X108026200Y-101752400D03*
%TO.P,J2,11,Pin_11*%
%TO.N,unconnected-(J2-Pin_11-Pad11)*%
X105486200Y-101752400D03*
%TO.P,J2,12,Pin_12*%
%TO.N,unconnected-(J2-Pin_12-Pad12)*%
X102946200Y-101752400D03*
%TO.P,J2,13,Pin_13*%
%TO.N,unconnected-(J2-Pin_13-Pad13)*%
X100406200Y-101752400D03*
%TO.P,J2,14,Pin_14*%
%TO.N,unconnected-(J2-Pin_14-Pad14)*%
X97866200Y-101752400D03*
%TO.P,J2,15,Pin_15*%
%TO.N,unconnected-(J2-Pin_15-Pad15)*%
X95326200Y-101752400D03*
%TD*%
D10*
%TO.P,J1,1,Pin_1*%
%TO.N,unconnected-(J1-Pin_1-Pad1)*%
X95326200Y-78892400D03*
D11*
%TO.P,J1,2,Pin_2*%
%TO.N,unconnected-(J1-Pin_2-Pad2)*%
X97866200Y-78892400D03*
%TO.P,J1,3,Pin_3*%
%TO.N,unconnected-(J1-Pin_3-Pad3)*%
X100406200Y-78892400D03*
%TO.P,J1,4,Pin_4*%
%TO.N,unconnected-(J1-Pin_4-Pad4)*%
X102946200Y-78892400D03*
%TO.P,J1,5,Pin_5*%
%TO.N,unconnected-(J1-Pin_5-Pad5)*%
X105486200Y-78892400D03*
%TO.P,J1,6,Pin_6*%
%TO.N,unconnected-(J1-Pin_6-Pad6)*%
X108026200Y-78892400D03*
%TO.P,J1,7,Pin_7*%
%TO.N,unconnected-(J1-Pin_7-Pad7)*%
X110566200Y-78892400D03*
%TO.P,J1,8,Pin_8*%
%TO.N,unconnected-(J1-Pin_8-Pad8)*%
X113106200Y-78892400D03*
%TO.P,J1,9,Pin_9*%
%TO.N,unconnected-(J1-Pin_9-Pad9)*%
X115646200Y-78892400D03*
%TO.P,J1,10,Pin_10*%
%TO.N,unconnected-(J1-Pin_10-Pad10)*%
X118186200Y-78892400D03*
%TO.P,J1,11,Pin_11*%
%TO.N,unconnected-(J1-Pin_11-Pad11)*%
X120726200Y-78892400D03*
%TO.P,J1,12,Pin_12*%
%TO.N,unconnected-(J1-Pin_12-Pad12)*%
X123266200Y-78892400D03*
%TO.P,J1,13,Pin_13*%
%TO.N,unconnected-(J1-Pin_13-Pad13)*%
X125806200Y-78892400D03*
%TO.P,J1,14,Pin_14*%
%TO.N,unconnected-(J1-Pin_14-Pad14)*%
X128346200Y-78892400D03*
%TO.P,J1,15,Pin_15*%
%TO.N,unconnected-(J1-Pin_15-Pad15)*%
X130886200Y-78892400D03*
%TD*%
D15*
%TO.P,D3,1,K*%
%TO.N,GND*%
X173750300Y-77114400D03*
%TO.P,D3,2,A*%
%TO.N,Net-(D3-A)*%
X170775300Y-77114400D03*
%TD*%
%TO.P,D2,2,A*%
%TO.N,Net-(D2-A)*%
X170826100Y-83312000D03*
%TO.P,D2,1,K*%
%TO.N,GND*%
X173801100Y-83312000D03*
%TD*%
D10*
%TO.P,J3,1,Pin_1*%
%TO.N,Net-(J2-Pin_1)*%
X192024000Y-91287600D03*
D11*
%TO.P,J3,2,Pin_2*%
%TO.N,Net-(J2-Pin_4)*%
X194564000Y-91287600D03*
%TO.P,J3,3,Pin_3*%
%TO.N,Net-(J2-Pin_3)*%
X197104000Y-91287600D03*
%TO.P,J3,4,Pin_4*%
%TO.N,GND*%
X199644000Y-91287600D03*
%TD*%
D16*
%TO.N,Net-(D1-A)*%
X170789600Y-89357200D02*
X170021800Y-90125000D01*
X170021800Y-90125000D02*
X160435000Y-90125000D01*
%TO.N,Net-(D2-A)*%
X170488100Y-83650000D02*
X170826100Y-83312000D01*
X160435000Y-83650000D02*
X170488100Y-83650000D01*
%TO.N,Net-(D3-A)*%
X170749900Y-77089000D02*
X160535000Y-77089000D01*
X170775300Y-77114400D02*
X170749900Y-77089000D01*
%TO.N,+9V*%
X203925000Y-93600000D02*
X216505000Y-93600000D01*
X201200000Y-96325000D02*
X203925000Y-93600000D01*
X180150000Y-96325000D02*
X201200000Y-96325000D01*
X174950000Y-101525000D02*
X180150000Y-96325000D01*
X172535000Y-101525000D02*
X174950000Y-101525000D01*
%TO.N,Net-(D4-A)*%
X225275000Y-94750000D02*
X224125000Y-93600000D01*
X225275000Y-95700000D02*
X225275000Y-94750000D01*
X221050000Y-98250000D02*
X222725000Y-98250000D01*
X222725000Y-98250000D02*
X225275000Y-95700000D01*
X219263900Y-100036100D02*
X221050000Y-98250000D01*
X219263900Y-102692200D02*
X219263900Y-100036100D01*
%TO.N,Net-(D1-A)*%
X170738800Y-89306400D02*
X170789600Y-89357200D01*
%TO.N,Net-(D4-A)*%
X218984500Y-102412800D02*
X219263900Y-102692200D01*
%TD*%
%TA.AperFunction,Conductor*%
%TO.N,GND*%
G36*
X226114080Y-73710710D02*
G01*
X226181105Y-73730443D01*
X226226822Y-73783281D01*
X226237990Y-73834519D01*
X226288408Y-106530409D01*
X226268827Y-106597479D01*
X226216093Y-106643315D01*
X226164408Y-106654600D01*
X86661419Y-106654600D01*
X86594380Y-106634915D01*
X86548625Y-106582111D01*
X86537420Y-106530981D01*
X86529078Y-103817751D01*
X218042900Y-103817751D01*
X218053513Y-103921628D01*
X218109283Y-104089935D01*
X218109284Y-104089938D01*
X218202367Y-104240847D01*
X218202370Y-104240851D01*
X218327748Y-104366229D01*
X218327752Y-104366232D01*
X218478661Y-104459315D01*
X218478664Y-104459316D01*
X218646971Y-104515086D01*
X218646972Y-104515086D01*
X218646975Y-104515087D01*
X218750856Y-104525700D01*
X218750861Y-104525700D01*
X219776939Y-104525700D01*
X219776944Y-104525700D01*
X219880825Y-104515087D01*
X220049138Y-104459315D01*
X220200051Y-104366230D01*
X220325430Y-104240851D01*
X220418515Y-104089938D01*
X220474287Y-103921625D01*
X220484900Y-103817744D01*
X220484900Y-102942200D01*
X221026400Y-102942200D01*
X221026400Y-103817185D01*
X221036893Y-103919889D01*
X221036894Y-103919896D01*
X221092041Y-104086318D01*
X221092043Y-104086323D01*
X221184084Y-104235544D01*
X221308055Y-104359515D01*
X221457276Y-104451556D01*
X221457281Y-104451558D01*
X221623703Y-104506705D01*
X221623710Y-104506706D01*
X221726414Y-104517199D01*
X221726427Y-104517200D01*
X221988900Y-104517200D01*
X221988900Y-102942200D01*
X222488900Y-102942200D01*
X222488900Y-104517200D01*
X222751373Y-104517200D01*
X222751385Y-104517199D01*
X222854089Y-104506706D01*
X222854096Y-104506705D01*
X223020518Y-104451558D01*
X223020523Y-104451556D01*
X223169744Y-104359515D01*
X223293715Y-104235544D01*
X223385756Y-104086323D01*
X223385758Y-104086318D01*
X223440905Y-103919896D01*
X223440906Y-103919889D01*
X223451399Y-103817185D01*
X223451400Y-103817172D01*
X223451400Y-102942200D01*
X222488900Y-102942200D01*
X221988900Y-102942200D01*
X221026400Y-102942200D01*
X220484900Y-102942200D01*
X220484900Y-102442200D01*
X221026400Y-102442200D01*
X221988900Y-102442200D01*
X221988900Y-100867200D01*
X222488900Y-100867200D01*
X222488900Y-102442200D01*
X223451400Y-102442200D01*
X223451400Y-101567227D01*
X223451399Y-101567214D01*
X223440906Y-101464510D01*
X223440905Y-101464503D01*
X223385758Y-101298081D01*
X223385756Y-101298076D01*
X223293715Y-101148855D01*
X223169744Y-101024884D01*
X223020523Y-100932843D01*
X223020518Y-100932841D01*
X222854096Y-100877694D01*
X222854089Y-100877693D01*
X222751385Y-100867200D01*
X222488900Y-100867200D01*
X221988900Y-100867200D01*
X221726414Y-100867200D01*
X221623710Y-100877693D01*
X221623703Y-100877694D01*
X221457281Y-100932841D01*
X221457276Y-100932843D01*
X221308055Y-101024884D01*
X221184084Y-101148855D01*
X221092043Y-101298076D01*
X221092041Y-101298081D01*
X221036894Y-101464503D01*
X221036893Y-101464510D01*
X221026400Y-101567214D01*
X221026400Y-102442200D01*
X220484900Y-102442200D01*
X220484900Y-101566656D01*
X220474287Y-101462775D01*
X220460644Y-101421602D01*
X220418516Y-101294464D01*
X220418515Y-101294461D01*
X220325432Y-101143552D01*
X220325429Y-101143548D01*
X220200051Y-101018170D01*
X220200047Y-101018167D01*
X220049146Y-100925089D01*
X220049140Y-100925086D01*
X220049138Y-100925085D01*
X220049135Y-100925084D01*
X219982396Y-100902969D01*
X219924951Y-100863196D01*
X219898128Y-100798680D01*
X219897400Y-100785263D01*
X219897400Y-100349866D01*
X219917085Y-100282827D01*
X219933719Y-100262185D01*
X221276086Y-98919819D01*
X221337409Y-98886334D01*
X221363767Y-98883500D01*
X222641366Y-98883500D01*
X222657113Y-98885238D01*
X222657139Y-98884968D01*
X222664905Y-98885701D01*
X222664909Y-98885702D01*
X222734958Y-98883500D01*
X222764856Y-98883500D01*
X222764857Y-98883500D01*
X222766222Y-98883327D01*
X222771862Y-98882614D01*
X222777685Y-98882156D01*
X222803708Y-98881338D01*
X222824890Y-98880673D01*
X222834681Y-98877827D01*
X222844481Y-98874980D01*
X222863538Y-98871032D01*
X222883797Y-98868474D01*
X222927721Y-98851082D01*
X222933221Y-98849199D01*
X222978593Y-98836018D01*
X222996165Y-98825625D01*
X223013632Y-98817068D01*
X223032617Y-98809552D01*
X223070826Y-98781790D01*
X223075704Y-98778585D01*
X223116362Y-98754542D01*
X223130802Y-98740100D01*
X223145592Y-98727470D01*
X223162107Y-98715472D01*
X223192222Y-98679067D01*
X223196126Y-98674776D01*
X225663815Y-96207087D01*
X225676180Y-96197183D01*
X225676006Y-96196973D01*
X225682012Y-96192003D01*
X225682018Y-96192000D01*
X225729999Y-96140904D01*
X225751135Y-96119769D01*
X225755458Y-96114195D01*
X225759257Y-96109747D01*
X225791585Y-96075322D01*
X225801420Y-96057432D01*
X225812098Y-96041174D01*
X225824614Y-96025040D01*
X225843374Y-95981686D01*
X225845935Y-95976458D01*
X225868695Y-95935060D01*
X225873774Y-95915274D01*
X225880072Y-95896882D01*
X225888181Y-95878145D01*
X225895569Y-95831497D01*
X225896751Y-95825786D01*
X225908500Y-95780030D01*
X225908500Y-95759615D01*
X225910027Y-95740214D01*
X225910222Y-95738983D01*
X225913220Y-95720057D01*
X225908775Y-95673033D01*
X225908500Y-95667195D01*
X225908500Y-94833634D01*
X225910239Y-94817887D01*
X225909968Y-94817862D01*
X225910701Y-94810095D01*
X225910702Y-94810092D01*
X225908499Y-94740028D01*
X225908500Y-94710144D01*
X225907614Y-94703139D01*
X225907157Y-94697323D01*
X225905674Y-94650113D01*
X225905674Y-94650111D01*
X225899974Y-94630492D01*
X225896031Y-94611446D01*
X225895367Y-94606193D01*
X225893474Y-94591203D01*
X225876081Y-94547274D01*
X225874204Y-94541792D01*
X225861019Y-94496407D01*
X225850620Y-94478824D01*
X225842066Y-94461363D01*
X225834552Y-94442383D01*
X225806793Y-94404176D01*
X225803586Y-94399294D01*
X225779544Y-94358641D01*
X225779543Y-94358640D01*
X225779542Y-94358638D01*
X225765108Y-94344204D01*
X225752471Y-94329409D01*
X225740472Y-94312893D01*
X225740470Y-94312890D01*
X225704073Y-94282781D01*
X225699751Y-94278847D01*
X225433335Y-94012430D01*
X225399850Y-93951107D01*
X225401242Y-93892654D01*
X225418541Y-93828094D01*
X225418542Y-93828089D01*
X225418543Y-93828087D01*
X225438498Y-93600000D01*
X225418543Y-93371913D01*
X225359284Y-93150757D01*
X225351716Y-93134528D01*
X225288980Y-92999988D01*
X225262523Y-92943251D01*
X225131198Y-92755700D01*
X224969300Y-92593802D01*
X224781749Y-92462477D01*
X224781745Y-92462475D01*
X224574249Y-92365718D01*
X224574238Y-92365714D01*
X224353089Y-92306457D01*
X224353081Y-92306456D01*
X224125002Y-92286502D01*
X224124998Y-92286502D01*
X223896918Y-92306456D01*
X223896910Y-92306457D01*
X223675761Y-92365714D01*
X223675750Y-92365718D01*
X223468254Y-92462475D01*
X223468252Y-92462476D01*
X223413433Y-92500861D01*
X223280700Y-92593802D01*
X223280698Y-92593803D01*
X223280695Y-92593806D01*
X223118806Y-92755695D01*
X222987476Y-92943252D01*
X222987475Y-92943254D01*
X222890718Y-93150750D01*
X222890714Y-93150761D01*
X222831457Y-93371910D01*
X222831456Y-93371918D01*
X222811502Y-93599998D01*
X222811502Y-93600001D01*
X222831456Y-93828081D01*
X222831457Y-93828089D01*
X222890714Y-94049238D01*
X222890718Y-94049249D01*
X222976636Y-94233500D01*
X222987477Y-94256749D01*
X223118802Y-94444300D01*
X223280700Y-94606198D01*
X223468251Y-94737523D01*
X223510878Y-94757400D01*
X223675750Y-94834281D01*
X223675752Y-94834281D01*
X223675757Y-94834284D01*
X223896913Y-94893543D01*
X224059832Y-94907796D01*
X224124998Y-94913498D01*
X224125000Y-94913498D01*
X224125002Y-94913498D01*
X224184013Y-94908335D01*
X224353087Y-94893543D01*
X224417657Y-94876241D01*
X224487506Y-94877904D01*
X224537431Y-94908335D01*
X224605181Y-94976085D01*
X224638666Y-95037408D01*
X224641500Y-95063766D01*
X224641500Y-95386232D01*
X224621815Y-95453271D01*
X224605181Y-95473913D01*
X222498914Y-97580181D01*
X222437591Y-97613666D01*
X222411233Y-97616500D01*
X221133631Y-97616500D01*
X221117879Y-97614760D01*
X221117854Y-97615032D01*
X221110092Y-97614298D01*
X221110091Y-97614298D01*
X221040028Y-97616500D01*
X221010144Y-97616500D01*
X221010141Y-97616500D01*
X221010129Y-97616501D01*
X221003137Y-97617384D01*
X220997320Y-97617841D01*
X220950114Y-97619325D01*
X220950107Y-97619326D01*
X220930500Y-97625022D01*
X220911461Y-97628965D01*
X220891211Y-97631524D01*
X220891201Y-97631526D01*
X220847291Y-97648911D01*
X220841765Y-97650803D01*
X220796412Y-97663979D01*
X220796407Y-97663981D01*
X220778833Y-97674374D01*
X220761372Y-97682928D01*
X220742386Y-97690446D01*
X220742384Y-97690447D01*
X220704172Y-97718208D01*
X220699290Y-97721415D01*
X220658637Y-97745457D01*
X220644201Y-97759894D01*
X220629415Y-97772523D01*
X220612893Y-97784528D01*
X220612891Y-97784529D01*
X220612891Y-97784530D01*
X220612888Y-97784532D01*
X220582780Y-97820925D01*
X220578849Y-97825246D01*
X218875079Y-99529014D01*
X218862720Y-99538918D01*
X218862893Y-99539127D01*
X218856883Y-99544099D01*
X218808915Y-99595179D01*
X218787772Y-99616322D01*
X218787757Y-99616339D01*
X218783431Y-99621914D01*
X218779647Y-99626344D01*
X218747319Y-99660771D01*
X218747312Y-99660781D01*
X218737479Y-99678667D01*
X218726803Y-99694920D01*
X218714286Y-99711057D01*
X218714285Y-99711059D01*
X218695525Y-99754410D01*
X218692955Y-99759656D01*
X218670203Y-99801041D01*
X218670203Y-99801042D01*
X218665125Y-99820820D01*
X218658825Y-99839222D01*
X218650718Y-99857957D01*
X218643331Y-99904595D01*
X218642146Y-99910316D01*
X218630400Y-99956065D01*
X218630400Y-99976484D01*
X218628873Y-99995883D01*
X218625680Y-100016041D01*
X218625680Y-100016042D01*
X218630125Y-100063066D01*
X218630400Y-100068904D01*
X218630400Y-100785263D01*
X218610715Y-100852302D01*
X218557911Y-100898057D01*
X218545404Y-100902969D01*
X218478664Y-100925084D01*
X218478653Y-100925089D01*
X218327752Y-101018167D01*
X218327748Y-101018170D01*
X218202370Y-101143548D01*
X218202367Y-101143552D01*
X218109284Y-101294461D01*
X218109283Y-101294464D01*
X218053513Y-101462771D01*
X218042900Y-101566648D01*
X218042900Y-103817751D01*
X86529078Y-103817751D01*
X86522728Y-101752405D01*
X93963044Y-101752405D01*
X93981634Y-101976759D01*
X93981636Y-101976771D01*
X94036903Y-102195014D01*
X94127340Y-102401192D01*
X94250476Y-102589665D01*
X94250484Y-102589676D01*
X94369555Y-102719019D01*
X94402960Y-102755306D01*
X94580624Y-102893589D01*
X94580625Y-102893589D01*
X94580627Y-102893591D01*
X94685709Y-102950458D01*
X94778626Y-103000742D01*
X94991565Y-103073844D01*
X95213631Y-103110900D01*
X95438769Y-103110900D01*
X95660835Y-103073844D01*
X95873774Y-103000742D01*
X96071776Y-102893589D01*
X96249440Y-102755306D01*
X96354495Y-102641187D01*
X96401915Y-102589676D01*
X96401915Y-102589675D01*
X96401922Y-102589668D01*
X96492393Y-102451190D01*
X96545538Y-102405837D01*
X96614769Y-102396413D01*
X96678105Y-102425915D01*
X96700004Y-102451187D01*
X96790478Y-102589668D01*
X96790483Y-102589673D01*
X96790484Y-102589676D01*
X96909555Y-102719019D01*
X96942960Y-102755306D01*
X97120624Y-102893589D01*
X97120625Y-102893589D01*
X97120627Y-102893591D01*
X97225709Y-102950458D01*
X97318626Y-103000742D01*
X97531565Y-103073844D01*
X97753631Y-103110900D01*
X97978769Y-103110900D01*
X98200835Y-103073844D01*
X98413774Y-103000742D01*
X98611776Y-102893589D01*
X98789440Y-102755306D01*
X98894495Y-102641187D01*
X98941915Y-102589676D01*
X98941915Y-102589675D01*
X98941922Y-102589668D01*
X99032393Y-102451190D01*
X99085538Y-102405837D01*
X99154769Y-102396413D01*
X99218105Y-102425915D01*
X99240004Y-102451187D01*
X99330478Y-102589668D01*
X99330483Y-102589673D01*
X99330484Y-102589676D01*
X99449555Y-102719019D01*
X99482960Y-102755306D01*
X99660624Y-102893589D01*
X99660625Y-102893589D01*
X99660627Y-102893591D01*
X99765709Y-102950458D01*
X99858626Y-103000742D01*
X100071565Y-103073844D01*
X100293631Y-103110900D01*
X100518769Y-103110900D01*
X100740835Y-103073844D01*
X100953774Y-103000742D01*
X101151776Y-102893589D01*
X101329440Y-102755306D01*
X101434495Y-102641187D01*
X101481915Y-102589676D01*
X101481915Y-102589675D01*
X101481922Y-102589668D01*
X101572393Y-102451190D01*
X101625538Y-102405837D01*
X101694769Y-102396413D01*
X101758105Y-102425915D01*
X101780004Y-102451187D01*
X101870478Y-102589668D01*
X101870483Y-102589673D01*
X101870484Y-102589676D01*
X101989555Y-102719019D01*
X102022960Y-102755306D01*
X102200624Y-102893589D01*
X102200625Y-102893589D01*
X102200627Y-102893591D01*
X102305709Y-102950458D01*
X102398626Y-103000742D01*
X102611565Y-103073844D01*
X102833631Y-103110900D01*
X103058769Y-103110900D01*
X103280835Y-103073844D01*
X103493774Y-103000742D01*
X103691776Y-102893589D01*
X103869440Y-102755306D01*
X103974495Y-102641187D01*
X104021915Y-102589676D01*
X104021915Y-102589675D01*
X104021922Y-102589668D01*
X104112393Y-102451190D01*
X104165538Y-102405837D01*
X104234769Y-102396413D01*
X104298105Y-102425915D01*
X104320004Y-102451187D01*
X104410478Y-102589668D01*
X104410483Y-102589673D01*
X104410484Y-102589676D01*
X104529555Y-102719019D01*
X104562960Y-102755306D01*
X104740624Y-102893589D01*
X104740625Y-102893589D01*
X104740627Y-102893591D01*
X104845709Y-102950458D01*
X104938626Y-103000742D01*
X105151565Y-103073844D01*
X105373631Y-103110900D01*
X105598769Y-103110900D01*
X105820835Y-103073844D01*
X106033774Y-103000742D01*
X106231776Y-102893589D01*
X106409440Y-102755306D01*
X106514495Y-102641187D01*
X106561915Y-102589676D01*
X106561915Y-102589675D01*
X106561922Y-102589668D01*
X106652393Y-102451190D01*
X106705538Y-102405837D01*
X106774769Y-102396413D01*
X106838105Y-102425915D01*
X106860004Y-102451187D01*
X106950478Y-102589668D01*
X106950483Y-102589673D01*
X106950484Y-102589676D01*
X107069555Y-102719019D01*
X107102960Y-102755306D01*
X107280624Y-102893589D01*
X107280625Y-102893589D01*
X107280627Y-102893591D01*
X107385709Y-102950458D01*
X107478626Y-103000742D01*
X107691565Y-103073844D01*
X107913631Y-103110900D01*
X108138769Y-103110900D01*
X108360835Y-103073844D01*
X108573774Y-103000742D01*
X108771776Y-102893589D01*
X108949440Y-102755306D01*
X109054495Y-102641187D01*
X109101915Y-102589676D01*
X109101915Y-102589675D01*
X109101922Y-102589668D01*
X109192393Y-102451190D01*
X109245538Y-102405837D01*
X109314769Y-102396413D01*
X109378105Y-102425915D01*
X109400004Y-102451187D01*
X109490478Y-102589668D01*
X109490483Y-102589673D01*
X109490484Y-102589676D01*
X109609555Y-102719019D01*
X109642960Y-102755306D01*
X109820624Y-102893589D01*
X109820625Y-102893589D01*
X109820627Y-102893591D01*
X109925709Y-102950458D01*
X110018626Y-103000742D01*
X110231565Y-103073844D01*
X110453631Y-103110900D01*
X110678769Y-103110900D01*
X110900835Y-103073844D01*
X111113774Y-103000742D01*
X111311776Y-102893589D01*
X111489440Y-102755306D01*
X111594495Y-102641187D01*
X111641915Y-102589676D01*
X111641915Y-102589675D01*
X111641922Y-102589668D01*
X111732393Y-102451190D01*
X111785538Y-102405837D01*
X111854769Y-102396413D01*
X111918105Y-102425915D01*
X111940004Y-102451187D01*
X112030478Y-102589668D01*
X112030483Y-102589673D01*
X112030484Y-102589676D01*
X112149555Y-102719019D01*
X112182960Y-102755306D01*
X112360624Y-102893589D01*
X112360625Y-102893589D01*
X112360627Y-102893591D01*
X112465709Y-102950458D01*
X112558626Y-103000742D01*
X112771565Y-103073844D01*
X112993631Y-103110900D01*
X113218769Y-103110900D01*
X113440835Y-103073844D01*
X113653774Y-103000742D01*
X113851776Y-102893589D01*
X114029440Y-102755306D01*
X114134495Y-102641187D01*
X114181915Y-102589676D01*
X114181915Y-102589675D01*
X114181922Y-102589668D01*
X114272393Y-102451190D01*
X114325538Y-102405837D01*
X114394769Y-102396413D01*
X114458105Y-102425915D01*
X114480004Y-102451187D01*
X114570478Y-102589668D01*
X114570483Y-102589673D01*
X114570484Y-102589676D01*
X114689555Y-102719019D01*
X114722960Y-102755306D01*
X114900624Y-102893589D01*
X114900625Y-102893589D01*
X114900627Y-102893591D01*
X115005709Y-102950458D01*
X115098626Y-103000742D01*
X115311565Y-103073844D01*
X115533631Y-103110900D01*
X115758769Y-103110900D01*
X115980835Y-103073844D01*
X116193774Y-103000742D01*
X116391776Y-102893589D01*
X116569440Y-102755306D01*
X116674495Y-102641187D01*
X116721915Y-102589676D01*
X116721915Y-102589675D01*
X116721922Y-102589668D01*
X116812393Y-102451190D01*
X116865538Y-102405837D01*
X116934769Y-102396413D01*
X116998105Y-102425915D01*
X117020004Y-102451187D01*
X117110478Y-102589668D01*
X117110483Y-102589673D01*
X117110484Y-102589676D01*
X117229555Y-102719019D01*
X117262960Y-102755306D01*
X117440624Y-102893589D01*
X117440625Y-102893589D01*
X117440627Y-102893591D01*
X117545709Y-102950458D01*
X117638626Y-103000742D01*
X117851565Y-103073844D01*
X118073631Y-103110900D01*
X118298769Y-103110900D01*
X118520835Y-103073844D01*
X118733774Y-103000742D01*
X118931776Y-102893589D01*
X119109440Y-102755306D01*
X119214495Y-102641187D01*
X119261915Y-102589676D01*
X119261915Y-102589675D01*
X119261922Y-102589668D01*
X119352393Y-102451190D01*
X119405538Y-102405837D01*
X119474769Y-102396413D01*
X119538105Y-102425915D01*
X119560004Y-102451187D01*
X119650478Y-102589668D01*
X119650483Y-102589673D01*
X119650484Y-102589676D01*
X119769555Y-102719019D01*
X119802960Y-102755306D01*
X119980624Y-102893589D01*
X119980625Y-102893589D01*
X119980627Y-102893591D01*
X120085709Y-102950458D01*
X120178626Y-103000742D01*
X120391565Y-103073844D01*
X120613631Y-103110900D01*
X120838769Y-103110900D01*
X121060835Y-103073844D01*
X121273774Y-103000742D01*
X121471776Y-102893589D01*
X121649440Y-102755306D01*
X121754495Y-102641187D01*
X121801915Y-102589676D01*
X121801915Y-102589675D01*
X121801922Y-102589668D01*
X121892393Y-102451190D01*
X121945538Y-102405837D01*
X122014769Y-102396413D01*
X122078105Y-102425915D01*
X122100004Y-102451187D01*
X122190478Y-102589668D01*
X122190483Y-102589673D01*
X122190484Y-102589676D01*
X122309555Y-102719019D01*
X122342960Y-102755306D01*
X122520624Y-102893589D01*
X122520625Y-102893589D01*
X122520627Y-102893591D01*
X122625709Y-102950458D01*
X122718626Y-103000742D01*
X122931565Y-103073844D01*
X123153631Y-103110900D01*
X123378769Y-103110900D01*
X123600835Y-103073844D01*
X123813774Y-103000742D01*
X124011776Y-102893589D01*
X124189440Y-102755306D01*
X124294495Y-102641187D01*
X124341915Y-102589676D01*
X124341917Y-102589673D01*
X124341922Y-102589668D01*
X124432393Y-102451191D01*
X124485536Y-102405837D01*
X124554767Y-102396413D01*
X124618103Y-102425915D01*
X124640007Y-102451193D01*
X124730476Y-102589665D01*
X124730484Y-102589676D01*
X124849555Y-102719019D01*
X124882960Y-102755306D01*
X125060624Y-102893589D01*
X125060625Y-102893589D01*
X125060627Y-102893591D01*
X125165709Y-102950458D01*
X125258626Y-103000742D01*
X125471565Y-103073844D01*
X125693631Y-103110900D01*
X125918769Y-103110900D01*
X126140835Y-103073844D01*
X126353774Y-103000742D01*
X126551776Y-102893589D01*
X126729440Y-102755306D01*
X126834495Y-102641187D01*
X126881915Y-102589676D01*
X126881915Y-102589675D01*
X126881922Y-102589668D01*
X126975949Y-102445747D01*
X127029094Y-102400394D01*
X127098325Y-102390970D01*
X127161661Y-102420472D01*
X127181330Y-102442448D01*
X127308090Y-102623478D01*
X127475117Y-102790505D01*
X127668621Y-102926000D01*
X127882707Y-103025829D01*
X127882716Y-103025833D01*
X128096200Y-103083034D01*
X128096200Y-102364701D01*
X128115885Y-102297662D01*
X128168689Y-102251907D01*
X128237847Y-102241963D01*
X128310437Y-102252400D01*
X128310438Y-102252400D01*
X128381962Y-102252400D01*
X128381963Y-102252400D01*
X128454553Y-102241963D01*
X128523712Y-102251907D01*
X128576515Y-102297662D01*
X128596200Y-102364701D01*
X128596199Y-103083033D01*
X128809683Y-103025833D01*
X128809692Y-103025829D01*
X129023778Y-102926000D01*
X129217278Y-102790508D01*
X129333114Y-102674672D01*
X129394437Y-102641187D01*
X129464129Y-102646171D01*
X129520063Y-102688042D01*
X129536977Y-102719019D01*
X129585310Y-102848603D01*
X129585311Y-102848604D01*
X129672939Y-102965661D01*
X129789996Y-103053289D01*
X129926999Y-103104389D01*
X129954250Y-103107318D01*
X129987545Y-103110899D01*
X129987562Y-103110900D01*
X131784838Y-103110900D01*
X131784854Y-103110899D01*
X131811892Y-103107991D01*
X131845401Y-103104389D01*
X131982404Y-103053289D01*
X132099461Y-102965661D01*
X132187089Y-102848604D01*
X132238189Y-102711601D01*
X132242159Y-102674672D01*
X132244699Y-102651054D01*
X132244700Y-102651037D01*
X132244700Y-101525001D01*
X163601502Y-101525001D01*
X163621456Y-101753081D01*
X163621457Y-101753089D01*
X163680714Y-101974238D01*
X163680718Y-101974249D01*
X163775427Y-102177352D01*
X163777477Y-102181749D01*
X163908802Y-102369300D01*
X164070700Y-102531198D01*
X164258251Y-102662523D01*
X164363500Y-102711601D01*
X164465750Y-102759281D01*
X164465752Y-102759281D01*
X164465757Y-102759284D01*
X164686913Y-102818543D01*
X164849832Y-102832796D01*
X164914998Y-102838498D01*
X164915000Y-102838498D01*
X164915002Y-102838498D01*
X164972021Y-102833509D01*
X165143087Y-102818543D01*
X165364243Y-102759284D01*
X165571749Y-102662523D01*
X165759300Y-102531198D01*
X165921198Y-102369300D01*
X166052523Y-102181749D01*
X166149284Y-101974243D01*
X166208543Y-101753087D01*
X166228498Y-101525001D01*
X171221502Y-101525001D01*
X171241456Y-101753081D01*
X171241457Y-101753089D01*
X171300714Y-101974238D01*
X171300718Y-101974249D01*
X171395427Y-102177352D01*
X171397477Y-102181749D01*
X171528802Y-102369300D01*
X171690700Y-102531198D01*
X171878251Y-102662523D01*
X171983500Y-102711601D01*
X172085750Y-102759281D01*
X172085752Y-102759281D01*
X172085757Y-102759284D01*
X172306913Y-102818543D01*
X172469832Y-102832796D01*
X172534998Y-102838498D01*
X172535000Y-102838498D01*
X172535002Y-102838498D01*
X172592021Y-102833509D01*
X172763087Y-102818543D01*
X172984243Y-102759284D01*
X173191749Y-102662523D01*
X173379300Y-102531198D01*
X173541198Y-102369300D01*
X173651779Y-102211374D01*
X173706354Y-102167751D01*
X173753352Y-102158500D01*
X174866366Y-102158500D01*
X174882113Y-102160238D01*
X174882139Y-102159968D01*
X174889905Y-102160701D01*
X174889909Y-102160702D01*
X174959958Y-102158500D01*
X174989856Y-102158500D01*
X174989857Y-102158500D01*
X174991222Y-102158327D01*
X174996862Y-102157614D01*
X175002685Y-102157156D01*
X175028708Y-102156338D01*
X175049890Y-102155673D01*
X175059681Y-102152827D01*
X175069481Y-102149980D01*
X175088538Y-102146032D01*
X175108797Y-102143474D01*
X175152721Y-102126082D01*
X175158221Y-102124199D01*
X175203593Y-102111018D01*
X175221165Y-102100625D01*
X175238632Y-102092068D01*
X175257617Y-102084552D01*
X175295826Y-102056790D01*
X175300704Y-102053585D01*
X175341362Y-102029542D01*
X175355802Y-102015100D01*
X175370592Y-102002470D01*
X175387107Y-101990472D01*
X175417222Y-101954067D01*
X175421126Y-101949776D01*
X180376084Y-96994819D01*
X180437408Y-96961334D01*
X180463766Y-96958500D01*
X201116366Y-96958500D01*
X201132113Y-96960238D01*
X201132139Y-96959968D01*
X201139905Y-96960701D01*
X201139909Y-96960702D01*
X201209958Y-96958500D01*
X201239856Y-96958500D01*
X201239857Y-96958500D01*
X201241222Y-96958327D01*
X201246862Y-96957614D01*
X201252685Y-96957156D01*
X201278708Y-96956338D01*
X201299890Y-96955673D01*
X201309681Y-96952827D01*
X201319481Y-96949980D01*
X201338538Y-96946032D01*
X201358797Y-96943474D01*
X201402721Y-96926082D01*
X201408221Y-96924199D01*
X201453593Y-96911018D01*
X201471165Y-96900625D01*
X201488632Y-96892068D01*
X201507617Y-96884552D01*
X201545826Y-96856790D01*
X201550704Y-96853585D01*
X201591362Y-96829542D01*
X201605802Y-96815100D01*
X201620592Y-96802470D01*
X201637107Y-96790472D01*
X201667222Y-96754067D01*
X201671126Y-96749776D01*
X204151085Y-94269819D01*
X204212409Y-94236334D01*
X204238767Y-94233500D01*
X215286648Y-94233500D01*
X215353687Y-94253185D01*
X215388220Y-94286373D01*
X215498802Y-94444300D01*
X215660700Y-94606198D01*
X215848251Y-94737523D01*
X215890878Y-94757400D01*
X216055750Y-94834281D01*
X216055752Y-94834281D01*
X216055757Y-94834284D01*
X216276913Y-94893543D01*
X216439832Y-94907796D01*
X216504998Y-94913498D01*
X216505000Y-94913498D01*
X216505002Y-94913498D01*
X216564013Y-94908335D01*
X216733087Y-94893543D01*
X216954243Y-94834284D01*
X217161749Y-94737523D01*
X217349300Y-94606198D01*
X217511198Y-94444300D01*
X217642523Y-94256749D01*
X217739284Y-94049243D01*
X217798543Y-93828087D01*
X217818498Y-93600000D01*
X217798543Y-93371913D01*
X217739284Y-93150757D01*
X217731716Y-93134528D01*
X217668980Y-92999988D01*
X217642523Y-92943251D01*
X217511198Y-92755700D01*
X217349300Y-92593802D01*
X217161749Y-92462477D01*
X217161745Y-92462475D01*
X216954249Y-92365718D01*
X216954238Y-92365714D01*
X216733089Y-92306457D01*
X216733081Y-92306456D01*
X216505002Y-92286502D01*
X216504998Y-92286502D01*
X216276918Y-92306456D01*
X216276910Y-92306457D01*
X216055761Y-92365714D01*
X216055750Y-92365718D01*
X215848254Y-92462475D01*
X215848252Y-92462476D01*
X215793433Y-92500861D01*
X215660700Y-92593802D01*
X215660698Y-92593803D01*
X215660695Y-92593806D01*
X215498806Y-92755695D01*
X215498803Y-92755698D01*
X215498802Y-92755700D01*
X215388220Y-92913625D01*
X215333646Y-92957249D01*
X215286648Y-92966500D01*
X204008631Y-92966500D01*
X203992879Y-92964760D01*
X203992854Y-92965032D01*
X203985092Y-92964298D01*
X203985091Y-92964298D01*
X203915028Y-92966500D01*
X203885144Y-92966500D01*
X203885141Y-92966500D01*
X203885129Y-92966501D01*
X203878137Y-92967384D01*
X203872320Y-92967841D01*
X203825114Y-92969325D01*
X203825107Y-92969326D01*
X203805500Y-92975022D01*
X203786461Y-92978965D01*
X203766211Y-92981524D01*
X203766201Y-92981526D01*
X203722291Y-92998911D01*
X203716765Y-93000803D01*
X203671412Y-93013979D01*
X203671407Y-93013981D01*
X203653833Y-93024374D01*
X203636372Y-93032928D01*
X203617386Y-93040446D01*
X203617384Y-93040447D01*
X203579172Y-93068208D01*
X203574290Y-93071415D01*
X203533637Y-93095457D01*
X203519201Y-93109894D01*
X203504415Y-93122523D01*
X203487893Y-93134528D01*
X203487891Y-93134529D01*
X203487891Y-93134530D01*
X203487888Y-93134532D01*
X203457780Y-93170925D01*
X203453849Y-93175246D01*
X200973914Y-95655181D01*
X200912591Y-95688666D01*
X200886233Y-95691500D01*
X180233632Y-95691500D01*
X180217880Y-95689760D01*
X180217855Y-95690032D01*
X180210093Y-95689298D01*
X180210092Y-95689298D01*
X180140029Y-95691500D01*
X180110144Y-95691500D01*
X180110141Y-95691500D01*
X180110129Y-95691501D01*
X180103137Y-95692384D01*
X180097320Y-95692841D01*
X180050111Y-95694325D01*
X180050109Y-95694326D01*
X180030496Y-95700023D01*
X180011459Y-95703965D01*
X179991208Y-95706524D01*
X179991202Y-95706526D01*
X179947299Y-95723907D01*
X179941775Y-95725798D01*
X179896406Y-95738981D01*
X179896401Y-95738983D01*
X179878827Y-95749376D01*
X179861362Y-95757932D01*
X179842387Y-95765445D01*
X179842385Y-95765446D01*
X179804176Y-95793206D01*
X179799294Y-95796412D01*
X179758635Y-95820458D01*
X179744200Y-95834894D01*
X179729412Y-95847525D01*
X179712894Y-95859526D01*
X179712888Y-95859532D01*
X179682780Y-95895925D01*
X179678849Y-95900246D01*
X174723914Y-100855181D01*
X174662591Y-100888666D01*
X174636233Y-100891500D01*
X173753352Y-100891500D01*
X173686313Y-100871815D01*
X173651779Y-100838626D01*
X173541198Y-100680700D01*
X173379300Y-100518802D01*
X173191749Y-100387477D01*
X173191745Y-100387475D01*
X172984249Y-100290718D01*
X172984238Y-100290714D01*
X172763089Y-100231457D01*
X172763081Y-100231456D01*
X172535002Y-100211502D01*
X172534998Y-100211502D01*
X172306918Y-100231456D01*
X172306910Y-100231457D01*
X172085761Y-100290714D01*
X172085750Y-100290718D01*
X171878254Y-100387475D01*
X171878252Y-100387476D01*
X171878249Y-100387477D01*
X171878251Y-100387477D01*
X171690700Y-100518802D01*
X171690698Y-100518803D01*
X171690695Y-100518806D01*
X171528806Y-100680695D01*
X171528803Y-100680698D01*
X171528802Y-100680700D01*
X171480633Y-100749492D01*
X171397476Y-100868252D01*
X171397475Y-100868254D01*
X171300718Y-101075750D01*
X171300714Y-101075761D01*
X171241457Y-101296910D01*
X171241456Y-101296918D01*
X171221502Y-101524998D01*
X171221502Y-101525001D01*
X166228498Y-101525001D01*
X166228498Y-101525000D01*
X166208543Y-101296913D01*
X166149284Y-101075757D01*
X166141493Y-101059050D01*
X166110736Y-100993091D01*
X166052523Y-100868251D01*
X165921198Y-100680700D01*
X165759300Y-100518802D01*
X165571749Y-100387477D01*
X165571745Y-100387475D01*
X165364249Y-100290718D01*
X165364238Y-100290714D01*
X165143089Y-100231457D01*
X165143081Y-100231456D01*
X164915002Y-100211502D01*
X164914998Y-100211502D01*
X164686918Y-100231456D01*
X164686910Y-100231457D01*
X164465761Y-100290714D01*
X164465750Y-100290718D01*
X164258254Y-100387475D01*
X164258252Y-100387476D01*
X164258249Y-100387477D01*
X164258251Y-100387477D01*
X164070700Y-100518802D01*
X164070698Y-100518803D01*
X164070695Y-100518806D01*
X163908806Y-100680695D01*
X163908803Y-100680698D01*
X163908802Y-100680700D01*
X163860633Y-100749492D01*
X163777476Y-100868252D01*
X163777475Y-100868254D01*
X163680718Y-101075750D01*
X163680714Y-101075761D01*
X163621457Y-101296910D01*
X163621456Y-101296918D01*
X163601502Y-101524998D01*
X163601502Y-101525001D01*
X132244700Y-101525001D01*
X132244700Y-100853762D01*
X132244699Y-100853745D01*
X132238778Y-100798680D01*
X132238189Y-100793199D01*
X132235422Y-100785781D01*
X132208759Y-100714294D01*
X132187089Y-100656196D01*
X132099461Y-100539139D01*
X131982404Y-100451511D01*
X131982404Y-100451510D01*
X131845403Y-100400411D01*
X131784854Y-100393900D01*
X131784838Y-100393900D01*
X129987562Y-100393900D01*
X129987545Y-100393900D01*
X129926997Y-100400411D01*
X129926995Y-100400411D01*
X129789995Y-100451511D01*
X129672939Y-100539139D01*
X129585311Y-100656195D01*
X129536977Y-100785781D01*
X129495105Y-100841714D01*
X129429641Y-100866130D01*
X129361368Y-100851278D01*
X129333115Y-100830127D01*
X129217282Y-100714294D01*
X129023778Y-100578799D01*
X128809692Y-100478970D01*
X128809686Y-100478967D01*
X128596200Y-100421764D01*
X128596200Y-101140098D01*
X128576515Y-101207137D01*
X128523711Y-101252892D01*
X128454555Y-101262836D01*
X128381966Y-101252400D01*
X128381963Y-101252400D01*
X128310437Y-101252400D01*
X128310433Y-101252400D01*
X128237845Y-101262836D01*
X128168687Y-101252892D01*
X128115884Y-101207136D01*
X128096200Y-101140098D01*
X128096200Y-100421764D01*
X128096199Y-100421764D01*
X127882713Y-100478967D01*
X127882707Y-100478970D01*
X127668622Y-100578799D01*
X127668620Y-100578800D01*
X127475126Y-100714286D01*
X127475120Y-100714291D01*
X127308091Y-100881320D01*
X127308090Y-100881322D01*
X127181331Y-101062352D01*
X127126754Y-101105977D01*
X127057255Y-101113169D01*
X126994901Y-101081647D01*
X126975952Y-101059056D01*
X126881922Y-100915132D01*
X126881915Y-100915125D01*
X126881915Y-100915123D01*
X126729443Y-100749497D01*
X126729438Y-100749492D01*
X126551777Y-100611212D01*
X126551772Y-100611208D01*
X126353780Y-100504061D01*
X126353777Y-100504059D01*
X126353774Y-100504058D01*
X126353771Y-100504057D01*
X126353769Y-100504056D01*
X126140837Y-100430956D01*
X125918769Y-100393900D01*
X125693631Y-100393900D01*
X125471562Y-100430956D01*
X125258630Y-100504056D01*
X125258619Y-100504061D01*
X125060627Y-100611208D01*
X125060622Y-100611212D01*
X124882961Y-100749492D01*
X124882956Y-100749497D01*
X124730484Y-100915123D01*
X124730476Y-100915134D01*
X124640008Y-101053606D01*
X124586862Y-101098962D01*
X124517631Y-101108386D01*
X124454295Y-101078884D01*
X124432392Y-101053606D01*
X124348427Y-100925089D01*
X124341922Y-100915132D01*
X124341919Y-100915129D01*
X124341915Y-100915123D01*
X124189443Y-100749497D01*
X124189438Y-100749492D01*
X124011777Y-100611212D01*
X124011772Y-100611208D01*
X123813780Y-100504061D01*
X123813777Y-100504059D01*
X123813774Y-100504058D01*
X123813771Y-100504057D01*
X123813769Y-100504056D01*
X123600837Y-100430956D01*
X123378769Y-100393900D01*
X123153631Y-100393900D01*
X122931562Y-100430956D01*
X122718630Y-100504056D01*
X122718619Y-100504061D01*
X122520627Y-100611208D01*
X122520622Y-100611212D01*
X122342961Y-100749492D01*
X122342956Y-100749497D01*
X122190484Y-100915123D01*
X122190476Y-100915134D01*
X122100008Y-101053606D01*
X122046862Y-101098962D01*
X121977631Y-101108386D01*
X121914295Y-101078884D01*
X121892392Y-101053606D01*
X121808427Y-100925089D01*
X121801922Y-100915132D01*
X121801919Y-100915129D01*
X121801915Y-100915123D01*
X121649443Y-100749497D01*
X121649438Y-100749492D01*
X121471777Y-100611212D01*
X121471772Y-100611208D01*
X121273780Y-100504061D01*
X121273777Y-100504059D01*
X121273774Y-100504058D01*
X121273771Y-100504057D01*
X121273769Y-100504056D01*
X121060837Y-100430956D01*
X120838769Y-100393900D01*
X120613631Y-100393900D01*
X120391562Y-100430956D01*
X120178630Y-100504056D01*
X120178619Y-100504061D01*
X119980627Y-100611208D01*
X119980622Y-100611212D01*
X119802961Y-100749492D01*
X119802956Y-100749497D01*
X119650484Y-100915123D01*
X119650476Y-100915134D01*
X119560008Y-101053606D01*
X119506862Y-101098962D01*
X119437631Y-101108386D01*
X119374295Y-101078884D01*
X119352392Y-101053606D01*
X119268427Y-100925089D01*
X119261922Y-100915132D01*
X119261919Y-100915129D01*
X119261915Y-100915123D01*
X119109443Y-100749497D01*
X119109438Y-100749492D01*
X118931777Y-100611212D01*
X118931772Y-100611208D01*
X118733780Y-100504061D01*
X118733777Y-100504059D01*
X118733774Y-100504058D01*
X118733771Y-100504057D01*
X118733769Y-100504056D01*
X118520837Y-100430956D01*
X118298769Y-100393900D01*
X118073631Y-100393900D01*
X117851562Y-100430956D01*
X117638630Y-100504056D01*
X117638619Y-100504061D01*
X117440627Y-100611208D01*
X117440622Y-100611212D01*
X117262961Y-100749492D01*
X117262956Y-100749497D01*
X117110484Y-100915123D01*
X117110476Y-100915134D01*
X117020008Y-101053606D01*
X116966862Y-101098962D01*
X116897631Y-101108386D01*
X116834295Y-101078884D01*
X116812392Y-101053606D01*
X116728427Y-100925089D01*
X116721922Y-100915132D01*
X116721919Y-100915129D01*
X116721915Y-100915123D01*
X116569443Y-100749497D01*
X116569438Y-100749492D01*
X116391777Y-100611212D01*
X116391772Y-100611208D01*
X116193780Y-100504061D01*
X116193777Y-100504059D01*
X116193774Y-100504058D01*
X116193771Y-100504057D01*
X116193769Y-100504056D01*
X115980837Y-100430956D01*
X115758769Y-100393900D01*
X115533631Y-100393900D01*
X115311562Y-100430956D01*
X115098630Y-100504056D01*
X115098619Y-100504061D01*
X114900627Y-100611208D01*
X114900622Y-100611212D01*
X114722961Y-100749492D01*
X114722956Y-100749497D01*
X114570484Y-100915123D01*
X114570476Y-100915134D01*
X114480007Y-101053606D01*
X114426860Y-101098963D01*
X114357629Y-101108386D01*
X114294293Y-101078883D01*
X114272391Y-101053606D01*
X114181922Y-100915132D01*
X114181917Y-100915127D01*
X114181915Y-100915123D01*
X114029443Y-100749497D01*
X114029438Y-100749492D01*
X113851777Y-100611212D01*
X113851772Y-100611208D01*
X113653780Y-100504061D01*
X113653777Y-100504059D01*
X113653774Y-100504058D01*
X113653771Y-100504057D01*
X113653769Y-100504056D01*
X113440837Y-100430956D01*
X113218769Y-100393900D01*
X112993631Y-100393900D01*
X112771562Y-100430956D01*
X112558630Y-100504056D01*
X112558619Y-100504061D01*
X112360627Y-100611208D01*
X112360622Y-100611212D01*
X112182961Y-100749492D01*
X112182956Y-100749497D01*
X112030484Y-100915123D01*
X112030476Y-100915134D01*
X111940008Y-101053606D01*
X111886862Y-101098962D01*
X111817631Y-101108386D01*
X111754295Y-101078884D01*
X111732392Y-101053606D01*
X111648427Y-100925089D01*
X111641922Y-100915132D01*
X111641919Y-100915129D01*
X111641915Y-100915123D01*
X111489443Y-100749497D01*
X111489438Y-100749492D01*
X111311777Y-100611212D01*
X111311772Y-100611208D01*
X111113780Y-100504061D01*
X111113777Y-100504059D01*
X111113774Y-100504058D01*
X111113771Y-100504057D01*
X111113769Y-100504056D01*
X110900837Y-100430956D01*
X110678769Y-100393900D01*
X110453631Y-100393900D01*
X110231562Y-100430956D01*
X110018630Y-100504056D01*
X110018619Y-100504061D01*
X109820627Y-100611208D01*
X109820622Y-100611212D01*
X109642961Y-100749492D01*
X109642956Y-100749497D01*
X109490484Y-100915123D01*
X109490476Y-100915134D01*
X109400008Y-101053606D01*
X109346862Y-101098962D01*
X109277631Y-101108386D01*
X109214295Y-101078884D01*
X109192392Y-101053606D01*
X109108427Y-100925089D01*
X109101922Y-100915132D01*
X109101919Y-100915129D01*
X109101915Y-100915123D01*
X108949443Y-100749497D01*
X108949438Y-100749492D01*
X108771777Y-100611212D01*
X108771772Y-100611208D01*
X108573780Y-100504061D01*
X108573777Y-100504059D01*
X108573774Y-100504058D01*
X108573771Y-100504057D01*
X108573769Y-100504056D01*
X108360837Y-100430956D01*
X108138769Y-100393900D01*
X107913631Y-100393900D01*
X107691562Y-100430956D01*
X107478630Y-100504056D01*
X107478619Y-100504061D01*
X107280627Y-100611208D01*
X107280622Y-100611212D01*
X107102961Y-100749492D01*
X107102956Y-100749497D01*
X106950484Y-100915123D01*
X106950476Y-100915134D01*
X106860008Y-101053606D01*
X106806862Y-101098962D01*
X106737631Y-101108386D01*
X106674295Y-101078884D01*
X106652392Y-101053606D01*
X106568427Y-100925089D01*
X106561922Y-100915132D01*
X106561919Y-100915129D01*
X106561915Y-100915123D01*
X106409443Y-100749497D01*
X106409438Y-100749492D01*
X106231777Y-100611212D01*
X106231772Y-100611208D01*
X106033780Y-100504061D01*
X106033777Y-100504059D01*
X106033774Y-100504058D01*
X106033771Y-100504057D01*
X106033769Y-100504056D01*
X105820837Y-100430956D01*
X105598769Y-100393900D01*
X105373631Y-100393900D01*
X105151562Y-100430956D01*
X104938630Y-100504056D01*
X104938619Y-100504061D01*
X104740627Y-100611208D01*
X104740622Y-100611212D01*
X104562961Y-100749492D01*
X104562956Y-100749497D01*
X104410484Y-100915123D01*
X104410476Y-100915134D01*
X104320008Y-101053606D01*
X104266862Y-101098962D01*
X104197631Y-101108386D01*
X104134295Y-101078884D01*
X104112392Y-101053606D01*
X104028427Y-100925089D01*
X104021922Y-100915132D01*
X104021919Y-100915129D01*
X104021915Y-100915123D01*
X103869443Y-100749497D01*
X103869438Y-100749492D01*
X103691777Y-100611212D01*
X103691772Y-100611208D01*
X103493780Y-100504061D01*
X103493777Y-100504059D01*
X103493774Y-100504058D01*
X103493771Y-100504057D01*
X103493769Y-100504056D01*
X103280837Y-100430956D01*
X103058769Y-100393900D01*
X102833631Y-100393900D01*
X102611562Y-100430956D01*
X102398630Y-100504056D01*
X102398619Y-100504061D01*
X102200627Y-100611208D01*
X102200622Y-100611212D01*
X102022961Y-100749492D01*
X102022956Y-100749497D01*
X101870484Y-100915123D01*
X101870476Y-100915134D01*
X101780008Y-101053606D01*
X101726862Y-101098962D01*
X101657631Y-101108386D01*
X101594295Y-101078884D01*
X101572392Y-101053606D01*
X101488427Y-100925089D01*
X101481922Y-100915132D01*
X101481919Y-100915129D01*
X101481915Y-100915123D01*
X101329443Y-100749497D01*
X101329438Y-100749492D01*
X101151777Y-100611212D01*
X101151772Y-100611208D01*
X100953780Y-100504061D01*
X100953777Y-100504059D01*
X100953774Y-100504058D01*
X100953771Y-100504057D01*
X100953769Y-100504056D01*
X100740837Y-100430956D01*
X100518769Y-100393900D01*
X100293631Y-100393900D01*
X100071562Y-100430956D01*
X99858630Y-100504056D01*
X99858619Y-100504061D01*
X99660627Y-100611208D01*
X99660622Y-100611212D01*
X99482961Y-100749492D01*
X99482956Y-100749497D01*
X99330484Y-100915123D01*
X99330476Y-100915134D01*
X99240008Y-101053606D01*
X99186862Y-101098962D01*
X99117631Y-101108386D01*
X99054295Y-101078884D01*
X99032392Y-101053606D01*
X98948427Y-100925089D01*
X98941922Y-100915132D01*
X98941919Y-100915129D01*
X98941915Y-100915123D01*
X98789443Y-100749497D01*
X98789438Y-100749492D01*
X98611777Y-100611212D01*
X98611772Y-100611208D01*
X98413780Y-100504061D01*
X98413777Y-100504059D01*
X98413774Y-100504058D01*
X98413771Y-100504057D01*
X98413769Y-100504056D01*
X98200837Y-100430956D01*
X97978769Y-100393900D01*
X97753631Y-100393900D01*
X97531562Y-100430956D01*
X97318630Y-100504056D01*
X97318619Y-100504061D01*
X97120627Y-100611208D01*
X97120622Y-100611212D01*
X96942961Y-100749492D01*
X96942956Y-100749497D01*
X96790484Y-100915123D01*
X96790476Y-100915134D01*
X96700008Y-101053606D01*
X96646862Y-101098962D01*
X96577631Y-101108386D01*
X96514295Y-101078884D01*
X96492392Y-101053606D01*
X96408427Y-100925089D01*
X96401922Y-100915132D01*
X96401919Y-100915129D01*
X96401915Y-100915123D01*
X96249443Y-100749497D01*
X96249438Y-100749492D01*
X96071777Y-100611212D01*
X96071772Y-100611208D01*
X95873780Y-100504061D01*
X95873777Y-100504059D01*
X95873774Y-100504058D01*
X95873771Y-100504057D01*
X95873769Y-100504056D01*
X95660837Y-100430956D01*
X95438769Y-100393900D01*
X95213631Y-100393900D01*
X94991562Y-100430956D01*
X94778630Y-100504056D01*
X94778619Y-100504061D01*
X94580627Y-100611208D01*
X94580622Y-100611212D01*
X94402961Y-100749492D01*
X94402956Y-100749497D01*
X94250484Y-100915123D01*
X94250476Y-100915134D01*
X94127340Y-101103607D01*
X94036903Y-101309785D01*
X93981636Y-101528028D01*
X93981634Y-101528040D01*
X93963044Y-101752394D01*
X93963044Y-101752405D01*
X86522728Y-101752405D01*
X86522159Y-101567227D01*
X86505503Y-96149999D01*
X151586127Y-96149999D01*
X151586128Y-96150000D01*
X152354424Y-96150000D01*
X152421463Y-96169685D01*
X152467218Y-96222489D01*
X152477162Y-96291647D01*
X152476897Y-96293397D01*
X152460014Y-96399996D01*
X152460014Y-96400003D01*
X152476897Y-96506603D01*
X152467942Y-96575896D01*
X152422946Y-96629348D01*
X152356194Y-96649987D01*
X152354424Y-96650000D01*
X151586128Y-96650000D01*
X151638730Y-96846317D01*
X151638734Y-96846326D01*
X151734865Y-97052482D01*
X151865342Y-97238820D01*
X152026179Y-97399657D01*
X152212517Y-97530134D01*
X152418673Y-97626265D01*
X152418682Y-97626269D01*
X152614999Y-97678872D01*
X152615000Y-97678871D01*
X152615000Y-96910575D01*
X152634685Y-96843536D01*
X152687489Y-96797781D01*
X152756647Y-96787837D01*
X152758331Y-96788091D01*
X152790699Y-96793218D01*
X152833515Y-96800000D01*
X152833519Y-96800000D01*
X152896485Y-96800000D01*
X152939300Y-96793218D01*
X152971602Y-96788102D01*
X153040894Y-96797056D01*
X153094347Y-96842052D01*
X153114987Y-96908803D01*
X153115000Y-96910575D01*
X153115000Y-97678872D01*
X153311317Y-97626269D01*
X153311326Y-97626265D01*
X153517482Y-97530134D01*
X153703820Y-97399657D01*
X153864657Y-97238820D01*
X153995134Y-97052482D01*
X154091265Y-96846326D01*
X154091269Y-96846317D01*
X154143872Y-96650000D01*
X153375576Y-96650000D01*
X153308537Y-96630315D01*
X153262782Y-96577511D01*
X153252838Y-96508353D01*
X153253103Y-96506603D01*
X153269986Y-96400003D01*
X153269986Y-96400001D01*
X159171502Y-96400001D01*
X159191456Y-96628081D01*
X159191457Y-96628089D01*
X159250714Y-96849238D01*
X159250718Y-96849249D01*
X159345487Y-97052482D01*
X159347477Y-97056749D01*
X159478802Y-97244300D01*
X159640700Y-97406198D01*
X159828251Y-97537523D01*
X159866413Y-97555318D01*
X160035750Y-97634281D01*
X160035752Y-97634281D01*
X160035757Y-97634284D01*
X160256913Y-97693543D01*
X160419832Y-97707796D01*
X160484998Y-97713498D01*
X160485000Y-97713498D01*
X160485002Y-97713498D01*
X160542021Y-97708509D01*
X160713087Y-97693543D01*
X160934243Y-97634284D01*
X161141749Y-97537523D01*
X161329300Y-97406198D01*
X161491198Y-97244300D01*
X161622523Y-97056749D01*
X161719284Y-96849243D01*
X161778543Y-96628087D01*
X161798498Y-96400000D01*
X161778543Y-96171913D01*
X161719284Y-95950757D01*
X161711964Y-95935060D01*
X161668474Y-95841793D01*
X161622523Y-95743251D01*
X161491198Y-95555700D01*
X161329300Y-95393802D01*
X161141749Y-95262477D01*
X161141745Y-95262475D01*
X160934249Y-95165718D01*
X160934238Y-95165714D01*
X160713089Y-95106457D01*
X160713081Y-95106456D01*
X160485002Y-95086502D01*
X160484998Y-95086502D01*
X160256918Y-95106456D01*
X160256910Y-95106457D01*
X160035761Y-95165714D01*
X160035750Y-95165718D01*
X159828254Y-95262475D01*
X159828252Y-95262476D01*
X159828249Y-95262477D01*
X159828251Y-95262477D01*
X159640700Y-95393802D01*
X159640698Y-95393803D01*
X159640695Y-95393806D01*
X159478806Y-95555695D01*
X159478803Y-95555698D01*
X159478802Y-95555700D01*
X159400732Y-95667195D01*
X159347476Y-95743252D01*
X159347475Y-95743254D01*
X159250718Y-95950750D01*
X159250714Y-95950761D01*
X159191457Y-96171910D01*
X159191456Y-96171918D01*
X159171502Y-96399998D01*
X159171502Y-96400001D01*
X153269986Y-96400001D01*
X153269986Y-96399996D01*
X153253103Y-96293397D01*
X153262058Y-96224104D01*
X153307054Y-96170652D01*
X153373806Y-96150013D01*
X153375576Y-96150000D01*
X154143872Y-96150000D01*
X154143872Y-96149999D01*
X154091269Y-95953682D01*
X154091265Y-95953673D01*
X153995134Y-95747517D01*
X153864657Y-95561179D01*
X153703820Y-95400342D01*
X153517482Y-95269865D01*
X153311328Y-95173734D01*
X153115000Y-95121127D01*
X153115000Y-95889424D01*
X153095315Y-95956463D01*
X153042511Y-96002218D01*
X152973353Y-96012162D01*
X152971602Y-96011897D01*
X152896486Y-96000000D01*
X152896481Y-96000000D01*
X152833519Y-96000000D01*
X152833514Y-96000000D01*
X152758398Y-96011897D01*
X152689104Y-96002942D01*
X152635652Y-95957946D01*
X152615013Y-95891194D01*
X152615000Y-95889424D01*
X152615000Y-95121127D01*
X152418671Y-95173734D01*
X152212517Y-95269865D01*
X152026179Y-95400342D01*
X151865342Y-95561179D01*
X151734865Y-95747517D01*
X151638734Y-95953673D01*
X151638730Y-95953682D01*
X151586127Y-96149999D01*
X86505503Y-96149999D01*
X86493316Y-92186254D01*
X190665500Y-92186254D01*
X190672011Y-92246802D01*
X190672011Y-92246804D01*
X190716364Y-92365714D01*
X190723111Y-92383804D01*
X190810739Y-92500861D01*
X190927796Y-92588489D01*
X191064799Y-92639589D01*
X191092050Y-92642518D01*
X191125345Y-92646099D01*
X191125362Y-92646100D01*
X192922638Y-92646100D01*
X192922654Y-92646099D01*
X192949692Y-92643191D01*
X192983201Y-92639589D01*
X193120204Y-92588489D01*
X193237261Y-92500861D01*
X193324889Y-92383804D01*
X193370138Y-92262487D01*
X193412009Y-92206556D01*
X193477474Y-92182139D01*
X193545746Y-92196991D01*
X193577545Y-92221836D01*
X193640760Y-92290506D01*
X193818424Y-92428789D01*
X193818425Y-92428789D01*
X193818427Y-92428791D01*
X193878314Y-92461200D01*
X194016426Y-92535942D01*
X194229365Y-92609044D01*
X194451431Y-92646100D01*
X194676569Y-92646100D01*
X194898635Y-92609044D01*
X195111574Y-92535942D01*
X195309576Y-92428789D01*
X195487240Y-92290506D01*
X195608594Y-92158682D01*
X195639715Y-92124876D01*
X195639715Y-92124875D01*
X195639722Y-92124868D01*
X195730193Y-91986390D01*
X195783338Y-91941037D01*
X195852569Y-91931613D01*
X195915905Y-91961115D01*
X195937804Y-91986387D01*
X196028278Y-92124868D01*
X196028283Y-92124873D01*
X196028284Y-92124876D01*
X196180756Y-92290502D01*
X196180761Y-92290507D01*
X196225983Y-92325705D01*
X196358424Y-92428789D01*
X196358425Y-92428789D01*
X196358427Y-92428791D01*
X196418314Y-92461200D01*
X196556426Y-92535942D01*
X196769365Y-92609044D01*
X196991431Y-92646100D01*
X197216569Y-92646100D01*
X197438635Y-92609044D01*
X197651574Y-92535942D01*
X197849576Y-92428789D01*
X198027240Y-92290506D01*
X198148594Y-92158682D01*
X198179715Y-92124876D01*
X198179715Y-92124875D01*
X198179722Y-92124868D01*
X198273749Y-91980947D01*
X198326894Y-91935594D01*
X198396125Y-91926170D01*
X198459461Y-91955672D01*
X198479130Y-91977648D01*
X198605890Y-92158678D01*
X198772917Y-92325705D01*
X198966421Y-92461200D01*
X199180507Y-92561029D01*
X199180516Y-92561033D01*
X199394000Y-92618234D01*
X199394000Y-91899901D01*
X199413685Y-91832862D01*
X199466489Y-91787107D01*
X199535647Y-91777163D01*
X199608237Y-91787600D01*
X199608238Y-91787600D01*
X199679762Y-91787600D01*
X199679763Y-91787600D01*
X199752352Y-91777163D01*
X199821510Y-91787107D01*
X199874314Y-91832861D01*
X199893999Y-91899901D01*
X199893999Y-92618233D01*
X200107483Y-92561033D01*
X200107492Y-92561029D01*
X200321578Y-92461200D01*
X200515082Y-92325705D01*
X200682105Y-92158682D01*
X200817600Y-91965178D01*
X200917429Y-91751092D01*
X200917432Y-91751086D01*
X200974636Y-91537600D01*
X200257347Y-91537600D01*
X200190308Y-91517915D01*
X200144553Y-91465111D01*
X200134609Y-91395953D01*
X200138369Y-91378667D01*
X200144000Y-91359488D01*
X200144000Y-91215711D01*
X200138369Y-91196533D01*
X200138370Y-91126664D01*
X200176145Y-91067886D01*
X200239701Y-91038862D01*
X200257347Y-91037600D01*
X200974636Y-91037600D01*
X200974635Y-91037599D01*
X200917432Y-90824113D01*
X200917429Y-90824107D01*
X200817600Y-90610022D01*
X200817599Y-90610020D01*
X200682113Y-90416526D01*
X200682108Y-90416520D01*
X200515082Y-90249494D01*
X200321578Y-90113999D01*
X200107492Y-90014170D01*
X200107486Y-90014167D01*
X199893999Y-89956964D01*
X199893999Y-90675298D01*
X199874314Y-90742337D01*
X199821510Y-90788092D01*
X199752353Y-90798036D01*
X199679764Y-90787600D01*
X199679763Y-90787600D01*
X199608237Y-90787600D01*
X199608233Y-90787600D01*
X199535645Y-90798036D01*
X199466487Y-90788092D01*
X199413684Y-90742336D01*
X199394000Y-90675298D01*
X199394000Y-89956964D01*
X199393999Y-89956964D01*
X199180513Y-90014167D01*
X199180507Y-90014170D01*
X198966422Y-90113999D01*
X198966420Y-90114000D01*
X198772926Y-90249486D01*
X198772920Y-90249491D01*
X198605891Y-90416520D01*
X198605890Y-90416522D01*
X198479131Y-90597552D01*
X198424554Y-90641177D01*
X198355055Y-90648369D01*
X198292701Y-90616847D01*
X198273752Y-90594256D01*
X198179722Y-90450332D01*
X198179715Y-90450325D01*
X198179715Y-90450323D01*
X198027243Y-90284697D01*
X198027238Y-90284692D01*
X197849577Y-90146412D01*
X197849572Y-90146408D01*
X197651580Y-90039261D01*
X197651577Y-90039259D01*
X197651574Y-90039258D01*
X197651571Y-90039257D01*
X197651569Y-90039256D01*
X197438637Y-89966156D01*
X197216569Y-89929100D01*
X196991431Y-89929100D01*
X196769362Y-89966156D01*
X196556430Y-90039256D01*
X196556419Y-90039261D01*
X196358427Y-90146408D01*
X196358422Y-90146412D01*
X196180761Y-90284692D01*
X196180756Y-90284697D01*
X196028284Y-90450323D01*
X196028276Y-90450334D01*
X195937808Y-90588806D01*
X195884662Y-90634162D01*
X195815431Y-90643586D01*
X195752095Y-90614084D01*
X195730192Y-90588806D01*
X195660894Y-90482738D01*
X195639722Y-90450332D01*
X195639719Y-90450329D01*
X195639715Y-90450323D01*
X195487243Y-90284697D01*
X195487238Y-90284692D01*
X195309577Y-90146412D01*
X195309572Y-90146408D01*
X195111580Y-90039261D01*
X195111577Y-90039259D01*
X195111574Y-90039258D01*
X195111571Y-90039257D01*
X195111569Y-90039256D01*
X194898637Y-89966156D01*
X194676569Y-89929100D01*
X194451431Y-89929100D01*
X194229362Y-89966156D01*
X194016430Y-90039256D01*
X194016419Y-90039261D01*
X193818427Y-90146408D01*
X193818422Y-90146412D01*
X193640761Y-90284692D01*
X193577548Y-90353360D01*
X193517661Y-90389350D01*
X193447823Y-90387249D01*
X193390207Y-90347724D01*
X193370138Y-90312710D01*
X193324889Y-90191396D01*
X193291214Y-90146412D01*
X193237261Y-90074339D01*
X193120204Y-89986711D01*
X193120203Y-89986711D01*
X192983203Y-89935611D01*
X192922654Y-89929100D01*
X192922638Y-89929100D01*
X191125362Y-89929100D01*
X191125345Y-89929100D01*
X191064797Y-89935611D01*
X191064795Y-89935611D01*
X190927795Y-89986711D01*
X190810739Y-90074339D01*
X190723111Y-90191395D01*
X190672011Y-90328395D01*
X190672011Y-90328397D01*
X190665500Y-90388945D01*
X190665500Y-92186254D01*
X86493316Y-92186254D01*
X86486979Y-90125001D01*
X151501502Y-90125001D01*
X151521456Y-90353081D01*
X151521457Y-90353089D01*
X151580714Y-90574238D01*
X151580718Y-90574249D01*
X151675815Y-90778185D01*
X151677477Y-90781749D01*
X151808802Y-90969300D01*
X151970700Y-91131198D01*
X152158251Y-91262523D01*
X152283091Y-91320736D01*
X152365750Y-91359281D01*
X152365752Y-91359281D01*
X152365757Y-91359284D01*
X152586913Y-91418543D01*
X152749832Y-91432796D01*
X152814998Y-91438498D01*
X152815000Y-91438498D01*
X152815002Y-91438498D01*
X152872021Y-91433509D01*
X153043087Y-91418543D01*
X153264243Y-91359284D01*
X153471749Y-91262523D01*
X153659300Y-91131198D01*
X153821198Y-90969300D01*
X153952523Y-90781749D01*
X154049284Y-90574243D01*
X154108543Y-90353087D01*
X154128498Y-90125001D01*
X159121502Y-90125001D01*
X159141456Y-90353081D01*
X159141457Y-90353089D01*
X159200714Y-90574238D01*
X159200718Y-90574249D01*
X159295815Y-90778185D01*
X159297477Y-90781749D01*
X159428802Y-90969300D01*
X159590700Y-91131198D01*
X159778251Y-91262523D01*
X159903091Y-91320736D01*
X159985750Y-91359281D01*
X159985752Y-91359281D01*
X159985757Y-91359284D01*
X160206913Y-91418543D01*
X160369832Y-91432796D01*
X160434998Y-91438498D01*
X160435000Y-91438498D01*
X160435002Y-91438498D01*
X160492021Y-91433509D01*
X160663087Y-91418543D01*
X160884243Y-91359284D01*
X161091749Y-91262523D01*
X161279300Y-91131198D01*
X161441198Y-90969300D01*
X161551779Y-90811374D01*
X161606354Y-90767751D01*
X161653352Y-90758500D01*
X169567976Y-90758500D01*
X169635015Y-90778185D01*
X169673514Y-90817403D01*
X169728067Y-90905847D01*
X169728070Y-90905851D01*
X169853448Y-91031229D01*
X169853452Y-91031232D01*
X170004361Y-91124315D01*
X170004364Y-91124316D01*
X170172671Y-91180086D01*
X170172672Y-91180086D01*
X170172675Y-91180087D01*
X170276556Y-91190700D01*
X170276561Y-91190700D01*
X171302639Y-91190700D01*
X171302644Y-91190700D01*
X171406525Y-91180087D01*
X171574838Y-91124315D01*
X171725751Y-91031230D01*
X171851130Y-90905851D01*
X171944215Y-90754938D01*
X171999987Y-90586625D01*
X172010600Y-90482744D01*
X172010600Y-89607200D01*
X172552100Y-89607200D01*
X172552100Y-90482185D01*
X172562593Y-90584889D01*
X172562594Y-90584896D01*
X172617741Y-90751318D01*
X172617743Y-90751323D01*
X172709784Y-90900544D01*
X172833755Y-91024515D01*
X172982976Y-91116556D01*
X172982981Y-91116558D01*
X173149403Y-91171705D01*
X173149410Y-91171706D01*
X173252114Y-91182199D01*
X173252127Y-91182200D01*
X173514600Y-91182200D01*
X173514600Y-89607200D01*
X174014600Y-89607200D01*
X174014600Y-91182200D01*
X174277073Y-91182200D01*
X174277085Y-91182199D01*
X174379789Y-91171706D01*
X174379796Y-91171705D01*
X174546218Y-91116558D01*
X174546223Y-91116556D01*
X174695444Y-91024515D01*
X174819415Y-90900544D01*
X174911456Y-90751323D01*
X174911458Y-90751318D01*
X174966605Y-90584896D01*
X174966606Y-90584889D01*
X174977099Y-90482185D01*
X174977100Y-90482172D01*
X174977100Y-89607200D01*
X174014600Y-89607200D01*
X173514600Y-89607200D01*
X172552100Y-89607200D01*
X172010600Y-89607200D01*
X172010600Y-89107200D01*
X172552100Y-89107200D01*
X173514600Y-89107200D01*
X173514600Y-87532200D01*
X174014600Y-87532200D01*
X174014600Y-89107200D01*
X174977100Y-89107200D01*
X174977100Y-88232227D01*
X174977099Y-88232214D01*
X174966606Y-88129510D01*
X174966605Y-88129503D01*
X174911458Y-87963081D01*
X174911456Y-87963076D01*
X174819415Y-87813855D01*
X174695444Y-87689884D01*
X174546223Y-87597843D01*
X174546218Y-87597841D01*
X174379796Y-87542694D01*
X174379789Y-87542693D01*
X174277085Y-87532200D01*
X174014600Y-87532200D01*
X173514600Y-87532200D01*
X173252114Y-87532200D01*
X173149410Y-87542693D01*
X173149403Y-87542694D01*
X172982981Y-87597841D01*
X172982976Y-87597843D01*
X172833755Y-87689884D01*
X172709784Y-87813855D01*
X172617743Y-87963076D01*
X172617741Y-87963081D01*
X172562594Y-88129503D01*
X172562593Y-88129510D01*
X172552100Y-88232214D01*
X172552100Y-89107200D01*
X172010600Y-89107200D01*
X172010600Y-88231656D01*
X171999987Y-88127775D01*
X171999986Y-88127771D01*
X171944216Y-87959464D01*
X171944215Y-87959461D01*
X171851132Y-87808552D01*
X171851129Y-87808548D01*
X171725751Y-87683170D01*
X171725747Y-87683167D01*
X171574838Y-87590084D01*
X171574835Y-87590083D01*
X171406528Y-87534313D01*
X171302651Y-87523700D01*
X171302644Y-87523700D01*
X170276556Y-87523700D01*
X170276548Y-87523700D01*
X170172671Y-87534313D01*
X170004364Y-87590083D01*
X170004361Y-87590084D01*
X169853452Y-87683167D01*
X169853448Y-87683170D01*
X169728070Y-87808548D01*
X169728067Y-87808552D01*
X169634984Y-87959461D01*
X169634983Y-87959464D01*
X169579213Y-88127771D01*
X169568600Y-88231648D01*
X169568600Y-89367500D01*
X169548915Y-89434539D01*
X169496111Y-89480294D01*
X169444600Y-89491500D01*
X161653352Y-89491500D01*
X161586313Y-89471815D01*
X161551779Y-89438626D01*
X161441198Y-89280700D01*
X161279300Y-89118802D01*
X161091749Y-88987477D01*
X161091745Y-88987475D01*
X160884249Y-88890718D01*
X160884238Y-88890714D01*
X160663089Y-88831457D01*
X160663081Y-88831456D01*
X160435002Y-88811502D01*
X160434998Y-88811502D01*
X160206918Y-88831456D01*
X160206910Y-88831457D01*
X159985761Y-88890714D01*
X159985750Y-88890718D01*
X159778254Y-88987475D01*
X159778252Y-88987476D01*
X159778249Y-88987477D01*
X159778251Y-88987477D01*
X159590700Y-89118802D01*
X159590698Y-89118803D01*
X159590695Y-89118806D01*
X159428806Y-89280695D01*
X159428803Y-89280698D01*
X159428802Y-89280700D01*
X159383397Y-89345545D01*
X159297476Y-89468252D01*
X159297475Y-89468254D01*
X159200718Y-89675750D01*
X159200714Y-89675761D01*
X159141457Y-89896910D01*
X159141456Y-89896918D01*
X159121502Y-90124998D01*
X159121502Y-90125001D01*
X154128498Y-90125001D01*
X154128498Y-90125000D01*
X154108543Y-89896913D01*
X154049284Y-89675757D01*
X153952523Y-89468251D01*
X153821198Y-89280700D01*
X153659300Y-89118802D01*
X153471749Y-88987477D01*
X153471745Y-88987475D01*
X153264249Y-88890718D01*
X153264238Y-88890714D01*
X153043089Y-88831457D01*
X153043081Y-88831456D01*
X152815002Y-88811502D01*
X152814998Y-88811502D01*
X152586918Y-88831456D01*
X152586910Y-88831457D01*
X152365761Y-88890714D01*
X152365750Y-88890718D01*
X152158254Y-88987475D01*
X152158252Y-88987476D01*
X152158249Y-88987477D01*
X152158251Y-88987477D01*
X151970700Y-89118802D01*
X151970698Y-89118803D01*
X151970695Y-89118806D01*
X151808806Y-89280695D01*
X151808803Y-89280698D01*
X151808802Y-89280700D01*
X151763397Y-89345545D01*
X151677476Y-89468252D01*
X151677475Y-89468254D01*
X151580718Y-89675750D01*
X151580714Y-89675761D01*
X151521457Y-89896910D01*
X151521456Y-89896918D01*
X151501502Y-90124998D01*
X151501502Y-90125001D01*
X86486979Y-90125001D01*
X86467071Y-83650001D01*
X151501502Y-83650001D01*
X151521456Y-83878081D01*
X151521457Y-83878089D01*
X151580714Y-84099238D01*
X151580718Y-84099249D01*
X151675815Y-84303185D01*
X151677477Y-84306749D01*
X151808802Y-84494300D01*
X151970700Y-84656198D01*
X152158251Y-84787523D01*
X152283091Y-84845736D01*
X152365750Y-84884281D01*
X152365752Y-84884281D01*
X152365757Y-84884284D01*
X152586913Y-84943543D01*
X152749832Y-84957796D01*
X152814998Y-84963498D01*
X152815000Y-84963498D01*
X152815002Y-84963498D01*
X152872021Y-84958509D01*
X153043087Y-84943543D01*
X153264243Y-84884284D01*
X153471749Y-84787523D01*
X153659300Y-84656198D01*
X153821198Y-84494300D01*
X153952523Y-84306749D01*
X154049284Y-84099243D01*
X154108543Y-83878087D01*
X154128498Y-83650001D01*
X159121502Y-83650001D01*
X159141456Y-83878081D01*
X159141457Y-83878089D01*
X159200714Y-84099238D01*
X159200718Y-84099249D01*
X159295815Y-84303185D01*
X159297477Y-84306749D01*
X159428802Y-84494300D01*
X159590700Y-84656198D01*
X159778251Y-84787523D01*
X159903091Y-84845736D01*
X159985750Y-84884281D01*
X159985752Y-84884281D01*
X159985757Y-84884284D01*
X160206913Y-84943543D01*
X160369832Y-84957796D01*
X160434998Y-84963498D01*
X160435000Y-84963498D01*
X160435002Y-84963498D01*
X160492021Y-84958509D01*
X160663087Y-84943543D01*
X160884243Y-84884284D01*
X161091749Y-84787523D01*
X161279300Y-84656198D01*
X161441198Y-84494300D01*
X161551779Y-84336374D01*
X161606354Y-84292751D01*
X161653352Y-84283500D01*
X169481100Y-84283500D01*
X169548139Y-84303185D01*
X169593894Y-84355989D01*
X169605100Y-84407500D01*
X169605100Y-84437551D01*
X169615713Y-84541428D01*
X169671483Y-84709735D01*
X169671484Y-84709738D01*
X169764567Y-84860647D01*
X169764570Y-84860651D01*
X169889948Y-84986029D01*
X169889952Y-84986032D01*
X170040861Y-85079115D01*
X170040864Y-85079116D01*
X170209171Y-85134886D01*
X170209172Y-85134886D01*
X170209175Y-85134887D01*
X170313056Y-85145500D01*
X170313061Y-85145500D01*
X171339139Y-85145500D01*
X171339144Y-85145500D01*
X171443025Y-85134887D01*
X171611338Y-85079115D01*
X171762251Y-84986030D01*
X171887630Y-84860651D01*
X171980715Y-84709738D01*
X172036487Y-84541425D01*
X172047100Y-84437544D01*
X172047100Y-83562000D01*
X172588600Y-83562000D01*
X172588600Y-84436985D01*
X172599093Y-84539689D01*
X172599094Y-84539696D01*
X172654241Y-84706118D01*
X172654243Y-84706123D01*
X172746284Y-84855344D01*
X172870255Y-84979315D01*
X173019476Y-85071356D01*
X173019481Y-85071358D01*
X173185903Y-85126505D01*
X173185910Y-85126506D01*
X173288614Y-85136999D01*
X173288627Y-85137000D01*
X173551100Y-85137000D01*
X173551100Y-83562000D01*
X174051100Y-83562000D01*
X174051100Y-85137000D01*
X174313573Y-85137000D01*
X174313585Y-85136999D01*
X174416289Y-85126506D01*
X174416296Y-85126505D01*
X174582718Y-85071358D01*
X174582723Y-85071356D01*
X174731944Y-84979315D01*
X174855915Y-84855344D01*
X174947956Y-84706123D01*
X174947958Y-84706118D01*
X175003105Y-84539696D01*
X175003106Y-84539689D01*
X175013599Y-84436985D01*
X175013600Y-84436972D01*
X175013600Y-83562000D01*
X174051100Y-83562000D01*
X173551100Y-83562000D01*
X172588600Y-83562000D01*
X172047100Y-83562000D01*
X172047100Y-83062000D01*
X172588600Y-83062000D01*
X173551100Y-83062000D01*
X173551100Y-81487000D01*
X174051100Y-81487000D01*
X174051100Y-83062000D01*
X175013600Y-83062000D01*
X175013600Y-82187027D01*
X175013599Y-82187014D01*
X175003106Y-82084310D01*
X175003105Y-82084303D01*
X174947958Y-81917881D01*
X174947956Y-81917876D01*
X174855915Y-81768655D01*
X174731944Y-81644684D01*
X174582723Y-81552643D01*
X174582718Y-81552641D01*
X174416296Y-81497494D01*
X174416289Y-81497493D01*
X174313585Y-81487000D01*
X174051100Y-81487000D01*
X173551100Y-81487000D01*
X173288614Y-81487000D01*
X173185910Y-81497493D01*
X173185903Y-81497494D01*
X173019481Y-81552641D01*
X173019476Y-81552643D01*
X172870255Y-81644684D01*
X172746284Y-81768655D01*
X172654243Y-81917876D01*
X172654241Y-81917881D01*
X172599094Y-82084303D01*
X172599093Y-82084310D01*
X172588600Y-82187014D01*
X172588600Y-83062000D01*
X172047100Y-83062000D01*
X172047100Y-82186456D01*
X172036487Y-82082575D01*
X172036486Y-82082571D01*
X171980716Y-81914264D01*
X171980715Y-81914261D01*
X171887632Y-81763352D01*
X171887629Y-81763348D01*
X171762251Y-81637970D01*
X171762247Y-81637967D01*
X171611338Y-81544884D01*
X171611335Y-81544883D01*
X171443028Y-81489113D01*
X171339151Y-81478500D01*
X171339144Y-81478500D01*
X170313056Y-81478500D01*
X170313048Y-81478500D01*
X170209171Y-81489113D01*
X170040864Y-81544883D01*
X170040861Y-81544884D01*
X169889952Y-81637967D01*
X169889948Y-81637970D01*
X169764570Y-81763348D01*
X169764567Y-81763352D01*
X169671484Y-81914261D01*
X169671483Y-81914264D01*
X169615713Y-82082571D01*
X169605100Y-82186448D01*
X169605100Y-82892500D01*
X169585415Y-82959539D01*
X169532611Y-83005294D01*
X169481100Y-83016500D01*
X161653352Y-83016500D01*
X161586313Y-82996815D01*
X161551779Y-82963626D01*
X161441198Y-82805700D01*
X161279300Y-82643802D01*
X161091749Y-82512477D01*
X161091745Y-82512475D01*
X160884249Y-82415718D01*
X160884238Y-82415714D01*
X160663089Y-82356457D01*
X160663081Y-82356456D01*
X160435002Y-82336502D01*
X160434998Y-82336502D01*
X160206918Y-82356456D01*
X160206910Y-82356457D01*
X159985761Y-82415714D01*
X159985750Y-82415718D01*
X159778254Y-82512475D01*
X159778252Y-82512476D01*
X159778249Y-82512477D01*
X159778251Y-82512477D01*
X159590700Y-82643802D01*
X159590698Y-82643803D01*
X159590695Y-82643806D01*
X159428806Y-82805695D01*
X159297476Y-82993252D01*
X159297475Y-82993254D01*
X159200718Y-83200750D01*
X159200714Y-83200761D01*
X159141457Y-83421910D01*
X159141456Y-83421918D01*
X159121502Y-83649998D01*
X159121502Y-83650001D01*
X154128498Y-83650001D01*
X154128498Y-83650000D01*
X154127850Y-83642599D01*
X154108543Y-83421918D01*
X154108543Y-83421913D01*
X154049284Y-83200757D01*
X153952523Y-82993251D01*
X153821198Y-82805700D01*
X153659300Y-82643802D01*
X153471749Y-82512477D01*
X153471745Y-82512475D01*
X153264249Y-82415718D01*
X153264238Y-82415714D01*
X153043089Y-82356457D01*
X153043081Y-82356456D01*
X152815002Y-82336502D01*
X152814998Y-82336502D01*
X152586918Y-82356456D01*
X152586910Y-82356457D01*
X152365761Y-82415714D01*
X152365750Y-82415718D01*
X152158254Y-82512475D01*
X152158252Y-82512476D01*
X152158249Y-82512477D01*
X152158251Y-82512477D01*
X151970700Y-82643802D01*
X151970698Y-82643803D01*
X151970695Y-82643806D01*
X151808806Y-82805695D01*
X151677476Y-82993252D01*
X151677475Y-82993254D01*
X151580718Y-83200750D01*
X151580714Y-83200761D01*
X151521457Y-83421910D01*
X151521456Y-83421918D01*
X151501502Y-83649998D01*
X151501502Y-83650001D01*
X86467071Y-83650001D01*
X86455206Y-79791054D01*
X93967700Y-79791054D01*
X93974211Y-79851602D01*
X93974211Y-79851604D01*
X94014236Y-79958911D01*
X94025311Y-79988604D01*
X94112939Y-80105661D01*
X94229996Y-80193289D01*
X94366999Y-80244389D01*
X94394250Y-80247318D01*
X94427545Y-80250899D01*
X94427562Y-80250900D01*
X96224838Y-80250900D01*
X96224854Y-80250899D01*
X96251892Y-80247991D01*
X96285401Y-80244389D01*
X96422404Y-80193289D01*
X96539461Y-80105661D01*
X96627089Y-79988604D01*
X96672338Y-79867287D01*
X96714209Y-79811356D01*
X96779674Y-79786939D01*
X96847946Y-79801791D01*
X96879745Y-79826636D01*
X96942960Y-79895306D01*
X97120624Y-80033589D01*
X97120625Y-80033589D01*
X97120627Y-80033591D01*
X97247335Y-80102161D01*
X97318626Y-80140742D01*
X97531565Y-80213844D01*
X97753631Y-80250900D01*
X97978769Y-80250900D01*
X98200835Y-80213844D01*
X98413774Y-80140742D01*
X98611776Y-80033589D01*
X98789440Y-79895306D01*
X98941922Y-79729668D01*
X99032393Y-79591190D01*
X99085538Y-79545837D01*
X99154769Y-79536413D01*
X99218105Y-79565915D01*
X99240004Y-79591187D01*
X99330478Y-79729668D01*
X99330483Y-79729673D01*
X99330484Y-79729676D01*
X99444279Y-79853288D01*
X99482960Y-79895306D01*
X99660624Y-80033589D01*
X99660625Y-80033589D01*
X99660627Y-80033591D01*
X99787335Y-80102161D01*
X99858626Y-80140742D01*
X100071565Y-80213844D01*
X100293631Y-80250900D01*
X100518769Y-80250900D01*
X100740835Y-80213844D01*
X100953774Y-80140742D01*
X101151776Y-80033589D01*
X101329440Y-79895306D01*
X101481922Y-79729668D01*
X101572393Y-79591190D01*
X101625538Y-79545837D01*
X101694769Y-79536413D01*
X101758105Y-79565915D01*
X101780004Y-79591187D01*
X101870478Y-79729668D01*
X101870483Y-79729673D01*
X101870484Y-79729676D01*
X101984279Y-79853288D01*
X102022960Y-79895306D01*
X102200624Y-80033589D01*
X102200625Y-80033589D01*
X102200627Y-80033591D01*
X102327335Y-80102161D01*
X102398626Y-80140742D01*
X102611565Y-80213844D01*
X102833631Y-80250900D01*
X103058769Y-80250900D01*
X103280835Y-80213844D01*
X103493774Y-80140742D01*
X103691776Y-80033589D01*
X103869440Y-79895306D01*
X104021922Y-79729668D01*
X104112393Y-79591191D01*
X104165536Y-79545837D01*
X104234767Y-79536413D01*
X104298103Y-79565915D01*
X104320007Y-79591193D01*
X104410476Y-79729665D01*
X104410484Y-79729676D01*
X104524279Y-79853288D01*
X104562960Y-79895306D01*
X104740624Y-80033589D01*
X104740625Y-80033589D01*
X104740627Y-80033591D01*
X104867335Y-80102161D01*
X104938626Y-80140742D01*
X105151565Y-80213844D01*
X105373631Y-80250900D01*
X105598769Y-80250900D01*
X105820835Y-80213844D01*
X106033774Y-80140742D01*
X106231776Y-80033589D01*
X106409440Y-79895306D01*
X106561922Y-79729668D01*
X106652393Y-79591190D01*
X106705538Y-79545837D01*
X106774769Y-79536413D01*
X106838105Y-79565915D01*
X106860004Y-79591187D01*
X106950478Y-79729668D01*
X106950483Y-79729673D01*
X106950484Y-79729676D01*
X107064279Y-79853288D01*
X107102960Y-79895306D01*
X107280624Y-80033589D01*
X107280625Y-80033589D01*
X107280627Y-80033591D01*
X107407335Y-80102161D01*
X107478626Y-80140742D01*
X107691565Y-80213844D01*
X107913631Y-80250900D01*
X108138769Y-80250900D01*
X108360835Y-80213844D01*
X108573774Y-80140742D01*
X108771776Y-80033589D01*
X108949440Y-79895306D01*
X109101922Y-79729668D01*
X109192393Y-79591190D01*
X109245538Y-79545837D01*
X109314769Y-79536413D01*
X109378105Y-79565915D01*
X109400004Y-79591187D01*
X109490478Y-79729668D01*
X109490483Y-79729673D01*
X109490484Y-79729676D01*
X109604279Y-79853288D01*
X109642960Y-79895306D01*
X109820624Y-80033589D01*
X109820625Y-80033589D01*
X109820627Y-80033591D01*
X109947335Y-80102161D01*
X110018626Y-80140742D01*
X110231565Y-80213844D01*
X110453631Y-80250900D01*
X110678769Y-80250900D01*
X110900835Y-80213844D01*
X111113774Y-80140742D01*
X111311776Y-80033589D01*
X111489440Y-79895306D01*
X111641922Y-79729668D01*
X111732393Y-79591190D01*
X111785538Y-79545837D01*
X111854769Y-79536413D01*
X111918105Y-79565915D01*
X111940004Y-79591187D01*
X112030478Y-79729668D01*
X112030483Y-79729673D01*
X112030484Y-79729676D01*
X112144279Y-79853288D01*
X112182960Y-79895306D01*
X112360624Y-80033589D01*
X112360625Y-80033589D01*
X112360627Y-80033591D01*
X112487335Y-80102161D01*
X112558626Y-80140742D01*
X112771565Y-80213844D01*
X112993631Y-80250900D01*
X113218769Y-80250900D01*
X113440835Y-80213844D01*
X113653774Y-80140742D01*
X113851776Y-80033589D01*
X114029440Y-79895306D01*
X114181922Y-79729668D01*
X114272393Y-79591191D01*
X114325536Y-79545837D01*
X114394767Y-79536413D01*
X114458103Y-79565915D01*
X114480007Y-79591193D01*
X114570476Y-79729665D01*
X114570484Y-79729676D01*
X114684279Y-79853288D01*
X114722960Y-79895306D01*
X114900624Y-80033589D01*
X114900625Y-80033589D01*
X114900627Y-80033591D01*
X115027335Y-80102161D01*
X115098626Y-80140742D01*
X115311565Y-80213844D01*
X115533631Y-80250900D01*
X115758769Y-80250900D01*
X115980835Y-80213844D01*
X116193774Y-80140742D01*
X116391776Y-80033589D01*
X116569440Y-79895306D01*
X116721922Y-79729668D01*
X116812393Y-79591190D01*
X116865538Y-79545837D01*
X116934769Y-79536413D01*
X116998105Y-79565915D01*
X117020004Y-79591187D01*
X117110478Y-79729668D01*
X117110483Y-79729673D01*
X117110484Y-79729676D01*
X117224279Y-79853288D01*
X117262960Y-79895306D01*
X117440624Y-80033589D01*
X117440625Y-80033589D01*
X117440627Y-80033591D01*
X117567335Y-80102161D01*
X117638626Y-80140742D01*
X117851565Y-80213844D01*
X118073631Y-80250900D01*
X118298769Y-80250900D01*
X118520835Y-80213844D01*
X118733774Y-80140742D01*
X118931776Y-80033589D01*
X119109440Y-79895306D01*
X119261922Y-79729668D01*
X119352393Y-79591190D01*
X119405538Y-79545837D01*
X119474769Y-79536413D01*
X119538105Y-79565915D01*
X119560004Y-79591187D01*
X119650478Y-79729668D01*
X119650483Y-79729673D01*
X119650484Y-79729676D01*
X119764279Y-79853288D01*
X119802960Y-79895306D01*
X119980624Y-80033589D01*
X119980625Y-80033589D01*
X119980627Y-80033591D01*
X120107335Y-80102161D01*
X120178626Y-80140742D01*
X120391565Y-80213844D01*
X120613631Y-80250900D01*
X120838769Y-80250900D01*
X121060835Y-80213844D01*
X121273774Y-80140742D01*
X121471776Y-80033589D01*
X121649440Y-79895306D01*
X121801922Y-79729668D01*
X121892393Y-79591190D01*
X121945538Y-79545837D01*
X122014769Y-79536413D01*
X122078105Y-79565915D01*
X122100004Y-79591187D01*
X122190478Y-79729668D01*
X122190483Y-79729673D01*
X122190484Y-79729676D01*
X122304279Y-79853288D01*
X122342960Y-79895306D01*
X122520624Y-80033589D01*
X122520625Y-80033589D01*
X122520627Y-80033591D01*
X122647335Y-80102161D01*
X122718626Y-80140742D01*
X122931565Y-80213844D01*
X123153631Y-80250900D01*
X123378769Y-80250900D01*
X123600835Y-80213844D01*
X123813774Y-80140742D01*
X124011776Y-80033589D01*
X124189440Y-79895306D01*
X124341922Y-79729668D01*
X124432393Y-79591191D01*
X124485536Y-79545837D01*
X124554767Y-79536413D01*
X124618103Y-79565915D01*
X124640007Y-79591193D01*
X124730476Y-79729665D01*
X124730484Y-79729676D01*
X124844279Y-79853288D01*
X124882960Y-79895306D01*
X125060624Y-80033589D01*
X125060625Y-80033589D01*
X125060627Y-80033591D01*
X125187335Y-80102161D01*
X125258626Y-80140742D01*
X125471565Y-80213844D01*
X125693631Y-80250900D01*
X125918769Y-80250900D01*
X126140835Y-80213844D01*
X126353774Y-80140742D01*
X126551776Y-80033589D01*
X126729440Y-79895306D01*
X126881922Y-79729668D01*
X126972393Y-79591190D01*
X127025538Y-79545837D01*
X127094769Y-79536413D01*
X127158105Y-79565915D01*
X127180004Y-79591187D01*
X127270478Y-79729668D01*
X127270483Y-79729673D01*
X127270484Y-79729676D01*
X127384279Y-79853288D01*
X127422960Y-79895306D01*
X127600624Y-80033589D01*
X127600625Y-80033589D01*
X127600627Y-80033591D01*
X127727335Y-80102161D01*
X127798626Y-80140742D01*
X128011565Y-80213844D01*
X128233631Y-80250900D01*
X128458769Y-80250900D01*
X128680835Y-80213844D01*
X128893774Y-80140742D01*
X129091776Y-80033589D01*
X129269440Y-79895306D01*
X129421922Y-79729668D01*
X129512393Y-79591190D01*
X129565538Y-79545837D01*
X129634769Y-79536413D01*
X129698105Y-79565915D01*
X129720004Y-79591187D01*
X129810478Y-79729668D01*
X129810483Y-79729673D01*
X129810484Y-79729676D01*
X129924279Y-79853288D01*
X129962960Y-79895306D01*
X130140624Y-80033589D01*
X130140625Y-80033589D01*
X130140627Y-80033591D01*
X130267335Y-80102161D01*
X130338626Y-80140742D01*
X130551565Y-80213844D01*
X130773631Y-80250900D01*
X130998769Y-80250900D01*
X131220835Y-80213844D01*
X131433774Y-80140742D01*
X131631776Y-80033589D01*
X131809440Y-79895306D01*
X131961922Y-79729668D01*
X132085060Y-79541191D01*
X132175496Y-79335016D01*
X132230764Y-79116768D01*
X132244757Y-78947900D01*
X132249356Y-78892405D01*
X132249356Y-78892394D01*
X132230765Y-78668040D01*
X132230763Y-78668028D01*
X132175496Y-78449785D01*
X132154754Y-78402498D01*
X132085060Y-78243609D01*
X132082300Y-78239385D01*
X132005879Y-78122414D01*
X131961922Y-78055132D01*
X131961919Y-78055129D01*
X131961915Y-78055123D01*
X131809443Y-77889497D01*
X131809438Y-77889492D01*
X131631777Y-77751212D01*
X131631772Y-77751208D01*
X131433780Y-77644061D01*
X131433777Y-77644059D01*
X131433774Y-77644058D01*
X131433771Y-77644057D01*
X131433769Y-77644056D01*
X131220837Y-77570956D01*
X130998769Y-77533900D01*
X130773631Y-77533900D01*
X130551562Y-77570956D01*
X130338630Y-77644056D01*
X130338619Y-77644061D01*
X130140627Y-77751208D01*
X130140622Y-77751212D01*
X129962961Y-77889492D01*
X129962956Y-77889497D01*
X129810484Y-78055123D01*
X129810476Y-78055134D01*
X129720008Y-78193606D01*
X129666862Y-78238962D01*
X129597631Y-78248386D01*
X129534295Y-78218884D01*
X129512392Y-78193606D01*
X129421923Y-78055134D01*
X129421915Y-78055123D01*
X129269443Y-77889497D01*
X129269438Y-77889492D01*
X129091777Y-77751212D01*
X129091772Y-77751208D01*
X128893780Y-77644061D01*
X128893777Y-77644059D01*
X128893774Y-77644058D01*
X128893771Y-77644057D01*
X128893769Y-77644056D01*
X128680837Y-77570956D01*
X128458769Y-77533900D01*
X128233631Y-77533900D01*
X128011562Y-77570956D01*
X127798630Y-77644056D01*
X127798619Y-77644061D01*
X127600627Y-77751208D01*
X127600622Y-77751212D01*
X127422961Y-77889492D01*
X127422956Y-77889497D01*
X127270484Y-78055123D01*
X127270476Y-78055134D01*
X127180008Y-78193606D01*
X127126862Y-78238962D01*
X127057631Y-78248386D01*
X126994295Y-78218884D01*
X126972392Y-78193606D01*
X126881923Y-78055134D01*
X126881915Y-78055123D01*
X126729443Y-77889497D01*
X126729438Y-77889492D01*
X126551777Y-77751212D01*
X126551772Y-77751208D01*
X126353780Y-77644061D01*
X126353777Y-77644059D01*
X126353774Y-77644058D01*
X126353771Y-77644057D01*
X126353769Y-77644056D01*
X126140837Y-77570956D01*
X125918769Y-77533900D01*
X125693631Y-77533900D01*
X125471562Y-77570956D01*
X125258630Y-77644056D01*
X125258619Y-77644061D01*
X125060627Y-77751208D01*
X125060622Y-77751212D01*
X124882961Y-77889492D01*
X124882956Y-77889497D01*
X124730484Y-78055123D01*
X124730476Y-78055134D01*
X124640007Y-78193606D01*
X124586860Y-78238963D01*
X124517629Y-78248386D01*
X124454293Y-78218883D01*
X124432391Y-78193606D01*
X124341922Y-78055132D01*
X124341917Y-78055127D01*
X124341915Y-78055123D01*
X124189443Y-77889497D01*
X124189438Y-77889492D01*
X124011777Y-77751212D01*
X124011772Y-77751208D01*
X123813780Y-77644061D01*
X123813777Y-77644059D01*
X123813774Y-77644058D01*
X123813771Y-77644057D01*
X123813769Y-77644056D01*
X123600837Y-77570956D01*
X123378769Y-77533900D01*
X123153631Y-77533900D01*
X122931562Y-77570956D01*
X122718630Y-77644056D01*
X122718619Y-77644061D01*
X122520627Y-77751208D01*
X122520622Y-77751212D01*
X122342961Y-77889492D01*
X122342956Y-77889497D01*
X122190484Y-78055123D01*
X122190476Y-78055134D01*
X122100008Y-78193606D01*
X122046862Y-78238962D01*
X121977631Y-78248386D01*
X121914295Y-78218884D01*
X121892392Y-78193606D01*
X121801923Y-78055134D01*
X121801915Y-78055123D01*
X121649443Y-77889497D01*
X121649438Y-77889492D01*
X121471777Y-77751212D01*
X121471772Y-77751208D01*
X121273780Y-77644061D01*
X121273777Y-77644059D01*
X121273774Y-77644058D01*
X121273771Y-77644057D01*
X121273769Y-77644056D01*
X121060837Y-77570956D01*
X120838769Y-77533900D01*
X120613631Y-77533900D01*
X120391562Y-77570956D01*
X120178630Y-77644056D01*
X120178619Y-77644061D01*
X119980627Y-77751208D01*
X119980622Y-77751212D01*
X119802961Y-77889492D01*
X119802956Y-77889497D01*
X119650484Y-78055123D01*
X119650476Y-78055134D01*
X119560008Y-78193606D01*
X119506862Y-78238962D01*
X119437631Y-78248386D01*
X119374295Y-78218884D01*
X119352392Y-78193606D01*
X119261923Y-78055134D01*
X119261915Y-78055123D01*
X119109443Y-77889497D01*
X119109438Y-77889492D01*
X118931777Y-77751212D01*
X118931772Y-77751208D01*
X118733780Y-77644061D01*
X118733777Y-77644059D01*
X118733774Y-77644058D01*
X118733771Y-77644057D01*
X118733769Y-77644056D01*
X118520837Y-77570956D01*
X118298769Y-77533900D01*
X118073631Y-77533900D01*
X117851562Y-77570956D01*
X117638630Y-77644056D01*
X117638619Y-77644061D01*
X117440627Y-77751208D01*
X117440622Y-77751212D01*
X117262961Y-77889492D01*
X117262956Y-77889497D01*
X117110484Y-78055123D01*
X117110476Y-78055134D01*
X117020008Y-78193606D01*
X116966862Y-78238962D01*
X116897631Y-78248386D01*
X116834295Y-78218884D01*
X116812392Y-78193606D01*
X116721923Y-78055134D01*
X116721915Y-78055123D01*
X116569443Y-77889497D01*
X116569438Y-77889492D01*
X116391777Y-77751212D01*
X116391772Y-77751208D01*
X116193780Y-77644061D01*
X116193777Y-77644059D01*
X116193774Y-77644058D01*
X116193771Y-77644057D01*
X116193769Y-77644056D01*
X115980837Y-77570956D01*
X115758769Y-77533900D01*
X115533631Y-77533900D01*
X115311562Y-77570956D01*
X115098630Y-77644056D01*
X115098619Y-77644061D01*
X114900627Y-77751208D01*
X114900622Y-77751212D01*
X114722961Y-77889492D01*
X114722956Y-77889497D01*
X114570484Y-78055123D01*
X114570476Y-78055134D01*
X114480007Y-78193606D01*
X114426860Y-78238963D01*
X114357629Y-78248386D01*
X114294293Y-78218883D01*
X114272391Y-78193606D01*
X114181922Y-78055132D01*
X114181917Y-78055127D01*
X114181915Y-78055123D01*
X114029443Y-77889497D01*
X114029438Y-77889492D01*
X113851777Y-77751212D01*
X113851772Y-77751208D01*
X113653780Y-77644061D01*
X113653777Y-77644059D01*
X113653774Y-77644058D01*
X113653771Y-77644057D01*
X113653769Y-77644056D01*
X113440837Y-77570956D01*
X113218769Y-77533900D01*
X112993631Y-77533900D01*
X112771562Y-77570956D01*
X112558630Y-77644056D01*
X112558619Y-77644061D01*
X112360627Y-77751208D01*
X112360622Y-77751212D01*
X112182961Y-77889492D01*
X112182956Y-77889497D01*
X112030484Y-78055123D01*
X112030476Y-78055134D01*
X111940008Y-78193606D01*
X111886862Y-78238962D01*
X111817631Y-78248386D01*
X111754295Y-78218884D01*
X111732392Y-78193606D01*
X111641923Y-78055134D01*
X111641915Y-78055123D01*
X111489443Y-77889497D01*
X111489438Y-77889492D01*
X111311777Y-77751212D01*
X111311772Y-77751208D01*
X111113780Y-77644061D01*
X111113777Y-77644059D01*
X111113774Y-77644058D01*
X111113771Y-77644057D01*
X111113769Y-77644056D01*
X110900837Y-77570956D01*
X110678769Y-77533900D01*
X110453631Y-77533900D01*
X110231562Y-77570956D01*
X110018630Y-77644056D01*
X110018619Y-77644061D01*
X109820627Y-77751208D01*
X109820622Y-77751212D01*
X109642961Y-77889492D01*
X109642956Y-77889497D01*
X109490484Y-78055123D01*
X109490476Y-78055134D01*
X109400008Y-78193606D01*
X109346862Y-78238962D01*
X109277631Y-78248386D01*
X109214295Y-78218884D01*
X109192392Y-78193606D01*
X109101923Y-78055134D01*
X109101915Y-78055123D01*
X108949443Y-77889497D01*
X108949438Y-77889492D01*
X108771777Y-77751212D01*
X108771772Y-77751208D01*
X108573780Y-77644061D01*
X108573777Y-77644059D01*
X108573774Y-77644058D01*
X108573771Y-77644057D01*
X108573769Y-77644056D01*
X108360837Y-77570956D01*
X108138769Y-77533900D01*
X107913631Y-77533900D01*
X107691562Y-77570956D01*
X107478630Y-77644056D01*
X107478619Y-77644061D01*
X107280627Y-77751208D01*
X107280622Y-77751212D01*
X107102961Y-77889492D01*
X107102956Y-77889497D01*
X106950484Y-78055123D01*
X106950476Y-78055134D01*
X106860008Y-78193606D01*
X106806862Y-78238962D01*
X106737631Y-78248386D01*
X106674295Y-78218884D01*
X106652392Y-78193606D01*
X106561923Y-78055134D01*
X106561915Y-78055123D01*
X106409443Y-77889497D01*
X106409438Y-77889492D01*
X106231777Y-77751212D01*
X106231772Y-77751208D01*
X106033780Y-77644061D01*
X106033777Y-77644059D01*
X106033774Y-77644058D01*
X106033771Y-77644057D01*
X106033769Y-77644056D01*
X105820837Y-77570956D01*
X105598769Y-77533900D01*
X105373631Y-77533900D01*
X105151562Y-77570956D01*
X104938630Y-77644056D01*
X104938619Y-77644061D01*
X104740627Y-77751208D01*
X104740622Y-77751212D01*
X104562961Y-77889492D01*
X104562956Y-77889497D01*
X104410484Y-78055123D01*
X104410476Y-78055134D01*
X104320007Y-78193606D01*
X104266860Y-78238963D01*
X104197629Y-78248386D01*
X104134293Y-78218883D01*
X104112391Y-78193606D01*
X104021922Y-78055132D01*
X104021917Y-78055127D01*
X104021915Y-78055123D01*
X103869443Y-77889497D01*
X103869438Y-77889492D01*
X103691777Y-77751212D01*
X103691772Y-77751208D01*
X103493780Y-77644061D01*
X103493777Y-77644059D01*
X103493774Y-77644058D01*
X103493771Y-77644057D01*
X103493769Y-77644056D01*
X103280837Y-77570956D01*
X103058769Y-77533900D01*
X102833631Y-77533900D01*
X102611562Y-77570956D01*
X102398630Y-77644056D01*
X102398619Y-77644061D01*
X102200627Y-77751208D01*
X102200622Y-77751212D01*
X102022961Y-77889492D01*
X102022956Y-77889497D01*
X101870484Y-78055123D01*
X101870476Y-78055134D01*
X101780008Y-78193606D01*
X101726862Y-78238962D01*
X101657631Y-78248386D01*
X101594295Y-78218884D01*
X101572392Y-78193606D01*
X101481923Y-78055134D01*
X101481915Y-78055123D01*
X101329443Y-77889497D01*
X101329438Y-77889492D01*
X101151777Y-77751212D01*
X101151772Y-77751208D01*
X100953780Y-77644061D01*
X100953777Y-77644059D01*
X100953774Y-77644058D01*
X100953771Y-77644057D01*
X100953769Y-77644056D01*
X100740837Y-77570956D01*
X100518769Y-77533900D01*
X100293631Y-77533900D01*
X100071562Y-77570956D01*
X99858630Y-77644056D01*
X99858619Y-77644061D01*
X99660627Y-77751208D01*
X99660622Y-77751212D01*
X99482961Y-77889492D01*
X99482956Y-77889497D01*
X99330484Y-78055123D01*
X99330476Y-78055134D01*
X99240008Y-78193606D01*
X99186862Y-78238962D01*
X99117631Y-78248386D01*
X99054295Y-78218884D01*
X99032392Y-78193606D01*
X98941923Y-78055134D01*
X98941915Y-78055123D01*
X98789443Y-77889497D01*
X98789438Y-77889492D01*
X98611777Y-77751212D01*
X98611772Y-77751208D01*
X98413780Y-77644061D01*
X98413777Y-77644059D01*
X98413774Y-77644058D01*
X98413771Y-77644057D01*
X98413769Y-77644056D01*
X98200837Y-77570956D01*
X97978769Y-77533900D01*
X97753631Y-77533900D01*
X97531562Y-77570956D01*
X97318630Y-77644056D01*
X97318619Y-77644061D01*
X97120627Y-77751208D01*
X97120622Y-77751212D01*
X96942961Y-77889492D01*
X96879748Y-77958160D01*
X96819861Y-77994150D01*
X96750023Y-77992049D01*
X96692407Y-77952524D01*
X96672338Y-77917510D01*
X96627089Y-77796196D01*
X96593414Y-77751212D01*
X96539461Y-77679139D01*
X96422404Y-77591511D01*
X96422403Y-77591510D01*
X96285403Y-77540411D01*
X96224854Y-77533900D01*
X96224838Y-77533900D01*
X94427562Y-77533900D01*
X94427545Y-77533900D01*
X94366997Y-77540411D01*
X94366995Y-77540411D01*
X94229995Y-77591511D01*
X94112939Y-77679139D01*
X94025311Y-77796195D01*
X93974211Y-77933195D01*
X93974211Y-77933197D01*
X93967700Y-77993745D01*
X93967700Y-79791054D01*
X86455206Y-79791054D01*
X86446898Y-77089001D01*
X151601502Y-77089001D01*
X151621456Y-77317081D01*
X151621457Y-77317089D01*
X151680714Y-77538238D01*
X151680718Y-77538249D01*
X151775815Y-77742185D01*
X151777477Y-77745749D01*
X151908802Y-77933300D01*
X152070700Y-78095198D01*
X152258251Y-78226523D01*
X152305137Y-78248386D01*
X152465750Y-78323281D01*
X152465752Y-78323281D01*
X152465757Y-78323284D01*
X152686913Y-78382543D01*
X152849832Y-78396796D01*
X152914998Y-78402498D01*
X152915000Y-78402498D01*
X152915002Y-78402498D01*
X152972021Y-78397509D01*
X153143087Y-78382543D01*
X153364243Y-78323284D01*
X153571749Y-78226523D01*
X153759300Y-78095198D01*
X153921198Y-77933300D01*
X154052523Y-77745749D01*
X154149284Y-77538243D01*
X154208543Y-77317087D01*
X154228498Y-77089001D01*
X159221502Y-77089001D01*
X159241456Y-77317081D01*
X159241457Y-77317089D01*
X159300714Y-77538238D01*
X159300718Y-77538249D01*
X159395815Y-77742185D01*
X159397477Y-77745749D01*
X159528802Y-77933300D01*
X159690700Y-78095198D01*
X159878251Y-78226523D01*
X159925137Y-78248386D01*
X160085750Y-78323281D01*
X160085752Y-78323281D01*
X160085757Y-78323284D01*
X160306913Y-78382543D01*
X160469832Y-78396796D01*
X160534998Y-78402498D01*
X160535000Y-78402498D01*
X160535002Y-78402498D01*
X160592021Y-78397509D01*
X160763087Y-78382543D01*
X160984243Y-78323284D01*
X161191749Y-78226523D01*
X161379300Y-78095198D01*
X161541198Y-77933300D01*
X161651779Y-77775374D01*
X161706354Y-77731751D01*
X161753352Y-77722500D01*
X169430300Y-77722500D01*
X169497339Y-77742185D01*
X169543094Y-77794989D01*
X169554300Y-77846500D01*
X169554300Y-78239951D01*
X169564913Y-78343828D01*
X169620683Y-78512135D01*
X169620684Y-78512138D01*
X169713767Y-78663047D01*
X169713770Y-78663051D01*
X169839148Y-78788429D01*
X169839152Y-78788432D01*
X169990061Y-78881515D01*
X169990064Y-78881516D01*
X170158371Y-78937286D01*
X170158372Y-78937286D01*
X170158375Y-78937287D01*
X170262256Y-78947900D01*
X170262261Y-78947900D01*
X171288339Y-78947900D01*
X171288344Y-78947900D01*
X171392225Y-78937287D01*
X171560538Y-78881515D01*
X171711451Y-78788430D01*
X171836830Y-78663051D01*
X171929915Y-78512138D01*
X171985687Y-78343825D01*
X171996300Y-78239944D01*
X171996300Y-77364400D01*
X172537800Y-77364400D01*
X172537800Y-78239385D01*
X172548293Y-78342089D01*
X172548294Y-78342096D01*
X172603441Y-78508518D01*
X172603443Y-78508523D01*
X172695484Y-78657744D01*
X172819455Y-78781715D01*
X172968676Y-78873756D01*
X172968681Y-78873758D01*
X173135103Y-78928905D01*
X173135110Y-78928906D01*
X173237814Y-78939399D01*
X173237827Y-78939400D01*
X173500300Y-78939400D01*
X173500300Y-77364400D01*
X174000300Y-77364400D01*
X174000300Y-78939400D01*
X174262773Y-78939400D01*
X174262785Y-78939399D01*
X174365489Y-78928906D01*
X174365496Y-78928905D01*
X174531918Y-78873758D01*
X174531923Y-78873756D01*
X174681144Y-78781715D01*
X174805115Y-78657744D01*
X174897156Y-78508523D01*
X174897158Y-78508518D01*
X174952305Y-78342096D01*
X174952306Y-78342089D01*
X174962799Y-78239385D01*
X174962800Y-78239372D01*
X174962800Y-78140054D01*
X221653500Y-78140054D01*
X221660011Y-78200602D01*
X221660011Y-78200604D01*
X221705769Y-78323281D01*
X221711111Y-78337604D01*
X221798739Y-78454661D01*
X221915796Y-78542289D01*
X222045382Y-78590622D01*
X222101313Y-78632493D01*
X222125730Y-78697957D01*
X222110878Y-78766230D01*
X222089728Y-78794484D01*
X221973886Y-78910326D01*
X221838400Y-79103820D01*
X221838399Y-79103822D01*
X221738570Y-79317907D01*
X221738567Y-79317913D01*
X221681364Y-79531399D01*
X221681364Y-79531400D01*
X222398653Y-79531400D01*
X222465692Y-79551085D01*
X222511447Y-79603889D01*
X222521391Y-79673047D01*
X222517631Y-79690333D01*
X222512000Y-79709511D01*
X222512000Y-79853288D01*
X222517631Y-79872467D01*
X222517630Y-79942336D01*
X222479855Y-80001114D01*
X222416299Y-80030138D01*
X222398653Y-80031400D01*
X221681364Y-80031400D01*
X221738567Y-80244886D01*
X221738570Y-80244892D01*
X221838399Y-80458978D01*
X221973894Y-80652482D01*
X222140917Y-80819505D01*
X222334421Y-80955000D01*
X222548507Y-81054829D01*
X222548516Y-81054833D01*
X222762000Y-81112034D01*
X222762000Y-80393701D01*
X222781685Y-80326662D01*
X222834489Y-80280907D01*
X222903647Y-80270963D01*
X222976237Y-80281400D01*
X222976238Y-80281400D01*
X223047762Y-80281400D01*
X223047763Y-80281400D01*
X223120353Y-80270963D01*
X223189512Y-80280907D01*
X223242315Y-80326662D01*
X223262000Y-80393701D01*
X223262000Y-81112033D01*
X223475483Y-81054833D01*
X223475492Y-81054829D01*
X223689578Y-80955000D01*
X223883082Y-80819505D01*
X224050105Y-80652482D01*
X224185600Y-80458978D01*
X224285429Y-80244892D01*
X224285432Y-80244886D01*
X224342636Y-80031400D01*
X223625347Y-80031400D01*
X223558308Y-80011715D01*
X223512553Y-79958911D01*
X223502609Y-79889753D01*
X223506369Y-79872467D01*
X223512000Y-79853288D01*
X223512000Y-79709511D01*
X223506369Y-79690333D01*
X223506370Y-79620464D01*
X223544145Y-79561686D01*
X223607701Y-79532662D01*
X223625347Y-79531400D01*
X224342636Y-79531400D01*
X224342635Y-79531399D01*
X224285432Y-79317913D01*
X224285429Y-79317907D01*
X224185600Y-79103822D01*
X224185599Y-79103820D01*
X224050113Y-78910326D01*
X224050108Y-78910320D01*
X223934272Y-78794484D01*
X223900787Y-78733161D01*
X223905771Y-78663469D01*
X223947643Y-78607536D01*
X223978612Y-78590624D01*
X224108204Y-78542289D01*
X224225261Y-78454661D01*
X224312889Y-78337604D01*
X224363989Y-78200601D01*
X224367692Y-78166159D01*
X224370499Y-78140054D01*
X224370500Y-78140037D01*
X224370500Y-76342762D01*
X224370499Y-76342745D01*
X224367157Y-76311670D01*
X224363989Y-76282199D01*
X224350002Y-76244700D01*
X224341522Y-76221964D01*
X224312889Y-76145196D01*
X224225261Y-76028139D01*
X224108204Y-75940511D01*
X224103593Y-75938791D01*
X223971203Y-75889411D01*
X223910654Y-75882900D01*
X223910638Y-75882900D01*
X222113362Y-75882900D01*
X222113345Y-75882900D01*
X222052797Y-75889411D01*
X222052795Y-75889411D01*
X221915795Y-75940511D01*
X221798739Y-76028139D01*
X221711111Y-76145195D01*
X221660011Y-76282195D01*
X221660011Y-76282197D01*
X221653500Y-76342745D01*
X221653500Y-78140054D01*
X174962800Y-78140054D01*
X174962800Y-77364400D01*
X174000300Y-77364400D01*
X173500300Y-77364400D01*
X172537800Y-77364400D01*
X171996300Y-77364400D01*
X171996300Y-76864400D01*
X172537800Y-76864400D01*
X173500300Y-76864400D01*
X173500300Y-75289400D01*
X174000300Y-75289400D01*
X174000300Y-76864400D01*
X174962800Y-76864400D01*
X174962800Y-75989427D01*
X174962799Y-75989414D01*
X174952306Y-75886710D01*
X174952304Y-75886699D01*
X174897158Y-75720281D01*
X174897156Y-75720276D01*
X174805115Y-75571055D01*
X174681144Y-75447084D01*
X174531923Y-75355043D01*
X174531918Y-75355041D01*
X174365496Y-75299894D01*
X174365489Y-75299893D01*
X174262785Y-75289400D01*
X174000300Y-75289400D01*
X173500300Y-75289400D01*
X173237814Y-75289400D01*
X173135110Y-75299893D01*
X173135103Y-75299894D01*
X172968681Y-75355041D01*
X172968676Y-75355043D01*
X172819455Y-75447084D01*
X172695484Y-75571055D01*
X172603443Y-75720276D01*
X172603441Y-75720281D01*
X172548296Y-75886699D01*
X172548293Y-75886710D01*
X172537800Y-75989414D01*
X172537800Y-76864400D01*
X171996300Y-76864400D01*
X171996300Y-75988856D01*
X171985687Y-75884975D01*
X171985686Y-75884971D01*
X171929916Y-75716664D01*
X171929915Y-75716661D01*
X171836832Y-75565752D01*
X171836829Y-75565748D01*
X171711451Y-75440370D01*
X171711447Y-75440367D01*
X171560538Y-75347284D01*
X171560535Y-75347283D01*
X171392228Y-75291513D01*
X171288351Y-75280900D01*
X171288344Y-75280900D01*
X170262256Y-75280900D01*
X170262248Y-75280900D01*
X170158371Y-75291513D01*
X169990064Y-75347283D01*
X169990061Y-75347284D01*
X169839152Y-75440367D01*
X169839148Y-75440370D01*
X169713770Y-75565748D01*
X169713767Y-75565752D01*
X169620684Y-75716661D01*
X169620683Y-75716664D01*
X169564913Y-75884971D01*
X169554300Y-75988848D01*
X169554300Y-76331500D01*
X169534615Y-76398539D01*
X169481811Y-76444294D01*
X169430300Y-76455500D01*
X161753352Y-76455500D01*
X161686313Y-76435815D01*
X161651779Y-76402626D01*
X161541198Y-76244700D01*
X161379300Y-76082802D01*
X161191749Y-75951477D01*
X161191745Y-75951475D01*
X160984249Y-75854718D01*
X160984238Y-75854714D01*
X160763089Y-75795457D01*
X160763081Y-75795456D01*
X160535002Y-75775502D01*
X160534998Y-75775502D01*
X160306918Y-75795456D01*
X160306910Y-75795457D01*
X160085761Y-75854714D01*
X160085750Y-75854718D01*
X159878254Y-75951475D01*
X159878252Y-75951476D01*
X159824053Y-75989427D01*
X159690700Y-76082802D01*
X159690698Y-76082803D01*
X159690695Y-76082806D01*
X159528806Y-76244695D01*
X159528803Y-76244698D01*
X159528802Y-76244700D01*
X159502545Y-76282199D01*
X159397476Y-76432252D01*
X159397475Y-76432254D01*
X159300718Y-76639750D01*
X159300714Y-76639761D01*
X159241457Y-76860910D01*
X159241456Y-76860918D01*
X159221502Y-77088998D01*
X159221502Y-77089001D01*
X154228498Y-77089001D01*
X154228498Y-77089000D01*
X154208543Y-76860913D01*
X154149284Y-76639757D01*
X154052523Y-76432251D01*
X153921198Y-76244700D01*
X153759300Y-76082802D01*
X153571749Y-75951477D01*
X153571745Y-75951475D01*
X153364249Y-75854718D01*
X153364238Y-75854714D01*
X153143089Y-75795457D01*
X153143081Y-75795456D01*
X152915002Y-75775502D01*
X152914998Y-75775502D01*
X152686918Y-75795456D01*
X152686910Y-75795457D01*
X152465761Y-75854714D01*
X152465750Y-75854718D01*
X152258254Y-75951475D01*
X152258252Y-75951476D01*
X152204053Y-75989427D01*
X152070700Y-76082802D01*
X152070698Y-76082803D01*
X152070695Y-76082806D01*
X151908806Y-76244695D01*
X151908803Y-76244698D01*
X151908802Y-76244700D01*
X151882545Y-76282199D01*
X151777476Y-76432252D01*
X151777475Y-76432254D01*
X151680718Y-76639750D01*
X151680714Y-76639761D01*
X151621457Y-76860910D01*
X151621456Y-76860918D01*
X151601502Y-77088998D01*
X151601502Y-77089001D01*
X86446898Y-77089001D01*
X86436582Y-73733668D01*
X86456060Y-73666572D01*
X86508723Y-73620655D01*
X86560668Y-73609290D01*
X226114080Y-73710710D01*
G37*
%TD.AperFunction*%
%TD*%
M02*
